<?xml version="1.0" encoding="UTF-8" standalone="no"?>
<!-- Created with Inkscape (http://www.inkscape.org/) -->

<svg
   version="1.1"
   id="svg1"
   width="490.66666"
   height="562.66669"
   viewBox="0 0 490.66666 562.66669"
   sodipodi:docname="aboutus_cat.svg"
   inkscape:version="1.4.2 (f4327f4, 2025-05-13)"
   inkscape:export-filename="aboutus_cat1.svg"
   inkscape:export-xdpi="96"
   inkscape:export-ydpi="96"
   xmlns:inkscape="http://www.inkscape.org/namespaces/inkscape"
   xmlns:sodipodi="http://sodipodi.sourceforge.net/DTD/sodipodi-0.dtd"
   xmlns="http://www.w3.org/2000/svg"
   xmlns:svg="http://www.w3.org/2000/svg">
  <defs
     id="defs1" />
  <sodipodi:namedview
     id="namedview1"
     pagecolor="#ffffff"
     bordercolor="#000000"
     borderopacity="0.25"
     inkscape:showpageshadow="2"
     inkscape:pageopacity="0.0"
     inkscape:pagecheckerboard="0"
     inkscape:deskcolor="#d1d1d1"
     inkscape:zoom="0.7364299"
     inkscape:cx="43.45288"
     inkscape:cy="361.20206"
     inkscape:window-width="1440"
     inkscape:window-height="830"
     inkscape:window-x="-6"
     inkscape:window-y="-6"
     inkscape:window-maximized="1"
     inkscape:current-layer="text1" />
  <g
     inkscape:groupmode="layer"
     inkscape:label="Image"
     id="g1">
    <g
       id="g5146"
       transform="translate(3.9089644,-0.16474107)">
      <path
         style="fill:#fcdd9f"
         d="m 348.99999,560.45031 c 0.91667,-0.36988 2.41667,-0.36988 3.33334,0 0.91666,0.36989 0.16666,0.67252 -1.66667,0.67252 -1.83333,0 -2.58333,-0.30263 -1.66667,-0.67252 z m -206.66666,-2.66666 c 0.91667,-0.36989 2.41667,-0.36989 3.33333,0 0.91667,0.36988 0.16667,0.67251 -1.66666,0.67251 -1.83334,0 -2.58334,-0.30263 -1.66667,-0.67251 z m -8.64129,-1.37428 c 1.29729,-0.33806 3.09729,-0.31583 4,0.0494 0.90271,0.36523 -0.15871,0.64182 -2.35871,0.61465 -2.2,-0.0272 -2.93858,-0.326 -1.64129,-0.66405 z m 259.39129,0.0132 c 0.9625,-0.38516 2.1125,-0.33779 2.55555,0.10527 0.44306,0.44305 -0.34444,0.75819 -1.75,0.70029 -1.55326,-0.064 -1.8692,-0.37992 -0.80555,-0.80556 z m -207.11091,-8.21314 c -14.44079,-4.94294 -35.30576,-20.87564 -35.30576,-26.95983 0,-0.62079 -2.25,-1.49046 -5,-1.93261 -10.08478,-1.62144 -11.35068,-2.20476 -17.7259,-8.16803 C 121.23381,504.87535 116,496.00538 116,490.91239 c 0,-2.80611 -0.502,-2.91237 -13.758,-2.91237 -54.825835,0 -84.383702,-45.85644 -73.051718,-113.33334 4.729443,-28.16172 3.55704,-33.03322 -11.02687,-45.81811 -25.7388105,-22.56378 -5.896337,-49.04918 25.477444,-34.00687 26.710656,12.80655 37.75658,43.29302 30.371648,83.82498 -7.822151,42.93161 3.543681,68 30.830726,68 h 9.65448 l 0.41781,-4.33333 c 1.17885,-12.22649 -0.40941,-29 -2.74597,-29 -7.01774,0 -19.532765,-12.38511 -24.251763,-24 -6.470303,-15.92539 3.146765,-38.87944 19.512363,-46.57218 l 6.01864,-2.82909 -0.39107,-9.62775 -0.39106,-9.62775 -13.153572,-7.84007 C 46.5277,281.25504 27.771189,217.88933 52.858584,155.22214 l 3.388285,-8.46378 -2.867664,-4.02727 C 33.909459,115.38836 26.930657,58.951364 39.880437,33.567695 54.872386,4.1810459 108.60392,5.6361262 153.91273,36.655754 l 9.03165,6.18331 8.19448,-3.25336 C 215.15164,22.1118 268.4585,21.843257 321.59382,38.82776 c 4.77358,1.525857 5.25109,1.36013 15.31966,-5.316944 39.89907,-26.459486 92.06984,-27.6983021 110.58374,-2.625856 13.98972,18.945575 9.80268,68.874483 -8.20874,97.88618 l -5.85931,9.4378 4.61927,10.68429 c 19.31616,44.678 15.34607,98.86378 -9.93588,135.60983 -5.3499,7.77582 -5.60863,7.4392 5.5541,7.22625 16.74649,-0.31947 28.04084,5.75328 33.83253,18.19109 l 3.14142,6.74628 0.013,88.76091 0.013,88.76092 -3.66667,7.22993 c -8.39981,16.56274 -15.80404,18.7047 -64.0774,18.53684 l -35.24989,-0.12258 -2.48875,4.09242 c -19.26445,31.67785 -72.76722,37.60392 -100.08727,11.08585 l -6.23664,-6.05357 -6.90671,6.04182 c -18.17394,15.89812 -43.38289,20.94526 -65.98091,13.21017 z m -15.30576,-28.20937 c 0,-0.73333 -0.63541,-1.33333 -1.41202,-1.33333 -0.77661,0 -1.0412,0.6 -0.58798,1.33333 0.45323,0.73333 1.08864,1.33333 1.41203,1.33333 0.32338,0 0.58797,-0.6 0.58797,-1.33333 z m 275.38708,-18.11487 c 15.41844,-7.31653 14.42068,-184.18362 1.59137,-191.94372 -6.41182,-3.87834 -298.69285,-4.78657 -306.2852,-0.95175 -7.68785,3.88306 -10.69325,9.79887 -10.69325,21.04854 v 9.64385 l 7.43453,3.76153 c 20.68821,10.46728 25.88335,37.31402 11.20867,57.92271 -2.72513,3.82709 -13.63779,11.96704 -16.04337,11.96704 -0.7707,0 -1.26649,15.16267 -1.26649,38.73288 0,42.8276 0.26085,44.35955 8.39806,49.3211 6.00687,3.6626 297.98427,4.13814 305.65568,0.49782 z M 131.99461,395.84283 c 14.28086,-8.02629 14.17528,-31.84861 -0.17403,-39.26893 -5.29976,-2.74061 -6.53643,-2.34185 -1.82058,0.58705 18.96723,11.78008 12.90604,40.29021 -8.53051,40.12515 -7.42028,-0.0571 -10.99553,-1.88864 -15.43611,-7.9075 -3.65006,-4.94738 -4.74845,-3.94463 -1.2111,1.10564 5.71715,8.16238 17.90659,10.56623 27.17233,5.35859 z m -29.75046,-14.75948 c -0.42564,-1.06365 -0.74158,-0.7477 -0.80556,0.80555 -0.0579,1.40556 0.25724,2.19306 0.7003,1.75 0.44305,-0.44305 0.49042,-1.59305 0.10526,-2.55555 z m 0.4021,-8.29953 c 0.0616,-7.69541 7.93635,-15.59991 18.02041,-18.08856 L 126,353.37905 l -5.85964,0.69043 c -7.27419,0.8571 -12.79163,4.67033 -15.97808,11.04282 -2.70333,5.40634 -5.087262,15.63778 -2.8475,12.22105 0.72108,-1.1 1.32024,-3.14729 1.33147,-4.54953 z m 24.03554,-72.11714 3.30852,-4 -4.06812,3.66666 c -4.86311,4.38322 -5.81379,4.45639 -12.64198,0.97291 C 110.37609,299.82467 108,298.95228 108,299.36759 c 0,1.31908 13.91686,7.25978 14.66079,6.25827 0.39187,-0.52755 2.20132,-2.75918 4.021,-4.95918 z m -20.01513,-2.55792 c 0,-0.30686 -2.25,-1.92634 -5,-3.59884 -2.749995,-1.67251 -9.199995,-6.96676 -14.333328,-11.765 -5.133334,-4.79825 -7.533334,-6.67949 -5.333334,-4.18054 7.961464,9.04331 24.666662,22.27951 24.666662,19.54438 z m 163.90076,-5.78062 c 121.44516,-0.3165 130.06968,-0.49008 132.49579,-2.66666 42.60717,-38.22505 39.98264,-127.52409 -5.24498,-178.46 -1.3667,-1.53919 -4.28628,-4.83919 -6.48795,-7.33334 -79.94694,-90.566957 -253.55893,-76.101402 -307.721704,25.63974 -2.299674,4.31978 -2.299674,4.36607 0,1.20654 9.358216,-12.8573 13.704605,-18.02224 23.400064,-27.80703 72.32434,-72.990661 184.88345,-79.871705 264.07182,-16.143427 64.84158,52.182447 81.73211,145.824557 35.4391,196.476497 l -6.78715,7.42622 -128.86621,0.0293 c -134.95055,0.0307 -140.19954,0.24922 -140.19954,5.83749 0,0.3651 2.25,-0.35556 5,-1.60147 4.57784,-2.07404 15.96787,-2.29389 134.90076,-2.60384 z M 75.78917,269.33334 c -2.985422,-4.038 -4.74887,-5.4103 -2.998388,-2.33333 1.241161,2.1817 4.817544,6.33333 5.455783,6.33333 0.274963,0 -0.830864,-1.8 -2.457395,-4 z m -5.367677,-8.6723 c -0.836735,-1.83643 -1.772484,-3.08782 -2.079442,-2.78086 -0.622731,0.62273 2.080631,6.11983 3.009607,6.11983 0.325144,0 -0.09343,-1.50254 -0.930165,-3.33897 z m 55.903477,-2.40788 c 7.1546,-3.16077 14.50836,-6.42016 16.34169,-7.24309 1.83334,-0.82294 2.63655,-1.53686 1.78493,-1.58649 -0.85163,-0.0496 -8.63095,2.94235 -17.28738,6.64884 -17.03787,7.29524 -21.18427,7.63478 -22.63527,1.85356 -1.43669,-5.72423 3.0007,-8.90647 26.13772,-18.74449 4.03334,-1.715 6.50416,-3.13243 5.49071,-3.14983 -8.50923,-0.14615 -33.49071,14.84645 -33.49071,20.09939 0,9.05452 6.62186,9.64849 23.65831,2.12211 z m 273.37835,3.67124 c 4.87124,-3.41195 3.9739,-9.22031 -2.03666,-13.18296 -5.28934,-3.48717 -22.94099,-10.57822 -23.91289,-9.60632 -0.31533,0.31533 3.63591,2.18178 8.78054,4.14765 13.48974,5.15472 18.13235,8.59513 18.13235,13.43702 0,7.39161 -11.29168,5.60479 -34.50966,-5.4609 -5.04698,-2.40539 -8.25893,-3.45604 -7.13767,-2.33478 2.8737,2.8737 31.37475,14.85944 35.68399,15.00643 1.12016,0.0382 3.37016,-0.86455 5,-2.00614 z M 65.426529,247.89312 c -1.410762,-3.97454 -2.608861,-6.58333 -2.662443,-5.7973 -0.13726,2.01358 4.092996,14.15822 4.714981,13.53623 0.281866,-0.28186 -0.641776,-3.76438 -2.052538,-7.73893 z m -3.500604,-13.81904 c -0.501983,-2.67579 -1.212695,-4.56508 -1.579362,-4.19841 -0.366667,0.36666 -0.255954,2.85595 0.246028,5.53175 0.501983,2.67579 1.212695,4.56508 1.579362,4.19841 0.366667,-0.36666 0.255954,-2.85595 -0.246028,-5.53175 z m 308.740735,3.25926 c -1.1,-0.71087 -2.9,-1.25951 -4,-1.2192 -1.31874,0.0483 -1.09165,0.46363 0.66667,1.2192 3.66544,1.5751 5.77062,1.5751 3.33333,0 z M 59.656663,203.05546 c -0.257237,-4.9805 -0.469612,-1.25545 -0.471944,8.27788 -0.0023,9.53333 0.208134,13.60829 0.467703,9.05545 0.25957,-4.55283 0.261478,-12.35283 0.0042,-17.33333 z m 58.569067,22.72583 c -0.48696,-0.48696 -3.42469,-0.78588 -6.52828,-0.66427 -9.16164,0.35899 -14.364119,-1.95555 -14.364119,-6.39049 0,-6.26494 3.668929,-7.41425 31.333329,-9.81535 3.422,-0.29701 2.22741,-0.53961 -3.33333,-0.67696 -11.99634,-0.29631 -25.407399,2.05521 -27.562151,4.83281 -2.807577,3.61912 -1.620947,9.94562 2.228819,11.88292 3.385322,1.70357 19.848932,2.45454 18.225732,0.83134 z m 282.19525,-0.64755 c 9.99744,-5.26224 5.13208,-16.01766 -7.051,-15.58702 -5.26726,0.18619 -5.44187,0.27726 -1.36999,0.71457 8.53676,0.91681 12,2.99564 12,7.20307 0,6.78487 -4.02633,8.09472 -22.87502,7.44169 -11.40843,-0.39526 -13.39003,-0.28765 -6.45831,0.3507 16.50106,1.51961 22.68976,1.49005 25.75432,-0.12301 z M 141.42099,223.9531 C 142.83944,223.19396 144,221.90097 144,221.07978 c 0,-0.859 -1.00367,-0.58477 -2.36337,0.64574 -1.55384,1.40621 -5.55004,2.30096 -11.66666,2.61217 l -9.30331,0.47336 9.08766,0.26114 c 4.99821,0.14364 10.24821,-0.35996 11.66667,-1.11909 z m 106.94082,-6.84748 c 2.89861,-1.13957 5.3051,-0.94634 11.16362,0.89639 16.75373,5.26969 40.21408,-9.47677 28.8079,-18.10777 -1.98504,-1.50207 -2.08455,-1.48663 -0.66667,0.1034 8.77334,9.83859 -14.93506,22.12452 -30.33333,15.71905 -3.88644,-1.61671 -5.33544,-1.6539 -8.66667,-0.22245 -14.77621,6.34943 -38.01299,-5.40717 -28.83245,-14.58771 l 2.79125,-2.79125 6.05627,2.94236 c 7.59938,3.69207 12.33159,3.71096 19.80709,0.0791 l 5.89349,-2.86328 4.53553,2.8031 c 6.57343,4.06261 12.58789,4.01031 20.40488,-0.17742 3.66083,-1.96118 5.76083,-3.56184 4.66667,-3.557 -1.09417,0.005 -3.7894,1.20087 -5.9894,2.65788 -5.18437,3.43348 -11.1514,3.36818 -18.50085,-0.20246 l -5.90552,-2.86913 -5.50454,2.86913 c -6.85126,3.57108 -11.38909,3.62277 -17.77066,0.20246 -13.26599,-7.11014 -19.73832,6.06027 -7.32276,14.90093 7.08783,5.04698 16.13616,5.83341 25.36615,2.20468 z m 117.47056,-7.69821 c -0.31522,-0.32592 -1.90645,0.81051 -3.53608,2.5254 l -2.96296,3.11799 3.53607,-2.52539 c 1.94485,-1.38897 3.27818,-2.79207 2.96297,-3.118 z m -186.50466,-0.0688 c 3.77945,-3.55061 6.06284,-11.23517 5.79224,-19.49331 -0.16991,-5.1853 -0.31454,-5.56124 -0.70991,-1.8453 -1.86092,17.4903 -5.82828,23.97995 -14.66903,23.99501 -12.37547,0.0211 -16.15844,-33.7062 -4.48153,-39.95549 6.17502,-3.30477 13.70027,-0.38987 16.71864,6.47596 1.97017,4.48153 2.06463,4.53863 1.35309,0.81785 -3.61046,-18.87969 -24.87986,-11.50363 -25.80872,8.95025 -0.9784,21.54471 10.00003,32.14543 21.80522,21.05503 z m 149.77361,1.7119 c -6.02819,-3.73976 -8.33388,-15.88773 -5.60511,-29.53157 2.27112,-11.35564 16.2982,-14.94083 21.21976,-5.42358 5.5764,10.78357 1.84795,30.35672 -6.57699,34.52707 -3.00978,1.48984 -4.57232,2.70703 -3.47232,2.70487 10.32649,-0.0203 17.17823,-16.83879 13.23683,-32.49152 -2.58854,-10.28001 -12.02487,-14.73745 -19.74767,-9.32819 -10.91574,7.64568 -8.66072,42.01892 2.74161,41.79026 0.97308,-0.0195 0.16483,-1.03082 -1.79611,-2.24734 z m -189.76799,-0.38385 c -0.45322,-0.73333 -1.83863,-1.29116 -3.07869,-1.23962 -1.83799,0.0764 -1.76185,0.30548 0.41202,1.23962 3.56789,1.53318 3.61422,1.53318 2.66667,0 z m 239,-2.28834 c -2.01667,-0.30549 -5.31667,-0.30549 -7.33334,0 -2.01666,0.3055 -0.36666,0.55546 3.66667,0.55546 4.03333,0 5.68333,-0.24996 3.66667,-0.55546 z M 60.923986,188.35872 c -0.338058,-1.29729 -0.636883,-0.55871 -0.664056,1.64129 -0.02717,2.2 0.24942,3.26142 0.614651,2.35871 0.365231,-0.90271 0.387463,-2.70271 0.04941,-4 z m 1.292387,-7.35871 c -0.369883,-0.91667 -0.672515,-0.16667 -0.672515,1.66666 0,1.83334 0.302632,2.58334 0.672515,1.66667 0.369883,-0.91667 0.369883,-2.41667 0,-3.33333 z m 2.929532,-9 c 0,-1.26064 -0.42362,-1.01419 -1.145906,0.66666 -0.630249,1.46667 -1.145906,3.56667 -1.145906,4.66667 0,1.26064 0.423619,1.01418 1.145906,-0.66667 0.630248,-1.46666 1.145906,-3.56666 1.145906,-4.66666 z m 11.352003,-27.66667 c 2.677922,-5.31667 4.524567,-9.66667 4.103658,-9.66667 -1.188143,0 -13.666622,26.83948 -14.567806,31.33334 -0.441182,2.2 0.637255,0.4 2.396526,-4 1.759271,-4.4 5.389701,-12.35 8.067622,-17.66667 z M 69.080029,122.9835 72.160059,118 l -3.916463,4.58343 -3.916463,4.58342 -2.011955,-3.91676 C 56.444693,111.82178 51.219148,88.202802 50.238947,68.666669 l -0.401389,-8 -0.252113,9.492013 c -0.426655,16.063531 6.199798,45.210198 12.445645,54.742568 2.705521,4.12915 3.434204,3.9309 7.048939,-1.91775 z M 433.34173,104.28332 c 1.46204,-3.87751 2.62599,-8.077509 2.58656,-9.333333 -0.0394,-1.255825 -1.13862,1.016683 -2.44263,5.050013 -6.46026,19.98181 -7.74736,20.77579 -15.67045,9.66667 -3.53037,-4.95 -11.74383,-14.327014 -18.25214,-20.83781 -6.50831,-6.510796 -11.32249,-12.21405 -10.69819,-12.673898 7.46225,-5.496478 25.91726,-16.986485 31.42783,-19.566827 3.87234,-1.813235 5.54061,-2.910356 3.70728,-2.438048 -1.83333,0.472309 -5.73333,2.05243 -8.66667,3.511381 -4.71831,2.346747 -8.8659,5.006456 -25.52666,16.369393 l -4.19333,2.859927 12.38553,12.301546 c 6.81204,6.765851 15.58115,16.769876 19.48691,22.231176 l 7.10139,9.92963 3.04815,-5.0099 c 1.67648,-2.75545 4.24437,-8.18241 5.70642,-12.05992 z M 78.744054,109.66667 C 81.896165,105.45 89.304399,97.019557 95.206797,90.932345 101.30141,84.646901 105.35922,79.461831 104.59794,78.932344 67.486092,53.120211 50.475306,45.699916 50.880048,55.500002 c 0.21054,5.097833 0.220668,5.107322 0.760175,0.712258 0.814621,-6.636262 15.140305,-1.563208 37.234265,13.185509 17.067072,11.39304 16.591412,9.440938 5.147093,21.123861 -8.624091,8.803893 -22.021582,24.80762 -22.021582,26.30547 0,1.43945 1.528448,-0.18336 6.744055,-7.16043 z M 438.97663,74.666669 c 0.43212,-6.632711 0.30951,-9.397783 -0.29561,-6.666667 -1.37968,6.227034 -2.66935,25.584809 -1.42128,21.333335 0.53819,-1.833334 1.3108,-8.433334 1.71689,-14.666668 z M 438.0789,49.634465 c -1.39632,-1.396321 -1.6099,0.358192 -0.85604,7.032204 l 0.75304,6.666667 0.42429,-6.476648 c 0.23335,-3.562156 0.0888,-6.812157 -0.32129,-7.222223 z m -5.41224,2.365537 c 1.75832,-0.755576 1.9854,-1.170873 0.66666,-1.219203 -1.1,-0.04031 -2.9,0.508328 -4,1.219203 -2.43728,1.575097 -0.33211,1.575097 3.33334,0 z"
         id="path5149"
         sodipodi:nodetypes="ssssssssssssssssssssssssssscsssscccsscssscssssscsssscccsscsscsssssssssssscssssssssssssssssssscssssscssssssssssssscsscsscsssssssssssssssssssssssssssssssssssssssssssscssccssssssssssssssssssscssssssssscsscsscsscssssssscsssssssssssssssssssssssssssssssssssssssssssssssscccsscssssssssssssscsscssssssssssssssssscssssss" />
      <path
         style="fill:#f1a0a2"
         d="m 189.99706,549.51725 c -15.44844,-4.42589 -32.88694,-16.7448 -38.69529,-27.33515 -0.91367,-1.66589 -3.73653,-2.85983 -8.56687,-3.6234 -11.38845,-1.80028 -24.50122,-14.45863 -26.23968,-25.33036 l -0.83604,-5.22832 h -13.58759 c -54.333501,0 -84.431494,-46.60859 -72.894339,-112.88136 4.913002,-28.22171 3.63827,-33.39265 -11.551773,-46.85964 -10.8119269,-9.5855 -13.064982,-14.21248 -11.124979,-22.84681 6.010712,-26.75172 48.064948,-14.91547 63.673879,17.92114 7.78252,16.37213 8.057011,23.78016 2.409768,65.0354 -4.935654,36.05682 6.013865,57.00288 30.376514,58.10924 12.6169,0.57297 12.99476,0.24922 13.00733,-11.14464 0.0156,-14.10564 -1.3929,-22 -3.92512,-22 -1.23879,0 -5.07374,-1.86881 -8.52209,-4.1529 -24.395633,-16.159 -22.52755,-52.83739 3.35919,-65.95519 l 6.45336,-3.27017 v -9.10422 c 0,-10.57496 0.21082,-10.31239 -15.21295,-18.94687 C 47.719469,283.68873 28.408253,216.63593 52.945205,155.04585 l 3.301664,-8.28749 -2.869404,-4.02971 C 28.76487,108.16345 26.28928,42.493132 48.852065,22.682743 69.488177,4.5639954 124.05685,12.571011 155.83332,38.380403 l 5.83333,4.737928 6.16667,-2.384038 c 47.25103,-18.267255 122.88863,-18.544158 156.46839,-0.572819 1.91312,1.023873 3.34778,0.581917 6.37227,-1.96303 32.91781,-27.698511 90.0863,-33.7535247 112.51495,-11.917047 18.85869,18.36077 16.21182,72.715907 -5.07617,104.242223 l -4.8552,7.19027 4.70067,10.94431 c 19.31052,44.95956 15.27435,99.23096 -10.13282,136.24871 -5.06652,7.38183 -5.34674,7.0931 6.88407,7.0931 16.61836,0 27.10605,5.71351 32.7543,17.84396 l 3.17683,6.82271 0.013,88.84775 0.013,88.84774 -3.72365,7.12789 c -8.6642,16.58517 -15.97486,18.68928 -64.07741,18.44236 l -35.14384,-0.18039 -2.31198,3.79066 c -19.44087,31.87478 -71.99785,37.92589 -100.20916,11.5375 l -6.44528,-6.0288 -7.07391,6.04343 c -17.23309,14.7227 -41.13211,20.31053 -61.68437,14.42243 z m 26.43775,-14.88592 c 10.76999,-1.5571 21.48532,-6.31448 26.8614,-11.9259 l 3.86936,-4.03874 h -39.61352 -39.61353 l 2.17629,3.32143 c 2.85031,4.35012 16.62955,11.00995 25.88519,12.51092 10.00058,1.62178 10.12676,1.6226 20.43481,0.13229 z m -29.33659,-4.09231 c -4.5293,-1.5661 -10.18488,-4.4752 -12.56793,-6.46467 l -4.33284,-3.6172 36.34321,0.10477 36.3432,0.10477 -4.33304,3.6178 c -10.20207,8.51807 -35.87921,11.63936 -51.4526,6.25453 z m 142.15674,1.9002 c 7.0822,-1.94775 16.47039,-7.42519 19.98498,-11.66001 1.59338,-1.91991 -1.93155,-2.11252 -38.65948,-2.11252 h -40.41271 l 3.71437,3.87696 c 10.77972,11.25161 34.82055,15.5479 55.37284,9.89557 z m -33.59374,-0.47086 c -6.01837,-1.5177 -17.25672,-7.06922 -19.29429,-9.531 -1.21212,-1.46447 4.75148,-1.77077 34.48496,-1.77125 35.48376,-5.7e-4 35.91069,0.0322 32.88265,2.52759 -9.97115,8.217 -33.35757,12.48564 -48.07332,8.77466 z m 150.87365,-29.90019 c 9.21471,-4.76511 8.75787,-0.0261 9.16949,-95.12053 0.41937,-96.88589 0.84968,-92.50517 -9.58262,-97.55536 -8.73038,-4.2263 -298.87446,-4.28906 -305.8006,-0.0661 -7.06231,4.30595 -9.64375,9.89399 -9.64949,20.88826 l -0.005,9.54773 6.1444,2.97445 c 26.92658,13.03494 28.01142,52.8302 1.84087,67.5289 l -6.64922,3.73453 -0.001,38.39955 c -0.001,42.46207 0.26744,44.03106 8.39671,48.98777 5.74866,3.50516 299.41222,4.15826 306.13681,0.68084 z M 113.62032,472.48932 c 1.31548,-0.81302 1.33355,-7.31639 0.0259,-9.33438 -0.53877,-0.83147 -5.55565,-1.73939 -11.14861,-2.01762 -35.645634,-1.77322 -51.44672,-30.09341 -44.443041,-79.65501 6.47212,-45.80002 -5.064821,-74.43318 -30.133093,-74.78635 -8.342912,-0.11754 -7.316632,3.3484 4.379103,14.78904 16.544082,16.18324 18.246039,23.40462 13.005394,55.18168 -8.541165,51.79002 7.029066,85.61842 44.166837,95.95836 6.583469,1.83298 21.09401,1.75142 24.14748,-0.13572 z M 87.999998,470.7756 C 52.782331,459.73084 37.493886,423.13694 47.07769,372.82536 52.397575,344.89785 46.974954,328.483 28.110618,315.41 c -10.769223,-7.46307 -0.837121,-9.6831 11.523181,-2.57566 15.961981,9.17849 22.320874,28.69498 18.408593,56.49901 -4.664454,33.14961 -4.801328,35.05258 -3.26015,45.32591 4.262976,28.41655 20.098569,44.68822 47.069838,48.36604 11.26425,1.536 11.58844,1.67904 11.20719,4.9449 -0.42122,3.60822 -16.69142,5.42968 -25.059272,2.8054 z M 131.9799,396.33128 c 11.10507,-5.5716 14.39072,-23.25394 6.29808,-33.89428 -11.2261,-14.76028 -31.63953,-10.05168 -36.83252,8.49586 -5.213298,18.62008 13.31939,34.03549 30.53444,25.39842 z m -29.10271,-21.6646 c 0,-1.83333 0.30263,-2.58333 0.67252,-1.66667 0.36988,0.91667 0.36988,2.41667 0,3.33334 -0.36989,0.91666 -0.67252,0.16666 -0.67252,-1.66667 z M 108,362.16327 c 0,-0.27687 1.05,-1.32687 2.33333,-2.33333 2.11474,-1.65849 2.1619,-1.61133 0.50341,0.50341 -1.74183,2.22099 -2.83674,2.9273 -2.83674,1.82992 z m 16.97738,-59.3003 c 1.54671,-2.09205 5.70955,-5.24205 9.25074,-7 l 6.43854,-3.19629 129.75282,-0.15528 129.75281,-0.15528 4.6854,-4.51139 C 492.41005,203.54396 388.82308,42.004943 247.33333,42.192862 89.896646,42.40196 -12.40321,236.35756 110.66666,301.30628 c 12.01156,6.33896 10.86708,6.21446 14.31072,1.55669 z m -9.97266,-1.4916 c -9.60649,-4.3606 -30.540609,-19.61325 -29.014107,-21.13975 0.398752,-0.39875 2.963989,1.40013 5.700527,3.99751 6.499239,6.16874 16.02746,12.51998 24.68844,16.45661 3.82456,1.73836 6.35375,3.18204 5.62042,3.20818 -0.73334,0.0261 -3.88121,-1.10901 -6.99528,-2.52255 z m 9.67138,-12.02275 c -0.46712,-0.75582 0.0681,-0.97935 1.25465,-0.52402 2.30989,0.88639 2.73251,1.84208 0.8146,1.84208 -0.69005,0 -1.62121,-0.59313 -2.06925,-1.31806 z m 18.34927,0.39407 c 1.29729,-0.33806 3.09729,-0.31583 4,0.0494 0.90271,0.36524 -0.15871,0.64183 -2.35871,0.61466 -2.2,-0.0272 -2.93858,-0.326 -1.64129,-0.66406 z m 244.64129,0.041 c 0.91667,-0.36989 2.41667,-0.36989 3.33333,0 0.91667,0.36988 0.16667,0.67251 -1.66666,0.67251 -1.83334,0 -2.58334,-0.30263 -1.66667,-0.67251 z m -268.33333,-4.25427 c -1.46667,-1.31006 -5.36323,-5.3401 -8.65904,-8.95565 -4.35663,-4.77928 -3.53772,-4.21849 3,2.05444 4.94581,4.74548 8.99237,8.79548 8.99237,9 0,0.70172 -0.67112,0.27915 -3.33333,-2.09879 z M 80.40888,274.33334 c -1.497442,-1.65 -3.767253,-4.8 -5.044023,-7 l -2.3214,-4 2.754375,3.33334 c 7.83137,9.47749 10.929791,14.62915 4.611048,7.66666 z m 25.79777,-14.10498 c -4.84131,-5.34959 -2.59287,-8.07793 13.12668,-15.92847 16.07361,-8.02735 21.2683,-9.32123 24.99635,-6.22599 l 3.00365,2.49379 -2.93441,-3.18121 c -3.52558,-3.82211 -11.99025,-1.86142 -27.73226,6.42368 -0.73333,0.38595 -0.61926,-0.18163 0.2535,-1.26129 0.87276,-1.07967 1.77276,-5.24484 2,-9.25595 l 0.41317,-7.29291 L 130,225.64126 c 10.03671,-0.33755 17.63398,-3.78504 14.73334,-6.68569 -0.36667,-0.36666 -1.73167,0.56794 -3.03334,2.0769 -5.42423,6.28805 -43.134316,4.79775 -44.083657,-1.74218 -1.479817,-10.19434 40.836277,-14.15263 45.117697,-4.22036 1.12339,2.6061 1.22591,2.63523 0.92725,0.26341 -0.4791,-3.80473 -8.37907,-7.29708 -16.99463,-7.51284 -4.03333,-0.101 -5.83333,-0.46242 -4,-0.80316 1.83334,-0.34073 3.71282,-1.23033 4.17663,-1.97688 2.18122,-3.51093 31.82337,-2.82704 31.82337,0.73421 0,2.29674 7.24104,7.55867 10.40163,7.55867 4.61796,0 7.6458,17.19072 4.48283,25.45156 -3.91663,10.22922 -26.44976,17.18925 -26.09529,8.06031 0.12183,-3.13755 0.1109,-3.13988 -2,-0.42473 -5.23766,6.73695 -35.8895,17.52028 -39.24918,13.80788 z m 274.46001,-2.75699 c -24.20193,-9.77633 -25.47531,-10.84203 -21.54291,-18.02925 l 2.24808,-4.10878 -2.79588,3.28351 c -1.97452,2.3189 -2.57752,4.37533 -2.05259,7 0.73751,3.68753 0.68901,3.71645 -6.22337,3.71151 -12.79084,-0.009 -19.68327,-6.73837 -20.05212,-19.5773 -0.32827,-11.42663 0.81559,-14.15799 7.08821,-16.92547 2.98308,-1.31613 6.71565,-4.14031 8.2946,-6.27594 3.63844,-4.92127 18.98632,-5.54706 32.36931,-1.31982 l 8,2.52693 -9.76923,0.12162 c -10.01588,0.1247 -17.57431,4.29398 -17.55912,9.68573 0.003,0.97308 1.18413,-0.16467 2.62531,-2.52832 5.63809,-9.24695 42.70304,-6.55907 42.70304,3.09674 0,7.04083 -35.5346,10.1424 -42.01021,3.66679 -0.98962,-0.98962 -2.29217,-1.77935 -2.89455,-1.75495 -5.28776,0.21416 6.41796,5.28897 12.19971,5.28897 3.84974,0 9.78327,0.38156 13.18562,0.8479 l 6.1861,0.8479 v 5.72353 c 0,10.41846 -1.90061,11.11262 -16.0959,5.87864 -6.01947,-2.21944 -11.17239,-3.80746 -11.45092,-3.52892 -0.27854,0.27853 6.0945,3.0468 14.16232,6.1517 21.24447,8.17593 27.06795,12.83768 22.66467,18.14331 -2.41921,2.91497 -8.89824,2.26774 -19.28017,-1.92603 z M 66.796886,250.04199 c -1.538288,-4.11144 -2.781397,-8.50284 -2.762465,-9.75866 0.01893,-1.25583 1.466467,1.91668 3.216744,7.05001 3.827064,11.22428 3.488072,13.24553 -0.454279,2.70865 z m -3.919694,-15.37531 c 0,-1.83334 0.302631,-2.58334 0.672514,-1.66667 0.369883,0.91667 0.369883,2.41667 0,3.33333 -0.369883,0.91667 -0.672514,0.16667 -0.672514,-1.66666 z m 20.632066,-5.45371 c -0.463426,-2.31713 -0.769428,-6.08796 -0.680004,-8.37963 0.09679,-2.48039 0.629132,-0.96673 1.315385,3.74017 1.226632,8.41329 0.776599,11.69936 -0.635381,4.63946 z m -21.839681,-3.21296 c 0.0148,-2.93334 0.287845,-3.97634 0.60677,-2.31779 0.318924,1.65855 0.306815,4.05855 -0.02691,5.33333 -0.333724,1.27479 -0.594662,-0.0822 -0.579862,-3.01554 z m -1.232058,-16 c 0.0059,-5.13334 0.24691,-7.06995 0.535544,-4.3036 0.288634,2.76636 0.283794,6.96636 -0.01076,9.33334 -0.294549,2.36697 -0.530704,0.10359 -0.524789,-5.02974 z m 166.895811,5.77736 c -12.88812,-7.12816 -11.52283,-20.97305 1.44685,-14.6719 7.37911,3.58505 13.76549,3.67919 20.07788,0.29595 4.72342,-2.5316 4.97248,-2.53579 9.66183,-0.16272 8.58329,4.34363 12.30623,4.50762 19.19384,0.84544 6.78054,-3.60525 9.69635,-3.3766 11.04288,0.86594 3.11688,9.8204 -18.43074,18.17637 -32.12099,12.45622 -4.01483,-1.6775 -5.08839,-1.67857 -8.29051,-0.008 -4.32974,2.25856 -17.19408,2.49078 -21.01178,0.37928 z M 81.438595,212.55556 c 0.06398,-1.55325 0.37992,-1.8692 0.805555,-0.80555 0.385161,0.9625 0.337793,2.1125 -0.105263,2.55555 -0.443055,0.44306 -0.758187,-0.34444 -0.700292,-1.75 z m 81.810045,-3.62352 c -6.40546,-5.50975 -6.37272,-27.83837 0.051,-34.76966 11.61673,-12.53466 25.79989,11.08841 17.98498,29.95528 -3.13202,7.56135 -12.06902,9.94692 -18.03596,4.81438 z m 163.18387,-0.96105 c -8.08599,-8.08599 -4.05809,-32.96522 5.91216,-36.5178 4.99393,-1.77942 11.15097,1.18168 12.90212,6.20503 7.35527,21.09934 -6.19541,42.93163 -18.81428,30.31277 z M 80.336243,196.66667 c 0.0148,-2.93333 0.287846,-3.97633 0.60677,-2.31778 0.318924,1.65855 0.306816,4.05855 -0.02691,5.33333 -0.333723,1.27478 -0.594661,-0.0822 -0.579862,-3.01555 z m -18.792385,-3.33333 c 0,-1.83333 0.302632,-2.58333 0.672515,-1.66667 0.369883,0.91667 0.369883,2.41667 0,3.33334 -0.369883,0.91666 -0.672515,0.16666 -0.672515,-1.66667 z m 1.333334,-8 c 0,-1.83333 0.302631,-2.58333 0.672514,-1.66667 0.369883,0.91667 0.369883,2.41667 0,3.33334 -0.369883,0.91666 -0.672514,0.16666 -0.672514,-1.66667 z m 18.716071,-11.33333 c 0.02717,-2.2 0.325998,-2.93858 0.664056,-1.64129 0.338058,1.29729 0.315826,3.09729 -0.0494,4 -0.365231,0.90271 -0.641824,-0.15871 -0.614651,-2.35871 z m -16.098355,0.66666 c -0.02271,-1.1 0.782907,-3.8 1.790271,-6 2.357877,-5.14941 2.392477,-2.75426 0.04815,3.33334 -0.988419,2.56666 -1.81571,3.76666 -1.838424,2.66666 z m 17.382283,-8 c 0,-1.83333 0.302632,-2.58333 0.672515,-1.66666 0.369883,0.91666 0.369883,2.41666 0,3.33333 -0.369883,0.91667 -0.672515,0.16667 -0.672515,-1.66667 z m -13.438596,-4.77778 c 0.06398,-1.55325 0.37992,-1.86919 0.805556,-0.80555 0.38516,0.9625 0.337792,2.1125 -0.105264,2.55555 -0.443055,0.44306 -0.758187,-0.34444 -0.700292,-1.75 z m 14.666666,-1.33333 c 0.06398,-1.55326 0.379921,-1.8692 0.805556,-0.80555 0.385161,0.9625 0.337792,2.1125 -0.105263,2.55555 -0.443056,0.44306 -0.758187,-0.34444 -0.700293,-1.75 z m 1.228071,-3.99545 c 0,-2.25275 6.935733,-22.06882 7.519786,-21.48476 0.317791,0.31779 -1.003918,5.30584 -2.937131,11.08456 -3.431168,10.25637 -4.582655,12.86964 -4.582655,10.4002 z m -7.24761,-14.28428 c 0.500709,-1.31496 1.246256,-2.05496 1.656772,-1.64444 0.410516,0.41052 8.46e-4,1.48639 -0.910379,2.39084 -1.316821,1.30702 -1.469972,1.15387 -0.746393,-0.7464 z m 2.666667,-5.33333 c 0.500708,-1.31496 1.246256,-2.05496 1.656772,-1.64444 0.410516,0.41051 8.45e-4,1.48639 -0.910379,2.39083 -1.316821,1.30703 -1.469973,1.15388 -0.746393,-0.74639 z m 12.621776,-4.27583 c 0,-0.73333 0.581625,-2.23333 1.2925,-3.33333 0.710874,-1.1 1.292499,-1.4 1.292499,-0.66667 0,0.73333 -0.581625,2.23333 -1.292499,3.33333 -0.710875,1.1 -1.2925,1.4 -1.2925,0.66667 z m -8.020998,-2.77778 c 0.01091,-0.67222 2.167731,-3.62222 4.792936,-6.55555 l 4.7731,-5.33334 -4.383458,6 c -2.410902,3.3 -4.567723,6.25 -4.792936,6.55556 -0.225212,0.30556 -0.400551,0.006 -0.389642,-0.66667 z m 10.646831,-3.71099 c 0,-1.4446 6.626472,-14.1779 7.378252,-14.1779 0.36667,0 -0.91562,3.15 -2.84952,7 -3.71937,7.40447 -4.528732,8.68729 -4.528732,7.1779 z m 3.743477,-15.03191 c 0.738575,-1.38004 2.711875,-3.70244 4.385105,-5.1609 l 3.04225,-2.65175 -2.98083,4.29301 c -3.47458,5.00412 -6.539267,7.42996 -4.446525,3.51964 z m -25.16921,4.52071 c 4.522628,-6.41664 13.293584,-16.994987 19.491013,-23.507425 6.197432,-6.512438 11.268052,-12.142196 11.268052,-12.510573 0,-3.226839 -41.398256,-26.694654 -50.132625,-28.419148 l -4.132627,-0.815936 -0.855783,7.126525 c -2.891911,24.082348 8.690132,77.976957 15.216486,70.806737 0.507388,-0.55745 4.622856,-6.26353 9.145484,-12.68018 z m -12.149976,7.32022 C 55.380628,110.93441 49.769313,80.335171 51.342896,62.558632 l 0.933019,-10.540185 3.528709,0.81828 c 9.075899,2.104629 44.869846,22.561539 46.384966,26.509875 0.32798,0.854706 -3.437376,5.701374 -8.367457,10.770373 C 88.892052,95.185974 80.672806,105.03334 75.557141,112 c -5.115665,6.96667 -9.682907,13.11078 -10.149427,13.65359 -0.46652,0.5428 -1.809061,-0.6572 -2.983425,-2.66667 z M 433.97272,102.20755 c 6.98744,-20.815229 7.51458,-53.556473 0.83786,-52.040333 -8.08636,1.836239 -24.94462,10.091687 -36.72473,17.98401 l -12.649,8.474452 13.70976,14.020496 c 7.54037,7.711272 16.30793,17.776075 19.48346,22.366235 l 5.7737,8.34574 3.10314,-4.56668 c 1.70672,-2.51167 4.61634,-9.07444 6.46581,-14.58392 z m -18.26618,4.78403 c -4.79647,-6.41203 -13.04958,-15.769152 -18.34025,-20.793595 l -9.6194,-9.135352 7.12655,-5.211045 c 8.60235,-6.290168 32.11101,-18.231848 38.12655,-19.36712 l 4.33333,-0.817799 v 15.570126 c 0,20.362136 -4.25468,39.061635 -11.11676,48.858635 -1.66241,2.37342 -2.40705,1.72841 -10.51002,-9.10385 z M 140.31412,54.945914 c 8.00497,-4.579986 8.17475,-4.094421 -3.83403,-10.965319 C 110.57701,29.159982 79.991113,24.397341 63.958703,32.688023 c -4.895348,2.531483 -4.582681,2.959346 5.374629,7.354799 10.448483,4.612273 27.027421,14.47952 38.650518,23.00354 l 9.98386,7.321849 8.01614,-5.904859 c 4.40888,-3.247673 10.8575,-7.53052 14.33027,-9.517438 z m -24.88076,11.88261 C 113.75073,64.105971 86.464543,46.850953 74.844505,41.161273 59.345993,33.572523 60.611995,31.763432 81.999998,30.936215 101.77258,30.171477 117.65631,34.559173 137.15028,46.170836 l 7.15028,4.259095 -5.81695,3.758982 c -3.19932,2.067441 -8.87147,6.020707 -12.60477,8.785036 -6.91004,5.116551 -9.15381,5.944541 -10.44548,3.854575 z m 265.09598,-3.304371 c 8.30011,-6.790789 19.91577,-13.90855 35.21289,-21.577501 l 13.82291,-6.92988 -6.44402,-3.119497 C 406.65152,23.92448 365.76173,31.750513 348.13393,46.24932 l -3.19939,2.631492 8.53273,4.773651 c 4.693,2.625508 11.23272,6.896459 14.53272,9.491002 7.32386,5.758203 6.00297,5.71828 12.52935,0.378688 z m -9.75212,-0.0576 c -0.85211,-1.026731 -6.28456,-4.7504 -12.0721,-8.274819 -11.90512,-7.249813 -11.84879,-6.912163 -2.085,-12.498436 16.70066,-9.555152 37.96926,-14.124503 55.49892,-11.923402 16.52733,2.075245 16.60822,3.037232 0.92675,11.020431 -13.34825,6.795394 -33.34788,19.46239 -35.03258,22.18829 -1.21192,1.960925 -5.43141,1.662328 -7.23599,-0.512064 z"
         id="path5148"
         inkscape:label="PINK"
         sodipodi:nodetypes="sssscssssssssssscssscssscssssscsssscccsscsscssssscccssssscccssssscssssscscsssscssccsccssssssssssssssssssssssssssssssssscccssssssssssssssssssssssssssssscssssscsssscssssssssssssssssscsscsssscscsssssscsssssssssssssssssssssssssssscsssssscccssssssssssssssssssssssssssssssssssssssssssssssssssssssssssssssssssscssssssssscsssssscssssscssssssssscsscsssscsscsssssssscsssssscssssscsscssssssssss" />
      <path
         style="fill:#e4b465"
         d="m 190.66666,549.47559 c -15.80208,-4.17484 -28.43053,-12.50097 -36.95305,-24.36369 -3.99593,-5.56205 -5.26003,-6.44521 -9.22514,-6.44521 -10.57148,0 -24.21566,-12.028 -27.30125,-24.06735 l -1.69135,-6.59932 -12.74794,-0.0158 C 46.877375,487.91484 17.318568,440.45505 29.843426,370.9283 c 4.253769,-23.61309 1.942848,-32.10722 -11.534887,-42.39818 -26.3186561,-20.09566 -5.503875,-48.19146 24.740247,-33.39439 28.443982,13.91634 37.331303,39.56759 30.165184,87.06501 -6.385543,42.32371 4.768702,65.13201 31.38786,64.18219 l 10.7315,-0.38291 0.37389,-15.46367 0.37389,-15.46366 -8.55586,-4.21204 C 79.202035,396.91718 80.092484,352.81769 108.90763,342.398 l 4.4257,-1.60036 v -10.1171 -10.1171 l -7.66667,-4.48472 C 82.224638,302.36597 68.332417,289.75876 58.585786,273.35275 39.885141,241.87491 37.431859,198.57273 52.062954,158.22014 l 4.271157,-11.77986 -2.602404,-3.55347 C 31.847876,113.00538 26.646339,48.080747 44.46809,27.260038 63.97251,4.4735085 118.30774,9.8068799 155.44317,38.152994 c 6.98007,5.328007 6.032,5.364746 23.89016,-0.925786 42.08226,-14.823465 104.34561,-13.819505 142.93642,2.304767 4.30892,1.800384 4.64615,1.699669 11.41848,-3.410236 41.05525,-30.9772753 103.25851,-30.3856923 116.80798,1.1109 10.52825,24.473579 3.53405,72.353331 -13.97655,95.678401 -3.94556,5.25571 -3.94387,5.36164 0.21757,13.64688 19.82065,39.46205 16.62055,97.55863 -7.47535,135.71179 -2.89404,4.58238 -5.26189,8.57474 -5.26189,8.87191 0,0.29717 5.55,0.79888 12.33333,1.11491 17.206,0.8016 27.35292,7.15084 32.32505,20.22677 3.3063,8.69504 2.42874,182.19724 -0.95278,188.37523 -9.08755,16.6028 -14.03157,18.06466 -60.50674,17.89078 l -39.12515,-0.14639 -3.18928,5.03188 c -20.11319,31.73354 -70.47574,37.74343 -99.15461,11.83236 l -6.93685,-6.26737 -7.4463,6.0651 c -17.82486,14.51855 -39.92476,19.69414 -60.68,14.2107 z m 25.76815,-14.84426 c 10.76999,-1.5571 21.48532,-6.31448 26.8614,-11.9259 l 3.86936,-4.03874 h -39.61352 -39.61353 l 2.17629,3.32143 c 2.85031,4.35012 16.62955,11.00995 25.88519,12.51092 10.00058,1.62178 10.12676,1.6226 20.43481,0.13229 z m -29.33659,-4.09231 c -4.5293,-1.5661 -10.18488,-4.4752 -12.56793,-6.46467 l -4.33284,-3.6172 36.34321,0.10477 36.3432,0.10477 -4.33304,3.6178 c -10.20207,8.51807 -35.87921,11.63936 -51.4526,6.25453 z m 142.15674,1.9002 c 7.0822,-1.94775 16.47039,-7.42519 19.98498,-11.66001 1.59338,-1.91991 -1.93155,-2.11252 -38.65948,-2.11252 h -40.41271 l 3.71437,3.87696 c 10.77972,11.25161 34.82055,15.5479 55.37284,9.89557 z m -33.59374,-0.47086 c -6.01837,-1.5177 -17.25672,-7.06922 -19.29429,-9.531 -1.21212,-1.46447 4.75148,-1.77077 34.48496,-1.77125 35.48376,-5.7e-4 35.91069,0.0322 32.88265,2.52759 -9.97115,8.217 -33.35757,12.48564 -48.07332,8.77466 z M 446.905,501.79954 c 9.40307,-5.42931 9.09061,-2.10076 9.09292,-96.86574 0.002,-94.97015 0.42703,-90.62214 -9.33885,-95.60432 -5.22522,-2.66572 -7.0085,-2.69268 -155.19865,-2.34642 l -149.91269,0.35028 -3.56722,3.33334 c -5.77788,5.39905 -7.31951,9.71047 -7.24691,20.26712 l 0.0669,9.73288 7.68473,3.63561 c 23.7141,11.21902 25.7123,48.46693 3.40254,63.42593 -3.60496,2.41718 -7.46681,5.14343 -8.58187,6.05833 -2.09401,1.71811 -2.15568,4.25398 -1.50544,61.89971 l 0.1995,17.68625 4.56084,4.98042 4.56084,4.98042 21.77249,0.66667 c 66.63835,2.04044 279.52254,0.39105 284.01083,-2.20048 z M 113.62032,472.48932 c 1.31548,-0.81302 1.33355,-7.31639 0.0259,-9.33438 -0.53877,-0.83147 -5.55565,-1.73939 -11.14861,-2.01762 -35.645634,-1.77322 -51.44672,-30.09341 -44.443041,-79.65501 6.47212,-45.80002 -5.064821,-74.43318 -30.133093,-74.78635 -8.342912,-0.11754 -7.316632,3.3484 4.379103,14.78904 16.544082,16.18324 18.246039,23.40462 13.005394,55.18168 -8.541165,51.79002 7.029066,85.61842 44.166837,95.95836 6.583469,1.83298 21.09401,1.75142 24.14748,-0.13572 z M 87.999998,470.7756 C 52.782331,459.73084 37.493886,423.13694 47.07769,372.82536 52.397575,344.89785 46.974954,328.483 28.110618,315.41 c -10.769223,-7.46307 -0.837121,-9.6831 11.523181,-2.57566 15.961981,9.17849 22.320874,28.69498 18.408593,56.49901 -4.664454,33.14961 -4.801328,35.05258 -3.26015,45.32591 4.262976,28.41655 20.098569,44.68822 47.069838,48.36604 11.26425,1.536 11.58844,1.67904 11.20719,4.9449 -0.42122,3.60822 -16.69142,5.42968 -25.059272,2.8054 z m 44.946212,-74.72826 c 10.36514,-6.31996 13.07855,-23.42474 5.33177,-33.61034 -16.94067,-22.2739 -48.811881,2.67674 -34.17128,26.75127 5.57228,9.16288 19.59235,12.49736 28.83951,6.85907 z m -30.06902,-21.38066 c 0,-1.83333 0.30263,-2.58333 0.67252,-1.66667 0.36988,0.91667 0.36988,2.41667 0,3.33334 -0.36989,0.91666 -0.67252,0.16666 -0.67252,-1.66667 z M 108,362.16327 c 0,-0.27687 1.05,-1.32687 2.33333,-2.33333 2.11474,-1.65849 2.1619,-1.61133 0.50341,0.50341 -1.74183,2.22099 -2.83674,2.9273 -2.83674,1.82992 z m 16.97738,-59.3003 c 1.54671,-2.09205 5.70955,-5.24205 9.25074,-7 l 6.43854,-3.19629 129.84035,-0.004 129.84034,-0.004 6.82632,-7.53605 C 488.65097,195.17386 387.87119,42.006207 247.33333,42.192862 89.801997,42.402086 -12.477199,236.31852 110.66666,301.30628 c 12.01156,6.33896 10.86708,6.21446 14.31072,1.55669 z m -9.97266,-1.4916 c -9.60649,-4.3606 -30.540609,-19.61325 -29.014107,-21.13975 0.398752,-0.39875 2.963989,1.40013 5.700527,3.99751 6.499239,6.16874 16.02746,12.51998 24.68844,16.45661 3.82456,1.73836 6.35375,3.18204 5.62042,3.20818 -0.73334,0.0261 -3.88121,-1.10901 -6.99528,-2.52255 z m 9.67138,-12.02275 c -0.46712,-0.75582 0.0681,-0.97935 1.25465,-0.52402 2.30989,0.88639 2.73251,1.84208 0.8146,1.84208 -0.69005,0 -1.62121,-0.59313 -2.06925,-1.31806 z m 18.34927,0.39407 c 1.29729,-0.33806 3.09729,-0.31583 4,0.0494 0.90271,0.36524 -0.15871,0.64183 -2.35871,0.61466 -2.2,-0.0272 -2.93858,-0.326 -1.64129,-0.66406 z m 244.64129,0.041 c 0.91667,-0.36989 2.41667,-0.36989 3.33333,0 0.91667,0.36988 0.16667,0.67251 -1.66666,0.67251 -1.83334,0 -2.58334,-0.30263 -1.66667,-0.67251 z m -268.33333,-4.25427 c -1.46667,-1.31006 -5.36323,-5.3401 -8.65904,-8.95565 -4.35663,-4.77928 -3.53772,-4.21849 3,2.05444 4.94581,4.74548 8.99237,8.79548 8.99237,9 0,0.70172 -0.67112,0.27915 -3.33333,-2.09879 z M 80.40888,274.33334 c -1.497442,-1.65 -3.767253,-4.8 -5.044023,-7 l -2.3214,-4 2.754375,3.33334 c 7.83137,9.47749 10.929791,14.62915 4.611048,7.66666 z m 25.79777,-14.10498 c -5.04398,-5.57353 -2.49946,-8.36941 15.12668,-16.62097 18.31376,-8.57346 25.33333,-8.72001 25.33333,-0.52889 0,7.00965 -35.87513,22.2161 -40.46001,17.14986 z m 268.5942,-5.25458 c -18.64233,-7.77916 -21.54092,-11.51881 -13.06985,-16.86222 3.97974,-2.51036 35.6738,10.17315 38.86976,15.55512 5.20704,8.76862 -6.49771,9.36161 -25.79991,1.3071 z M 66.796886,250.04199 c -1.538288,-4.11144 -2.781397,-8.50284 -2.762465,-9.75866 0.01893,-1.25583 1.466467,1.91668 3.216744,7.05001 3.827064,11.22428 3.488072,13.24553 -0.454279,2.70865 z m -3.919694,-15.37531 c 0,-1.83334 0.302631,-2.58334 0.672514,-1.66667 0.369883,0.91667 0.369883,2.41667 0,3.33333 -0.369883,0.91667 -0.672514,0.16667 -0.672514,-1.66666 z m 20.632066,-5.45371 c -0.463426,-2.31713 -0.769428,-6.08796 -0.680004,-8.37963 0.09679,-2.48039 0.629132,-0.96673 1.315385,3.74017 1.226632,8.41329 0.776599,11.69936 -0.635381,4.63946 z m -21.839681,-3.21296 c 0.0148,-2.93334 0.287845,-3.97634 0.60677,-2.31779 0.318924,1.65855 0.306815,4.05855 -0.02691,5.33333 -0.333724,1.27479 -0.594662,-0.0822 -0.579862,-3.01554 z m 41.123273,-1.9416 c -9.767852,-2.39302 -6.413543,-11.39048 4.79715,-12.86768 25.73053,-3.39044 43.97452,2.69785 33.41,11.14942 -1.88723,1.50977 -33.29303,2.92216 -38.20715,1.71826 z m 272.60365,0.27899 c -14.60043,-0.63242 -18.78333,-6.06987 -9.80369,-12.74406 4.09284,-3.04204 32.34714,-1.62954 36.50986,1.82522 5.7743,4.79224 -0.97905,12.08328 -10.76934,11.6268 -2.93334,-0.13677 -10.10491,-0.45535 -15.93683,-0.70796 z M 60.437519,210.00001 c 0.0059,-5.13334 0.24691,-7.06995 0.535544,-4.3036 0.288634,2.76636 0.283794,6.96636 -0.01076,9.33334 -0.294549,2.36697 -0.530704,0.10359 -0.524789,-5.02974 z m 166.895811,5.77736 c -12.88812,-7.12816 -11.52283,-20.97305 1.44685,-14.6719 7.37911,3.58505 13.76549,3.67919 20.07788,0.29595 4.72342,-2.5316 4.97248,-2.53579 9.66183,-0.16272 8.58329,4.34363 12.30623,4.50762 19.19384,0.84544 6.78054,-3.60525 9.69635,-3.3766 11.04288,0.86594 3.11688,9.8204 -18.43074,18.17637 -32.12099,12.45622 -4.01483,-1.6775 -5.08839,-1.67857 -8.29051,-0.008 -4.32974,2.25856 -17.19408,2.49078 -21.01178,0.37928 z M 81.438595,212.55556 c 0.06398,-1.55325 0.37992,-1.8692 0.805555,-0.80555 0.385161,0.9625 0.337793,2.1125 -0.105263,2.55555 -0.443055,0.44306 -0.758187,-0.34444 -0.700292,-1.75 z m 81.910345,-3.55555 c -6.39877,-5.53778 -6.4305,-27.95222 -0.0493,-34.83763 11.4774,-12.38432 25.81003,11.06393 18.11627,29.63831 -3.15423,7.61499 -12.25086,10.23282 -18.06695,5.19932 z m 163.08357,-1.02902 c -8.08599,-8.08599 -4.05809,-32.96522 5.91216,-36.5178 4.99393,-1.77942 11.15097,1.18168 12.90212,6.20503 7.35527,21.09934 -6.19541,42.93163 -18.81428,30.31277 z M 80.336243,196.66667 c 0.0148,-2.93333 0.287846,-3.97633 0.60677,-2.31778 0.318924,1.65855 0.306816,4.05855 -0.02691,5.33333 -0.333723,1.27478 -0.594661,-0.0822 -0.579862,-3.01555 z m -18.792385,-3.33333 c 0,-1.83333 0.302632,-2.58333 0.672515,-1.66667 0.369883,0.91667 0.369883,2.41667 0,3.33334 -0.369883,0.91666 -0.672515,0.16666 -0.672515,-1.66667 z m 1.333334,-8 c 0,-1.83333 0.302631,-2.58333 0.672514,-1.66667 0.369883,0.91667 0.369883,2.41667 0,3.33334 -0.369883,0.91666 -0.672514,0.16666 -0.672514,-1.66667 z m 18.716071,-11.33333 c 0.02717,-2.2 0.325998,-2.93858 0.664056,-1.64129 0.338058,1.29729 0.315826,3.09729 -0.0494,4 -0.365231,0.90271 -0.641824,-0.15871 -0.614651,-2.35871 z m -16.098355,0.66666 c -0.02271,-1.1 0.782907,-3.8 1.790271,-6 2.357877,-5.14941 2.392477,-2.75426 0.04815,3.33334 -0.988419,2.56666 -1.81571,3.76666 -1.838424,2.66666 z m 17.382283,-8 c 0,-1.83333 0.302632,-2.58333 0.672515,-1.66666 0.369883,0.91666 0.369883,2.41666 0,3.33333 -0.369883,0.91667 -0.672515,0.16667 -0.672515,-1.66667 z m -13.438596,-4.77778 c 0.06398,-1.55325 0.37992,-1.86919 0.805556,-0.80555 0.38516,0.9625 0.337792,2.1125 -0.105264,2.55555 -0.443055,0.44306 -0.758187,-0.34444 -0.700292,-1.75 z m 14.666666,-1.33333 c 0.06398,-1.55326 0.379921,-1.8692 0.805556,-0.80555 0.385161,0.9625 0.337792,2.1125 -0.105263,2.55555 -0.443056,0.44306 -0.758187,-0.34444 -0.700293,-1.75 z m 1.228071,-3.99545 c 0,-2.25275 6.935733,-22.06882 7.519786,-21.48476 0.317791,0.31779 -1.003918,5.30584 -2.937131,11.08456 -3.431168,10.25637 -4.582655,12.86964 -4.582655,10.4002 z m -7.24761,-14.28428 c 0.500709,-1.31496 1.246256,-2.05496 1.656772,-1.64444 0.410516,0.41052 8.46e-4,1.48639 -0.910379,2.39084 -1.316821,1.30702 -1.469972,1.15387 -0.746393,-0.7464 z m 2.666667,-5.33333 c 0.500708,-1.31496 1.246256,-2.05496 1.656772,-1.64444 0.410516,0.41051 8.45e-4,1.48639 -0.910379,2.39083 -1.316821,1.30703 -1.469973,1.15388 -0.746393,-0.74639 z m 12.621776,-4.27583 c 0,-0.73333 0.581625,-2.23333 1.2925,-3.33333 0.710874,-1.1 1.292499,-1.4 1.292499,-0.66667 0,0.73333 -0.581625,2.23333 -1.292499,3.33333 -0.710875,1.1 -1.2925,1.4 -1.2925,0.66667 z m -8.020998,-2.77778 c 0.01091,-0.67222 2.167731,-3.62222 4.792936,-6.55555 l 4.7731,-5.33334 -4.383458,6 c -2.410902,3.3 -4.567723,6.25 -4.792936,6.55556 -0.225212,0.30556 -0.400551,0.006 -0.389642,-0.66667 z m 10.646831,-3.71099 c 0,-1.4446 6.626472,-14.1779 7.378252,-14.1779 0.36667,0 -0.91562,3.15 -2.84952,7 -3.71937,7.40447 -4.528732,8.68729 -4.528732,7.1779 z m 3.743477,-15.03191 c 0.738575,-1.38004 2.711875,-3.70244 4.385105,-5.1609 l 3.04225,-2.65175 -2.98083,4.29301 c -3.47458,5.00412 -6.539267,7.42996 -4.446525,3.51964 z m -25.548918,5.26212 c 5.026326,-7.10888 14.088775,-18.137226 20.138774,-24.507434 6.049999,-6.370209 10.999999,-11.919681 10.999999,-12.332161 0,-3.492974 -40.495159,-26.581768 -49.554805,-28.254259 l -4.88814,-0.902393 -0.949937,7.603036 C 47.57511,76.946431 51.813682,103.58979 59.960467,121 c 4.807697,10.27437 3.402364,10.72773 14.23409,-4.59189 z m 354.307423,-0.74144 c 7.81285,-13.49346 12.57631,-38.169699 10.87431,-56.332519 l -0.95202,-10.15946 -4.21214,0.88489 c -9.49111,1.993898 -32.18469,14.19144 -45.75885,24.594854 -2.85892,2.191117 -2.77581,2.314489 11.33334,16.824105 7.81735,8.039241 16.31337,18.01652 18.88004,22.17173 5.63108,9.11623 5.71453,9.13334 9.83532,2.0164 z M 140.31412,54.945914 c 8.00497,-4.579986 8.17475,-4.094421 -3.83403,-10.965319 C 110.57701,29.159982 79.991113,24.397341 63.958703,32.688023 c -4.895348,2.531483 -4.582681,2.959346 5.374629,7.354799 10.448483,4.612273 27.027421,14.47952 38.650518,23.00354 l 9.98386,7.321849 8.01614,-5.904859 c 4.40888,-3.247673 10.8575,-7.53052 14.33027,-9.517438 z m -24.88076,11.88261 C 113.75073,64.105971 86.464543,46.850953 74.844505,41.161273 59.345993,33.572523 60.611995,31.763432 81.999998,30.936215 101.77258,30.171477 117.65631,34.559173 137.15028,46.170836 l 7.15028,4.259095 -5.81695,3.758982 c -3.19932,2.067441 -8.87147,6.020707 -12.60477,8.785036 -6.91004,5.116551 -9.15381,5.944541 -10.44548,3.854575 z m 265.09598,-3.304371 c 8.30011,-6.790789 19.91577,-13.90855 35.21289,-21.577501 l 13.82291,-6.92988 -6.44402,-3.119497 C 406.65152,23.92448 365.76173,31.750513 348.13393,46.24932 l -3.19939,2.631492 8.53273,4.773651 c 4.693,2.625508 11.23272,6.896459 14.53272,9.491002 7.32386,5.758203 6.00297,5.71828 12.52935,0.378688 z m -9.75212,-0.0576 c -0.85211,-1.026731 -6.28456,-4.7504 -12.0721,-8.274819 -11.90512,-7.249813 -11.84879,-6.912163 -2.085,-12.498436 16.70066,-9.555152 37.96926,-14.124503 55.49892,-11.923402 16.52733,2.075245 16.60822,3.037232 0.92675,11.020431 -13.34825,6.795394 -33.34788,19.46239 -35.03258,22.18829 -1.21192,1.960925 -5.43141,1.662328 -7.23599,-0.512064 z"
         id="path5147"
         sodipodi:nodetypes="sssscsssssscccsscccssscssssssssssssssscsscsssscccssssscccssssscssssscsscsscsscsssscccsssssssssssssssssssssssssssssssssssscccssssssssssssssssssssssssssssscssssssssssssssssssssssssssssssssssssssssscsssssscccssssssssssssssssssssssssssssssssssssssssssssssssssssssssssssssssssscssssssssscsssssscssssscsssssssssscsssssscssssscsscssssssssss" />
      <path
         style="fill:#070706"
         d="m 193.75622,549.99603 c -16.44534,-3.57481 -31.33847,-12.76859 -39.82942,-24.58739 -4.08516,-5.68624 -5.2624,-6.47055 -10.61841,-7.07425 -11.25827,-1.26897 -23.11043,-12.40553 -26.18113,-24.60039 l -1.44384,-5.73398 h -13.00485 c -55.667216,0 -84.539511,-46.0739 -72.592176,-115.84133 4.171561,-24.36017 1.818383,-33.19978 -11.656199,-43.78601 C 5.113397,317.9104 2.5781707,307.08586 11.23393,297.6471 l 4.567263,-4.98042 h 11.76607 c 10.108005,0 12.517638,0.45657 17.099403,3.23999 28.017493,17.02062 35.460274,38.90264 28.675396,84.30661 -6.738413,45.09303 3.475038,66.4534 31.774668,66.4534 H 116 v -15.93761 -15.9376 l -6.33334,-2.79736 c -29.975563,-13.23985 -29.57499,-62.60673 0.5694,-70.17249 2.90889,-0.73008 3.09727,-1.40847 3.09727,-11.154 V 320.29098 L 99.392552,312.15874 C 46.578555,281.35012 26.585098,209.80731 54.590453,151.8429 l 2.526355,-5.22895 -3.028534,-3.64031 C 30.313034,114.39574 26.668072,41.487573 48.112489,23.443285 67.069206,7.4922587 109.74344,10.603428 143.33333,30.38537 c 4.4,2.591271 10.42269,6.650477 13.38375,9.020458 l 5.38376,4.309055 7.79432,-3.171073 C 213.61491,22.756688 270.99598,22.036182 319.33535,38.667363 l 7.403,2.547006 10.29749,-7.011167 c 35.45601,-24.140645 83.59177,-27.9555392 105.2981,-8.345171 19.40472,17.531 16.68478,73.95666 -5.09063,105.606139 -3.74375,5.44135 -4.13844,6.76707 -2.90278,9.75007 12.02819,29.03741 14.99279,42.26296 14.99279,66.88526 0,29.83987 -6.20099,52.63271 -20.11993,73.9544 l -6.49289,9.94611 h 9.76117 c 13.4725,0 21.37837,2.65314 28.37901,9.52376 10.23865,10.04847 9.92775,6.56342 9.50951,106.59796 l -0.3702,88.54495 -3.17661,5.1098 c -9.97681,16.04843 -12.75113,16.82564 -60.18685,16.86092 l -39.36346,0.0293 -2.57478,4.78108 c -17.19935,31.93724 -71.76155,37.49016 -100.86696,10.26546 -3.5739,-3.34297 -6.498,-5.39478 -6.498,-4.55958 0,2.06865 -15.3506,13.27816 -22.30379,16.28696 -13.39841,5.7978 -28.09551,7.41995 -41.27332,4.55542 z m 25.62326,-15.45072 c 9.50193,-1.75653 17.11027,-5.3979 23.03026,-11.02236 l 4.40974,-4.1896 -39.74307,-0.66666 c -21.8587,-0.36667 -39.91774,-0.59201 -40.13121,-0.50076 -0.21347,0.0912 1.212,2.06756 3.16772,4.3918 8.78746,10.4433 29.87025,15.57318 49.26656,11.98758 z m 112.9019,-2.51565 c 4.12442,-1.54315 10.09837,-5.15649 13.27545,-8.02966 l 5.7765,-5.22395 -40.58279,-0.0547 -40.58279,-0.0547 3.91612,4.12211 c 11.62478,12.23624 38.70084,16.5355 58.19751,9.24086 z m 114.3381,-30.07682 c 9.7925,-5.75288 9.31357,-0.87395 9.44803,-96.24841 0.16146,-114.53175 25.80475,-99.03775 -163.9121,-99.03775 H 142.87126 l -4.15019,3.49215 c -6.30468,5.30504 -8.05441,9.83239 -8.05441,20.84045 v 9.79836 l 4.86976,1.76093 c 26.94361,9.74293 29.44875,50.02427 4.13024,66.41196 l -9,5.82535 0.0581,34.26873 c 0.0774,45.67606 1.73205,51.83254 14.76683,54.94313 11.58272,2.76407 296.23152,0.82162 301.12792,-2.0549 z M 109.66666,473.81089 c 4.88876,-0.80806 5,-0.95607 5,-6.652 v -5.82554 h -7.75799 c -38.730824,0 -56.188071,-29.91801 -48.101531,-82.43579 6.005557,-39.0029 -1.612489,-61.95284 -23.316115,-70.24153 -10.723816,-4.09546 -18.805338,0.71016 -10.894873,6.47856 21.512587,15.68722 25.950179,29.34433 19.993558,61.53209 -10.880675,58.79585 19.8201,104.6247 65.076951,97.14421 z m 18.46771,-75.32891 c 12.57057,-4.21034 19.25924,-19.93617 13.38058,-31.45929 -9.3981,-18.42181 -30.39174,-18.25452 -38.98713,0.31066 -8.283752,17.89205 7.57816,37.18699 25.60655,31.14863 z m -2.05049,-95.98343 c 9.11282,-9.69926 -0.28953,-9.10328 144.13133,-9.13592 l 129.54854,-0.0293 8.20039,-8.94928 C 489.35859,195.55637 386.47871,41.193649 245.99999,41.370305 89.9057,41.566597 -12.185109,238.52923 110.97058,301.881 c 11.22283,5.77307 10.30473,5.73555 15.1133,0.61755 z m -19.12054,-41.90748 c -3.4147,-2.39175 -3.85009,-6.19527 -0.98169,-8.57583 4.27871,-3.55102 29.57012,-14.6819 33.35997,-14.6819 7.68703,0 9.11511,10.46165 1.73476,12.7083 -1.69201,0.51506 -9.16081,3.5664 -16.59734,6.78075 -15.70746,6.78938 -13.79158,6.37716 -17.5157,3.76868 z m 280.36999,-0.60852 c -1.46667,-0.64366 -8.479,-3.67216 -15.58295,-6.72999 -13.81806,-5.94786 -15.65251,-7.83508 -12.41656,-12.77376 4.20964,-6.42473 41.99951,7.48677 41.99951,15.46119 0,4.89084 -7.27831,6.99248 -14,4.04256 z M 375.3965,224.27239 c -13.64123,-0.50724 -18.57225,-5.23291 -11.72984,-11.24136 6.53708,-5.74033 37.711,-3.19277 39.7555,3.24886 2.11186,6.65391 -5.51677,8.82948 -28.02566,7.9925 z M 98.933331,222.40001 c -3.907665,-3.90767 -1.146538,-8.83321 5.871619,-10.47431 17.55801,-4.1057 37.86171,-0.97482 37.86171,5.83838 0,5.667 -2.06798,6.23593 -22.66666,6.23593 -13.36297,0 -19.96834,-0.50168 -21.066669,-1.6 z m 128.399999,-7.28693 c -6.40986,-3.3868 -8.66667,-5.94476 -8.66667,-9.82313 0,-6.07047 3.38398,-7.701 9.14212,-4.40502 7.97994,4.56775 12.90453,5.07763 18.29925,1.89467 5.92327,-3.49482 8.45425,-3.48617 15.24252,0.0521 6.1027,3.18091 13.28514,2.81631 17.37153,-0.88181 3.706,-3.35389 8.5244,-2.04063 9.04092,2.46411 1.12251,9.78956 -16.82941,16.20555 -30.28218,10.82282 -4.76486,-1.90652 -5.6073,-1.90652 -9.29411,0 -5.1662,2.67154 -15.68114,2.60916 -20.85338,-0.12371 z m -62.17524,-5.09484 c -8.87498,-4.90151 -8.57016,-30.41437 0.4433,-37.10249 9.59415,-7.11899 17.44609,2.2551 16.79803,20.05444 -0.54741,15.0347 -7.83656,22.24215 -17.24133,17.04805 z m 163.84187,0.54162 c -11.07997,-6.45349 -7.10752,-37.00967 5.11583,-39.35111 8.6711,-1.66099 11.8842,3.6081 11.8842,19.48862 v 13.59492 l -4.6163,3.85386 c -4.80912,4.01483 -8.42481,4.71956 -12.38373,2.41371 z M 66.666665,128.20679 c 0,-2.19267 19.672846,-27.68443 29.20185,-37.83929 C 107.16878,78.325043 107.54955,79.828365 90.332974,68.512334 64.934247,51.818376 51.682339,47.254969 50.195221,54.690559 c -3.803682,19.018409 2.563511,57.018361 11.955701,71.352661 2.11766,3.23195 4.515743,4.38092 4.515743,2.16357 z M 428.88223,115.08577 c 9.91345,-16.916021 15.59198,-65.752435 7.64547,-65.752435 -4.80024,0 -23.58455,8.64228 -34.52771,15.885496 -19.11335,12.651029 -18.69577,9.810367 -3.66796,24.951926 7.18503,7.239419 15.74966,17.193573 19.0325,22.120353 7.13538,10.70854 6.91167,10.65426 11.5177,2.79466 z M 127.34624,64.086645 c 4.9641,-3.619013 11.64196,-7.967983 14.83969,-9.664377 7.40502,-3.928353 7.68563,-3.350358 -5.19029,-10.690679 C 112.342,29.677004 80.367179,24.087397 66.072612,31.333334 58.709555,35.06568 58.931377,36.235281 67.6687,39.74903 77.590742,43.739218 96.995131,55.291714 108,63.760462 c 10.62972,8.18006 8.6198,8.146172 19.34624,0.326183 z m 252.58079,0.734554 c 6.3355,-5.912383 20.87689,-15.023434 35.18806,-22.047418 14.86847,-7.297514 15.41967,-8.056805 8.46702,-11.663423 -15.02572,-7.794432 -50.60689,-1.416073 -73.30301,13.140461 l -6.38756,4.096768 10.98747,6.604869 c 6.04312,3.632678 12.81752,8.047818 15.05423,9.811422 5.0579,3.988055 5.77734,3.992181 9.99379,0.05732 z"
         id="path5146"
         sodipodi:nodetypes="sssscsssscsssscccssscsscsssscsscsssssscssscsscsssssssscsssssscccsssssscsscsscsssssscsssssssssssscsssssssssssssssssssssssssssssssssssssssssscssssssssssssssssssssssssscsss" />
      <g
         id="text1"
         style="font-size:80px;line-height:1;font-family:Worktalk;-inkscape-font-specification:Worktalk;text-align:center;text-anchor:middle;fill:#a9fc9f"
         aria-label="ABOUT&#10;US">
        <path
           style="fill:#000000"
           d="m 215.94964,388.99015 q -0.56,3.44 -2.32,5.76 -1.68,2.24 -4,3.36 -2.24,1.2 -4.8,1.2 -2.56,0 -4.72,-1.2 -2.16,-1.12 -3.68,-3.36 -1.44,-2.32 -1.52,-5.76 0,-0.4 0,-0.96 0.08,-0.64 -0.16,-1.2 -0.16,-0.64 -0.72,-1.04 -0.48,-0.4 -1.52,-0.4 -1.6,0 -2.72,0.24 -1.04,0.24 -0.8,2.32 0.4,4.8 -2.16,7.84 -2.56,2.96 -8.08,3.12 -2,0 -4.08,-0.8 -2,-0.72 -3.36,-2.16 -1.52,-1.68 -2.24,-3.92 -0.64,-2.24 -1.04,-4.4 -0.64,-4 -1.2,-8.56 -0.48,-4.56 -0.64,-9.2 -0.08,-4.72 0.4,-9.28 0.56,-4.56 2.08,-8.48 1.52,-4 4.16,-7.12 2.64,-3.12 6.88,-4.96 5.36,-2.32 11.44,-2.32 6.08,0 11.52,2 0.64,0.24 1.2,0.56 0.56,0.24 1.2,0.56 3.84,2 6.32,5.28 2.48,3.28 3.84,7.36 1.44,4 1.92,8.64 0.48,4.56 0.4,9.28 -0.08,4.64 -0.56,9.2 -0.48,4.48 -1.04,8.4 z m -28.8,-22.88 q 0.08,1.2 0.08,2.72 0.08,1.44 0.4,2.72 0.4,1.28 1.36,2.16 0.96,0.8 2.8,0.8 0.56,0 1.12,-0.08 0.56,-0.08 1.2,-0.24 1.2,-0.16 1.76,-1.12 0.64,-0.96 0.8,-2.24 0.24,-1.28 0.16,-2.64 0,-1.44 0,-2.48 0,-4.64 -1.6,-7.04 -1.6,-2.4 -3.44,-2.4 -1.84,0 -3.36,2.48 -1.44,2.4 -1.28,7.36 z m 80.47995,27.04 q -3.44,3.76 -8.72,5.76 -5.2,2 -10.96,2.32 -5.68,0.32 -11.2,-1.12 -5.52,-1.36 -9.44,-4.48 -1.52,-1.6 -2.48,-4.32 -0.96,-2.72 -1.44,-6.16 -0.48,-3.44 -0.56,-7.36 -0.08,-3.92 0.08,-7.84 0.16,-4 0.56,-7.68 0.4,-3.68 0.88,-6.64 1.2,-6.88 4.96,-11.36 3.76,-4.48 8.96,-6.32 5.2,-1.84 11.28,-0.88 6.08,0.96 11.84,4.88 2.88,2 5.04,4.8 2.24,2.72 3.28,5.84 1.12,3.04 0.8,6.24 -0.24,3.12 -2.32,6 -1.68,2.32 -4.24,4 -2.48,1.6 -5.2,2.8 3.76,1.12 6.56,3.6 2.88,2.4 4.24,5.44 1.44,3.04 1.04,6.32 -0.32,3.28 -2.96,6.16 z m -25.52,-32.72 q 1.92,0.64 4.16,0.72 2.24,0 3.92,-0.48 1.68,-0.56 2.24,-1.52 0.64,-1.04 -0.64,-2.64 -1.28,-1.6 -3.68,-2.08 -2.4,-0.56 -4.4,0 -0.8,0.24 -1.36,1.2 -0.56,0.88 -0.8,1.92 -0.24,0.96 -0.16,1.84 0.16,0.88 0.72,1.04 z m 0.4,23.04 q 0.88,0.64 2.24,0.8 1.36,0.16 2.8,0 1.52,-0.24 2.88,-0.64 1.44,-0.48 2.4,-0.96 1.68,-0.88 1.2,-1.84 -0.48,-0.96 -2.16,-1.76 -1.6,-0.88 -3.92,-1.36 -2.24,-0.56 -4.16,-0.48 -0.72,0 -1.28,0.8 -0.48,0.8 -0.72,1.92 -0.16,1.04 -0.08,2.08 0.16,0.96 0.8,1.44 z m 60.79994,15.76 q -1.84,0.16 -3.6,0 -1.76,-0.08 -3.6,-0.24 -2.8,-0.32 -5.52,-1.04 -2.64,-0.8 -4.8,-2.4 -2.72,-1.92 -4.72,-4.56 -1.92,-2.72 -3.2,-5.76 -1.28,-3.12 -2,-6.4 -0.64,-3.36 -0.72,-6.64 -0.08,-2.32 0,-4.72 0.16,-2.4 0.32,-4.8 0.16,-2.08 0.48,-4.08 0.32,-2.08 1.04,-4.08 2.16,-6 6.4,-9.76 4.24,-3.76 9.44,-5.28 5.2,-1.6 10.88,-0.96 5.68,0.64 10.64,3.52 2.08,1.2 3.76,3.04 1.76,1.76 3.04,3.84 1.36,2.24 2.08,4.72 0.8,2.48 1.2,5.04 0.56,3.04 0.64,6.16 0.16,3.12 -0.24,6.16 -0.24,1.92 -0.64,3.84 -0.32,1.92 -0.72,3.76 -0.56,2.4 -1.36,4.8 -0.8,2.4 -2.16,4.48 -1.44,2.32 -3.28,4.56 -1.84,2.16 -4.16,3.76 -2,1.36 -4.4,2.08 -2.4,0.8 -4.8,0.96 z m -5.84,-24 q 2.16,1.04 4.72,0.4 2.56,-0.72 4,-2.64 0.88,-1.2 1.44,-2.56 0.56,-1.44 0.96,-2.96 0.4,-2 0.48,-4 0.16,-2 -0.24,-4 -0.56,-3.36 -2.72,-4.88 -2.08,-1.52 -4.56,-1.36 -2.4,0.08 -4.56,1.92 -2.08,1.76 -2.64,5.04 -0.24,1.52 -0.32,3.04 0,1.52 0.08,3.04 0.08,1.44 0.16,2.88 0.16,1.44 0.56,2.8 0.32,1.04 0.96,1.92 0.72,0.88 1.68,1.36 z m 68.16001,21.92 q -5.36,2 -11.52,2 -6.08,0 -11.44,-2.32 -2.32,-1.04 -4.24,-2.8 -1.84,-1.76 -3.12,-4 -2.56,-4.56 -3.92,-9.6 -1.28,-5.04 -1.68,-10.24 -0.32,-5.28 0.08,-10.56 0.4,-5.28 1.2,-10.32 0.4,-2.24 1.04,-4.48 0.72,-2.24 2.24,-3.92 1.36,-1.44 3.36,-2.16 2.08,-0.8 4.08,-0.8 1.04,0.08 2,0.16 1.04,0 1.92,0.4 2.08,0.88 3.68,2.72 1.68,1.76 2.32,3.92 0.32,1.28 0.4,2.56 0.08,1.28 0,2.64 -0.32,3.84 -0.88,7.68 -0.48,3.76 -0.64,7.6 -0.24,4.96 1.04,7.44 1.36,2.4 2.96,2.48 1.68,0 3.04,-2.32 1.44,-2.4 1.44,-7.04 0,-2 -0.24,-4.08 -0.16,-2.08 -0.4,-4.24 -0.16,-2.24 -0.32,-4.72 -0.16,-2.48 -0.08,-5.28 0.08,-1.36 0.4,-2.64 0.32,-1.36 1.04,-2.48 1.28,-2 3.04,-3.2 1.68,-1.2 3.84,-1.6 2.16,-0.4 4.16,0 1.84,0.4 3.52,1.52 1.68,1.12 2.72,2.72 0.96,1.6 1.44,3.44 0.56,1.84 0.8,3.68 0.72,4.8 0.96,9.76 0.24,4.88 -0.16,9.84 -0.32,4.88 -1.44,9.68 -1.04,4.8 -3.04,9.28 -1.12,2.56 -2.96,4.72 -1.84,2.16 -4.24,3.44 -0.64,0.32 -1.2,0.64 -0.56,0.24 -1.2,0.48 z m 41.03999,2.08 q -1.84,0.4 -3.84,0.16 -2,-0.16 -3.76,-1.04 -1.6,-0.72 -2.64,-2.32 -1.28,-2 -1.84,-4.24 -0.48,-2.32 -0.64,-4.64 -0.08,-2.4 0,-4.8 0.08,-2.48 0.08,-4.88 0,-2.8 0,-5.68 0,-2.88 0.08,-5.68 0.08,-1.44 0.08,-3.04 0.08,-1.68 -0.24,-3.04 -0.32,-1.44 -1.12,-2.24 -0.72,-0.88 -2.24,-0.8 -1.76,0.16 -3.6,-0.48 -1.84,-0.72 -2.96,-2.16 -0.88,-1.2 -1.2,-2.8 -0.32,-1.6 -0.16,-3.28 0.16,-1.68 0.8,-3.28 0.64,-1.6 1.6,-2.72 1.2,-1.36 2.96,-1.84 1.84,-0.56 3.68,-0.8 4.64,-0.64 9.28,-0.56 4.64,0 9.36,0.32 1.84,0.08 3.6,0.24 1.76,0.16 3.6,0.56 1.36,0.32 2.72,0.8 1.36,0.4 2.56,1.2 0.72,0.48 1.28,1.12 0.64,0.56 1.04,1.36 0.88,1.6 0.8,3.6 -0.08,2 -0.72,3.68 -0.56,1.36 -1.6,2.72 -1.04,1.28 -2.48,1.68 -0.56,0.16 -1.12,0.32 -0.56,0.16 -1.2,0 -2.08,-0.32 -3.12,0.24 -0.96,0.48 -1.44,1.52 -0.4,1.04 -0.4,2.56 0,1.44 0,3.12 0,0.72 -0.08,2.56 0,1.76 -0.08,4.16 0,2.32 0,4.88 0,2.56 -0.08,4.96 0,2.32 0,4.16 0,1.76 0,2.48 0,2 -0.16,4 -0.16,2 -1.04,3.76 -0.8,1.6 -2.4,2.72 -1.6,1.12 -3.36,1.44 z"
           id="path2" />
        <path
           style="fill:#000000"
           d="m 277.82962,477.15015 q -5.36,2 -11.52,2 -6.08,0 -11.44,-2.32 -2.32,-1.04 -4.24,-2.8 -1.84,-1.76 -3.12,-4 -2.56,-4.56 -3.92,-9.6 -1.28,-5.04 -1.68,-10.24 -0.32,-5.28 0.08,-10.56 0.4,-5.28 1.2,-10.32 0.4,-2.24 1.04,-4.48 0.72,-2.24 2.24,-3.92 1.36,-1.44 3.36,-2.16 2.08,-0.8 4.08,-0.8 1.04,0.08 2,0.16 1.04,0 1.92,0.4 2.08,0.88 3.68,2.72 1.68,1.76 2.32,3.92 0.32,1.28 0.4,2.56 0.08,1.28 0,2.64 -0.32,3.84 -0.88,7.68 -0.48,3.76 -0.64,7.6 -0.24,4.96 1.04,7.44 1.36,2.4 2.96,2.48 1.68,0 3.04,-2.32 1.44,-2.4 1.44,-7.04 0,-2 -0.24,-4.08 -0.16,-2.08 -0.4,-4.24 -0.16,-2.24 -0.32,-4.72 -0.16,-2.48 -0.08,-5.28 0.08,-1.36 0.4,-2.64 0.32,-1.36 1.04,-2.48 1.28,-2 3.04,-3.2 1.68,-1.2 3.84,-1.6 2.16,-0.4 4.16,0 1.84,0.4 3.52,1.52 1.68,1.12 2.72,2.72 0.96,1.6 1.44,3.44 0.56,1.84 0.8,3.68 0.72,4.8 0.96,9.76 0.24,4.88 -0.16,9.84 -0.32,4.88 -1.44,9.68 -1.04,4.8 -3.04,9.28 -1.12,2.56 -2.96,4.72 -1.84,2.16 -4.24,3.44 -0.64,0.32 -1.2,0.64 -0.56,0.24 -1.2,0.48 z m 59.52,-33.84 q 4.64,1.68 7.28,5.04 2.64,3.36 3.36,7.44 0.72,4.08 -0.4,8.4 -1.12,4.24 -4,7.76 -2.88,3.44 -7.44,5.68 -4.56,2.16 -10.64,2.08 -1.84,0 -4.4,-0.08 -2.48,-0.08 -5.28,-0.4 -2.8,-0.24 -5.6,-0.72 -2.8,-0.4 -5.2,-1.2 -2.32,-0.8 -4.08,-1.92 -1.68,-1.12 -2.32,-2.72 -0.72,-1.76 -0.8,-3.84 0,-2.08 0.48,-3.92 0.56,-1.92 1.68,-3.36 1.2,-1.52 3.04,-2.24 2.64,-1.04 5.2,-1.12 2.64,-0.16 5.2,0.32 2.64,0.48 5.28,1.36 2.64,0.88 5.36,1.76 1.36,0.48 2.32,0.16 1.04,-0.4 1.44,-1.12 0.48,-0.72 0.16,-1.68 -0.24,-0.96 -1.44,-1.76 -0.8,-0.48 -2.64,-0.8 -1.76,-0.4 -3.84,-0.64 -2.08,-0.24 -4,-0.4 -1.84,-0.16 -2.8,-0.4 -6.24,-1.36 -10.32,-4.96 -4,-3.6 -5.44,-8.16 -1.44,-4.64 -0.08,-9.68 1.36,-5.04 5.84,-9.28 3.36,-3.2 8.4,-4.96 5.04,-1.76 10.56,-2.08 5.52,-0.4 10.96,0.64 5.44,0.96 9.52,3.28 2.56,1.44 3.6,3.92 1.04,2.48 0.72,5.12 -0.32,2.56 -2,4.88 -1.6,2.24 -4.48,3.28 -2,0.72 -3.52,0.96 -1.44,0.16 -2.88,0 -1.44,-0.16 -3.04,-0.56 -1.52,-0.4 -3.6,-0.96 -1.12,-0.32 -2.32,-0.72 -1.2,-0.48 -2.4,-0.8 -1.2,-0.32 -2.32,-0.24 -1.12,0 -2,0.72 -0.72,0.56 -0.64,1.28 0.08,0.64 0.64,1.28 0.56,0.56 1.44,1.04 0.96,0.48 1.92,0.72 2.4,0.56 4.24,0.88 1.92,0.32 3.6,0.64 1.76,0.32 3.52,0.8 1.84,0.48 4.16,1.28 z"
           id="path3" />
      </g>
    </g>
  </g>
</svg>
