<?xml version="1.0" encoding="UTF-8"?>
<svg id="Layer_1" data-name="Layer 1" xmlns="http://www.w3.org/2000/svg" viewBox="0 0 396.85 396.85">
  <defs>
    <style>
      .cls-1 {
        fill: #fad89b;
      }

      .cls-2 {
        fill: #e4af5f;
      }

      .cls-3 {
        fill: #90a1db;
      }

      .cls-4 {
        fill: #f6ce8d;
      }

      .cls-5 {
        fill: #e1e4e7;
      }

      .cls-6 {
        fill: #f1919f;
      }

      .cls-7 {
        fill: #040403;
      }
    </style>
  </defs>
  <path class="cls-1" d="M280.44,56.68c14.23,8.46,26.47,20.5,36,34,23.53,33.33,32.27,72.9,14,111-1.84,2.8-4.41,5.27-5.96,8.3l-3.04.69c2.9-25.99-22.65-17.8-38.01-19.99-2.84-5.32,3.32-1.86,6.93-3.57,16.76-7.89,19.78-28.2.03-33.89-9.27-2.67-16.06-.29-24.96-1.54,5.53-44.49-36.5-2.48-6,10-4.71,2.58-8.96-1.22-9,8-10.62-5.04-21.11-4.64-29.53,3.97-2.22,2.27-3.26,7.54-4.12,8.13-3,2.06-9.97.08-13.63,1.12-2.54.72-7.18,7.22-8.39,7.61-8.65,2.76-41.32-5.64-41.32,14.68v57.5c-6.37,1.39-20.86-8.71-23.56-.03-4.97,15.97,40.39,6.34,40.64,27.52.13,10.54-10.45,15.31-19.47,15.37s-37.07-17.74-34.73-1.34c1.43,9.96,34.06,12.71,36.24,15.06,1.25,1.34,1.52,11.74-.08,14.01-2.33,1.92-23.79-10.71-23.12,1.94.54,10.13,26.06,7.57,27.64,23.84,2.92,29.94-56.31,24.01-65.57,1.63,5.68,6.58,16.24,16,25.5,16h25.5c-5.11-.17-11.15-2.35-15.57-3.02-1.98-.3-.88,2.87-3.89,2.05-.84-.23-13.92-8.89-14.51-9.55-12.08-13.56-10.54-33.89-12.95-49.78-.14-.95-2.79-1.16-2.96-2.34-.42-2.94,3-9.64-1.12-9.35,1.3-6.63,12.24-46.8,15.27-49.71,2.86-2.75,28.23,8.59,18.73-11.29-4.25-8.89-10.25-8.46-15.49-14.01-7.55-8-14.02-17.39-17.51-27.99,4.48-.73,16.1-7.39,23-9,8.92-2.08,18.83,2.98,26.43-7.07,7.21-9.54,3.89-18.59-1.43-27.93,3.11-4,3.24-21.43-1.26-24.32-13.2-8.46-14.1,11.19-12.74,19.32l-12.24-.73-19.76,6.73c-.66,0-1.34-.03-2,0l-3,1c-3.62.34-9.74-.27-13,2,1.59-4.47-3-10.82-3.04-11.46-1.29-18.22,5.83-43.52,12.56-60.52,1.09-2.76,7.48-11.83,7.45-12.56-.09-2.58-5.26.11-4.97-6.46,7.97-6.88,16.76-12.92,26-18,51.44-24.71,116.21-25.58,166,4ZM204.67,149.46c-.5-.14-3.04-5.06-8.78-4.65-4.15.3-6.28,5.59-12.67,4.67-5.23-.75-5.46-6.61-11.29-5.9-11.49,1.4.32,18.52,11.97,18.9,4.83.16,9.66-3.48,12.2-3.54,6.36-.14,21.62,8.09,27.61-5.49,7.79-17.67-14.56-2.77-19.04-3.99Z"/>
  <path class="cls-4" d="M88.44,70.68c-.29,6.58,4.88,3.89,4.97,6.46.03.73-6.36,9.8-7.45,12.56-6.74,17-13.86,42.3-12.56,60.52.05.64,4.64,6.99,3.04,11.46-.76.53-1.73,3.84-2,5-3.7,15.84,9.38,10.54,9,19.52-.06,1.41-5.39,2.35-2.99,8.47,1.23-1.24,1.68-1.26,2.99-1.99-.83,7.13,1.65,10.2,9,9,3.49,10.6,9.96,19.99,17.51,27.99,5.24,5.55,11.24,5.12,15.49,14.01-27.51-3.61-56.67-15.55-70-41-17.94-41.21-6.92-83.56,19-118,3.57-4.07,9.94-10.5,14-14Z"/>
  <path class="cls-6" d="M38.44,38.68c16.52.36,30.91,9.6,43.98,18.56l-31.58,38.51c-4.11,1.18-12.4-25.34-12.4-29.56v-27.5Z"/>
  <path class="cls-6" d="M265.44,151.68c8.9,1.25,15.69-1.13,24.96,1.54,19.75,5.69,16.73,26.01-.03,33.89-3.62,1.7-9.77-1.76-6.93,3.57-7.04-1.01-4.65-5.79-10.96-7.54-3.29-.91-11.86.13-12.92-.58-.68-.45-1.95-9.48-9.11-12.88.04-9.22,4.29-5.42,9-8,.99-.54,4.94-2.4,5.1-2.64,1.34-2.09.62-5.1.9-7.36Z"/>
  <path class="cls-6" d="M329.97,86.16c-8.59-10.42-17.3-20.59-26.53-30.47l42.43-17.88c7.31,2.8-1.45,51.15-9.93,56.84-2.31-2.62-3.76-5.81-5.97-8.49Z"/>
  <path class="cls-2" d="M57.22,18.96c19.11-2.27,43.09,5.79,58.21,17.19l-23.32,13.44c-12.21-12.51-29.72-20.75-46.68-24.39-4.17-2.94,10.68-6.1,11.8-6.23Z"/>
  <path class="cls-2" d="M309.44,18.68c9.41,1.31,25.06-3.39,30.99,5.99-15.32,1.98-30.85,9.58-41.99,20.01-1.29.7-4.14,3.99-6.33,3.8l-21.67-13.79c12.11-7.31,24.87-13.31,39-16.02Z"/>
  <path class="cls-5" d="M280.44,56.68c-49.79-29.58-114.56-28.71-166-4,50.54-27.8,117.29-27.83,166,4Z"/>
  <path class="cls-1" d="M74.44,84.68c-25.92,34.44-36.94,76.79-19,118-20.68-39.48-9.18-85.86,19-118Z"/>
  <path class="cls-5" d="M316.44,90.68c24.7,28.5,35.59,78,14,111,18.27-38.1,9.53-77.67-14-111Z"/>
  <path class="cls-4" d="M309.44,18.68c11.9-2.28,26.93-4.49,34.99,6.99-17.65.35-31.45,11.17-45.99,19.01,11.14-10.43,26.67-18.02,41.99-20.01-5.93-9.38-21.59-4.69-30.99-5.99Z"/>
  <path class="cls-6" d="M126.44,152.68c1.33,7.92,9,11.43,14,5,5.31,9.33,8.64,18.39,1.43,27.93-7.6,10.05-17.5,4.99-26.43,7.07,10.65-19.22-6.49-13.72-18-9-3.01.55-3.4-7.97-4-11,5.26.17,23.26,2.19,22.65-6.63-.54-7.79-15.17-7.37-21.65-7.37l19.76-6.73,12.24.73Z"/>
  <path class="cls-7" d="M204.67,149.46c4.48,1.21,26.83-13.68,19.04,3.99-5.98,13.58-21.25,5.34-27.61,5.49-2.54.06-7.38,3.7-12.2,3.54-11.65-.38-23.46-17.5-11.97-18.9,5.84-.71,6.06,5.15,11.29,5.9,6.39.92,8.52-4.37,12.67-4.67,5.73-.41,8.27,4.51,8.78,4.65Z"/>
  <path class="cls-7" d="M94.44,158.68c6.48,0,21.11-.41,21.65,7.37.61,8.81-17.4,6.8-22.65,6.63-6.71-.22-17.49,2.74-19-6,.27-1.16,1.24-4.47,2-5,3.26-2.27,9.38-1.66,13-2,1.45-.14,2.84-.99,3-1,.66-.03,1.34,0,2,0Z"/>
  <path class="cls-7" d="M115.44,192.68c-6.9,1.61-18.52,8.27-23,9-7.35,1.2-9.83-1.87-9-9,4.12-2.33,9.32-7.08,14-9,11.51-4.72,28.65-10.22,18,9Z"/>
  <path class="cls-7" d="M259.44,161.68c-30.5-12.48,11.53-54.49,6-10-.28,2.26.44,5.27-.9,7.36-.16.24-4.11,2.1-5.1,2.64Z"/>
  <path class="cls-7" d="M126.44,152.68c-1.37-8.13-.47-27.78,12.74-19.32,4.51,2.89,4.38,20.32,1.26,24.32-5,6.43-12.67,2.92-14-5Z"/>
  <path class="cls-6" d="M92.44,158.68c-.16,0-1.55.86-3,1l3-1Z"/>
  <g>
    <path class="cls-7" d="M321.44,248.68c6.48,6.45,23.83-25.04,28.04-29.46,7.15-7.51,13.27-11.95,23.47-5.54,24.36,15.31-15.11,44.08-21.37,57.64-4.53,9.82-1.3,17.69-10.65,27.35-2.87,2.96-9.93,5.71-12.49,8.51-19.05,20.86,13.24,77.8-26.46,82.54-24.15,2.88-105.31,3.14-129.08,0-5.29-.7-12.98-5.89-13.78-5.86-.93.04-12.53,5.89-17.45,6.56-11.39,1.54-28.84.44-39.59-3.88-7.1-2.86-15.96-13.19-17.34-13.66-17.27-5.92-26.95.45-42.13-18.87-27.52-35,3.5-75.25-12.75-97.25-5.27-7.13-23.34-19.56-7.36-31.51,24.7-18.48,49.97,27.65,50.04,48.94.06,19.64-15.71,45.14,1.42,62.49,2.56-11.11,2.9-22.58,5.15-33.82,3.6-17.96,8.95-35.95,16.3-52.69-45.91-15.05-66.43-53.68-62.94-100.95.65-8.87,10.16-36.61,9.96-38.96-.12-1.4-7.41-11.63-8.85-15.22C11.16,39.22,23.26-12.1,94.39,10.23c9.53,2.99,34.41,20.19,36.5,20.38,1.87.17,22.21-6.74,27.37-7.62,20.18-3.41,38.05-4.38,58.54-2.18,7.09.76,36.07,8.91,38,8.63,1.04-.15,14.37-9.77,17.62-11.29,58.53-27.29,105.18-14.94,85.51,59.51-1.92,7.27-14.38,28.89-14.48,30.58-.21,3.61,8.95,28.16,9.84,37.07,2.79,27.72-2.12,48.41-17.45,71.26-2.03,3.02-14.41,15.3-14.41,16.59v15.5ZM309.44,18.68c-14.12,2.7-26.88,8.71-39,16.02l21.67,13.79c2.19.19,5.03-3.1,6.33-3.8,14.55-7.84,28.34-18.65,45.99-19.01-8.06-11.48-23.1-9.27-34.99-6.99ZM57.22,18.96c-1.12.13-15.97,3.3-11.8,6.23,16.97,3.64,34.47,11.89,46.68,24.39l23.32-13.44c-15.12-11.39-39.09-19.45-58.21-17.19ZM114.44,52.68c-9.24,5.08-18.03,11.12-26,18-4.06,3.5-10.43,9.93-14,14-28.18,32.14-39.68,78.52-19,118,13.33,25.45,42.49,37.39,70,41,9.5,19.87-15.87,8.54-18.73,11.29-3.03,2.91-13.97,43.09-15.27,49.71-3.35,17.1-6.87,39.39,0,56,9.27,22.38,68.49,28.31,65.57-1.63-1.59-16.28-27.11-13.71-27.64-23.84-.67-12.66,20.79-.02,23.12-1.94,1.6-2.27,1.32-12.67.08-14.01-2.18-2.35-34.82-5.11-36.24-15.06-2.35-16.39,25.55,1.41,34.73,1.34s19.6-4.83,19.47-15.37c-.26-21.18-45.62-11.55-40.64-27.52,2.7-8.68,17.19,1.43,23.56.03v-57.5c0-20.31,32.67-11.92,41.32-14.68,1.21-.39,5.85-6.88,8.39-7.61,3.66-1.04,10.64.93,13.63-1.12.86-.59,1.9-5.86,4.12-8.13,8.42-8.61,18.91-9.01,29.53-3.97,7.16,3.4,8.44,12.43,9.11,12.88,1.06.71,9.63-.33,12.92.58,6.31,1.74,3.92,6.53,10.96,7.54,15.36,2.19,40.91-6,38.01,19.99l3.04-.69c1.55-3.04,4.12-5.5,5.96-8.3,21.59-33,10.7-82.5-14-111-9.53-13.5-21.77-25.54-36-34-48.71-31.83-115.46-31.8-166-4ZM329.97,86.16c2.21,2.68,3.66,5.88,5.97,8.49,8.48-5.69,17.25-54.04,9.93-56.84l-42.43,17.88c9.23,9.87,17.94,20.05,26.53,30.47ZM38.44,38.68v27.5c0,4.22,8.29,30.75,12.4,29.56l31.58-38.51c-13.06-8.95-27.45-18.19-43.98-18.56ZM267.15,195.02c-4.41-1.47-11.7.95-15.7-.84-5.11-2.3-1.08-14.97-15.34-13.4-10.99,1.21-5.35,6.89-8.55,12.25-2.2,3.67-15.12,4.54-19.14,3.09-1.89,4.67-2.39,9.3,3.5,10.61,3.18.71,52.4.73,55.04-.04,4.46-1.31,2.96-10.74.21-11.65ZM180.44,302.68c-2.78,6.22-14.31,14.01-15,16.49-3.83,13.92,8.26,39.75,3.09,54.07l1.91,2.94,132.53.54c2.07.3,6.46-.97,6.46-3.54v-44.5c-19.73,8-26.8-6.54-19.51-24.01,1.41-3.37,7.08-8.34,7.49-11.58,1.02-8.03-4.16-14.03-.02-26.95,2.36-7.36,11.14-13.43,12-17,.59-2.48.65-37.46.07-40.01-.48-2.11-.3-3.32-2.75-4.25l-25.29-.22c.43,10.59-4.89,13.99-14.45,15.05s-52.13,1.57-60.97-.12c-11.41-2.19-8.91-13.39-12.22-14.78l-26.36.35c-2.7,1.54-3.21,58.98-2.06,61.88s15.89,2.98,17.06,23.63c.02.33,0,.67,0,1,0,.98.1,2.03,0,3-.34,3.37-.61,4.88-2,8ZM35.44,244.68c24.47,22.99,4.24,50.69,7.13,78.37,1.91,18.23,15.73,34.22,34.35,36.65,1.99-13.88-7.14-10.52-13.91-17.1-25.51-24.78,13.77-68.61-13.58-97.92-8.2-8.79-27.13-14.4-14,0ZM348.8,240.04c-5.02,4.73-10.22,14.54-2.86,19.61,1.07.05,12.24-16.51,12.28-17.63.22-6.46-5.79-5.39-9.41-1.99ZM320.15,258.9c-12.5,2.82-17,27.27-4.62,33.19,24.82,11.88,32.34-39.44,4.62-33.19ZM304.67,303.92c-3.45,1.51-9.59,19.49.35,13.82.56-.32,8.26-9.08,8.33-9.72.37-3.19-5.74-5.39-8.68-4.1Z"/>
    <path class="cls-2" d="M49.44,244.68c25.54,35.69-16.88,68.86,16.81,101.94,3.92,3.85,10.26,1.95,8.68,11.07-21.21-3.16-31.31-22.8-31.51-42.46-.31-32.01,19.01-40.95-7.98-70.56-13.13-14.4,5.8-8.79,14,0Z"/>
    <path class="cls-4" d="M91.44,304.68c4.12-.29.7,6.42,1.12,9.35.17,1.19,2.81,1.4,2.96,2.34,2.41,15.89.87,36.22,12.95,49.78.59.66,13.67,9.33,14.51,9.55,3.01.82,1.91-2.35,3.89-2.05,4.42.67,10.47,2.85,15.57,3.02h-25.5c-9.26,0-19.82-9.42-25.5-16-6.87-16.61-3.35-38.9,0-56Z"/>
    <path class="cls-4" d="M35.44,244.68c26.99,29.61,7.66,38.54,7.98,70.56.19,19.66,10.29,39.3,31.51,42.46,1.58-9.12-4.76-7.22-8.68-11.07-33.69-33.09,8.73-66.25-16.81-101.94,27.35,29.32-11.93,73.14,13.58,97.92,6.77,6.57,15.9,3.22,13.91,17.1-18.62-2.43-32.44-18.42-34.35-36.65-2.9-27.68,17.34-55.38-7.13-78.37Z"/>
    <g>
      <path class="cls-3" d="M267.15,195.02c2.75.92,4.25,10.35-.21,11.65-2.64.77-51.86.75-55.04.04-5.89-1.31-5.39-5.94-3.5-10.61,4.02,1.45,16.95.59,19.14-3.09,3.2-5.36-2.43-11.04,8.55-12.25,14.26-1.57,10.23,11.1,15.34,13.4,4,1.8,11.3-.63,15.7.84Z"/>
      <path class="cls-1" d="M320.15,258.9c27.72-6.25,20.2,45.08-4.62,33.19-12.38-5.93-7.87-30.38,4.62-33.19Z"/>
      <path class="cls-6" d="M180.44,302.68c1.39-3.12,1.66-4.63,2-8,4.98-4.36,11.08,1.14,13.93.55,4.82-1.01,11.28-18.15,19.13-11.1,6.43,5.77-11.51,26.79-16.01,28.11-7.76,2.27-14.77-3.84-19.05-9.55Z"/>
      <path class="cls-3" d="M348.8,240.04c3.62-3.41,9.63-4.47,9.41,1.99-.04,1.12-11.2,17.67-12.28,17.63-7.36-5.07-2.16-14.88,2.86-19.61Z"/>
      <path class="cls-3" d="M304.67,303.92c2.94-1.29,9.05.91,8.68,4.1-.07.64-7.78,9.4-8.33,9.72-9.94,5.67-3.8-12.31-.35-13.82Z"/>
      <path class="cls-6" d="M182.44,291.68c0-.33.02-.67,0-1v1Z"/>
      <path class="cls-7" d="M233.16,248.9c3.49-.93,49.74-1.01,53.71-.16,8.51,1.83,8.15,11.41-1.92,12.95-6.03.92-45.64,1.06-50.95-.08-7.72-1.66-7.8-10.86-.84-12.71Z"/>
      <path class="cls-7" d="M233.16,291.9c2.8-.78,43.76-.78,46.56,0,5.83,1.62,8.07,11.14-.77,12.79-3.88.73-42.67.64-45.79-.23-6.41-1.78-6.41-10.78,0-12.56Z"/>
      <path class="cls-7" d="M234.19,331.92c3.9-.91,39.75-1.03,43.69-.18s6.42,3.31,6.58,7.39c-.23,2.14-3.46,5.01-5.55,5.51-2.5.6-43.72.61-45.94,0-6.05-1.65-6.77-10.86,1.22-12.73Z"/>
      <path class="cls-7" d="M209.16,323.91c23.64-7.33-4.24,27.94-7.71,30.27-9.87,6.64-24.1-12.69-20.92-17.85,5.15-8.33,12.87,3.67,15.29,3.3s9.53-14.54,13.34-15.72Z"/>
      <path class="cls-7" d="M180.98,260.16c-5.2-7.17-.54-12.42,7.52-10.03,2.69.8,5.62,5.9,7.41,5.55,2.18-.43,12.66-19.75,18.79-16.82,14.79,2-12.74,29.07-15.51,30.06-6.97,2.51-14.42-3.54-18.21-8.76Z"/>
    </g>
  </g>
  <path class="cls-1" d="M93.44,172.68c.6,3.03.99,11.55,4,11-4.68,1.92-9.88,6.67-14,9-1.31.74-1.75.76-2.99,1.99-2.4-6.13,2.93-7.06,2.99-8.47.38-8.98-12.71-3.67-9-19.52,1.51,8.74,12.29,5.78,19,6Z"/>
</svg>