<?xml version="1.0" encoding="UTF-8"?>
<svg id="Layer_4" data-name="Layer 4" xmlns="http://www.w3.org/2000/svg" viewBox="0 0 396.85 396.85">
  <defs>
    <style>
      .cls-1 {
        fill: #fad89b;
      }

      .cls-2 {
        fill: #e4af5f;
      }

      .cls-3 {
        fill: #90a1db;
      }

      .cls-4 {
        fill: #f6ce8d;
      }

      .cls-5 {
        fill: #e1e4e7;
      }

      .cls-6 {
        fill: #f1919f;
      }

      .cls-7 {
        fill: #040403;
      }
    </style>
  </defs>
  <path class="cls-7" d="M339.75,166.35h31.5c12.2,0,20.06,10.46,21.48,21.52,1.94,15.13,1.68,134.53-1.79,144.18-8.03,22.31-49.32,10.24-67.2,13.3,2.39,18.89-6.17,33.87-25.76,36.74-32.62,4.78-128.19,3.29-162.78.31-13.69-1.18-23.31-5.14-34.78-12.22-2.76-1.7-7.41-8.16-9.42-8.66-4.83-1.2-15.28,1.61-24.27-.66-46.86-11.82-30.57-71.64-48.96-92.04-4.61-5.12-12.8-6.05-14.58-15.41-1.26-6.62,1.5-16.51,8.5-18.61,20.3-6.08,38.75,17.85,44.81,34.29,6.93,18.81,2.42,50.62,21.24,58.25-3.57-26.72,3.56-54.95,15.98-78.6l-.08-2.28c-46.3-15.72-62.73-60.4-54.45-106.16,1.05-5.78,9.56-26.81,9.37-28.29s-11.11-19.6-12.94-27.02C18.99,17.62,55.75-4.56,114.42,25.19c3.46,1.75,15.96,11.89,17,11.97,1.31.1,20.36-6.51,25.32-7.32,20.86-3.39,38.2-4.29,59.22-1.18,5.76.85,29.39,7.92,31.27,7.7,1.52-.18,20.69-13.5,26.18-15.85,55.63-23.92,85.01,2.31,69.84,60.84-1.88,7.24-14.36,28.82-14.43,30.51-.05,1.22,6.91,18.64,7.81,23.14,2.05,10.28,3.16,20.86,3.13,31.37ZM79.75,26.35c-8.73-3.68-25.55-2.48-30,6.99,10.72-3.62,41.67,21.27,44.93,21.64,3.07.35,2.37-1.3,3.08-1.64,1.72-.82,18.28-10.94,18-11.98-10.94-6.27-23.1-13.85-36-15.02ZM319.75,26.35c-20.56-6.35-43.88,4.02-59.99,16.51l9.99,4.49c2.4,1.84,9.16,6.95,12.01,6.58,4.97-.64,33.37-26.33,45.99-22.59.26-2.81-6.26-4.66-8-4.99ZM115.75,57.35c-8.81,4.38-14.5,9.36-20,16-1.1,1.33-2.95,2.62-4,4-.67.33-1.33.66-2,1-9.43,4.76-19.36,20.45-24,30-23.99,33.53-22.96,91.93,13,117,13.28,9.26,27.13,9.89,38,16,2.2,3.31,2.92,7.2.76,10.76-5.16,5.12-8.48-6.71-17.61,10.89-12.24,23.57-16.92,65.45-1.14,88.36,11.27,17.89,29.81,17.34,48,18,22.41.82,63.13,3.07,84,1,16.94-1.68,13.2-25,9.5-25h-117c-.36,0-6.19-2.82-6.5-3-.24-.15-3.35-3.33-4-4-1.09-3.37-3.71-8.65-4-12-.19-2.22-.36-7.01,0-9,6.93-3.51,6.31-18.5,13.01-19.55,3.17-.5,15,6.18,26.4,4.46,12.75-1.92,16.48-14.4,4.6-20.91-9.24-5.06-31.67,1.44-26.8-12.29,3.85-10.86,42.74.52,43.79,14.28,5.2-30.14-3.52-69.27,1.11-98.39,1.54-9.7,7.53-12.95,14.9-17.6,20.25-1.76,40.69-.96,61-1,12.65-.02,25.35.1,38,0,14.32-.11,28.69.08,43.01,0,3-2.98-5.8-49.54-14.01-54.01-12.1-25.94-32.54-44.87-58-58-42.6-21.97-98.17-20.05-140,3ZM332.64,44.46c-1.98-3.77-37.69,13.35-40.87,18.39l30.49,35.5c9.87-15.97,12.26-35.64,10.38-53.88ZM77.33,57.77c-3.64-2.61-27.55-14.23-30.7-10.83-2.31,16.8-1.24,36.63,9.63,50.39l27.56-31.65c.7-3.1-3.99-6.12-6.48-7.91ZM186.75,180.35c-.94.64-1.34,1.11-2,2-2.82,3.79-2.45,3.31-3,8-2.7,23.09-.38,59.63,0,84,.03,2-.05,4,0,6,.11,4.29-.31,8.73,0,13,.07.98-.14,2.04,0,3,.19,1.28-.13,2.7,0,4l164,2c.24.2,1.92,1.88,2,2,.39.62.35,2.22,1,3-.59.28-1.94,5.94-5.45,5.05l-161.55.95v21.01s187.53.03,187.53.03c2.82.42,4.37-1.07,6.47-2.03,5.04-2.32,6.96-14.93,4.56-18.06-2.06-2.69-15.59,2.53-17.56-6.94-.12-.56,0-1.38,0-2,0-.18,1.65-2.63,2-3l16-2c.1-.97-.16-2.04,0-3,2.97-18.28,2.04-88.23,0-108-.1-.96.17-2.12,0-3-.63-3.24-1.1-2.96-3-5-1.51-1.62-1.11-1.18-3-2-2.79-1.22-3-1.63-6.47-2.04-36.63-4.27-134.88-3.77-172.08,0-4.9.5-5.28.2-9.46,3.04ZM19.62,245.52c-12.73-1.88,9.43,18.28,10.58,19.92,17.5,25.09,2.13,88.85,52.56,82.9-1.14-8.73-8.33-5.74-15.73-10.76-25.39-17.21-8.98-65.25-36.5-86.87-.48-.37-10.31-5.11-10.9-5.2ZM169.75,333.35v-18.5c0-3.88-15.06-2.74-18.55-2.57-6.4.3-14.91-.18-20.94.06-.44.02-6.81,3.31-7.52,4.51-15.32,25.7,35.32,16.41,47.01,16.51ZM252.75,367.35c.4,3,.82,2.57,3.45,3.05,9.58,1.73,47.14.31,52.55-8.05,3.78-5.85,3.47-10.5,2-17h-56c3.58,6.02-2.4,19.02-2,22Z"/>
  <path class="cls-1" d="M255.75,54.35c25.46,13.13,45.9,32.06,58,58,3.77,8.08,12,28.22,12,36.5v15.5c-11.39,1.53-28.34-2.06-39,0-5.21-10.16-21.03-10.47-31-9,1.65-6.29.5-29.38-11.4-21.91-4.87,3.06-6.67,27.45,2.4,27.91-.51.91-.99,1.94-1,3l-51.99.99c4.76-1.9,11.09-2.9,13.99-7.99,3.67-3.36,5.66-4.67,2-9-6.52-7.7-9.42.99-15.98,2.52-11.94,2.78-11.97-3.75-18.76-5.34-11.23-2.63-8.36,8.12-2.27,13.82,4.45,4.15,9.9,6.1,15.99,6.01-.18,1.38-1.8,1.24-2.99,1.99-7.38,4.65-13.36,7.9-14.9,17.6-4.63,29.12,4.09,68.26-1.11,98.39-1.05-13.76-39.93-25.14-43.79-14.28-4.87,13.73,17.56,7.23,26.8,12.29,16.41,17.52-3.95,20.96-18.53,19.03-6.99-.93-8.82-6.11-15.23-3.37-1.4.6-9.89,18.43-10.24,20.34s-.19,6.78,0,9c-6.07,2.76,2.25,10.19,4,12,.65.67,3.76,3.85,4,4-1.1,11.9-12.9-8.68-14.53-11.97-1.25-2.52.23-6.65-.46-8.31-.23-.55-6.69-7.9-8.01-6.72-.73.65,1.99,5.19-3,4.01-.04-.66.03-1.34,0-2v-1c-.02-.67,0-1.33,0-2v-2c.52-20.77,5.08-39.74,15.14-57.79,4.14.08,7.82-.51,11.86-1.21,2.58-.45,10.72-1.87,13.46-2.04,8.43-.51,16.63,1.61,25.06,1.04l1.48-2c-24.71-3.21-59.88-20.19-63-48.01,1.72-.49,13.78-5.23,15-6,23.92,4.48,45.55-15.18,27-37,5.15-4.75,5.96-32.03-7.27-27.84-5.3,1.68-5.7,18.63-4.73,22.84-9.53.13-21.6-1.3-29,5.99,3.53-.32,5.64-.11,9,1.01-6.6-.58-18.42,2.07-24,1-.57-.11-3.92-1.29-4.07-1.6-5.54-30.86,7.1-58.44,20.77-84.63.88-1.69.82-3.29-1.7-2.77,5.5-6.64,11.19-11.62,20-16,43.21-21.48,95.9-21.25,140-3Z"/>
  <path class="cls-4" d="M95.75,73.35c2.53-.52,2.59,1.08,1.7,2.77-13.67,26.2-26.32,53.78-20.77,84.63.15.31,3.5,1.49,4.07,1.6-10.26,12.58-1.46,11.05,7,12l4,15c-12.53,6.56-11.01,16.99,3,13,3.12,27.81,38.29,44.79,63,48.01l-1.48,2c-8.43.57-16.63-1.55-25.06-1.04-2.74.16-10.88,1.59-13.46,2.04,3.59-3.54,3.99-9.2-1-12-10.87-6.11-24.72-6.74-38-16-35.99-31.84-32.43-77.05-13-117,4.64-9.55,14.57-25.24,24-30l1.99,2c.21-.79-.24-2.68,0-3,1.05-1.38,2.9-2.67,4-4Z"/>
  <path class="cls-2" d="M146.75,369.35l-4-22h98c1.04,0,1.1,12.19.23,14.73-2.04,5.98-6.9,4.48-10.23,8.27-20.87,2.07-61.59-.18-84-1Z"/>
  <path class="cls-4" d="M90.75,319.35c4.99,1.19,2.27-3.36,3-4.01,1.32-1.18,7.79,6.18,8.01,6.72.69,1.66-.79,5.79.46,8.31,1.63,3.29,13.42,23.87,14.53,11.97.31.18,6.14,3,6.5,3h117c3.7,0,7.44,23.32-9.5,25,3.33-3.79,8.19-2.29,10.23-8.27.87-2.54.81-14.73-.23-14.73h-98l4,22c-18.19-.66-36.73-.11-48-18-5.1-8.09-7.36-22.54-8-32Z"/>
  <path class="cls-6" d="M332.64,44.46c1.88,18.25-.51,37.91-10.38,53.88l-30.49-35.5c3.18-5.04,38.89-22.15,40.87-18.39Z"/>
  <path class="cls-2" d="M19.62,245.52c.6.09,10.43,4.83,10.9,5.2,27.52,21.61,11.11,69.65,36.5,86.87,7.4,5.01,14.59,2.02,15.73,10.76-50.43,5.95-35.06-57.82-52.56-82.9-1.15-1.64-23.31-21.8-10.58-19.92Z"/>
  <path class="cls-2" d="M308.75,362.35c-5.4,8.35-42.96,9.78-52.55,8.05-2.63-.48-3.05-.05-3.45-3.05,5.52-3.41,4.52-14.78,3-19.99l51.29.2c5.55,2.12,1.32,10.8,1.71,14.79Z"/>
  <path class="cls-6" d="M77.33,57.77c2.49,1.79,7.18,4.81,6.48,7.91l-27.56,31.65c-10.87-13.76-11.93-33.59-9.63-50.39,3.15-3.4,27.06,8.22,30.7,10.83Z"/>
  <path class="cls-2" d="M79.75,26.35c12.9,1.17,25.05,8.74,36,15.02.29,1.04-16.28,11.16-18,11.98l-46-21.01c5.62-6.86,19.99-6.72,28-5.99Z"/>
  <path class="cls-2" d="M319.75,26.35c1.74.32,8.26,2.18,8,4.99-12.63-3.74-41.02,21.95-45.99,22.59-2.85.37-9.61-4.74-12.01-6.58-1.49-1.15-7.35-4.37-6.99-5.49,14.6-10.9,38.84-18.89,56.99-15.51Z"/>
  <path class="cls-6" d="M286.75,164.35c-.92.18-1.65,1.16-2,2-12.65.1-25.35-.02-38,0-.18-.6-1.01-1.55-1-2,.01-1.06.49-2.09,1-3,3.57.18,8.06-2.42,9-6,9.97-1.47,25.79-1.16,31,9Z"/>
  <path class="cls-5" d="M255.75,54.35c-44.1-18.25-96.79-18.48-140,3,41.83-23.05,97.4-24.97,140-3Z"/>
  <path class="cls-4" d="M252.75,367.35c-.4-2.98,5.58-15.98,2-22h56c1.47,6.5,1.78,11.15-2,17-.39-3.99,3.84-12.67-1.71-14.79l-51.29-.2c1.52,5.2,2.52,16.58-3,19.99Z"/>
  <path class="cls-1" d="M65.75,108.35c-19.43,39.95-22.99,85.16,13,117-35.96-25.07-36.99-83.47-13-117Z"/>
  <path class="cls-5" d="M313.75,112.35c8.21,4.47,17,51.02,14.01,54.01-14.32.07-28.69-.12-43.01,0,.35-.84,1.08-1.82,2-2,10.66-2.06,27.61,1.53,39,0v-15.5c0-8.28-8.23-28.42-12-36.5Z"/>
  <path class="cls-5" d="M209.75,148.35c3.66,4.33,1.67,5.64-2,9-2.91,5.09-9.24,6.09-13.99,7.99l51.99-.99c0,.45.82,1.4,1,2-20.31.04-40.75-.76-61,1,1.19-.75,2.81-.61,2.99-1.99-6.09.08-11.55-1.86-15.99-6.01,10.03,5.64,25.96,6.27,35-2,1.53-2.68,2.45-5.84,2-9Z"/>
  <path class="cls-5" d="M117.75,253.35c-4.03.7-7.72,1.29-11.86,1.21-10.07,18.05-14.62,37.02-15.14,57.79-.02.67,0,1.33,0,2s-.02,1.33,0,2c0,.33-.01.67,0,1,.03.66-.04,1.34,0,2,.64,9.46,2.9,23.91,8,32-15.78-22.91-11.09-64.78,1.14-88.36,9.14-17.6,12.45-5.77,17.61-10.89,2.17-3.56,1.44-7.44-.76-10.76,4.99,2.8,4.59,8.46,1,12Z"/>
  <path class="cls-4" d="M319.75,26.35c-18.15-3.38-42.4,4.61-56.99,15.51-.35,1.12,5.5,4.34,6.99,5.49l-9.99-4.49c16.12-12.48,39.44-22.85,59.99-16.51Z"/>
  <path class="cls-4" d="M79.75,26.35c-8.01-.73-22.38-.87-28,5.99l46,21.01c-.7.34,0,1.99-3.08,1.64-3.26-.37-34.2-25.27-44.93-21.64,4.45-9.48,21.27-10.67,30-6.99Z"/>
  <path class="cls-4" d="M108.75,326.35c.29,3.35,2.91,8.63,4,12-1.75-1.81-10.07-9.24-4-12Z"/>
  <path class="cls-1" d="M91.75,77.35c-.25.33.2,2.21,0,3l-1.99-2c.67-.34,1.33-.67,2-1Z"/>
  <path class="cls-7" d="M172.75,159.35c-6.1-5.69-8.97-16.45,2.27-13.82,6.78,1.59,6.81,8.11,18.76,5.34,6.56-1.52,9.45-10.22,15.98-2.52.45,3.16-.47,6.32-2,9-9.04,8.27-24.97,7.64-35,2Z"/>
  <g>
    <path class="cls-6" d="M124.75,154.35c1.17,5.07,7.23,9.4,12,5,18.55,21.82-3.08,41.48-27,37,8.3-5.23,8.66-16.46-2.24-13.73-.83.21-14.67,6.16-15.76,6.73l-4-15c5.01.56,20.25,2.66,23.56-.94,6.4-6.95-1.36-10.32-6.56-12.06-3.36-1.12-5.47-1.33-9-1.01,7.4-7.28,19.47-5.86,29-5.99Z"/>
    <path class="cls-7" d="M104.75,161.35c5.2,1.74,12.96,5.11,6.56,12.06-3.31,3.6-18.55,1.5-23.56.94-8.46-.95-17.26.58-7-12,5.58,1.07,17.4-1.58,24-1Z"/>
    <path class="cls-7" d="M91.75,189.35c1.08-.57,14.92-6.52,15.76-6.73,10.91-2.73,10.55,8.5,2.24,13.73-1.22.77-13.28,5.51-15,6-14.01,3.99-15.53-6.44-3-13Z"/>
  </g>
  <path class="cls-7" d="M124.75,154.35c-.97-4.21-.58-21.16,4.73-22.84,13.23-4.19,12.43,23.09,7.27,27.84-4.77,4.4-10.83.07-12-5Z"/>
  <path class="cls-7" d="M246.75,161.35c-9.07-.45-7.27-24.84-2.4-27.91,11.89-7.47,13.05,15.62,11.4,21.91-.94,3.58-5.43,6.18-9,6Z"/>
  <path class="cls-4" d="M90.75,314.35c0-.67-.02-1.33,0-2v2Z"/>
  <path class="cls-4" d="M90.75,317.35c-.01-.33,0-.67,0-1v1Z"/>
  <g>
    <path class="cls-5" d="M374.75,179.35c1.89.82,1.49.38,3,2,.3,2.16.09,5.6,3,5,.17.88-.1,2.04,0,3v108c-.16.96.1,2.03,0,3-6.36.78-12.13-2.06-16,2-.35.37-2,2.82-2,3l-6,2c-.66-.03-1.34,0-2,0,.9-3.39-4.35-1.5-7-3-.08-.12-1.76-1.8-2-2-.17-.14.59-1.91-.6-2.05l-163.4.05c-.13-1.3.19-2.72,0-4v-3c-.31-4.27.11-8.71,0-13v-6c-.38-24.37-2.7-60.91,0-84,3.18.85,2.44-5.36,3-8,.66-.89,1.06-1.36,2-2l188-1ZM275.5,216.61c-23.33,3.97-24.47,44.01,3.79,45.78,33.82,2.12,31.57-51.79-3.79-45.78Z"/>
    <path class="cls-3" d="M354.75,307.35c.66,0,1.34-.03,2,0,1.99.08,4.01-.05,6,0,1.98,9.47,15.5,4.25,17.56,6.94,2.4,3.13.48,15.74-4.56,18.06l-193.01,1.01-.99-20.01,161.55-.95c3.51.89,4.86-4.77,5.45-5.05,1.86-.88,4.36.01,6,0Z"/>
    <path class="cls-3" d="M169.75,333.35c-11.7-.1-62.33,9.19-47.01-16.51.72-1.2,7.09-4.5,7.52-4.51,6.03-.23,14.54.24,20.94-.06,3.49-.16,18.55-1.31,18.55,2.57v18.5Z"/>
    <path class="cls-5" d="M181.75,313.35l.99,20.01,193.01-1.01c-2.1.97-3.65,2.45-6.47,2.03l-187.54-.03v-21.01Z"/>
    <path class="cls-5" d="M152.75,281.35c11.89,6.51,8.15,18.98-4.6,20.91-11.39,1.72-23.22-4.96-26.4-4.46-6.7,1.06-6.08,16.05-13.01,19.55.35-1.91,8.84-19.74,10.24-20.34,6.41-2.74,8.24,2.44,15.23,3.37,14.58,1.93,34.94-1.51,18.53-19.03Z"/>
  </g>
</svg>