<?xml version="1.0" encoding="UTF-8"?>
<svg id="Layer_2" data-name="Layer 2" xmlns="http://www.w3.org/2000/svg" viewBox="0 0 396.85 396.85">
  <defs>
    <style>
      .cls-1 {
        fill: #fad89b;
      }

      .cls-2 {
        fill: #e4af5f;
      }

      .cls-3 {
        fill: #f6ce8d;
      }

      .cls-4 {
        fill: #e1e4e7;
      }

      .cls-5 {
        fill: #f1919f;
      }

      .cls-6 {
        fill: #040403;
      }
    </style>
  </defs>
  <g>
    <path class="cls-6" d="M310.58,309.87c-.79,1.13,3.02,22.92,2.92,27.32-.89,39.65-33.43,60.54-71.3,53.55-6.27-1.16-13.07-6.31-16.06-6.75-28.19-4.17-61.45,20.28-94.29-.9-3.38-2.18-12.72-12.77-13.97-13.05-2.65-.61-12.09,2.19-16.84,1.87-66.42-4.37-46.08-64.52-69.91-89.1-7.79-8.03-18.94-7.77-16.47-24.39,2.73-18.37,24.8-13.03,35.84-4.98,29.26,21.35,23.03,65.98,38.76,78.24,4.5,3.51,18.29,6.8,23.11,3.93,2.54-1.51,4.16-24.84,3.23-25.77-.21-.21-4.33.34-6.03-.47-24.03-11.41-24.08-36.05-10.97-56.52-51.37-19.17-63.72-72.37-52.28-121.79.83-3.57,7.25-17.59,7.1-18.58-.2-1.29-11.41-16.54-13.58-22.39C14.95,23.13,49.36-15.16,116.78,16.16c4.44,2.06,23.42,14.69,25.2,14.7,5.1.02,29.45-8.74,39.24-9.86,21.5-2.45,43.13-1.18,64.38,2.34,5.29.88,26.44,7.8,28.41,7.54,1.86-.24,25.21-15.77,32.59-18.5,63.33-23.46,87.93,9.42,70.47,70.47-2.11,7.37-14.35,27.92-14.51,29.55-.23,2.26,9.28,29.68,9.99,37.98,3.47,40.76-12.4,80.85-48.97,100.98,13.13,12.87,15.06,40.01.53,52.52-4.15,3.58-13.12,5.37-13.54,5.98ZM114.58,43.86l12.98-6.5c-18.75-12.9-58.74-30.77-76.97-10.51l43.99,19.01c1.4.94,7.03,5.69,7.5,5.72.73.05,10.9-6.62,12.5-7.72ZM293.58,33.86c-1.61.9-2.92,2.23-5,2.01l23.51,15.76c3.31-2.9,6.82-5.35,10.49-7.78l41.02-17.48c-13.42-18.86-54.2-4.91-70.02,7.48ZM127.58,51.86c-8.5,4.6-17.56,10.77-25,17-8.15,6.82-19.29,19.21-25,28-25.19,31.77-32.5,81.46-9,116,9.18,13.49,30.26,34.06,47.72,30.54l-.72-20.54c3.43-10.38,7.95-17.66,19-20,21.47-4.55,126.18-3.65,150.53-1.03,5.96.64,8.64,1.52,13.47,5.03,11.69,8.51,10.83,22.99,9.01,35.99,19.05-3.25,36.68-23.54,44.16-40.33,25.04-56.21-9.89-121.64-61.17-148.67-47.67-28.34-114.62-28.21-163-2ZM367.58,38.85c-16.07,3.43-31.97,10.04-43.73,21.5l33.16,38.55c8.45-18.72,13.02-39.56,10.57-60.05ZM74.26,80.54c6.03-6.93,12.43-13.14,18.32-20.14-5.94-4.58-38.39-24.03-44.05-20.12-3.43,9.03-2.14,20.34-.65,29.77.65,4.1,7.76,31.9,13.74,28.36.94-.56,9.7-14.5,12.63-17.87ZM151.58,214.86c-9.02.52-24.2-1.81-14.98,9.48,8.33,10.19,46.65,43,58.51,52.49,15.36,12.28,15.73,13.26,31.93,1,16.62-12.58,45.54-38.99,60.54-53.96,1.14-1.14,5.1-4.32,4.99-5.47l-9.5-4.53-131.49.99ZM284.16,258.43c5.09-7.5,15.72-12.06,9.93-22.54l-47.26,43.29,47.26,37.66c6.85-9.77-5.4-11.13-10.51-17.47-9.47-11.75-7.5-29.03.58-40.94ZM157.22,259.22c-8.38-7.93-17.92-15.99-27.63-22.35-3.58,13.69,8.36,15.87,13.21,23.27,7.55,11.52,6.59,28.21-1.39,39.04-3.85,5.22-16.78,9.3-11.33,16.65l47.49-35c.59-1.6-17.75-19.15-20.35-21.62ZM52.22,272.23c-3.56-4.49-15.71-14.61-21.88-13.18-11.16,2.58,6.84,11.58,9.77,14.79,22.27,24.48,9.84,82.11,58.03,85.04,5.95.36,22.56-1.16,14.25-10.82-.97-1.13-18.96.97-28.78-5.75-21.52-14.72-15.48-50.01-31.38-70.08ZM294.93,293.51c20.08,19.56,36.77-20.31,20.61-32.11-16.12-11.77-36.25,16.86-20.61,32.11ZM107.96,293.48c18.83,17.04,39.87-20.41,17.98-31.48-18.97-9.59-32.6,18.24-17.98,31.48ZM283.98,326.45c-4.58-4.61-45.8-38.42-48.91-38.36-1.56.03-10.59,8.24-12.6,9.16-14.37,6.63-22.7.39-33.53-8.32l-52.35,40.42c49.53,2.44,101.13,2.5,150.99.51-.45-1.73-2.47-2.25-3.6-3.4ZM299.08,338.88c-15.18,16.18-64.38-7.55-68.24,17.72-3.51,22.98,17.13,24.24,34.22,22.23,19.39-2.28,37.16-19.52,34.02-39.96ZM134.58,343.86c-3.74-.51-5.58-2.15-8.99-2.99-4.02,37.44,33.73,40.79,61.99,36.99,1.22-.16,3.99-.65,5-1,11.68-4.04,12.87-24.87,1.71-31.21-13.3-7.54-43.99.84-59.71-1.79ZM223.58,342.86l-14.99,1.01c6.74,8.16,5.58,19.22,4,28.98h7.99c-3.78-10.45-1.97-20.39,3-29.99Z"/>
    <path class="cls-2" d="M151.58,214.86c35.17-2.03,93.37-2.06,128.52-.03,3.57.21,7.01,1.34,10.47,2.05l-3,6.99c-14.99,14.97-43.92,41.39-60.54,53.96-16.2,12.26-16.57,11.28-31.93-1-11.86-9.48-50.19-42.29-58.51-52.49-9.22-11.29,5.96-8.96,14.98-9.48Z"/>
    <path class="cls-2" d="M283.98,326.45c1.14,1.14,3.15,1.67,3.6,3.4-49.86,1.99-101.46,1.93-150.99-.51l52.35-40.42c10.83,8.72,19.16,14.96,33.53,8.32,2.01-.93,11.04-9.13,12.6-9.16,3.11-.06,44.33,33.75,48.91,38.36Z"/>
    <path class="cls-1" d="M299.08,338.88c3.14,20.44-14.63,37.68-34.02,39.96-17.09,2.01-37.74.75-34.22-22.23,3.86-25.27,53.06-1.55,68.24-17.72Z"/>
    <path class="cls-2" d="M52.22,272.23c15.9,20.07,9.86,55.36,31.38,70.08,9.82,6.72,27.81,4.62,28.78,5.75,8.31,9.67-8.3,11.19-14.25,10.82-48.19-2.93-35.76-60.56-58.03-85.04-2.92-3.21-20.93-12.21-9.77-14.79,6.16-1.42,18.32,8.69,21.88,13.18Z"/>
    <path class="cls-2" d="M284.16,258.43c-8.08,11.91-10.05,29.18-.58,40.94,5.11,6.34,17.36,7.69,10.51,17.47l-47.26-37.66,47.26-43.29c5.8,10.48-4.83,15.04-9.93,22.54Z"/>
    <path class="cls-2" d="M157.22,259.22c2.6,2.46,20.95,20.01,20.35,21.62l-47.49,35c-5.45-7.35,7.48-11.43,11.33-16.65,7.98-10.83,8.95-27.52,1.39-39.04-4.85-7.4-16.8-9.59-13.21-23.27,9.71,6.37,19.25,14.43,27.63,22.35Z"/>
    <path class="cls-1" d="M192.58,376.86c-1.01.35-3.78.84-5,1-1.18-4.34-9.52-1.01-12.87-2.2-.32-.11-1.51-4.22-3.58-5.81-7.82-5.98-19.78-13.32-20.55-24.99,23.44.8,69.15-7.69,42,32Z"/>
    <path class="cls-3" d="M134.58,343.86c5.97.82,10.12.8,16,1,.77,11.68,12.73,19.01,20.55,24.99,2.08,1.59,3.26,5.69,3.58,5.81,3.35,1.19,11.69-2.14,12.87,2.2-28.26,3.8-66.01.44-61.99-36.99,3.41.84,5.25,2.48,8.99,2.99Z"/>
    <path class="cls-1" d="M294.93,293.51c-15.65-15.24,4.48-43.88,20.61-32.11,16.17,11.8-.53,51.67-20.61,32.11Z"/>
    <path class="cls-3" d="M107.96,293.48c-14.62-13.24-1-41.07,17.98-31.48,21.89,11.07.85,48.52-17.98,31.48Z"/>
    <path class="cls-1" d="M287.58,223.86l3-6.99c-3.46-.7-6.9-1.84-10.47-2.05-35.15-2.03-93.35-2-128.52.03l131.49-.99,9.5,4.53c.11,1.15-3.85,4.33-4.99,5.47Z"/>
    <path class="cls-4" d="M223.58,342.86c-4.97,9.6-6.78,19.54-3,29.98h-7.99c1.57-9.76,2.73-20.82-4-28.98l14.99-1.01Z"/>
    <path class="cls-4" d="M134.58,343.86c15.71,2.63,46.41-5.75,59.71,1.79,11.17,6.34,9.98,27.16-1.71,31.21,27.15-39.69-18.56-31.2-42-32-5.88-.2-10.03-.18-16-1Z"/>
  </g>
  <g>
    <path class="cls-5" d="M74.26,80.54c-2.93,3.37-11.69,17.31-12.63,17.87-5.97,3.54-13.09-24.26-13.74-28.36-1.5-9.43-2.78-20.74.65-29.77,5.66-3.91,38.1,15.54,44.05,20.12-5.9,7.01-12.3,13.21-18.32,20.14Z"/>
    <path class="cls-5" d="M367.58,38.85c2.45,20.49-2.13,41.33-10.57,60.05l-33.16-38.55c11.76-11.45,27.66-18.07,43.73-21.5Z"/>
    <path class="cls-2" d="M293.58,33.86c19.47-10.9,46.33-20.67,68-10.99,1.6,2.72-15.63,6.86-18.37,8.11-7.75,3.55-13.71,8.3-20.63,12.87-3.67,2.42-7.18,4.87-10.49,7.78l-23.51-15.76c2.08.21,3.39-1.11,5-2.01Z"/>
    <path class="cls-2" d="M94.58,45.86c-12.65-8.52-25-18.35-40.99-20.01,19.12-15.37,51.33.47,70.99,10.03.88,2.07-8.03,6.63-9.99,7.98-1.6,1.1-11.77,7.77-12.5,7.72-.47-.03-6.1-4.78-7.5-5.72Z"/>
    <path class="cls-3" d="M114.58,43.86c1.96-1.35,10.87-5.91,9.99-7.98-19.65-9.55-51.87-25.4-70.99-10.03,15.99,1.65,28.35,11.48,40.99,20.01l-43.99-19.01c18.23-20.26,58.22-2.39,76.97,10.51l-12.98,6.5Z"/>
    <path class="cls-3" d="M322.58,43.86c6.92-4.57,12.88-9.32,20.63-12.87,2.74-1.26,19.97-5.4,18.37-8.11-21.67-9.68-48.53.09-68,10.99,15.82-12.4,56.6-26.35,70.02-7.48l-41.02,17.48Z"/>
    <g>
      <path class="cls-1" d="M290.58,53.86c51.28,27.03,86.21,92.46,61.17,148.67-7.48,16.79-25.11,37.07-44.16,40.33,1.83-13.01,2.68-27.49-9.01-35.99-3.33-6.01-13.37-6.56-19.46-7.04-38.49-2.98-94.97-1.82-134.07,0-1.54.07-10.81.27-10.46,3.04-11.05,2.34-15.57,9.62-19,20-.03.1-1.73-.55-2.06.59-.63,2.19.76,11.49.05,12.4-10.74-5.17-12.37-17.69-9.99-27.99,7.77-2.35,15.27-7.42,23-10,21.33-7.11,41.76-2.65,26-37,4.55-4.12,6.5-29.49-5.35-28.69-7.66.52-8.29,12.87-7.65,18.69-.49,4.63-9.29,1.51-13.48,2.03-6.66.83-18.12,2.82-20.52,9.97-3.43.04-9.39-.63-12.28.22-2.28.67-3,3.53-4.72,4.78-1.9,1.39-3.67,3.36-6,4v-44.5c0-5.73,5.99-23.57,8.52-29.48,3.65-8.5,16.53-21.06,11.48-29.02,7.44-6.23,16.5-12.4,25-17,50.25-23.21,113.55-24.06,163,2ZM269.58,159.86c-14.41,20.39-.84,43.42,24,35,2.09,3.58,31.02,16.98,34.54,9.06,3.33-7.51-8.66-10.39-14.54-13.06,5.89-.98,6.93-9.58,7-15,5.33-1.03,15.34-.71,11.79-9.3-2.16-5.21-11.19-3.58-15.79-3.7l2.97-2.98c-10.7-8.2-24.24-8.83-36.97-5.02.82-4.49.85-19.34-4-21.49-14.55-6.46-14.65,19.08-9,26.49ZM183.58,146.86c-.06.04-.96.94-1,1-.26.38-1.64-1.24-2.08,1.46-.68,4.18,1.27,3.97,2.08,5.54.16.3.75.59,1,1,2.05,3.32,1.47,1.66,3,3,.37.32.81.88,1,1,11.98,7.7,11.72,2.41,23.5,2.14,3.74-.09,7.59,2.62,13.91,1.76,5.38-.74,15.18-6.24,14.59-11.9-1.52-14.79-12.25-1.3-16.51-.98-7.42.57-7.55-3.73-9.96-4.09-6.8-1.02-9.11,3.8-14.11,3.99-4.26.16-5.18-2.51-6.42-2.92-1.27-3.46-5.91-3.65-8.93-2.88-.35.09.03,1.81-.07,1.88Z"/>
      <path class="cls-3" d="M102.58,68.86c5.05,7.96-7.83,20.52-11.48,29.02-2.54,5.91-8.52,23.74-8.52,29.48v44.5c2.33-.64,4.1-2.61,6-4-.06.65.09,1.36,0,2-1.42,9.75-2.26,15.02,1.97,25.33.51,1.25,2.94.53,3.02.68,1.3,2.48-5.86,5.29-.99,10.99,4,4.69,7.2,2.15,11,1-2.38,10.31-.74,22.82,9.99,27.99.71-.91-.68-10.21-.05-12.4.32-1.14,2.02-.49,2.06-.59l.72,20.54c-17.46,3.51-38.53-17.05-47.72-30.54-21.16-38.47-14.13-80.43,9-116,5.71-8.79,16.85-21.18,25-28Z"/>
      <path class="cls-4" d="M134.58,202.86c-.35-2.77,8.92-2.96,10.46-3.04,39.1-1.82,95.58-2.98,134.07,0,6.09.47,16.14,1.02,19.46,7.04-4.83-3.51-7.5-4.39-13.47-5.03-24.36-2.62-129.07-3.51-150.53,1.03Z"/>
      <path class="cls-4" d="M290.58,53.86c-49.45-26.06-112.75-25.21-163-2,48.38-26.21,115.33-26.34,163,2Z"/>
      <path class="cls-1" d="M68.58,212.86c-23.5-34.54-16.19-84.23,9-116-23.13,35.57-30.16,77.53-9,116Z"/>
      <path class="cls-5" d="M152.58,160.86c15.76,34.35-4.67,29.89-26,37,6.92-20.76-12.49-11.57-22-6-4.7-2.61-5.4-11.37-6-16,4.89.94,25.02,2.71,27-1.7,5.57-12.42-12.1-11.39-20-11.3,2.4-7.14,13.86-9.14,20.52-9.97,4.18-.52,12.98,2.6,13.48-2.03.7,6.39,5.88,16.46,13,10Z"/>
      <path class="cls-5" d="M282.58,154.86c12.74-3.81,26.28-3.18,36.97,5.02l-2.97,2.98c-7.36-.2-27.9-1.17-23.56,11.06,2.31,6.5,22.05,3.01,27.56,1.94-.07,5.42-1.11,14.02-7,15-4.04-1.83-10.94-6.84-15.43-6.01-4.11.76-6.56,6.59-4.57,10.01-24.84,8.42-38.41-14.61-24-35,4.26,5.59,11.94.8,13-5Z"/>
      <path class="cls-6" d="M192.58,147.86c1.24.41,2.15,3.08,6.42,2.92,5-.19,7.31-5,14.11-3.99,2.41.36,2.54,4.65,9.96,4.09,4.27-.33,14.99-13.81,16.51.98-3.44,5.78-9.81,10.62-16.65,10.93-5.08.23-9.19-2.87-11.85-2.84-6.4.08-14.69,6.59-23.5-.09-.19-.12-.63-.68-1-1l-3-3c-.25-.41-.84-.7-1-1v-7c.04-.06.94-.96,1-1,3.35-1.75,5.96-.02,9,1Z"/>
      <path class="cls-6" d="M316.58,162.86c4.6.12,13.63-1.51,15.79,3.7,3.56,8.59-6.46,8.27-11.79,9.3s-25.25,4.55-27.56-1.94c-4.35-12.23,16.19-11.25,23.56-11.06Z"/>
      <path class="cls-6" d="M126.58,197.86c-7.73,2.58-15.23,7.65-23,10-3.8,1.15-7,3.69-11-1-1.98-7.13,6.63-11.86,12-15,9.51-5.57,28.92-14.76,22,6Z"/>
      <path class="cls-6" d="M105.58,162.86c7.9-.09,25.57-1.12,20,11.3-1.98,4.41-22.11,2.64-27,1.7s-7.95.21-10-6c.09-.64-.06-1.35,0-2,1.72-1.25,2.43-4.11,4.72-4.78,2.89-.85,8.85-.18,12.28-.22Z"/>
      <path class="cls-6" d="M313.58,190.86c5.88,2.67,17.88,5.55,14.54,13.06-3.52,7.93-32.45-5.47-34.54-9.06s.46-9.24,4.57-10.01c4.49-.83,11.39,4.17,15.43,6.01Z"/>
      <path class="cls-6" d="M282.58,154.86c-1.06,5.8-8.74,10.59-13,5-5.65-7.41-5.55-32.95,9-26.49,4.85,2.15,4.82,17,4,21.49Z"/>
      <path class="cls-6" d="M152.58,160.86c-7.12,6.46-12.3-3.61-13-10-.64-5.82,0-18.18,7.65-18.69,11.84-.8,9.89,24.57,5.35,28.69Z"/>
      <path class="cls-4" d="M239.58,151.86c.58,5.66-9.21,11.16-14.59,11.9-6.32.86-10.16-1.84-13.91-1.76-11.78.27-11.52,5.56-23.5-2.14,8.81,6.69,17.1.18,23.5.09,2.66-.03,6.77,3.07,11.85,2.84,6.85-.31,13.21-5.15,16.65-10.93Z"/>
      <path class="cls-4" d="M192.58,147.86c-3.04-1.02-5.65-2.75-9-1,.1-.07-.27-1.79.07-1.88,3.02-.77,7.66-.58,8.93,2.88Z"/>
      <path class="cls-4" d="M182.58,147.86v7c-.82-1.56-2.77-1.36-2.08-5.54.44-2.7,1.82-1.09,2.08-1.46Z"/>
      <path class="cls-4" d="M186.58,158.86c-1.53-1.34-.95.32-3-3l3,3Z"/>
      <path class="cls-1" d="M98.58,175.86c.6,4.63,1.3,13.39,6,16-5.37,3.14-13.98,7.87-12,15-4.87-5.71,2.29-8.51.99-10.99-.08-.15-2.51.57-3.02-.68-4.23-10.3-3.4-15.57-1.97-25.33,2.05,6.21,5.26,5.08,10,6Z"/>
    </g>
  </g>
</svg>