<?xml version="1.0" encoding="UTF-8"?>
<svg id="Layer_2" data-name="Layer 2" xmlns="http://www.w3.org/2000/svg" viewBox="0 0 453.54 453.54">
  <defs>
    <style>
      .cls-1 {
        fill: #e5e5e6;
      }

      .cls-2 {
        fill: #f79ba3;
      }

      .cls-3 {
        fill: #edb364;
      }

      .cls-4 {
        fill: #040303;
      }

      .cls-5 {
        fill: #fdda97;
      }

      .cls-6 {
        fill: #b8bbc1;
      }

      .cls-7 {
        fill: #f6ce89;
      }
    </style>
  </defs>
  <path class="cls-4" d="M389.57,187.32h15.5c20.4,0,19.9,25.64,18.22,39.22-.84,6.85-6.98,23.74-6.69,28.42.41,6.52,11.24,10.77,8.7,28.59-2.73,19.15-17.79,17.83-20.58,21.92-3.11,4.58.76,20.96-9.53,31.46-16,16.33-62.75,3.94-68.57,8.44-1.08.84-5.51,20.02-8.54,25.95s-16.87,21.31-17.34,22.66c-1.59,4.62.67,16.72-.27,22.73-4.36,27.69-52.69,32.34-61.44,3.63-.95-3.1-.96-13.54-1.46-14.04-.98-1-27.03,0-28.01,1s.46,15.89-8.97,24.53c-9.99,9.14-31.21,9.51-43.29,5.25-20.69-7.29-15.76-33.08-18.66-35.34-1.79-1.39-32.39-3.12-44.1-8.9-44.75-22.07-32.49-54.85-44.2-90.8-3.93-12.08-9.41-10.78-15.81-18.19-21.1-24.47,12.05-52.66,41.01-20.01,21.42,24.15,14.98,47,23.55,73.45.71,2.2,9.13,19.95,11.49,16,.66-1.1-2.36-20.02-2.03-25.52.37-6.34,1.96-13.43,3.34-19.66,1.91-8.68,16.39-37.18,15.77-39.2-.36-1.17-18.72-7.65-22.37-9.8-43.36-25.47-51.67-66.86-40.2-113.79.9-3.69,7.36-17.34,7.26-18.32-.11-1.08-10.01-14.7-11.64-18.31C31.26,43.75,63.21-1.43,134.55,25.85c6.29,2.4,29.72,17.32,31.51,17.41s23.17-7.48,28.48-8.46c15.92-2.93,32.14-4.58,48.38-3.33,9.52.73,39.99,10.24,44.09,9.83,1.58-.16,20.62-13.65,25.18-15.85,75.16-36.23,102.96,17.24,75.54,83.54-1.57,3.8-9.11,13.14-9.25,15.81-.15,2.89,7.69,21.57,8.79,27.32,2.23,11.68,2.72,23.34,2.29,35.21ZM310.57,44.32c-.59.37-4.99,4.17-4.98,4.5.03,1.08,16.63,12.33,17.69,12.55,2.34.48,18.05-10.89,22.29-13.05,4.81-2.45,27.65-10.71,28.52-11.99.76-1.11-1.68-3.84-2.54-4.49-11.19-8.42-50.03,3.23-60.98,12.48ZM119.92,61.95c4.44,2.09,24.63-8.55,26.63-11.15,3.79-4.91-39.73-17.15-43.6-17.44-2.33-.17-27.98,1.38-27.36,5.46.21,1.37,21.53,8.11,25.7,10.22,5.28,2.69,14.91,11.16,18.63,12.91ZM161.57,61.32c-8.26,3.7-19.54,9.87-27,15-12.12,8.34-25.16,21.17-34,33-24.34,32.57-37.46,83.32-10,118,3.95,4.98,14.74,15.03,20.29,18.27,7.3,4.26,37.33,12.69,38.79,14.15,6.71,6.75-3.69,11.43-6.07,14.58-19.5,25.68-28.7,72.41-10,100,6,11.87,19.64,17.38,20.52,18.98,3.97,7.22-6.7,24.79,11.48,30.02,6.12,1.76,20.04,1.06,25.05-3.45,7.97-7.16-.22-23.94,8.88-27.12,12.27-4.28,42.8.43,57.3-3.42,12.71,11.09-4.62,14.87-5.28,16.68-5.78,15.86,17.75,23.7,29.38,15.14,9.49-6.98,3.63-24,6.14-33.86,2.25-8.85,27.73-27.76,23.52-42.98h-79.5c-17.63,0-14.34-23.84-15.49-25-2.02-2.04-29.62,7.17-31.95-2.73-1.13-4.8,1.22-7.54,4.95-10.26,11.74-1.69,65.9-2.95,56-26-9.28-18.8-43.53,1.73-53.25-.16-5.6-1.09-5.52-9.01-2.75-11.84,5.36-5.48,38.3-8.33,39.57-9.93,2.62-3.31,5.67-53.04,13.43-61.07,11.11-13.25,32.05-8.72,48-9,16.72-.29,33.37.89,50,1,6.07.04,27.5,1.2,31.49,0,7.21-2.19,2.3-28.71,1.01-35-10.57-51.58-61.56-94.4-112.51-102.99.54-2.51-1.47-2.22-2.93-2.52-31.83-6.4-65.78-.62-95.07,12.52ZM342.57,67.32c-9.62,7.35,5.88,13.33,10.57,18.93,4.21,5.03,8.35,13.6,13.43,18.07,3.18,12.01,10.82-10.64,11.93-14.57,1.73-6.1,6.71-37.06,3.06-40.43-1.92-1.77-36.25,12.26-38.99,18ZM67.57,53.32c-.55.98,0,19.25,0,22.5,0,4.36,8.8,35.03,13.39,34.45,2.43-.31,25.01-34.38,32.59-36.45-4.14-3.49-43.6-24.72-45.98-20.5ZM381.57,259.32c3.64-4.38,18.91-6.06,20.81-8.69,2.14-2.95,11.11-45.13,2.23-46.86l-142.61-.53c-4.54-.71-4.82,2.49-6.44,4.07-5.92,5.79-15.02,45.1-12,52,1.39,3.19,10.7,7.37,13.32,12.25,7.65,14.27,3.59,24.76-7.32,34.75-9.76,6.7-30.49,8.42-15.47,23.97l145.47-.97c7.17-1.75,10.73-20.69,9.03-25.31-.26-.71-8.95-4.82-11.85-9.36-7.68-12.02-4.66-25.37,4.83-35.33ZM67.57,278.32c-3.9-4.94-15.8-17.69-22.5-13-9.19,6.43,8.21,13.96,11.57,17.45,20.32,21.11,3.03,69.37,36.06,91.93,3.49,2.38,24.99,12.99,26.84,7.13,1.95-6.15-20.56-16.64-25.97-22.51-18.28-24.06-7.29-57.27-26-81ZM389.72,288.18c18.45,15.82,32.4-24.48,6.39-19.81-8.16,1.47-10.92,15.92-6.39,19.81Z"/>
  <path class="cls-5" d="M259.57,51.32c50.94,8.59,101.93,51.42,112.51,102.99,1.29,6.29,6.2,32.81-1.01,35-3.99,1.21-25.43.05-31.49,0,9.04-19.24-15.05-33.63-32.46-27.95-2.34.77-3.07,2.77-3.54,2.95,1.43-7.1,3.42-27.44-9.04-24.58-7.06,1.62-9.67,26.01.04,27.58-2.89,7.66-6.72,11.97-5,21-15.95.28-36.89-4.25-48,9s-12.8,57.44-15.17,59.83c-1.59,1.6-30.89,2.84-37.83,11.17-.17.21-2.41,0-2.85,1.61-2.97,10.98,5.05,11.52,12.85,10.39,4.3,1.07,9.49,5.17,10.91,9.59,6.19,19.36-10.94,9.14-20.91,16.41-3.73,2.73-6.08,5.46-4.95,10.26,2.33,9.9,29.93.7,31.95,2.73,1.16,1.17-2.14,25,15.49,25h79.5c4.21,15.22-21.27,34.12-23.52,42.98-2.51,9.86,3.35,26.88-6.14,33.86-11.63,8.56-35.16.71-29.38-15.14.66-1.81,17.99-5.58,5.28-16.68-14.49,3.85-45.03-.86-57.3,3.42-9.1,3.17-.92,19.95-8.88,27.12-5.01,4.5-18.93,5.2-25.05,3.45-5-4.79-.87-5.89-1.2-7.66-.62-3.37-3.28-8.21-3.75-11.96-.38-3.02,1.93-7.5,1.65-10.09-1.42-13.2-18.31-25.76-21.99-38.5-5.89-20.36-1.77-50.16,7.49-69.1,5.74-11.75,24.63-25.19.21-32.63-1.49-.45-1.98,4.04-5.42,1.44-2.83-2.14-13.39-18.2-15.81-22.18-19.7-32.48-21.87-67.93-11.89-104.53,4.24-15.55,16.5-31.84,19.8-44.28.78-2.96.18-4.63-.09-7.51,7.46-5.13,18.74-11.3,27-15,33.52-12.23,62.64-15.96,98-10ZM167.57,163.32c-6.07,1.42-19.68-3.24-23,3-7.31-.94-29.48-2.88-29.1,7.52.32,8.59,9.03,4.75,15.1,5.48.26,5.55-.25,14.44,6,17-4.49,2.2-16.2,2.33-13.59,11.02,2.81,9.34,26.87-.68,31.59-4.02-2.16,5.1,11.02,1.56,12.57,1.07,11.13-3.52,21.55-12.34,19.19-25.34-.41-2.25-6.13-11.08-7.76-11.73,7.53-4.99,5.87-33.47-7-27.5-4.88,2.27-5.82,18.79-4,23.5ZM253.22,164c2.76-5.44,1.85-12.45-5.3-12.64-6.07-.16-12.62,11.33-22.24,6.39-2.56-1.31-13.81-15.87-16.06-1.83-2.94,18.35,35.91,23.24,43.6,8.08Z"/>
  <path class="cls-7" d="M134.57,76.32c.27,2.88.88,4.55.09,7.51-3.3,12.44-15.56,28.73-19.8,44.28-9.98,36.6-7.81,72.06,11.89,104.53,2.42,3.98,12.98,20.05,15.81,22.18,3.44,2.6,3.92-1.89,5.42-1.44,24.41,7.43,5.52,20.88-.21,32.63-9.25,18.95-13.38,48.74-7.49,69.1,3.69,12.74,20.58,25.3,21.99,38.5.28,2.6-2.03,7.07-1.65,10.09.47,3.75,3.13,8.58,3.75,11.96.33,1.77-3.79,2.87,1.2,7.66-18.19-5.23-7.51-22.8-11.48-30.02-.88-1.6-14.52-7.11-20.52-18.98-15.56-30.79-7.55-71.63,10-100,2.39-3.14,12.79-7.83,6.07-14.58-1.46-1.46-31.49-9.9-38.79-14.15-5.55-3.23-16.34-13.28-20.29-18.27-24.28-38.07-12.97-82.63,10-118,8.84-11.83,21.88-24.66,34-33Z"/>
  <path class="cls-3" d="M67.57,278.32c16.87,24.78,5.12,58.35,26,81,5.41,5.87,27.92,16.35,25.97,22.51-1.86,5.85-23.36-4.75-26.84-7.13-33.03-22.56-15.74-70.82-36.06-91.93-3.36-3.49-20.76-11.02-11.57-17.45,6.7-4.68,18.61,8.06,22.5,13Z"/>
  <path class="cls-2" d="M67.57,53.32c2.38-4.22,41.83,17.01,45.98,20.5-7.58,2.07-30.17,36.14-32.59,36.45-4.59.59-13.39-30.09-13.39-34.45,0-3.25-.55-21.52,0-22.5Z"/>
  <path class="cls-2" d="M342.57,67.32c9.6-7.33,26.07-13.7,38-16v22.5c0,3.49-8.24,31.13-10.01,32.5-.4.31-3.82-1.85-3.99-2-5.09-4.46-9.22-13.03-13.43-18.07-4.69-5.6-20.18-11.59-10.57-18.93Z"/>
  <path class="cls-2" d="M303.57,164.32c.47-.17,1.2-2.18,3.54-2.95,17.41-5.68,41.49,8.71,32.46,27.95-16.63-.11-33.28-1.29-50-1-1.72-9.03,2.11-13.34,5-21,6.06.98,5.83-1.83,9-3Z"/>
  <path class="cls-3" d="M119.92,61.95c-3.72-1.75-13.35-10.22-18.63-12.91-4.16-2.12-25.49-8.86-25.7-10.22-.62-4.08,25.03-5.63,27.36-5.46,3.87.29,47.39,12.53,43.6,17.44-2.01,2.6-22.19,13.24-26.63,11.15Z"/>
  <path class="cls-7" d="M198.57,280.32c9.25-1.34,40.28-13.32,46,0,9.9,23.05-44.26,24.31-56,26,9.96-7.28,27.1,2.94,20.91-16.41-1.41-4.41-6.61-8.52-10.91-9.59Z"/>
  <path class="cls-3" d="M345.57,48.32c-4.24,2.16-19.95,13.53-22.29,13.05-1.06-.22-17.66-11.46-17.69-12.55,0-.34,4.39-4.13,4.98-4.5,9.29-5.88,37.55-14.43,48.43-14.02,35,1.32-10.07,10.37-13.43,18.02Z"/>
  <path class="cls-1" d="M161.57,61.32c29.28-13.13,63.24-18.92,95.07-12.52,1.47.29,3.47,0,2.93,2.52-35.36-5.96-64.48-2.23-98,10Z"/>
  <g>
    <path class="cls-7" d="M389.72,288.18c-4.53-3.89-1.78-18.34,6.39-19.81,26.01-4.67,12.06,35.63-6.39,19.81Z"/>
    <g>
      <path class="cls-6" d="M255.57,207.32c5.72-5.44,133.41,0,151-1.99,1.93,1.17-3.62,41.69-6.07,44.42-1.75,1.95-12.58,2.89-18.93,9.57-9.48,9.96-12.51,23.31-4.83,35.33,2.9,4.55,11.59,8.66,11.85,9.36,1.7,4.62-1.85,23.56-9.03,25.31l-147.33-.97c-7.47-14.62,8.78-14.21,17.33-22.03,10.9-9.98,14.96-20.47,7.32-34.75-2.62-4.89-11.92-9.07-13.32-12.25,2.88-8.44,7.03-47.28,12-52ZM328.25,289.99c12.8-8.56,11.86-31.3-3.67-36.17-18.89-5.92-31.96,13.66-23.58,30.58,4.51,9.1,19.18,10.99,27.25,5.6Z"/>
      <path class="cls-1" d="M381.57,259.32c6.36-6.67,17.18-7.62,18.93-9.57,2.45-2.73,8-43.26,6.07-44.42-17.6,2-145.28-3.45-151,1.99-4.97,4.72-9.12,43.56-12,52-3.02-6.9,6.08-46.21,12-52,1.62-1.58,1.9-4.78,6.44-4.07l142.61.53c8.88,1.73-.09,43.91-2.23,46.86-1.9,2.63-17.18,4.31-20.81,8.69Z"/>
    </g>
    <path class="cls-1" d="M188.57,268.32c-2.77,2.83-2.85,10.75,2.75,11.84,9.72,1.9,43.97-18.64,53.25.16-5.72-13.32-36.75-1.34-46,0-7.8,1.13-15.81.59-12.85-10.39.44-1.62,2.67-1.4,2.85-1.61,6.94-8.33,36.24-9.57,37.83-11.17,2.37-2.39,4.51-47.11,15.17-59.83-7.76,8.02-10.81,57.76-13.43,61.07-1.27,1.6-34.2,4.46-39.57,9.93Z"/>
  </g>
  <path class="cls-5" d="M143.57,274.32c-17.55,28.37-25.56,69.21-10,100-18.7-27.59-9.5-74.32,10-100Z"/>
  <path class="cls-7" d="M345.57,48.32c3.36-7.65,48.42-16.7,13.43-18.02-10.88-.41-39.14,8.15-48.43,14.02,10.94-9.25,49.79-20.9,60.98-12.48.86.65,3.31,3.38,2.54,4.49-.88,1.27-23.71,9.53-28.52,11.99Z"/>
  <path class="cls-5" d="M90.57,227.32c-27.46-34.68-14.34-85.43,10-118-22.97,35.37-34.28,79.93-10,118Z"/>
  <path class="cls-1" d="M342.57,67.32c2.75-5.74,37.08-19.77,38.99-18,3.65,3.37-1.33,34.33-3.06,40.43-1.11,3.92-8.75,26.58-11.93,14.57.17.15,3.59,2.3,3.99,2,1.77-1.36,10.01-29.01,10.01-32.5v-22.5c-11.93,2.3-28.4,8.67-38,16Z"/>
  <path class="cls-7" d="M93.57,359.32c-20.88-22.65-9.13-56.22-26-81,18.71,23.73,7.72,56.94,26,81Z"/>
  <path class="cls-4" d="M253.22,164c-7.69,15.15-46.54,10.27-43.6-8.08,2.25-14.04,13.5.52,16.06,1.83,9.62,4.94,16.17-6.55,22.24-6.39,7.16.19,8.06,7.2,5.3,12.64Z"/>
  <g>
    <path class="cls-2" d="M167.57,163.32c2.89,7.47,8.08,2.82,11,4,1.63.66,7.35,9.49,7.76,11.73,2.36,12.99-8.06,21.82-19.19,25.34-1.55.49-14.73,4.03-12.57-1.07,5.15-3.65,6.99-11.96.26-13.82-5.18-1.43-13.83,4.66-18.26,6.82-6.25-2.56-5.74-11.45-6-17,4.94.6,21.85,4.36,23.67-1.28,2.55-7.93-2.83-10.84-9.67-11.72,3.32-6.24,16.93-1.58,23-3Z"/>
    <path class="cls-4" d="M144.57,166.32c6.84.88,12.22,3.8,9.67,11.72-1.81,5.64-18.73,1.88-23.67,1.28-6.07-.74-14.79,3.11-15.1-5.48-.38-10.4,21.79-8.46,29.1-7.52Z"/>
    <path class="cls-4" d="M154.57,203.32c-4.72,3.34-28.78,13.36-31.59,4.02-2.61-8.69,9.09-8.83,13.59-11.02s13.08-8.26,18.26-6.82c6.73,1.86,4.89,10.17-.26,13.82Z"/>
  </g>
  <path class="cls-4" d="M167.57,163.32c-1.82-4.71-.88-21.23,4-23.5,12.87-5.97,14.53,22.51,7,27.5-2.92-1.18-8.11,3.47-11-4Z"/>
  <path class="cls-4" d="M294.57,167.32c-9.7-1.57-7.1-25.96-.04-27.58,12.45-2.86,10.47,17.48,9.04,24.58-3.17,1.17-2.94,3.98-9,3Z"/>
</svg>