<?xml version="1.0" encoding="UTF-8"?>
<svg id="Layer_3" data-name="Layer 3" xmlns="http://www.w3.org/2000/svg" viewBox="0 0 396.85 396.85">
  <defs>
    <style>
      .cls-1 {
        fill: #fad89b;
      }

      .cls-2 {
        fill: #e4af5f;
      }

      .cls-3 {
        fill: #90a1db;
      }

      .cls-4 {
        fill: #f6ce8d;
      }

      .cls-5 {
        fill: #e1e4e7;
      }

      .cls-6 {
        fill: #f1919f;
      }

      .cls-7 {
        fill: #040403;
      }
    </style>
  </defs>
  <g>
    <path class="cls-1" d="M269.1,39.21c66.67,24.43,122.85,134.15,49.55,178.05-5.74,3.43-35.07,13.34-36.1,15.9-4.33,10.7,8.27,7.85,12.04,10.06,2.87,1.68,9.36,17.91,10.2,21.8,2.7,12.38,2.32,23.77-8.69,32.19-11.93,6.42-38.75,7.07-29.03-13.53,3.44-7.29,19.66-11.29,11.03-18.47-6.02-5.01-7.2-3.33-12,1-2.42-2.46-2.87,1.88-3,2-.34.32-.69.66-1,1-4.22,4.56-8.91,8.1-9.56,15.06l-72.81-.14c-2.7-4.66-3.86-7.76-7.63-11.91-3.3-3.63-16.32-15.91-18.97-6.24-2.42,8.82,13.42,14.27,13.67,23.89.5,19.32-42.78,17.64-42.75-14.15,0-5.06,9.65-33.92,12.13-34.41,3.64-.73,10.1,2.95,14.93-2.09.07.99-.06,2.01,0,3l45-.99c-18,2.25-29-9.63-42.08-17.42-2.43-1.44-7.28-1.33-11.23-3.77-9.2-5.7-19.82-17.03-21.68-27.82,2.49-.75,14.17-6.35,16-8,12.1,4.24,29.79-3.05,29.89-17.37.02-2.62-4.18-14.41-5.89-15.63,20.98-28.42-18.01-45.05-10-7-12.34-1.09-27.09-2.37-36,8-3.18.11-10.01-.02-12,3-4.82,1.36-4.72-2.89-5.01-6.56-1.62-20.62,5.17-42.91,13.53-61.42,2.7-5.98,14.37-19.44,8.48-23.02,2.64-2.25,6.16-4.96,9-7,39.27-28.31,94.75-34.58,140-18ZM271.1,151.21c.32,3.31-3.4,9.4-3.06,15.52.92,16.18,18.63,20.81,32.06,20.48,14.69,9.28,39.05,8.95,15-7l6-14c16.7-3.69,8.56-10.53-4-12-1.8-.21-4.12-.04-6,0-2.12.05-5.15-.35-7,0l14.99-1.01c-9.83-8.18-27.1-12.72-38.99-6.99,10.08-22.32-15.18-37.82-13.04-6.45.4,5.8,3.88,9.84,4.04,11.45ZM233.75,136.84c-13.88,4.69-9.14-2.15-17.05-1.62-3.4.23-7.39,4.6-12.05,4-2.47-.32-14.8-11.72-14.64.45.23,16.46,21.89,8.91,27.41,8.81,2.66-.05,6.51,2.93,11.13,2.77,6.91-.25,20.39-10.95,12.11-16.1-5.28-3.29-6.05,1.4-6.91,1.69Z"/>
    <path class="cls-4" d="M120.1,64.21c5.89,3.58-5.78,17.04-8.48,23.02-8.36,18.51-15.15,40.8-13.53,61.42.29,3.67.19,7.93,5.01,6.56-5.07,7.72,2.54,9.36,8,10l5,15c-12.3,7.99-8.77,16.15,5,12,1.86,10.79,12.49,22.12,21.68,27.82,3.94,2.45,8.8,2.33,11.23,3.77,13.09,7.79,24.08,19.67,42.08,17.42l-45,.99c-.06-.99.07-2.01,0-3-.14-2.08,2.53-5.47-.69-8.08-1.1-.89-22.09-5.56-27.16-7.57-70.57-27.98-51.44-118.17-3.15-159.35Z"/>
    <path class="cls-6" d="M105.7,50.63c1.02.77,5.51,4.15,5.4,5.07l-29.5,34.49c-11.09-14.37-12.1-34.68-11.06-52.04,3.12-4.08,31.02,9.36,35.16,12.48Z"/>
    <path class="cls-6" d="M359.1,61.71c-.42,3.88-7.69,29.26-10.5,29.48l-28.52-34.48c.6-8.28,39.02-21.57,39.02-17-.55,7.06.75,15.08,0,22Z"/>
    <path class="cls-2" d="M354.96,21.34v3.73c-16.78,3.44-32.77,10.39-45.5,22.06l-21.33-13.42c18.16-14.69,44.73-21.97,66.83-12.37Z"/>
    <path class="cls-2" d="M141.1,34.19l-20.27,11.89-45.73-23.36c19.82-12.94,49.03-2.04,65.99,11.47Z"/>
    <path class="cls-5" d="M269.1,39.21c-45.25-16.58-100.73-10.31-140,18,38.03-29.94,95.46-37.99,140-18Z"/>
    <path class="cls-5" d="M262.1,269.21c-4.68,3.59-6.91,14.98-11.44,16.06-3.78.9-70.73,2.3-73.55-.06-.53-.45-2.05-10.97-5.01-12.99,3.76,4.15,4.93,7.25,7.63,11.91l72.81.14c.65-6.96,5.34-10.5,9.56-15.06Z"/>
    <path class="cls-5" d="M266.1,266.21c-.87.78-2.08,1.26-3,2,.13-.12.58-4.46,3-2Z"/>
    <path class="cls-6" d="M151.1,144.21c1.73,8.23,6.65,4.62,10,7,1.71,1.22,5.91,13.01,5.89,15.63-.1,14.32-17.79,21.62-29.89,17.37,4.78-4.33,5.84-11.22-1.6-11.96-3.66-.37-16.07,5.8-19.4,7.96l-5-15c36.03,4.23,37.26-14.1,4-13,8.91-10.37,23.66-9.09,36-8Z"/>
    <path class="cls-7" d="M233.75,136.84c.87-.29,1.63-4.98,6.91-1.69,8.28,5.15-5.2,15.85-12.11,16.1-4.61.17-8.47-2.82-11.13-2.77-5.51.1-27.18,7.65-27.41-8.81-.17-12.17,12.17-.76,14.64-.45,4.66.6,8.65-3.77,12.05-4,7.9-.53,3.17,6.31,17.05,1.62Z"/>
    <path class="cls-7" d="M115.1,152.21c33.26-1.1,32.03,17.23-4,13-5.46-.64-13.07-2.28-8-10,1.99-3.02,8.82-2.89,12-3Z"/>
    <path class="cls-7" d="M116.1,180.21c3.33-2.16,15.74-8.33,19.4-7.96,7.45.74,6.39,7.64,1.6,11.96-1.83,1.65-13.51,7.25-16,8-13.77,4.15-17.3-4.01-5-12Z"/>
    <path class="cls-7" d="M151.1,144.21c-8.01-38.05,30.98-21.42,10,7-3.35-2.38-8.27,1.23-10-7Z"/>
    <path class="cls-7" d="M280.1,146.21c-.5.24-3.3,7.41-9,5-.16-1.61-3.64-5.65-4.04-11.45-2.14-31.37,23.12-15.87,13.04,6.45Z"/>
    <g>
      <path class="cls-6" d="M280.1,146.21c11.89-5.74,29.16-1.19,38.99,6.99l-14.99,1.01c-2.4.46-7.08,1.79-8.28,4.25-5.92,12.19,19.28,9.07,25.28,7.75l-6,14c-5.3-3.52-23.41-13.65-20.81,1.28.42,2.42,3.88,4.5,5.81,5.72-13.42.33-31.13-4.31-32.06-20.48-.35-6.12,3.38-12.21,3.06-15.52,5.7,2.41,8.5-4.76,9-5Z"/>
      <path class="cls-7" d="M311.1,154.21h6c12.56,1.47,20.7,8.31,4,12-5.99,1.32-31.19,4.44-25.28-7.75,1.19-2.46,5.88-3.79,8.28-4.25,1.85-.35,4.88.05,7,0Z"/>
      <path class="cls-7" d="M315.1,180.21c24.05,15.95-.31,16.28-15,7-1.93-1.22-5.39-3.3-5.81-5.72-2.61-14.93,15.51-4.8,20.81-1.28Z"/>
      <path class="cls-6" d="M317.1,154.21h-6c1.88-.04,4.2-.21,6,0Z"/>
    </g>
  </g>
  <g>
    <path class="cls-7" d="M12.1,291.21c-.54-11.14-6.33-25.18-3.9-38.4,1.95-10.6,9.65-6.39,10.91-7.6s-6.33-30.24-6.04-35.47c.42-7.64,7.26-29.58,18.12-23.11,14.49,8.64,16.4,44.34,18.86,59.14l3.05.44c-1.21-8.73,7.56-45.49,19.28-43.86,16.27,2.26,10.67,40.15,12.14,41.92,1.19,1.44,13.59.01,13.59,9.44v31.5h15c-3.25-17.03,3.52-33.56,12-47.98-45.86-14.45-66.7-56.85-59.74-103.26.86-5.74,8.96-27.32,8.76-29.21-.16-1.53-6.01-8.9-7.21-11.86-28.58-70.65,2.11-114.58,75.5-74.5,2.47,1.35,11.4,9.34,12.17,9.46,1.17.18,18.43-6.35,22.51-7.15,20.57-4.05,38.29-5.94,59.36-3.34,7.38.91,35.2,10.09,37.1,9.88,1.75-.19,22.72-15.11,30.28-17.78,59.8-21.14,80.44,14.81,64.54,69.54-1.78,6.14-13.15,25.3-13.28,26.79-.23,2.84,8.35,27.28,8.97,35.96,3.16,44.09-16.35,79.63-57.97,95.49,4.31,7.48,12,21.96,12,30.48v17.5h8.01c.59-18.34,2.32-37.16,12.59-52.9,7.12-10.92,30.49-31.67,42.39-15.59,12.68,17.14-11.58,24.74-17.17,37.81-4.06,9.5-3.61,20.74-5.82,30.68h14.5c2.08,0,7.81,5.19,8.95,7.05,3.74,6.14,8.24,70.41,7.63,80.45-.48,7.82-2.51,13.5-9.37,17.7-115.87,6.19-234.06,1.55-350.76,2.34-25.03-4.19-14.25-35.31-14.89-53.11-.44-12.25-1.42-26.02-2.06-38.44,2.81-1.71,6.28-3.5,8.49.02,8.03,12.77-10.57,29.51,15.98,32.01,6.08.57,38.78.61,42.46-1.61,4.79-2.87,5.82-29.83,6.07-36.43l1-38H19.1l1,31c-2.17,3.47-2.82,5.4-8,3ZM141.1,34.19c-16.97-13.51-46.17-24.41-65.99-11.47l45.73,23.36,20.27-11.89ZM354.96,21.34c-22.1-9.6-48.67-2.32-66.83,12.37l21.33,13.42c12.73-11.66,28.71-18.62,45.49-22.06v-3.73ZM269.1,39.21c-44.54-19.99-101.97-11.94-140,18-2.84,2.04-6.36,4.75-9,7-48.29,41.18-67.42,131.37,3.15,159.35,5.07,2.01,26.06,6.69,27.16,7.57,3.22,2.6.55,6,.69,8.08-4.83,5.04-11.29,1.36-14.93,2.09-2.48.49-12.12,29.36-12.13,34.41-.03,31.79,43.25,33.47,42.75,14.15-.25-9.63-16.09-15.07-13.67-23.89,2.66-9.67,15.68,2.61,18.97,6.24,2.96,2.02,4.48,12.54,5.01,12.99,2.82,2.36,69.76.96,73.55.06,4.53-1.08,6.77-12.47,11.44-16.06.31-.34.66-.68,1-1,.92-.74,2.13-1.22,3-2,4.8-4.33,5.98-6.01,12-1,4.28,7.79-7.07,10.18-10.55,14.95-14.3,19.59,11.6,30.02,28.55,17.05,11.01-8.43,11.39-19.82,8.69-32.19-.85-3.88-7.33-20.12-10.2-21.8-3.78-2.21-16.38.64-12.04-10.06,1.03-2.55,30.37-12.46,36.1-15.9,73.3-43.9,17.12-153.62-49.55-178.05ZM105.7,50.63c-4.14-3.12-32.04-16.56-35.16-12.48-1.03,17.35-.03,37.67,11.06,52.04l29.5-34.49c.1-.91-4.38-4.3-5.4-5.07ZM359.1,61.71c.75-6.92-.55-14.94,0-22,0-4.58-38.43,8.72-39.02,17l28.52,34.48c2.81-.21,10.08-25.6,10.5-29.48ZM37.11,247.21c1.09-1.06-2.39-29.02-3.19-30.33-1.4-2.3-7.31-2.15-7.82-1.67-1.18,1.1,3.78,30.94,5.06,31.92.26.19,5.73.28,5.94.08ZM346.95,284.06c3.68-5.36.07-30.13,12.18-45.32,2.24-2.81,17.96-12.73,11.33-15.44-12.49,2.19-22.96,14.4-27.12,25.66-2,5.4-6.56,29.43-5.25,33.74,1.21,4,7.97,2.66,8.86,1.36ZM72.03,232.29h-4.86s-1.08,12.92-1.08,12.92h5.01s0-8,0-8l1.97,2.99-1.06-7.91ZM154.1,355.21h122c-.77-7.99-2-35.43-5.18-41.32-.86-1.59-7.86-3.64-10.82-6.18-4.47-3.83-4.69-7.95-8.47-11.58-10.14,2.15-68.8-2.61-73.4.21-.48.3-2.37,6.91-5.58,9.91s-10.84,4.94-12.32,7.68c-.99,1.84-7.71,39.8-6.23,41.27ZM117.6,298.21c-5-1.46-16.67,1.08-22.5,0v18.5c0,9.66-4.46,26.5-16.5,26.5H25.1c2.32,12.5-11,39.75,9.53,38.97l340.75-1.19c3.62-1.42,2.69-5.19,2.76-8.31.27-11.83-2.67-56.05-5.16-66.85-.57-2.47-.62-6.34-3.58-7.42-2.67-.98-53.42-.98-56.77-.17-3.96.96-19.43,19.68-29.41,17.08-1.32,9.96,11.7,47.48-3.57,50.42l-129.6-.98c-14.55-4.48-1.13-39.78-1.94-50.55-10.54,4.35-26.8-14.91-30.51-16Z"/>
    <path class="cls-2" d="M346.95,284.06c-.89,1.3-7.65,2.64-8.86-1.36-1.31-4.31,3.25-28.34,5.25-33.74,4.16-11.26,14.63-23.47,27.12-25.66,6.63,2.72-9.09,12.63-11.33,15.44-12.11,15.19-8.5,39.96-12.18,45.32Z"/>
    <path class="cls-5" d="M278.1,265.21c8.63,7.18-7.59,11.18-11.03,18.47-9.72,20.6,17.1,19.95,29.03,13.53-16.95,12.97-42.85,2.54-28.55-17.05,3.48-4.77,14.83-7.16,10.55-14.95Z"/>
    <g>
      <path class="cls-3" d="M117.6,298.21c3.71,1.08,19.97,20.34,30.51,16,.82,10.77-12.61,46.08,1.94,50.55l129.6.98c15.27-2.93,2.25-40.46,3.57-50.42,9.99,2.61,25.45-16.12,29.41-17.08,3.34-.81,54.1-.81,56.77.17,2.96,1.08,3.01,4.95,3.58,7.42,2.49,10.8,5.44,55.02,5.16,66.85-.07,3.12.86,6.89-2.76,8.31l-340.75,1.19c-20.53.78-7.21-26.47-9.53-38.97h53.5c12.04,0,16.5-16.84,16.5-26.5v-18.5c5.83,1.08,17.5-1.46,22.5,0ZM278.1,366.21h-126v1h126v-1Z"/>
      <rect class="cls-5" x="152.1" y="366.21" width="126" height="1"/>
      <path class="cls-7" d="M259.84,333.46c1.86,1.78,2.49,7.62-1.24,8.74-3.93,1.18-74.09,1.63-81.95,1.03-5.24-.4-9.21-3.59-6.04-9.03,2.25-3.87,86-3.85,89.23-.74Z"/>
      <path class="cls-7" d="M249.86,312.45c3.97,3.89.72,7.83-4.24,8.77-4.25.8-57.81.81-60.98-.04-3.48-.94-6.07-5.76-3.56-8.49,7.54-2.02,66.32-2.65,68.78-.24Z"/>
    </g>
    <g>
      <path class="cls-5" d="M20.1,288.21c.14-.22,1.77.95,2.1-1.44.71-5.09-3.52-23.54-.11-27.07l63.02-.49c-1.38,11.8.43,24.33,0,36.01-.25,6.6-1.28,33.55-6.07,36.43-3.68,2.21-36.38,2.18-42.46,1.61-26.55-2.51-7.96-19.24-15.98-32.01-2.21-3.52-5.68-1.73-8.49-.02-.17-3.31.16-6.69,0-10,5.18,2.4,5.83.47,8-3Z"/>
      <path class="cls-4" d="M37.11,247.21c-.21.21-5.69.12-5.94-.08-1.28-.98-6.25-30.82-5.06-31.92.51-.48,6.42-.62,7.82,1.67.79,1.3,4.28,29.26,3.19,30.33ZM31.97,217.35c-8.29-7.32,1.69,25.02.14,27.87h3.99c-1.27-3.84-2.4-26.34-4.13-27.87Z"/>
      <polygon class="cls-2" points="72.03 232.29 73.09 240.2 71.12 237.21 71.11 245.21 66.1 245.21 67.17 232.29 72.03 232.29"/>
      <path class="cls-2" d="M31.97,217.35c1.73,1.53,2.86,24.02,4.13,27.85h-3.99c1.56-2.84-8.42-35.17-.14-27.85Z"/>
    </g>
  </g>
</svg>