<?xml version="1.0" encoding="UTF-8"?>
<svg id="Layer_1" data-name="Layer 1" xmlns="http://www.w3.org/2000/svg" viewBox="0 0 453.54 453.54">
  <defs>
    <style>
      .cls-1 {
        fill: #e5e5e6;
      }

      .cls-2 {
        fill: #f79ba3;
      }

      .cls-3 {
        fill: #edb364;
      }

      .cls-4 {
        fill: #040303;
      }

      .cls-5 {
        fill: #fdda97;
      }

      .cls-6 {
        fill: #f6ce89;
      }
    </style>
  </defs>
  <g>
    <path class="cls-4" d="M276.05,290.8c-.64-.81-9.91,6.13-10.06,6.71-.56,2.18,3.86,18.09,4.09,22.76,1.09,22.15-.87,36.57-9.18,56.88-2.02,4.94-8.86,12.89-9.63,16.37-1.67,7.5.86,15.04-2.02,23.98-4.6,14.26-17.64,19.05-31.7,17.3-21.96-2.74-20.29-24.46-23.14-25.86-1.25-.61-26.53-.79-27.78-.18-.55.26-2.14,9.42-3.41,11.72-10.24,18.5-43.78,19.84-56.16,3.82-4.25-5.5-5.32-16.88-6.02-17.48-1.22-1.04-24.77-.75-31.99-2.51-26.13-6.37-43.44-28.43-44.98-55.02-.66-11.31,2.56-21.02-.32-32.68-2.99-12.12-11.87-11.48-15.18-21.82-12.05-37.66,42.97-39.5,54.99,3.01,6.19,21.9-4.81,47.74,11.47,64.01-3.46-23,1.06-44.35,10.16-65.36,1.57-3.63,12.19-19.93,11.84-21.09-.43-1.41-21.78-11.16-25.9-14.14-29.16-21.04-38.73-53.98-36.11-88.95.5-6.72,7.35-28.51,7.03-30.94-.17-1.3-11.51-17.76-13.49-22.55C-2.94,42.53,36.45-7.99,115.72,32.63c4.07,2.08,21.61,14.75,22.97,14.91,2.33.27,18.36-5.82,22.99-6.61,16.85-2.88,34.71-4.32,51.84-3.1,8.83.63,38.68,8.73,42.96,7.99,1.58-.27,21.33-14.3,27.21-16.87,84.6-36.92,109.85,27.32,77.22,96.22-1.66,3.51-10.73,15.23-10.88,16.2-.41,2.62,4.04,15.81,4.73,20.22s1.15,21.95,2.26,23.49c3.75,5.24,75.67-4.15,83.73,3.01.51.45,2.88,5.56,3.06,6.45,3.25,16.48,3.83,133.81,1.23,151.76-.55,3.81-4.32,11.5-8.5,11.5h-31.5c2.64,19.04,22.89,48.41,24.78,65.76,1.08,9.92-8.61,14.26-14.54,6.49l-27.24-72.26h-20v70.5c0,6.53-16,8.91-16-2v-68.5h-19c-4.55,9.82-25.37,71.93-30.61,74.89-7.5,4.23-12.85-1.21-12.17-9.12,1.35-15.54,22.77-48.73,26.78-65.77h-33.5c-2.91,0-7.5-7.83-7.5-10.5,0-7.19,1.75-54.28,0-56.5ZM51.05,35.8c-2.92.94-11.9,4.25-8.02,7.52,12.37-1.73,45.7,24.65,51.78,25.33,2.37.26,11.78-6.01,14.24-7.85,1.56-1.11,13.07-5.77,12.99-6.49-.15-1.37-17.6-10.52-20.33-11.67-14.81-6.24-34.99-11.89-50.67-6.83ZM350.05,42.78c5.3-8.22-24.88-8-27.35-7.84-7.25.46-49.59,12.13-49.62,18.35,0,1.48,24.01,15.29,25.46,15.03,1.81-.33,25.29-16.18,31.49-19.06,3.96-1.84,19.45-5.61,20.02-6.49ZM132.05,66.8c-13.22,5.26-25.36,13.66-36,23-51.19,44.94-70.69,138.86,4,171,4.35,1.87,25.67,7.01,26.73,8.26,4.28,5.06-.19,9.23-1.73,12.74-13.01.88-12.94-.86-19.81,9.93-15.82,24.83-23.77,64.75-3.72,89.08,1.78,2.16,13.02,10.39,13.3,11.22,2.31,6.97-2.04,12.93,4.24,21.77,5.5,7.75,17.49,7.27,25.69,3.19,9.62-4.78,4.67-14.85,9.31-22.19,7.66-.47,49.88-2.95,53.73-.32,6.12,4.18-5.3,29.53,19.7,25.24,15.1-2.59,4.38-29.32,11.57-38.92,4.56-8.97,9.75-13.75,12.71-24.79,1.6-5.96,6.1-47.41.79-48.19-1.02-.15-13.06,8.71-17.5,10.98-6.15,3.14-28.67,15.46-33.78,15.82-7.96.56-12.5-6.91-5.59-12.68,6.71-5.61,30.91-12.64,41.36-20.14,4.15-2.97,9.5-6.06,11.06-11.43,6.84-23.54-39.66-4.02-50.06-2.57-8.37.17-19.98,7.6-26,1-2.08-7.64-1.23-9.43,5.46-12.04,23.56-9.19,52.66-7.01,76.54-19.96,2.67-1.44,20.29-12.55,21.02-13.76,4.48-7.4.68-16.07.98-23.24.21-4.95.74-29.42,3.02-31.48,3.05-2.76,24.46-1.38,29.98-1.52.67-.02,1.33.02,2,0,.33,0,.67,0,1,0,6.59-.12,21.86,1.27,27,0,2.87-.71,1.28.83,2-2,2.77-10.99-6.21-39.75-10.83-50.67-19.46-45.97-63.65-75.11-113.17-79.33-27.86-5.22-59.49-.17-85,12ZM71.71,71.16c-3.57-2.17-33.34-14.66-34.65-13.35-2.22,2.2.23,31.95,1.3,37.18.8,3.92,8.22,27.74,11.19,27.79,2.64.04,24.31-39.21,32.03-42.02,1.16-3.21-7.17-7.96-9.87-9.6ZM355.91,58.94c-2.94-4.2-40.74,14.17-44.81,20.46,7.58,2.71,28.23,41.23,30.64,42.23.75.31,2.58.46,3.22.05,6.12-3.86,15.71-55.96,10.96-62.75ZM429.05,200.8h-138v141.5l138,1.5v-143ZM276.05,261.8c-1.63-1.89-15.07,7.31-15.55,8.99-.13.45,2.21,8.7,2.56,9.01,1.44,1.26,13.57-7.39,13.74-8.17.11-.48-.44-9.46-.76-9.83ZM45.05,295.8c-3-5.05-20.15-22.6-23.08-10.51-1.96,8.1,9.36,10.48,13.08,17.01,11.98,20.98-3.57,47.42,12,70,6.62,9.6,23.91,19.55,35.66,19.43,10.27-.11,2.6-10.25-.75-12.35-7.45-4.66-14.67-1.91-23.92-12.58-12.86-23.65,1.15-47.17-13-71Z"/>
    <path class="cls-2" d="M71.71,71.16c2.7,1.64,11.03,6.39,9.87,9.6-7.72,2.8-29.39,42.06-32.03,42.02-2.97-.05-10.39-23.86-11.19-27.79-1.07-5.23-3.52-34.98-1.3-37.18,1.32-1.31,31.08,11.19,34.65,13.35Z"/>
    <path class="cls-2" d="M355.91,58.94c4.75,6.79-4.84,58.88-10.96,62.75-.64.4-2.47.26-3.22-.05-2.41-1-23.06-39.52-30.64-42.23,4.08-6.29,41.87-24.67,44.81-20.46Z"/>
    <path class="cls-3" d="M58.05,366.8c9.25,10.66,16.48,7.91,23.92,12.58,3.35,2.1,11.01,12.24.75,12.35-11.75.12-29.04-9.83-35.66-19.43-15.57-22.58-.02-49.02-12-70-3.73-6.52-15.04-8.91-13.08-17.01,2.92-12.09,20.08,5.46,23.08,10.51,12.04,21.52-3.25,52.26,13,71Z"/>
    <path class="cls-3" d="M350.05,42.78c-.57.88-16.06,4.65-20.02,6.49-6.2,2.88-29.68,18.73-31.49,19.06-1.46.26-25.47-13.55-25.46-15.03.03-6.22,42.38-17.89,49.62-18.35,2.47-.16,32.65-.38,27.35,7.84Z"/>
    <path class="cls-3" d="M51.05,35.8c9.18-5.19,65.83,10.14,67,17.51.21,1.3-7.46,6.34-9,7.49-2.46,1.83-11.87,8.11-14.24,7.85-6.08-.68-39.41-27.05-51.78-25.33-3.89-3.27,5.09-6.58,8.02-7.52Z"/>
    <path class="cls-5" d="M276.05,261.8c.32.37.87,9.35.76,9.83-.18.78-12.31,9.43-13.74,8.17-.35-.31-2.69-8.56-2.56-9.01.48-1.68,13.92-10.88,15.55-8.99Z"/>
    <path class="cls-6" d="M58.05,366.8c-16.25-18.74-.96-49.48-13-71,14.15,23.83.14,47.35,13,71Z"/>
    <path class="cls-6" d="M51.05,35.8c15.68-5.06,35.85.59,50.67,6.83,2.73,1.15,20.18,10.3,20.33,11.67.08.72-11.43,5.38-12.99,6.49,1.54-1.15,9.2-6.18,9-7.49-1.16-7.37-57.82-22.71-67-17.51Z"/>
    <path class="cls-2" d="M341.05,184.8c-.72,2.83.87,1.29-2,2l2-2Z"/>
    <g>
      <path class="cls-5" d="M217.05,54.8c49.52,4.22,93.71,33.37,113.17,79.33,4.62,10.92,13.61,39.68,10.83,50.67l-2,2c-5.14,1.27-20.41-.12-27,0h-1c-.67.02-1.33-.02-2,0-11.35-8.53-22.96-10.76-37-9,1.5-8.3-.81-24.01-12.56-22.84-12.42,1.24-13.76,35.85,3.56,33.84-6.04,10.46-1.34,30.42,13,31-.3,7.16,3.49,15.84-.98,23.24-.73,1.21-18.35,12.32-21.02,13.76-3.27,1.21-6.21,2.94-9.61,3.88-18.28,5.08-53.26,8.09-68.42,14.58-6.6,2.82-7.99,9.11-3.97,13.53,6.02,6.6,17.63-.83,26-1,15.53-.32,4.85,7.27,9.89,17.61,2.64,5.41,7.51,1.05,8.11,5.39-3.76,1.75-23.05,10.08-24.03,12.43-10.45,25.1,38.02,3.1,43.03-4.43,4.44-2.26,16.48-11.13,17.5-10.98,5.31.78.81,42.23-.79,48.19-2.96,11.04-8.16,15.82-12.71,24.79-.93,1.82-3.35,3.43-3.92,6.58-1.26,6.98,2.72,27.99-6.62,30.38-26.32,6.75-10.14-21.94-22.19-25.74-3.05-.96-43.08-.89-47.79-.21-4.44.64-2.8.31-4.49,2.99-4.63,7.34.31,17.41-9.31,22.19-8.2,4.08-20.2,4.55-25.69-3.19,8.67-3.87-.84-7.08-1.04-7.68-1.97-5.82,2.39-15.14,2.06-18.71-.16-1.78-11.79-24.17-13.34-32.79-7.36-40.91,4.64-41.61,18.32-72.82,1.54-3.51,6.01-7.68,1.73-12.74-1.06-1.25-22.38-6.39-26.73-8.26-.71-4.62,4.52,2.03,4.99-.49.32-1.73-12.26-16.78-14.03-19.97-17.57-31.83-21.27-66.13-12.66-101.73,4.06-16.78,13.52-32.14,17.7-48.8,10.64-9.34,22.78-17.74,36-23,25.37-10.1,57.84-14.32,85-12ZM129.05,171.8c-3.44,8.92-10.77-.18-16,8-6.78-2.3-29.04-8.27-30.05,1.53-1.06,10.21,7.87,8,14.05,9.47.81,4.34-2.08,11.64,2,14-3.96.84-10.28,1.16-13.02,4.47-12.93,15.62,24.42,10.15,30.02,8.53,19.41,5.67,37.46-8.73,27-29,17.94-4.68,10.59-40.89-8.57-31.07-4.34,2.23-3.96,10.26-5.43,14.07ZM195.35,175.48c-1.62-.87-10.96-12.83-14.07-2.96-9.15,29.03,52.5,19.38,41.84-.3-5.46-10.08-16.94,9.05-27.77,3.26Z"/>
      <path class="cls-6" d="M96.05,89.8c-4.17,16.67-13.64,32.02-17.7,48.8-8.61,35.6-4.91,69.9,12.66,101.73,1.76,3.19,14.35,18.25,14.03,19.97-.47,2.52-5.71-4.13-4.99.49-74.69-32.14-55.19-126.06-4-171Z"/>
      <path class="cls-6" d="M125.05,281.8c-13.68,31.21-25.69,31.92-18.32,72.82,1.55,8.62,13.18,31.01,13.34,32.79.33,3.56-4.03,12.88-2.06,18.71.2.6,9.71,3.81,1.04,7.68-6.28-8.84-1.93-14.8-4.24-21.77-.27-.83-11.52-9.06-13.3-11.22-20.05-24.33-12.1-64.25,3.72-89.08,6.88-10.8,6.8-9.06,19.81-9.93Z"/>
      <path class="cls-6" d="M237.05,301.8c-7.08,2.17-14.25,5.85-21,9-.6-4.35-5.47.02-8.11-5.39-5.04-10.34,5.64-17.93-9.89-17.61,10.4-1.45,56.9-20.97,50.06,2.57-1.56,5.38-6.91,8.46-11.06,11.43Z"/>
      <path class="cls-2" d="M272.05,177.8c14.04-1.76,25.65.47,37,9-5.52.15-26.93-1.23-29.98,1.52-2.28,2.06-2.82,26.53-3.02,31.48-14.34-.58-19.04-20.54-13-31,1.34-2.33,7.57-3.12,9-11Z"/>
      <path class="cls-1" d="M217.05,54.8c-27.16-2.32-59.63,1.9-85,12,25.51-12.17,57.14-17.22,85-12Z"/>
      <path class="cls-1" d="M254.05,256.8c-23.89,12.95-52.98,10.77-76.54,19.96-6.69,2.61-7.54,4.4-5.46,12.04-4.03-4.42-2.63-10.71,3.97-13.53,15.16-6.49,50.14-9.51,68.42-14.58,3.41-.95,6.35-2.67,9.61-3.88Z"/>
      <path class="cls-1" d="M239.05,380.8c-7.19,9.6,3.52,36.33-11.57,38.92-25,4.29-13.58-21.05-19.7-25.24-3.85-2.64-46.07-.15-53.73.32,1.69-2.68.05-2.35,4.49-2.99,4.7-.68,44.74-.75,47.79.21,12.04,3.81-4.14,32.49,22.19,25.74,9.33-2.39,5.35-23.4,6.62-30.38.57-3.15,2.99-4.76,3.92-6.58Z"/>
      <path class="cls-1" d="M237.05,301.8c-10.45,7.49-34.65,14.53-41.36,20.14-6.91,5.78-2.38,13.24,5.59,12.68,5.1-.36,27.62-12.68,33.78-15.82-5.01,7.53-53.48,29.53-43.03,4.43.98-2.35,20.27-10.67,24.03-12.43,6.75-3.15,13.92-6.83,21-9Z"/>
      <path class="cls-2" d="M129.05,171.8c1.25,7.33,3.91,19.63,14,17,10.46,20.27-7.59,34.67-27,29,9.56-2.76,9.77-13.98.54-15.07-3.72-.44-13.51,1.22-17.54,2.07-4.08-2.36-1.19-9.66-2-14,6.46,1.54,31.13,9.42,25.36-5.74-1.01-2.66-6.85-4.41-9.36-5.26,5.23-8.18,12.56.92,16-8Z"/>
      <path class="cls-4" d="M195.35,175.48c10.83,5.79,22.31-13.34,27.77-3.26,10.66,19.68-50.99,29.33-41.84.3,3.11-9.87,12.45,2.09,14.07,2.96Z"/>
      <path class="cls-4" d="M129.05,171.8c1.47-3.82,1.09-11.84,5.43-14.07,19.16-9.82,26.52,26.39,8.57,31.07-10.09,2.63-12.75-9.67-14-17Z"/>
      <path class="cls-4" d="M272.05,177.8c-1.43,7.88-7.66,8.67-9,11-17.33,2.01-15.98-32.6-3.56-33.84,11.75-1.18,14.07,14.54,12.56,22.84Z"/>
      <path class="cls-4" d="M113.05,179.8c2.51.85,8.35,2.6,9.36,5.26,5.76,15.16-18.9,7.28-25.36,5.74s-15.11.74-14.05-9.47c1.01-9.8,23.27-3.83,30.05-1.53Z"/>
      <path class="cls-4" d="M99.05,204.8c4.03-.85,13.82-2.51,17.54-2.07,9.23,1.09,9.02,12.31-.54,15.07-5.61,1.62-42.95,7.09-30.02-8.53,2.74-3.31,9.06-3.63,13.02-4.47Z"/>
    </g>
  </g>
  <g>
    <path class="cls-2" d="M312.05,186.8c-.33,0-.67,0-1,0h1Z"/>
    <path class="cls-1" d="M428.05,202.8v139h-135v-139h135ZM410.8,227.03c-.13-.28-4.6-3.17-5.32-3.25-8.44-.93-33.2,29.85-42.94,31.55-4.12.72-19.24-17.47-26.43-12.99-5.56,6.1-32.7,26.86-30.54,34.38,5.52,19.19,29.73-18.74,34.97-18.91,5.15-.17,13.41,17.81,26.71,12.91,2.45-.9,38.86-30.36,40.74-32.53,2.43-2.8,4.49-7.54,2.82-11.16ZM384.05,267.8c-.19.1-2.89,2.82-3,3-.1.17-1.87-.21-2,0-.68,1.21,1,2.84,1,3-.37,6.61.18,13.37,0,20l-2.99,6.99c-.48-2.45.62-15.21,0-16-.27-.33-3.53.35-4,0s-1.43-.79-2-1c-.1-.04.48-1.83-.64-2.04-7.46-1.39-18.17-.42-23.36,3.04-.12.08-1.92,1.88-2,2-3.62,5.4-3.47,6.8-3.01,13.99-1.44-.02-2.65-1.78-3.99-2.99-.63-.57-1.88-1.92-2-2-6.73-4.23-16.67-5.16-24,0-7.95,5.6-6.68,25.29-1.77,33.35l97.05.43c3.68-1.01,4.13-2.92,4.73-6.27,1.22-6.82.53-48.38-2.01-53.51-1.21-2.45,1.96-2.88-4.5-3.99-1.87-.32-19.87-.4-20.9-.07-1.23.4-.45,1.97-.6,2.05Z"/>
    <path class="cls-4" d="M410.8,227.03c1.66,3.62-.4,8.36-2.82,11.16-1.88,2.17-38.29,31.63-40.74,32.53-13.31,4.9-21.56-13.08-26.71-12.91-5.23.18-29.45,38.11-34.97,18.91-2.16-7.51,24.98-28.27,30.54-34.38,7.19-4.48,22.32,13.71,26.43,12.99,9.74-1.7,34.5-32.48,42.94-31.55.73.08,5.19,2.96,5.32,3.25Z"/>
    <g>
      <path class="cls-4" d="M410.05,269.8c2.54,5.13,3.23,46.7,2.01,53.51-.6,3.35-1.06,5.26-4.73,6.27l-97.05-.43c-4.91-8.06-6.18-27.75,1.77-33.35h24c.12.08,1.37,1.43,2,2,1.81,3.06-.98,24.96,6.01,18.01,1.03-1.02-1.4-25.09.99-29.01.08-.12,1.88-1.92,2-2l24-1c.57.21,1.53.66,2,1,4.26,4.2.67,29.69,1.99,31.01,4.2,4.18,5.03-2.87,5.01-6.01,0-.66.04-1.34,0-2-.07-1.13.27-2.4-1-3-.02-.65-.06-1.36,0-2,.3-3.1.9-5.5,1-9,.18-6.63-.37-13.39,0-20l1-3c.11-.18,2.81-2.9,3-3,8.33-.77,18.72-3.22,26,2ZM393.05,280.8c-1.25,1.22,0,30.37,0,35,0,.35,6.76.25,7.01,0,1.25-1.23.27-33.8-1-35.01-.22-.21-5.79-.21-6,0ZM359.05,296.8c.49,5.21,0,11.61,0,17,0,.1,2,.1,2,0v-16.5c0-.23,1.46-1.07,1-1.49-.35-.32-3.86.17-4.99,0-.47,1.67,1.98.84,1.99.99Z"/>
      <path class="cls-1" d="M393.05,280.8c.21-.21,5.79-.21,6,0,1.27,1.21,2.25,33.78,1,35.01-.25.25-7.01.34-7.01,0,0-4.63-1.25-33.78,0-35Z"/>
      <path class="cls-2" d="M359.05,296.8c-.01-.14-2.47.68-1.99-.99,1.13.17,4.64-.32,4.99,0,.46.42-1,1.26-1,1.49v16.5c0,.1-2,.1-2,0,0-5.39.49-11.79,0-17Z"/>
      <path class="cls-1" d="M379.05,302.8c-.06.64-.02,1.35,0,2,.03,1.13-.24,2.41,1,3,.04.66,0,1.34,0,2l-2.99,2.99,1.99-9.99Z"/>
      <path class="cls-1" d="M342.04,313.79c-1.17,1.79-1.3-4.76,0-2.99.1.14.12,2.81,0,2.99Z"/>
    </g>
  </g>
</svg>