<?xml version="1.0" encoding="UTF-8" standalone="no"?>
<!-- Created with Inkscape (http://www.inkscape.org/) -->

<svg
   version="1.1"
   id="svg1"
   width="522.66669"
   height="560"
   viewBox="0 0 522.66669 560"
   sodipodi:docname="privacy_cat.png"
   inkscape:version="1.4.2 (f4327f4, 2025-05-13)"
   xmlns:inkscape="http://www.inkscape.org/namespaces/inkscape"
   xmlns:sodipodi="http://sodipodi.sourceforge.net/DTD/sodipodi-0.dtd"
   xmlns="http://www.w3.org/2000/svg"
   xmlns:svg="http://www.w3.org/2000/svg">
  <defs
     id="defs1" />
  <sodipodi:namedview
     id="namedview1"
     pagecolor="#ffffff"
     bordercolor="#000000"
     borderopacity="0.25"
     inkscape:showpageshadow="2"
     inkscape:pageopacity="0.0"
     inkscape:pagecheckerboard="0"
     inkscape:deskcolor="#d1d1d1"
     inkscape:zoom="0.52321429"
     inkscape:cx="159.59044"
     inkscape:cy="303.89078"
     inkscape:window-width="1440"
     inkscape:window-height="830"
     inkscape:window-x="-6"
     inkscape:window-y="-6"
     inkscape:window-maximized="1"
     inkscape:current-layer="g1" />
  <g
     inkscape:groupmode="layer"
     inkscape:label="Image"
     id="g1">
    <g
       id="g2"
       transform="translate(1.9112669,-3.8225256)">
      <path
         style="fill:#fcdea0"
         d="m 287.02539,557.74268 c 1.29729,-0.33806 3.09729,-0.31583 4,0.0494 0.90271,0.36524 -0.15871,0.64183 -2.35871,0.61466 -2.2,-0.0272 -2.93858,-0.326 -1.64129,-0.66406 z m 45.30796,0.005 c 1.28333,-0.33537 3.38333,-0.33537 4.66666,0 1.28334,0.33537 0.23334,0.60976 -2.33333,0.60976 -2.56667,0 -3.61667,-0.27439 -2.33333,-0.60976 z m 31.34888,-0.0239 c 1.65855,-0.31892 4.05855,-0.30681 5.33333,0.0269 1.27478,0.33372 -0.0822,0.59466 -3.01555,0.57986 -2.93333,-0.0148 -3.97633,-0.28784 -2.31778,-0.60677 z m 14.675,-1.35663 c 2.39646,-0.29674 5.99646,-0.29062 8,0.0136 2.00353,0.30423 0.0428,0.54703 -4.35722,0.53954 -4.4,-0.007 -6.03925,-0.2564 -3.64278,-0.55315 z m 23.30945,-1.33831 c 2.75,-0.28766 7.25,-0.28766 10,0 2.75,0.28766 0.5,0.52302 -5,0.52302 -5.5,0 -7.75,-0.23536 -5,-0.52302 z m -94.66667,-12.00876 c 3.48334,-0.27467 9.18334,-0.27467 12.66667,0 3.48333,0.27466 0.63333,0.49939 -6.33333,0.49939 -6.96667,0 -9.81667,-0.22473 -6.33334,-0.49939 z M 156.46485,530.34012 c -0.48227,-0.78035 -0.30551,-1.06569 0.39281,-0.63411 0.69832,0.43159 2.14102,0.23348 3.20601,-0.44024 2.74173,-1.73444 -4.07174,-1.67726 -8.97686,0.0753 -3.32378,1.18758 -3.48252,1.12979 -1.38663,-0.50483 2.19437,-1.71141 2.0972,-1.89769 -1.33333,-2.55623 -2.0351,-0.39066 -4.56252,-0.0135 -5.61649,0.83816 -1.54688,1.24995 -1.75589,1.11991 -1.08419,-0.67453 1.0292,-2.74947 -2.0364,-4.15791 -4.3666,-2.00615 -1.33513,1.23289 -1.50359,1.03051 -0.79861,-0.95945 0.76294,-2.1536 0.59241,-2.27211 -1.16762,-0.81141 -1.72168,1.42887 -1.93128,1.37235 -1.27296,-0.34321 0.43345,-1.12955 0.0545,-2.50712 -0.84215,-3.06127 -1.10899,-0.68539 -1.31959,-0.40877 -0.65867,0.86513 0.53436,1.02997 -0.32297,0.22268 -1.9052,-1.79399 -2.85749,-3.64209 -6.35498,-5.1899 -4.51928,-2 0.53524,0.93008 0.4404,1.19331 -0.21459,0.59561 -0.64555,-0.58909 -1.19174,-2.38666 -1.21377,-3.9946 -0.022,-1.60794 -0.64005,-2.97778 -1.37338,-3.04409 -3.57611,-0.32335 -5.76698,-2.30516 -5.28947,-4.78471 0.38761,-2.01269 -0.017,-2.47864 -1.61879,-1.864 -1.86104,0.71415 -1.89708,0.52555 -0.28033,-1.46696 1.06213,-1.309 1.17539,-1.87858 0.26492,-1.33234 -1.7544,1.05255 -7.58838,-10.53504 -6.32954,-12.57188 0.39877,-0.64523 -0.35612,-0.79171 -1.67754,-0.32552 -1.96416,0.69296 -2.09845,0.51986 -0.73592,-0.9486 2.0172,-2.17403 2.21219,-4.4241 0.27989,-3.22988 -0.89295,0.55188 -1.12751,-0.48838 -0.65869,-2.92131 0.40045,-2.07811 0.3745,-3.02838 -0.0577,-2.11172 C 106.79804,479.25 105.87334,480 105.17531,480 c -0.7392,0 -0.6567,-1.14434 0.19759,-2.74059 0.80669,-1.50732 1.17517,-3.45732 0.81884,-4.33333 -0.48202,-1.18501 -0.67482,-1.16608 -0.75314,0.0739 -0.0579,0.91667 -0.72637,1.66667 -1.48551,1.66667 -0.92405,0 -0.89618,-0.90447 0.0843,-2.73655 0.80551,-1.5051 1.19622,-3.7551 0.86825,-5 -0.52847,-2.00594 -0.61391,-1.98904 -0.75098,0.14857 -0.0851,1.32661 -0.73174,2.05537 -1.43705,1.61946 -0.82096,-0.50738 -0.82096,-2.0062 0,-4.16549 1.90774,-5.01773 1.59152,-6.44397 -0.96726,-4.36259 -2.002056,1.62854 -2.131027,1.53645 -1.17189,-0.83674 2.14793,-5.31458 2.60307,-16.29304 0.56597,-13.65166 -1.577695,2.0457 -1.811103,1.15979 -1.811103,-6.87409 0,-5.07234 0.398754,-8.97536 0.886123,-8.67337 1.53753,0.95271 1.97872,-2.43555 1.08442,-8.32828 -0.5387,-3.54969 -0.3774,-5.39072 0.42867,-4.89254 0.77193,0.47708 1.04893,-0.86 0.68784,-3.32024 -0.35896,-2.44579 -0.0824,-3.79628 0.68086,-3.32457 0.76024,0.46986 1.00598,-0.66725 0.60148,-2.78323 -0.37615,-1.9677 -0.36403,-3.25777 0.0269,-2.8668 1.07429,1.07428 5.73648,-13.01595 4.96874,-15.01667 -0.4092,-1.06634 -0.0696,-1.37065 0.8768,-0.78574 1.04095,0.64335 1.25834,0.20856 0.66666,-1.33333 -0.48289,-1.25839 -0.39383,-1.98876 0.1979,-1.62305 1.10487,0.68285 5.00968,-8.31905 4.46452,-10.2922 -0.16703,-0.60451 0.26799,-0.7458 0.96669,-0.31397 1.32512,0.81896 3.6018,-4.2667 2.94876,-6.58692 -0.20641,-0.73334 0.0795,-0.8785 0.63546,-0.32259 1.22423,1.22423 6.01393,-5.71235 5.03646,-7.29394 -0.37942,-0.61392 -0.14186,-0.95134 0.52791,-0.74984 1.62529,0.48897 8.45908,-7.68266 8.89208,-10.63285 0.18842,-1.28376 1.18538,-2.36139 2.21547,-2.39472 1.03009,-0.0333 1.7729,-0.63334 1.65067,-1.33334 -0.12222,-0.7 2.07049,-1.27272 4.87268,-1.27272 2.8022,0 4.81679,0.45 4.47687,1 -0.33992,0.55 1.74391,1 4.63073,1 5.00875,0 9.19686,-2.6341 7.85691,-4.9416 -0.33804,-0.58212 -0.13186,-2.2584 0.45817,-3.72507 0.93653,-2.328 1.08467,-2.201 1.16649,1 0.10995,4.30201 -0.47972,4.23815 19.325,2.09279 l 14.56462,-1.57772 -9.23129,-1.85467 c -5.07721,-1.02006 -12.68129,-3.60184 -16.89795,-5.73727 -4.21667,-2.13543 -7.66667,-3.25631 -7.66667,-2.49084 0,0.76546 -0.69271,0.96364 -1.53935,0.44039 -0.96138,-0.59417 -1.1771,-0.36524 -0.57453,0.60972 0.53064,0.85861 1.52335,1.2159 2.20601,0.79399 1.76987,-1.09384 4.1156,0.64213 3.09629,2.29142 -0.55132,0.89205 -1.26229,0.74091 -2.00134,-0.42546 -0.93992,-1.48339 -1.14992,-1.45561 -1.16666,0.15432 -0.0134,1.28725 -0.75678,0.91205 -2.15876,-1.08956 -1.28142,-1.82949 -2.94387,-2.7438 -4.14845,-2.28156 -1.44095,0.55295 -1.77504,0.15874 -1.17988,-1.39222 0.64029,-1.66857 0.29294,-1.93785 -1.51821,-1.17699 -5.52532,2.32118 -8.94979,2.50817 -6.96192,0.38015 1.02743,-1.09987 2.93577,-1.72054 4.24076,-1.37928 1.30499,0.34126 2.37271,-0.0495 2.37271,-0.86837 0,-0.81886 -0.55715,-1.48884 -1.2381,-1.48884 -0.68095,0 -2.03095,-0.7857 -3,-1.74601 -0.96905,-0.9603 -6.5411,-5.0103 -12.38235,-9 -13.59377,-9.28484 -14.6019,-9.89845 -13.6005,-8.27815 0.44633,0.72217 5.96426,4.81299 12.26207,9.09069 15.428,10.47929 16.18734,11.83703 5.50374,9.84112 -4.45926,-0.83308 -7.34263,-0.73163 -9.33228,0.32836 -2.59961,1.38493 -2.70152,1.31846 -1.04933,-0.68438 2.14638,-2.60191 1.14449,-2.83084 -2.91758,-0.66667 -2.63268,1.40263 -2.73662,1.33861 -1.08242,-0.66667 2.09134,-2.53517 1.15452,-2.83897 -2.58424,-0.83804 -1.77778,0.95143 -2.57902,0.95143 -2.57902,0 0,-0.75914 0.7,-1.38025 1.55556,-1.38025 0.85556,0 1.17006,-0.3855 0.69889,-0.85667 -0.47117,-0.47116 -1.88351,-0.0212 -3.13853,1 -2.00986,1.63535 -2.17763,1.57853 -1.4074,-0.47666 0.9566,-2.55252 -0.99558,-3.23225 -2.46316,-0.85765 -0.65932,1.06679 -1.17617,1.04828 -1.86533,-0.0668 -0.52431,-0.84836 -2.20775,-1.63697 -3.74096,-1.75246 -1.53321,-0.11549 -2.50798,-0.66251 -2.16616,-1.21559 0.34182,-0.55309 2.10026,-0.44339 3.90763,0.24378 5.14949,1.95783 3.84494,0.25132 -1.52218,-1.9912 -2.64457,-1.10498 -5.2962,-1.70751 -5.89251,-1.33898 -0.59631,0.36854 -2.03257,-0.2783 -3.19169,-1.43742 -1.159118,-1.15912 -2.125735,-1.61464 -2.148034,-1.01225 -0.0223,0.60238 -0.670733,0.012 -1.440963,-1.31203 -1.177607,-2.02427 -1.742223,-2.13034 -3.548734,-0.66667 -1.595664,1.29283 -1.890731,1.31185 -1.147014,0.0739 0.562682,-0.93658 0.348296,-1.66666 -0.489411,-1.66666 -0.837708,0 -1.052094,-0.73008 -0.489412,-1.66667 0.663466,-1.10434 0.229855,-1.04071 -1.285167,0.18859 -1.982126,1.60831 -2.181569,1.5819 -1.49838,-0.19846 0.433449,-1.12955 0.05448,-2.50712 -0.842155,-3.06127 -1.115319,-0.68931 -1.312523,-0.41605 -0.624345,0.86513 0.553244,1.02997 -1.223174,-0.52732 -3.947596,-3.46066 -2.724422,-2.93333 -4.210904,-4.28333 -3.303294,-3 2.924928,4.13576 0.697652,2.4948 -5.398708,-3.97754 -3.269353,-3.47098 -4.405756,-5.12098 -2.52534,-3.66666 1.880415,1.45431 0.980415,0.29377 -2,-2.57899 -2.980416,-2.87275 -4.576233,-4.73005 -3.54626,-4.12732 1.30148,0.76161 1.56536,0.59862 0.865133,-0.53437 -0.55415,-0.89664 -1.878018,-1.29621 -2.941929,-0.88795 -1.080221,0.41452 -1.574678,0.16027 -1.119776,-0.57577 0.448033,-0.72494 0.179196,-1.31806 -0.597417,-1.31806 -0.776612,0 -1.34097,-0.45 -1.254128,-1 0.417927,-2.64687 -0.289675,-4.40927 -1.475955,-3.67611 -0.782916,0.48387 -0.961593,-0.11433 -0.440082,-1.47337 0.591679,-1.54189 0.374285,-1.97668 -0.666667,-1.33333 -1.040951,0.64334 -1.258345,0.20855 -0.666666,-1.33334 0.505048,-1.31613 0.336747,-1.95347 -0.396225,-1.50047 -1.212563,0.7494 -1.737893,-1.34593 -2.007692,-8.00789 -0.07013,-1.73161 -0.711413,-2.62637 -1.522904,-2.12484 -0.881496,0.54479 -1.132389,-0.16376 -0.675982,-1.90907 0.544251,-2.08122 0.224493,-2.58304 -1.278413,-2.00632 -1.655538,0.63529 -1.745261,0.28525 -0.515754,-2.0121 2.200524,-4.11172 1.97762,-6.35566 -0.432638,-4.35533 -1.647243,1.3671 -1.711184,1.03828 -0.448565,-2.30678 0.826016,-2.18837 1.005797,-5.01191 0.409483,-6.4311 -0.584669,-1.39147 -1.023802,-4.92995 -0.97585,-7.86329 0.04795,-2.93333 -0.230066,-4.13333 -0.617819,-2.66666 -1.577065,5.96521 -2.455724,3.92843 -2.627069,-6.0897 -0.190767,-11.15363 0.177479,-12.45785 2.139354,-7.57697 1.706438,4.24539 1.786724,-2.9507 0.113388,-10.16302 -0.658832,-2.83966 -0.702757,-4.63966 -0.09761,-4 0.605146,0.63966 1.388904,2.36302 1.741683,3.82969 0.423292,1.75981 0.694016,1.22255 0.796087,-1.57987 0.08507,-2.33559 -0.430481,-5.78559 -1.145664,-7.66667 C 49.954522,193.46024 49.91278,192 50.601904,192 c 0.661412,0 1.476961,1.05 1.812331,2.33333 0.561624,2.14913 0.621974,2.14221 0.764432,-0.0876 0.08507,-1.33155 -0.466442,-3.58155 -1.225577,-5 -0.831968,-1.55455 -0.876105,-2.57901 -0.111111,-2.57901 0.698024,0 1.571766,0.75 1.941649,1.66666 0.514949,1.27618 0.697177,1.25564 0.777778,-0.0876 0.05789,-0.96488 -0.564538,-3.00586 -1.383182,-4.53551 -1.261616,-2.35735 -1.155319,-2.65335 0.697519,-1.94235 1.737913,0.6669 1.935457,0.36673 0.963781,-1.46449 -1.174196,-2.21289 1.297811,-6.38822 2.858276,-4.82775 1.079209,1.0792 2.452639,-6.15348 1.470317,-7.74291 -0.552435,-0.89386 -0.305067,-1.10201 0.625874,-0.52666 2.059553,1.27287 1.967559,-0.90796 -0.127322,-3.01834 -1.337221,-1.34711 -1.139554,-1.48225 1,-0.68369 2.381947,0.88903 2.468581,0.75185 0.811409,-1.28486 -1.647836,-2.02524 -1.573301,-2.17431 0.666666,-1.33334 2.307953,0.8665 2.352235,0.73478 0.521925,-1.55245 -1.83031,-2.28723 -1.786028,-2.41895 0.521925,-1.55245 2.239967,0.84097 2.314502,0.6919 0.666667,-1.33333 -1.647836,-2.02524 -1.573301,-2.17431 0.666666,-1.33333 2.156191,0.80951 2.273863,0.64793 0.811409,-1.11422 -1.462454,-1.76215 -1.344783,-1.92373 0.811409,-1.11422 2.239967,0.84098 2.314502,0.69191 0.666666,-1.33333 -1.647835,-2.02523 -1.5733,-2.1743 0.666667,-1.33333 2.160424,0.81111 2.278141,0.64668 0.821227,-1.1471 -1.403068,-1.72748 -1.332614,-2.23518 0.402584,-2.90104 1.368293,-0.52506 1.774126,-0.27452 1.161353,0.71697 -0.593791,0.96077 -0.349055,1.15766 0.66216,0.53269 1.241235,-0.76712 1.245176,-1.42385 0.01742,-2.9032 -1.279794,-1.54206 -1.183155,-1.75698 0.499666,-1.11122 1.32618,0.50891 2.65786,-0.2673 3.65495,-2.13038 0.862737,-1.61204 1.008753,-2.58497 0.324478,-2.16206 -0.684274,0.4229 -1.244135,-0.0475 -1.244135,-1.04531 0,-1.06345 0.826214,-1.49718 1.996504,-1.0481 1.140028,0.43747 1.643536,0.19502 1.173711,-0.56517 -0.452537,-0.73222 0.862838,-3.17684 2.923055,-5.43249 3.857573,-4.2235 6.070208,-8.19375 5.640928,-10.12182 -0.134592,-0.6045 0.340049,-0.7377 1.054758,-0.29599 1.157794,0.71556 4.597993,-3.80754 4.719353,-6.2049 0.07232,-1.42855 3.38058,-4.43462 3.38058,-3.07178 0,0.65719 2.076653,-0.81788 4.614785,-3.27793 2.538135,-2.46006 4.245425,-5.07046 3.793985,-5.8009 -0.45143,-0.73045 -0.18508,-0.93519 0.5919,-0.45499 1.75259,1.08316 13.16603,-8.302302 12.55489,-10.324088 -0.24445,-0.808672 -0.0156,-1.041422 0.50864,-0.517224 1.35027,1.35027 6.17906,-1.480795 5.20737,-3.053021 -0.44171,-0.714709 -0.30852,-1.213553 0.29599,-1.108541 2.84063,0.493456 4.50225,-0.266557 3.63845,-1.664204 -0.59143,-0.956961 -0.36554,-1.177284 0.59708,-0.582354 0.85164,0.526345 3.29552,-0.287039 5.43084,-1.80752 4.73864,-3.374209 25.59119,-13.787514 32.36175,-16.160749 2.71096,-0.950251 4.56825,-2.311453 4.12732,-3.024892 -0.44093,-0.71344 -0.1706,-0.907133 0.60072,-0.43043 2.12445,1.312985 9.76643,-0.563488 8.78196,-2.156393 -0.48692,-0.787868 -0.20214,-0.975971 0.66563,-0.439656 1.89373,1.170388 11.09593,-0.455437 10.25738,-1.812251 -0.33806,-0.546989 0.95636,-0.694206 2.8765,-0.32715 2.62712,0.502207 3.22612,0.238559 2.4203,-1.065287 -0.66032,-1.06843 -0.54384,-1.40696 0.30384,-0.883063 0.75607,0.46728 9.99878,-0.07098 20.53935,-1.196137 17.70664,-1.890101 53.47086,-2.22363 52.43098,-0.48896 -0.72219,1.20474 19.21874,4.183805 20.92917,3.126701 0.92207,-0.569868 1.19166,-0.37828 0.66555,0.472978 -1.06599,1.724808 6.35919,3.620478 8.64577,2.207291 0.92839,-0.573776 1.2184,-0.399529 0.70842,0.425641 -1.02409,1.657002 5.24044,3.508702 7.38543,2.183024 0.95719,-0.591575 1.09704,-0.297012 0.39686,0.835905 -0.80547,1.303268 -0.34751,1.557519 1.79583,0.997023 1.58235,-0.413794 2.54076,-0.208308 2.1298,0.456635 -0.6844,1.107383 1.5518,1.720016 5.72917,1.569574 0.90877,-0.03273 1.35325,0.424396 0.98772,1.015833 -0.36553,0.591436 1.29093,1.72079 3.68102,2.509675 2.39008,0.788886 9.42483,4.392789 15.63276,8.008675 6.20794,3.615886 11.90794,6.222594 12.66667,5.792684 0.75873,-0.429909 0.94986,-0.305805 0.42473,0.275787 -1.36705,1.514028 5.28617,6.401355 7.14792,5.250729 0.94114,-0.581654 1.19396,-0.379646 0.6422,0.513123 -0.80876,1.308591 1.28423,3.121993 5.16466,4.474759 0.73334,0.255649 1.19663,0.874929 1.02955,1.376178 -0.32312,0.969374 9.56995,9.223815 10.45059,8.719615 0.28593,-0.16371 0.38438,-0.0622 0.21879,0.22566 -0.6425,1.11672 14.88718,16.78493 16.22088,16.36559 0.77744,-0.24445 0.98464,-0.0156 0.46044,0.50864 -1.35027,1.35027 1.4808,6.17906 3.05302,5.20737 0.71471,-0.44171 1.21355,-0.30852 1.10854,0.29599 -0.50901,2.9302 0.26898,4.50688 1.79153,3.6307 0.91667,-0.52752 1.24237,-0.48864 0.72379,0.0864 -1.44476,1.60207 4.12856,11.63064 5.86668,10.55642 0.86441,-0.53424 1.11698,-0.31909 0.60255,0.51328 -0.97664,1.58022 7.63555,19.37263 8.80905,18.19913 0.40219,-0.4022 0.69674,0.0587 0.65455,1.02429 -0.20113,4.60283 0.44013,6.51981 1.88272,5.62823 0.91775,-0.56719 1.1788,-0.36798 0.64648,0.49333 -1.25688,2.03368 2.04785,13.64696 3.6089,12.68218 0.70618,-0.43645 0.87062,-0.12474 0.36542,0.6927 -1.37051,2.21753 2.12146,24.58034 3.52528,22.5761 0.75925,-1.08399 0.9231,-0.73521 0.47746,1.01635 -0.37315,1.46666 -0.86246,10.31241 -1.08734,19.65722 -0.2992,12.43319 -2.40887,26.1211 -2.40887,15.6292 0,-0.90962 -0.96413,-0.86426 -2.82757,0.13302 -2.22144,1.18888 -2.60548,1.15391 -1.79151,-0.16312 0.75167,-1.21622 0.24634,-1.46987 -1.84093,-0.92403 -1.58236,0.41379 -2.57094,0.25713 -2.19687,-0.34814 0.90763,-1.46856 -6.84895,-3.11361 -8.84994,-1.87694 -1.04043,0.64303 -1.2153,0.39453 -0.51722,-0.73499 0.80208,-1.29779 -0.0841,-1.57352 -3.70046,-1.15133 -2.6987,0.31506 -4.42679,0.0239 -3.99593,-0.67326 0.44582,-0.72134 -2.61981,-0.98398 -7.42686,-0.63627 -9.147,0.66164 -10.16856,0.34527 -4.02533,-1.2466 l 4.16072,-1.07815 -3.45836,-4.11003 c -11.8568,-14.091 -48.99781,-4.17158 -45.85905,12.24778 0.35801,1.8728 -0.008,3.301 -0.85559,3.33486 -2.73697,0.10939 -20.14776,12.77613 -20.20905,14.70254 -0.0333,1.0477 -0.73965,1.76946 -1.5696,1.60393 -2.33796,-0.46632 -12.72662,12.62606 -11.58736,14.60306 0.53814,0.93385 0.48606,1.25173 -0.11574,0.7064 -1.51537,-1.3732 -5.04237,3.97163 -3.87126,5.86653 0.63153,1.02183 0.35802,1.17119 -0.81601,0.4456 -1.29295,-0.79909 -1.53077,-0.4786 -0.88795,1.19657 0.59168,1.54189 0.37429,1.97668 -0.66666,1.33334 -1.04095,-0.64335 -1.25835,-0.20856 -0.66667,1.33333 0.48394,1.26112 0.32951,1.949 -0.34409,1.5327 -1.58487,-0.9795 -3.21209,4.11951 -1.96077,6.14419 0.57046,0.92303 0.37963,1.19337 -0.47121,0.66752 -2.49349,-1.54107 -5.64874,16.54348 -5.64874,32.3762 0,14.56929 -0.0321,14.71945 -3.32412,15.5457 -1.84779,0.46376 -2.94063,1.45479 -2.46065,2.23141 0.50597,0.81868 0.22121,1.00018 -0.68782,0.43837 -2.18048,-1.34761 -7.08735,0.4347 -6.00743,2.18206 0.543,0.87858 0.26717,1.05716 -0.70492,0.45637 -3.76691,-2.32808 -19.30686,14.70062 -20.96043,22.96845 -0.72654,3.63274 -1.36683,4.07195 -6.53611,4.48355 -3.15186,0.25096 -5.49984,0.0829 -5.21773,-0.37355 0.62684,-1.01414 -7.68885,-2.4688 -14.22747,-2.48882 -5.5602,-0.017 -9.20665,3.22725 -9.20665,8.19123 0,7.52099 10.19125,11.86044 28.74038,12.23767 6.26562,0.12742 10.65238,0.7491 10.2294,1.44968 -0.42178,0.69857 0.34052,0.81173 1.77085,0.26286 1.38128,-0.53005 2.07422,-0.52652 1.53986,0.008 -0.53435,0.53436 0.35415,2.3827 1.97445,4.10744 3.01477,3.20907 5.96407,18.43338 3.24549,16.7532 -0.74747,-0.46196 -0.9189,0.16372 -0.40896,1.49261 0.52151,1.35903 0.34284,1.95724 -0.44008,1.47337 -1.20897,-0.74719 -1.90993,1.0868 -1.44292,3.77521 0.10501,0.60451 -0.35595,0.76111 -1.02436,0.34801 -1.60627,-0.99272 -4.44386,2.48598 -3.17255,3.88933 0.54364,0.6001 0.3379,0.72096 -0.45719,0.26857 -0.7951,-0.45238 -4.03599,0.4591 -7.20199,2.02551 -5.76406,2.85183 -36.76097,4.64757 -35.14655,2.03614 0.55514,-0.89798 -2.73778,-1.52098 -7.19149,-1.36059 -0.90877,0.0327 -1.26034,-0.57471 -0.78127,-1.34987 0.54814,-0.88691 0.0229,-1.0839 -1.41693,-0.5314 -1.35904,0.52151 -1.95724,0.34284 -1.47337,-0.44008 1.28515,-2.07941 -3.77203,-1.5357 -7.0461,0.75755 -3.31425,2.32139 -3.97961,8.18616 -1.29668,11.42951 2.80381,3.38946 9.10386,6.74033 11.17697,5.9448 1.24852,-0.4791 1.61824,-0.19725 1.01712,0.77538 -0.64236,1.03938 -0.0243,1.28748 1.93259,0.77574 1.58235,-0.41379 2.56808,-0.25249 2.19049,0.35845 -0.37758,0.61094 2.60134,1.52158 6.61981,2.02366 10.07433,1.2587 27.31119,0.24537 28.49828,-1.67538 0.63638,-1.02968 1.64219,-1.14094 2.93327,-0.32447 1.08521,0.68628 1.28154,1.25167 0.43856,1.26295 -1.0079,0.0135 -1.23432,1.49212 -0.66667,4.35375 0.94305,4.75407 0.83959,9.85066 -0.42629,21 -0.45794,4.03333 -0.90596,7.98101 -0.99559,8.77262 -0.0899,0.79407 -1.64652,1.1557 -3.47226,0.80669 -2.15497,-0.41195 -2.99864,-0.13 -2.41871,0.80834 0.62671,1.01405 -0.39829,1.07132 -3.4597,0.19332 -5.48401,-1.57279 -5.44597,-1.5762 -4.67998,0.41903 0.85603,2.22976 -20.60308,0.89349 -23.43827,-1.45951 -1.58804,-1.31795 -2.15422,-1.3037 -2.8014,0.0705 -0.44612,0.94727 -0.5272,0.24444 -0.18018,-1.56185 1.26165,-6.56719 -7.27303,-10.5977 -13.22499,-6.24552 -2.24288,1.64003 -2.36064,2.8798 -1.29818,13.66666 3.05984,31.06553 -2.39113,41.41412 -21.62306,41.05108 -3.75754,-0.0709 -5.34949,0.40448 -4.93875,1.47487 0.78001,2.03265 -11.13666,2.36351 -12.38488,0.34386 z m -16.46484,-13.51019 c 0,-0.27688 -1.05,-1.32688 -2.33334,-2.33334 -2.11474,-1.65849 -2.1619,-1.61133 -0.50341,0.50341 1.74183,2.221 2.83675,2.92731 2.83675,1.82993 z m -4,-5.28995 c 0,-0.25301 -1.35,-1.60301 -3,-3 l -3,-2.53998 2.53998,3 c 2.38696,2.81926 3.46002,3.60699 3.46002,2.53998 z m -8.30536,-10.77792 c -1.6481,-2.5142 -3.21907,-4.34874 -3.49105,-4.07677 -0.55124,0.55124 4.97218,8.64804 5.89945,8.64804 0.32348,0 -0.76031,-2.05707 -2.4084,-4.57127 z m -13.62199,-24.89364 c -1.08255,-2.4943 -1.99176,-3.81332 -2.02047,-2.93116 -0.0642,1.9724 2.86795,8.58705 3.5182,7.9368 0.2588,-0.2588 -0.41518,-2.51134 -1.49773,-5.00564 z m -4.62616,-13.34151 c -0.70261,-1.75647 -1.3155,-2.49265 -1.36198,-1.63596 -0.1129,2.08082 1.44031,6.02867 2.10885,5.36013 0.29182,-0.29182 -0.0443,-1.9677 -0.74687,-3.72417 z m 9.17255,-160.34692 c -6.68949,-6.23596 -22.917993,-19.74238 -22.067212,-18.36579 1.129808,1.82806 22.410882,20.18544 23.400552,20.18566 0.34047,8e-5 -0.25953,-0.81887 -1.33334,-1.81987 z m -8.52601,-28.69612 c -0.40205,-0.65053 0.0125,-1.15601 0.92131,-1.12328 4.27863,0.15408 6.40484,-0.47632 5.66176,-1.67865 -0.48387,-0.78292 0.11433,-0.96159 1.47337,-0.44008 1.67518,0.64282 1.99566,0.405 1.19657,-0.88795 -0.74553,-1.2063 -0.57807,-1.44867 0.52842,-0.76483 2.14888,1.32808 9.66479,-1.84388 8.56924,-3.6165 -0.4984,-0.80643 -0.20796,-0.98426 0.69555,-0.42586 1.78945,1.10594 7.17691,-0.2898 6.34076,-1.64272 -0.56291,-0.91081 3.34945,-1.48437 10.26613,-1.50501 9.96248,-0.0297 20.69104,-8.46286 21.86072,-17.18348 1.91663,-14.28953 -3.8514,-22.87178 -15.39206,-22.90183 -4.15147,-0.0108 -9.01174,-0.76081 -10.80058,-1.66667 -5.21361,-2.64013 -35.58594,-0.53721 -40.01648,2.77066 -8.172414,6.10159 -3.485175,13.97742 9.26892,15.57431 l 6,0.75123 0.34592,5.96173 c 0.20791,3.58331 -0.22688,5.96173 -1.08985,5.96173 -0.8572,0 -1.07336,1.14186 -0.53641,2.83364 0.60521,1.90685 0.41656,2.53524 -0.57681,1.92131 -0.8119,-0.50178 -1.47618,-0.24151 -1.47618,0.57838 0,0.81989 -0.52631,1.16544 -1.16958,0.76788 -1.87411,-1.15827 -10.18176,5.2079 -9.98096,7.64842 0.10053,1.22192 -0.34947,1.89272 -1,1.49066 -2.136304,-1.32031 -1.237098,1.66438 1.58064,5.24656 2.46649,3.13563 9.13827,5.25684 7.3296,2.33035 z M 146.00001,256 c 0.45322,-0.73333 1.08863,-1.33333 1.41202,-1.33333 0.32339,0 0.58798,0.6 0.58798,1.33333 0,0.73333 -0.63541,1.33333 -1.41203,1.33333 -0.77661,0 -1.0412,-0.6 -0.58797,-1.33333 z m -0.22187,-6.09713 c -0.83998,-1.77991 -1.02412,-3.2362 -0.4092,-3.2362 1.15912,0 3.23303,5.17581 2.4055,6.00334 -0.25798,0.25798 -1.15632,-0.98723 -1.9963,-2.76714 z M 116,236 c 1.1,-0.71087 2.9,-1.2925 4,-1.2925 1.77778,0 1.77778,0.14361 0,1.2925 -1.1,0.71087 -2.9,1.2925 -4,1.2925 -1.77777,0 -1.77777,-0.14361 0,-1.2925 z m -38.137018,19.73503 c -1.213026,-2.34573 -3.335765,-7.29573 -4.717198,-11 C 71.76435,241.03076 70.979088,239.8 71.400756,242 c 0.888382,4.63502 6.748967,18 7.893056,18 0.426069,0 -0.217804,-1.91924 -1.43083,-4.26497 z M 114.21638,241 c -0.36988,-0.91667 -0.67252,-0.16667 -0.67252,1.66667 0,1.83333 0.30264,2.58333 0.67252,1.66666 0.36988,-0.91666 0.36988,-2.41666 0,-3.33333 z m -43.972225,-6.58333 c -0.425635,-1.06365 -0.741577,-0.74771 -0.805556,0.80555 -0.0579,1.40556 0.257237,2.19306 0.700293,1.75 0.443055,-0.44305 0.490424,-1.59305 0.105263,-2.55555 z M 67.54971,221 c -0.369883,-0.91667 -0.672514,-0.16667 -0.672514,1.66667 0,1.83333 0.302631,2.58333 0.672514,1.66666 0.369883,-0.91666 0.369883,-2.41666 0,-3.33333 z m 177.4353,0.83021 c 1.64176,-0.44003 2.71995,-1.22892 2.39599,-1.7531 -0.52272,-0.84578 2.01316,-0.78613 12.15835,0.28598 1.57998,0.16697 2.59457,0.75358 2.25465,1.30358 -0.33992,0.55 2.26738,0.99604 5.79399,0.99121 6.39072,-0.009 14.79066,-3.8348 12.79674,-5.82872 -0.53356,-0.53355 -6.5e-4,-0.59808 1.18425,-0.1434 5.34889,2.05257 9.02124,-12.53903 3.85202,-15.30551 -3.50497,-1.87581 -7.15771,-1.77831 -5.96033,0.15909 0.58892,0.9529 0.36581,1.17746 -0.58564,0.58943 -1.54236,-0.95323 -7.40012,2.23502 -6.23925,3.39589 1.3247,1.3247 -10.84003,0.14997 -13.56857,-1.3103 -3.76491,-2.01492 -10.47958,-1.97511 -14.15486,0.0839 -3.38446,1.8961 -15.69204,2.29758 -14.56606,0.47515 0.41934,-0.67872 -0.26411,-0.83443 -1.53014,-0.34861 -1.29239,0.49594 -1.9515,0.33355 -1.51471,-0.37318 2.11211,-3.41747 -8.61568,-5.28776 -11.36039,-1.98058 -3.98546,4.80217 1.18445,17.98397 6.2856,16.02648 0.92838,-0.35625 2.09988,0.0188 2.60334,0.83338 0.58709,0.94994 0.24377,1.13268 -0.9573,0.50956 -1.02998,-0.53436 -0.708,-0.0271 0.71549,1.12732 2.64078,2.14154 14.40107,2.86941 20.39683,1.26242 z M 66.313388,197.66667 c -0.274664,-3.48334 -0.49939,-0.63334 -0.49939,6.33333 0,6.96667 0.224726,9.81667 0.49939,6.33333 0.274665,-3.48333 0.274665,-9.18333 0,-12.66666 z m 262.222082,15.44937 c 1.111,-1.58617 1.64883,-3.53617 1.19517,-4.33333 -0.45365,-0.79716 -0.34982,-1.02056 0.23075,-0.49645 0.58057,0.52411 2.31027,0.0741 3.84378,-1 3.82053,-2.676 7.82721,-2.44807 11.13483,0.63345 1.52688,1.42251 3.23621,2.17251 3.79852,1.66667 0.5623,-0.50584 0.62065,-0.21809 0.12967,0.63946 -2.55572,4.46384 7.03997,7.47723 11.36017,3.56751 7.48863,-6.77711 -5.00284,-27.99388 -14.95002,-25.39263 -1.43844,0.37616 -2.2791,0.13988 -1.86814,-0.52507 0.41095,-0.66494 -1.38822,-1.20898 -3.99816,-1.20898 -2.60995,0 -4.74536,0.63541 -4.74536,1.41202 0,0.77661 -0.6341,1.02013 -1.40911,0.54114 -2.19951,-1.35937 -8.17215,0.567 -7.10608,2.29194 0.56458,0.9135 0.32748,1.1296 -0.60624,0.55252 -3.33442,-2.06078 -10.87857,9.16276 -10.87857,16.18419 0,7.62125 9.68574,11.43971 13.86879,5.46756 z m -136.58394,-0.39097 c 0.88626,-1.06787 1.16702,-2.66058 0.62392,-3.53934 -0.62469,-1.01077 -0.42194,-1.24824 0.55188,-0.64639 1.01385,0.6266 1.53934,-0.24028 1.53934,-2.53934 0,-1.91989 -0.54404,-3.15447 -1.20898,-2.74352 -0.66495,0.41096 -0.91524,-0.37611 -0.55621,-1.74905 0.88191,-3.37243 -9.27252,-14.162 -12.25223,-13.01858 -1.16659,0.44767 -1.79336,0.28368 -1.39282,-0.36441 0.40054,-0.64809 -0.21737,-1.54122 -1.37313,-1.98473 -3.31707,-1.27288 -15.45582,-0.93875 -14.62681,0.40261 0.41096,0.66495 -0.42971,0.90122 -1.86814,0.52506 -6.71091,-1.75494 -17.37438,9.62564 -17.38336,18.55237 -0.009,9.20147 7.87392,10.33818 16.50725,2.38025 6.47329,-5.96687 9.58208,-6.54946 14.46274,-2.71034 1.83403,1.44265 3.81114,2.19265 4.39358,1.66667 0.58244,-0.52598 0.60401,-0.16852 0.0479,0.79435 -2.74169,4.74739 8.89194,9.36407 12.53504,4.97439 z M 71.427467,165.64969 c -0.678247,-0.67825 -3.413832,12.2671 -4.159506,19.68364 -0.331789,3.3 0.58095,0.33376 2.028308,-6.59164 1.447359,-6.9254 2.406398,-12.8168 2.131198,-13.092 z m 3.626016,-9.65153 c 0.383806,-1.46768 0.153785,-2.33227 -0.511158,-1.92131 -0.664944,0.41096 -1.208989,1.61179 -1.208989,2.66851 0,2.75966 0.905996,2.36612 1.720147,-0.7472 z M 144.00001,528 c 0,-0.73333 0.63541,-1.33333 1.41202,-1.33333 0.77661,0 1.0412,0.6 0.58798,1.33333 -0.45323,0.73333 -1.08864,1.33333 -1.41203,1.33333 -0.32338,0 -0.58797,-0.6 -0.58797,-1.33333 z m 179,0.41423 c 1.28334,-0.33537 3.38334,-0.33537 4.66667,0 1.28333,0.33537 0.23333,0.60977 -2.33333,0.60977 -2.56667,0 -3.61667,-0.2744 -2.33334,-0.60977 z m 71.33334,-0.0219 c 1.65,-0.31781 4.35,-0.31781 6,0 1.65,0.3178 0.3,0.57782 -3,0.57782 -3.3,0 -4.65,-0.26002 -3,-0.57782 z m 23.25943,-0.0532 c 7.84269,-0.23532 21.04269,-0.23614 29.33334,-0.002 8.29064,0.23431 1.8739,0.42684 -14.25944,0.42785 -16.13333,10e-4 -22.91659,-0.1907 -15.0739,-0.42602 z M 82.000003,480.79443 C 46.454466,469.5053 33.603966,439.10556 46.478058,396.76207 c 9.045226,-29.75016 7.141714,-40.92448 -9.539203,-55.99863 -12.462091,-11.2617 -9.037899,-17.29743 6.200942,-10.93023 21.149978,8.83702 27.627336,32.85634 17.663606,65.50012 -11.563351,37.88457 -6.666762,58.27846 17.1966,71.62244 6.758703,3.77935 8.0426,5.08667 8.274553,8.42551 l 0.274552,3.95205 -1.231189,-4 c -0.936221,-3.04167 -2.883615,-4.75516 -8.128352,-7.15204 -24.489892,-11.19203 -29.604668,-35.72573 -16.438189,-78.84796 9.17108,-30.03668 -3.946767,-60 -26.267813,-60 -6.414081,0 -5.493334,2.34839 4.727233,12.05693 15.533149,14.75497 17.921859,28.06337 9.593696,53.45008 -14.075656,42.90676 0.3785,78.17432 34.676234,84.60861 2.485601,0.46631 4.519275,1.38105 4.519275,2.03277 0,0.65172 -0.15,1.14481 -0.333333,1.09575 -0.183333,-0.0491 -2.733333,-0.85142 -5.666667,-1.78304 z M 271.82994,381.66667 c -1.6585,-2.11474 -1.61134,-2.1619 0.5034,-0.50341 1.28334,1.00646 2.33334,2.05646 2.33334,2.33333 0,1.09738 -1.09492,0.39107 -2.83674,-1.82992 z m -104.1957,-44.41199 c 0.40465,-1.54739 1.10249,-2.31272 1.55075,-1.70073 0.44826,0.612 2.56114,1.23884 4.69528,1.39298 6.6415,0.4797 6.29292,2.36779 -0.50841,2.7538 -6.0066,0.3409 -6.4203,0.16453 -5.73762,-2.44605 z M 438.87721,332 c 0,-1.83333 0.30263,-2.58333 0.67251,-1.66667 0.36989,0.91667 0.36989,2.41667 0,3.33334 -0.36988,0.91666 -0.67251,0.16666 -0.67251,-1.66667 z m -97.41071,-0.50623 c -1.88238,-2.26813 -1.49837,-18.32611 0.41021,-17.15352 0.66552,0.40887 0.87147,-0.55124 0.45768,-2.13359 -0.41379,-1.58236 -0.27118,-2.57962 0.31692,-2.21616 1.43511,0.88695 2.92007,-3.19333 1.81368,-4.9835 -0.48558,-0.78569 -0.25232,-1.03295 0.52263,-0.554 1.30263,0.80506 3.30002,-2.06426 3.5639,-5.11967 0.0633,-0.73333 1.01516,-1.3606 2.11516,-1.39394 1.1,-0.0333 1.85,-0.78333 1.66667,-1.66666 -0.18334,-0.88334 0.11666,-1.51081 0.66666,-1.39439 1.76397,0.3734 5.67257,-1.7901 5.051,-2.79583 -0.3302,-0.53427 0.12325,-1.02764 1.00766,-1.09639 2.65837,-0.20662 11.67557,-3.80745 11.06461,-4.41841 -0.31224,-0.31224 4.125,-0.56771 9.86052,-0.56771 5.90421,0 10.10381,0.52494 9.6804,1.21003 -0.41131,0.66552 0.54598,0.87169 2.12732,0.45816 1.58134,-0.41353 2.87516,-0.17263 2.87516,0.53533 0,0.70795 0.70197,0.85335 1.55992,0.32311 1.02415,-0.63296 1.28891,-0.25784 0.77086,1.09217 -0.43398,1.13094 -0.37594,2.57937 0.12897,3.21873 0.50492,0.63936 0.72688,1.08132 0.49326,0.98214 -0.92325,-0.39195 -14.26507,14.61462 -13.95301,15.69401 0.18333,0.63414 -0.11667,1.02552 -0.66667,0.86972 -2.02973,-0.57496 -7.04502,3.13173 -6.16466,4.55618 0.50051,0.80984 0.32989,1.1139 -0.37917,0.67568 -1.6988,-1.04992 -8.77486,3.6216 -7.46691,4.92955 0.55591,0.55591 0.41074,0.81808 -0.32259,0.58261 -2.10656,-0.67643 -10.04521,3.05408 -9.24714,4.34538 0.39544,0.63983 -0.31061,0.76823 -1.569,0.28534 -1.54189,-0.59168 -1.97668,-0.37428 -1.33334,0.66667 0.64335,1.04095 0.20856,1.25834 -1.33333,0.66667 -1.4398,-0.55251 -1.96507,-0.35551 -1.41693,0.5314 0.47907,0.77515 0.1275,1.3826 -0.78128,1.34987 -4.56192,-0.16429 -6.40833,0.47065 -5.52499,1.89993 0.61941,1.00223 0.36224,1.17524 -0.73705,0.49584 -0.94582,-0.58454 -2.11444,-0.35418 -2.65704,0.52377 -0.71275,1.15326 -1.39958,1.04799 -2.60008,-0.39852 z m -202.79983,-4.95193 c 0,-0.66468 1.2,-1.20851 2.66667,-1.20851 1.46667,0 2.66667,0.23002 2.66667,0.51116 0,0.28114 -1.2,0.82497 -2.66667,1.20851 -1.46667,0.38354 -2.66667,0.15352 -2.66667,-0.51116 z m -5.33333,-1.20851 c 0,-0.73333 0.63541,-1.33333 1.41202,-1.33333 0.77661,0 1.0412,0.6 0.58798,1.33333 -0.45323,0.73334 -1.08864,1.33334 -1.41202,1.33334 -0.32339,0 -0.58798,-0.6 -0.58798,-1.33334 z M 49.438598,240.55556 c 0.06398,-1.55326 0.379921,-1.8692 0.805556,-0.80556 0.385161,0.9625 0.337792,2.1125 -0.105263,2.55556 -0.443056,0.44305 -0.758187,-0.34445 -0.700293,-1.75 z m 2.561404,-105.07957 c 0,-0.28821 0.931163,-0.88134 2.06925,-1.31807 1.186567,-0.45532 1.721763,-0.23179 1.254645,0.52402 -0.783011,1.26694 -3.323895,1.87393 -3.323895,0.79405 z M 383.8991,93.666667 380.66668,90 l 3.66667,3.232419 c 3.42705,3.021182 4.27812,4.100914 3.23242,4.100914 -0.23884,0 -1.88884,-1.65 -3.66667,-3.666666 z M 92.444448,90.058652 c 0,-1.067742 0.509787,-1.626283 1.13286,-1.241203 0.623074,0.385081 0.787663,1.258687 0.365756,1.941349 -1.078166,1.744509 -1.498616,1.548077 -1.498616,-0.700146 z M 428.00002,76.745356 c 0,-2.523388 0.46104,-4.872917 1.02454,-5.221177 0.56349,-0.34826 0.80047,1.71633 0.52661,4.587977 -0.61484,6.447224 -1.55115,6.829439 -1.55115,0.6332 z M 101.79533,75.378261 C 91.848757,65.338835 55.993178,44 49.070532,44 40.462941,44 53.224207,37.858117 65.248491,36.213694 95.359052,32.095817 149.18884,53.809655 131.6635,63.004153 127.81525,65.023103 120.76667,69.65128 116,73.28899 c -10.05143,7.670809 -8.84986,7.494078 -14.20467,2.089271 z m 14.02011,-3.711594 c 4.30261,-3.116667 10.68954,-7.353385 14.19318,-9.41493 l 6.37025,-3.748263 -4.94237,-3.358427 C 109.74057,40.402282 77.250026,33.542233 57.250557,39.481437 l -7.23345,2.148103 11.991448,5.663238 c 11.249695,5.312927 37.794919,22.984046 41.830285,27.84636 2.55332,3.076562 3.19066,2.891772 11.9766,-3.472471 z m 235.15079,-4.260938 c -6.06859,-3.966669 -12.81859,-8.002153 -15,-8.967743 -5.30317,-2.347409 -5.32992,-2.307093 5.7168,-8.616438 23.8324,-13.611894 53.75878,-18.264806 72.16857,-11.22067 2.11837,0.810552 3.5605,1.76482 3.20472,2.120595 -0.35577,0.355775 -2.98899,-0.334683 -5.85158,-1.534352 -6.43477,-2.696708 -31.41143,-1.920357 -43.87139,1.363656 -12.67717,3.341259 -33.67449,14.293489 -30.76291,16.045969 1.28226,0.771789 7.69256,4.840312 14.24513,9.041161 l 11.91374,7.637906 10.42958,-7.73306 c 13.95349,-10.345881 46.84506,-26.707139 46.83928,-23.29927 -0.001,0.599418 -3.45102,2.113925 -7.66667,3.365572 -8.73633,2.593859 -28.715,13.714114 -41.07668,22.863539 -10.00801,7.407372 -7.08909,7.560862 -20.28859,-1.066865 z M 255.75001,52.422515 c 0.9625,-0.385161 2.1125,-0.337793 2.55556,0.105263 0.44305,0.443055 -0.34445,0.758187 -1.75,0.700292 -1.55326,-0.06398 -1.8692,-0.37992 -0.80556,-0.805555 z m -4,-16 c 0.9625,-0.385161 2.1125,-0.337793 2.55556,0.105263 0.44305,0.443055 -0.34445,0.758187 -1.75,0.700292 -1.55326,-0.06398 -1.8692,-0.37992 -0.80556,-0.805555 z"
         id="path5" />
      <path
         style="fill:#f2a0a4"
         d="m 298.34889,528.39032 c 1.65855,-0.31893 4.05855,-0.30682 5.33333,0.0269 1.27479,0.33372 -0.0822,0.59466 -3.01554,0.57986 -2.93334,-0.0148 -3.97634,-0.28785 -2.31779,-0.60677 z m 12,0 c 1.65855,-0.31893 4.05855,-0.30682 5.33333,0.0269 1.27479,0.33372 -0.0822,0.59466 -3.01554,0.57986 -2.93333,-0.0148 -3.97634,-0.28785 -2.31779,-0.60677 z m 21.33334,0 c 1.65855,-0.31893 4.05855,-0.30682 5.33333,0.0269 1.27478,0.33372 -0.0822,0.59466 -3.01555,0.57986 -2.93333,-0.0148 -3.97633,-0.28785 -2.31778,-0.60677 z m 13.35303,-0.035 c 3.13605,-0.28166 7.93605,-0.2777 10.66666,0.009 2.73062,0.28651 0.16476,0.51696 -5.70191,0.51211 -5.86666,-0.005 -8.1008,-0.23925 -4.96475,-0.52091 z m 21.29809,0.095 c 0.91666,-0.36988 2.41666,-0.36988 3.33333,0 0.91667,0.36989 0.16667,0.67252 -1.66667,0.67252 -1.83333,0 -2.58333,-0.30263 -1.66666,-0.67252 z m 6.75,-0.0278 c 0.9625,-0.38516 2.1125,-0.33779 2.55555,0.10527 0.44306,0.44305 -0.34444,0.75818 -1.75,0.70029 -1.55325,-0.064 -1.8692,-0.37992 -0.80555,-0.80556 z m 7.94054,-0.0555 c 2.39647,-0.29674 5.99647,-0.29062 8,0.0136 2.00354,0.30423 0.0428,0.54703 -4.35721,0.53954 -4.4,-0.007 -6.03925,-0.2564 -3.64279,-0.55315 z m 82.0015,0.0423 c 1.29729,-0.33806 3.09729,-0.31583 4,0.0494 0.90271,0.36523 -0.15871,0.64182 -2.35871,0.61465 -2.2,-0.0272 -2.93858,-0.326 -1.64129,-0.66405 z M 109.16326,523 c -1.65849,-2.11474 -1.61133,-2.1619 0.50341,-0.50341 1.28333,1.00646 2.33333,2.05646 2.33333,2.33334 0,1.09738 -1.09491,0.39107 -2.83674,-1.82993 z m 382.94202,-18.44444 c 0.064,-1.55326 0.37992,-1.8692 0.80556,-0.80556 0.38516,0.9625 0.33779,2.1125 -0.10527,2.55556 -0.44305,0.44305 -0.75818,-0.34445 -0.70029,-1.75 z m -128,-49.33334 c 0.064,-1.55326 0.37992,-1.8692 0.80555,-0.80555 0.38516,0.9625 0.3378,2.1125 -0.10526,2.55555 -0.44306,0.44306 -0.75819,-0.34444 -0.70029,-1.75 z m -2.94201,-5.55555 c -1.65849,-2.11474 -1.61133,-2.1619 0.50341,-0.50341 1.28333,1.00646 2.33333,2.05646 2.33333,2.33333 0,1.09738 -1.09491,0.39107 -2.83674,-1.82992 z m 37.50341,-2.17008 c 0,-0.27687 1.05,-1.32687 2.33334,-2.33333 2.11474,-1.65849 2.1619,-1.61133 0.5034,0.50341 -1.74182,2.22099 -2.83674,2.9273 -2.83674,1.82992 z m 8.38135,-20.16326 c 0.01,-3.66666 0.26895,-5.00841 0.57543,-2.98166 0.30647,2.02675 0.29828,5.02675 -0.0182,6.66666 -0.31649,1.63992 -0.56724,-0.0183 -0.55723,-3.685 z m -49.71468,-19.83674 c 0,-0.27687 1.05,-1.32687 2.33333,-2.33333 2.11474,-1.65849 2.1619,-1.61133 0.50341,0.50341 -1.74183,2.22099 -2.83674,2.9273 -2.83674,1.82992 z m 149.4386,-26.94103 c 0.064,-1.55326 0.37992,-1.8692 0.80556,-0.80556 0.38516,0.9625 0.33779,2.1125 -0.10527,2.55556 -0.44305,0.44305 -0.75819,-0.34445 -0.70029,-1.75 z m -196.4386,-25.52009 c 2.38333,-0.29577 6.28333,-0.29577 8.66666,0 2.38334,0.29577 0.43334,0.53776 -4.33333,0.53776 -4.76667,0 -6.71667,-0.24199 -4.33333,-0.53776 z m 27.35871,0.0405 c 1.29729,-0.33806 3.09729,-0.31582 4,0.0494 0.90271,0.36523 -0.15871,0.64182 -2.35871,0.61465 -2.2,-0.0272 -2.93858,-0.326 -1.64129,-0.66406 z m 94.64129,0.005 c 1.28333,-0.33537 3.38333,-0.33537 4.66667,0 1.28333,0.33537 0.23333,0.60976 -2.33334,0.60976 -2.56666,0 -3.61666,-0.27439 -2.33333,-0.60976 z M 422.97602,332 c 0,-2.56667 0.27439,-3.61667 0.60976,-2.33333 0.33537,1.28333 0.33537,3.38333 0,4.66666 -0.33537,1.28334 -0.60976,0.23334 -0.60976,-2.33333 z M 145.79336,258.89501 c 2.35453,-2.60173 3.12118,-10.28427 0.88858,-8.90445 -0.72705,0.44935 -0.9948,-0.0278 -0.59713,-1.06408 1.57615,-4.10739 -6.28976,-5.31123 -14.53837,-2.22503 -4.16795,1.55943 -7.31501,3.26098 -6.99348,3.78122 0.32153,0.52025 -0.42135,0.96519 -1.65085,0.98878 -1.22949,0.0236 -3.58544,0.49258 -5.23544,1.04223 -1.86155,0.62012 -3,0.45928 -3,-0.42383 0,-0.78275 0.60566,-1.42318 1.34592,-1.42318 2.84751,0 0.86429,-11.97388 -2.01259,-12.15117 -6.20849,-0.38261 5.99524,-2.21002 15.74536,-2.35775 6.48428,-0.0982 10.10473,-0.65496 9.59742,-1.47581 -0.44804,-0.72493 0.0204,-0.99763 1.04102,-0.60599 2.35445,0.90349 5.5025,-2.76922 4.19165,-4.89022 -0.62469,-1.01077 -0.42194,-1.24824 0.55188,-0.64639 0.92131,0.56941 1.53934,0.0852 1.53934,-1.20601 0,-1.18655 -0.53225,-1.82842 -1.18279,-1.42637 -0.65054,0.40206 -1.10054,-0.31253 -1,-1.58798 0.11208,-1.42195 -0.59085,-2.14706 -1.81721,-1.87454 -1.1,0.24445 -1.54569,-0.01 -0.99042,-0.56512 2.22972,-2.22973 17.567,-0.43313 20.61839,2.41522 12.96958,12.10657 2.60835,36.84414 -15.50128,37.00951 -3.02242,0.0276 -3.07987,-0.11081 -1,-2.40904 z m -7.37669,-13.13916 c 0.9625,-0.38516 2.1125,-0.33779 2.55556,0.10526 0.44305,0.44306 -0.34445,0.75819 -1.75,0.70029 -1.55326,-0.064 -1.8692,-0.37992 -0.80556,-0.80555 z m -24.87281,-3.08918 c 0,-1.83334 0.30264,-2.58334 0.67252,-1.66667 0.36988,0.91667 0.36988,2.41667 0,3.33333 -0.36988,0.91667 -0.67252,0.16667 -0.67252,-1.66666 z m 223.78949,-4.17596 c 0,-16.56827 34.65395,-25.0649 46.21091,-11.33023 l 3.47287,4.12728 -3.17522,0.88988 c -1.74638,0.48943 -7.07523,0.95888 -11.8419,1.0432 -6.06482,0.1073 -8.06624,0.53614 -6.66666,1.42846 1.36164,0.86813 0.33793,1.00798 -3.2073,0.43815 -3.52239,-0.56616 -4.92392,-0.37845 -4.3315,0.58011 0.53713,0.86908 -0.0591,1.1726 -1.5418,0.78486 -1.32969,-0.34772 -5.68052,0.60794 -9.66851,2.12368 -8.97933,3.41282 -9.25089,3.41032 -9.25089,-0.0854 z M 31.093433,220 c 0,-4.76667 0.241993,-6.71667 0.537762,-4.33333 0.295769,2.38333 0.295769,6.28333 0,8.66666 -0.295769,2.38334 -0.537762,0.43334 -0.537762,-4.33333 z m 20.922531,-89.2948 c -0.912328,-2.20255 -2.281849,-3.61956 -3.043381,-3.14891 -0.806436,0.49841 -0.984263,0.20797 -0.425862,-0.69554 1.202425,-1.94557 -0.346596,-7.14181 -1.851703,-6.2116 -0.612146,0.37832 -0.774434,-0.60679 -0.36064,-2.18914 0.461121,-1.76333 0.229483,-2.55385 -0.598402,-2.04219 -0.836754,0.51714 -1.0968,-0.49367 -0.68338,-2.65634 0.502206,-2.62712 0.238558,-3.22612 -1.065287,-2.4203 -1.144068,0.70707 -1.408656,0.54659 -0.778875,-0.47242 1.513116,-2.44827 -0.611415,-14.186842 -2.172428,-12.003204 -0.959455,1.342144 -1.085623,1.178734 -0.495114,-0.641273 0.435844,-1.34331 0.792443,-10.56831 0.792443,-20.5 V 59.666667 l 4.333333,1.019608 c 2.383334,0.560784 5.626039,1.085784 7.206012,1.166666 1.579973,0.08088 2.531546,0.699022 2.114607,1.373644 -0.419486,0.678743 0.26383,0.834444 1.529906,0.348606 1.541889,-0.591679 1.976677,-0.374285 1.333333,0.666667 -0.643343,1.040951 -0.208556,1.258345 1.333333,0.666666 1.258388,-0.482888 1.989444,-0.394942 1.62457,0.195437 -0.915464,1.481251 6.874217,5.916222 8.560679,4.873931 0.749998,-0.463524 1.198766,-0.04817 0.997264,0.923002 -0.201503,0.971175 0.660101,1.686361 1.914677,1.589302 1.254575,-0.09706 2.154575,0.502941 2,1.333333 -0.154576,0.830393 0.745425,1.430393 2,1.333334 1.254575,-0.09706 2.154575,0.502941 2,1.333333 -0.154575,0.830392 0.762497,1.427547 2.037938,1.32701 1.275441,-0.100536 2.008636,0.31936 1.629323,0.933103 -0.646044,1.045319 4.596738,4.63338 6.051693,4.141664 0.366667,-0.123919 0.666667,0.396578 0.666667,1.15666 0,0.760081 0.76254,1.853241 1.694534,2.429245 0.931993,0.576004 1.496747,2.343299 1.255008,3.927323 -0.504255,3.304185 -6.160887,9.827569 -7.69802,8.87757 -1.510295,-0.933413 -10.649544,10.200539 -9.671739,11.782659 0.457732,0.74063 0.187579,0.94817 -0.600339,0.46121 -1.792108,-1.10758 -7.251964,5.62039 -6.0886,7.50275 0.494864,0.80071 0.206631,0.98222 -0.684833,0.43127 -1.397647,-0.8638 -2.157661,0.79782 -1.664204,3.63845 0.105011,0.6045 -0.393832,0.7377 -1.108541,0.29599 -1.598302,-0.98781 -4.376418,3.84409 -3.053022,5.31002 0.524199,0.58066 0.203088,0.62414 -0.713578,0.0966 -1.577716,-0.90793 -2.332778,0.79522 -1.713451,3.86493 0.147954,0.73333 -0.175788,0.88854 -0.719426,0.3449 -0.543638,-0.54364 -1.716821,-0.38392 -2.607075,0.35492 -1.177229,0.97701 -2.071001,0.25126 -3.27742,-2.66129 z M 88.000003,95.333333 C 89.722331,93.5 90.831508,92 90.464841,92 c -0.366667,0 -2.075844,1.5 -3.798171,3.333333 -1.722327,1.833334 -2.831504,3.333334 -2.464837,3.333334 0.366666,0 2.075843,-1.5 3.79817,-3.333334 z M 414.25398,127.39683 c -1.06508,-1.06508 -2.40413,-1.51508 -2.97567,-1 -0.57154,0.51507 -0.6155,0.19936 -0.0977,-0.7016 1.16989,-2.03555 -4.44496,-9.89524 -6.26532,-8.7702 -0.73002,0.45118 -0.95382,0.21601 -0.49734,-0.52259 1.0671,-1.72661 -2.32436,-6.40244 -4.6438,-6.40244 -0.97578,0 -1.77414,-0.69973 -1.77414,-1.55496 0,-2.52654 -5.92299,-9.784867 -7.6987,-9.434365 -0.89905,0.177462 -1.50412,-0.368886 -1.34461,-1.214108 0.15952,-0.845221 -2.52536,-4.131905 -5.96639,-7.303742 -6.63897,-6.119585 -8.09864,-8.918187 -4.51375,-8.654139 1.20456,0.08872 2.02525,-0.633284 1.82374,-1.604459 -0.2015,-0.971175 0.13837,-1.453831 0.75526,-1.072569 1.63376,1.009718 12.47838,-6.497691 11.28522,-7.812426 -0.55409,-0.610555 -0.25849,-0.679145 0.65689,-0.152422 1.92755,1.109141 7.45576,-2.298943 6.03449,-3.720207 -0.52298,-0.522982 0.17927,-0.517202 1.56055,0.01284 1.73593,0.666141 2.21664,0.486762 1.55677,-0.580924 -0.64334,-1.040952 -0.20855,-1.258345 1.33334,-0.666666 1.67517,0.642824 1.99565,0.404999 1.19657,-0.887951 -0.6879,-1.113042 -0.57322,-1.445672 0.31019,-0.899697 1.7931,1.108197 10.04848,-2.305047 8.73994,-3.613588 -0.53986,-0.539859 0.0426,-0.588539 1.29444,-0.108176 1.25181,0.480363 4.19367,0.204888 6.53747,-0.612166 7.88124,-2.747415 9.32861,18.023292 2.92962,42.042085 -1.92992,7.24403 -3.57992,14.46368 -3.66666,16.04364 -0.0868,1.57997 -0.54485,2.63342 -1.018,2.34099 -1.28129,-0.79187 -2.61928,3.47106 -1.6047,5.11267 0.55699,0.90122 0.23262,1.02077 -0.88892,0.32761 -1.28223,-0.79246 -1.53273,-0.48367 -0.91453,1.12733 1.04776,2.73042 0.39045,2.81693 -2.14427,0.28222 z M 375.82994,107 c -1.65849,-2.11474 -1.61133,-2.1619 0.50341,-0.50341 2.221,1.74183 2.9273,2.83674 1.82992,2.83674 -0.27687,0 -1.32687,-1.05 -2.33333,-2.33333 z M 39.114943,77.333333 c 0,-5.5 0.235357,-7.75 0.523016,-5 0.287659,2.75 0.287659,7.25 0,10 -0.287659,2.75 -0.523016,0.5 -0.523016,-5 z M 225.08334,36.422515 c 0.9625,-0.385161 2.1125,-0.337793 2.55556,0.105263 0.44305,0.443055 -0.34445,0.758187 -1.75,0.700292 -1.55326,-0.06398 -1.8692,-0.37992 -0.80556,-0.805555 z M 69.666669,19.044994 c 2.016667,-0.305499 5.316667,-0.305499 7.333334,0 2.016667,0.3055 0.366667,0.555454 -3.666667,0.555454 -4.033333,0 -5.683333,-0.249954 -3.666667,-0.555454 z"
         id="path4" />
      <path
         style="fill:#e3b364"
         d="m 155.00001,528.41423 c 1.28333,-0.33537 3.38333,-0.33537 4.66666,0 1.28334,0.33537 0.23334,0.60977 -2.33333,0.60977 -2.56667,0 -3.61667,-0.2744 -2.33333,-0.60977 z m 14.08333,0.008 c 0.9625,-0.38516 2.1125,-0.33779 2.55556,0.10527 0.44305,0.44305 -0.34445,0.75818 -1.75,0.70029 -1.55326,-0.064 -1.8692,-0.37992 -0.80556,-0.80556 z m 124,0 c 0.9625,-0.38516 2.1125,-0.33779 2.55556,0.10527 0.44306,0.44305 -0.34444,0.75818 -1.75,0.70029 -1.55326,-0.064 -1.8692,-0.37992 -0.80556,-0.80556 z m -147.75,-1.81676 c -1.46061,-0.98841 -0.92122,-1.11212 2,-0.45868 4.90257,1.09662 5.96682,1.85977 2.55555,1.83251 -1.40555,-0.0112 -3.45555,-0.62945 -4.55555,-1.37383 z m -5.99056,-2.59048 c -0.46712,-0.75581 0.0681,-0.97934 1.25464,-0.52401 2.30989,0.88639 2.73252,1.84207 0.81461,1.84207 -0.69006,0 -1.62122,-0.59312 -2.06925,-1.31806 z m -11.51285,-7.68194 c -1.65849,-2.11474 -1.61133,-2.1619 0.50341,-0.5034 1.28333,1.00646 2.33333,2.05646 2.33333,2.33333 0,1.09738 -1.09491,0.39107 -2.83674,-1.82993 z M 137.16326,515 c -1.65849,-2.11474 -1.61133,-2.1619 0.50341,-0.50341 1.28334,1.00646 2.33334,2.05646 2.33334,2.33334 0,1.09738 -1.09492,0.39107 -2.83675,-1.82993 z m -13.7442,-3.9425 c -0.72358,-1.90026 -0.57043,-2.05341 0.7464,-0.74639 0.91122,0.90445 1.32089,1.98032 0.91037,2.39084 -0.41051,0.41051 -1.15606,-0.32949 -1.65677,-1.64445 z m 9.12093,-2.0575 -2.53998,-3 3,2.53998 c 2.81925,2.38696 3.60698,3.46002 2.53998,3.46002 -0.25301,0 -1.60301,-1.35 -3,-3 z m 374.43603,-6.33333 c 0,-2.56667 0.2744,-3.61667 0.60977,-2.33334 0.33537,1.28334 0.33537,3.38334 0,4.66667 -0.33537,1.28333 -0.60977,0.23333 -0.60977,-2.33333 z m -380.36401,-1.4101 c -1.5966,-2.24223 -2.68039,-4.2993 -2.40841,-4.57128 0.27198,-0.27197 1.84295,1.56257 3.49105,4.07677 3.716,5.66883 2.87525,6.05285 -1.08264,0.49451 z m 126.93186,1.4101 c 0,-1.83334 0.30263,-2.58334 0.67251,-1.66667 0.36989,0.91667 0.36989,2.41667 0,3.33333 -0.36988,0.91667 -0.67251,0.16667 -0.67251,-1.66666 z m 253.73412,-63.33334 c 3.1e-4,-31.53333 0.17472,-44.24274 0.38756,-28.24313 0.21284,15.99961 0.21258,41.79961 -5.8e-4,57.33333 -0.21316,15.53373 -0.3873,2.44314 -0.38698,-29.0902 z m -400.50606,39.88889 c 0.064,-1.55326 0.37992,-1.8692 0.80556,-0.80555 0.38516,0.9625 0.33779,2.1125 -0.10526,2.55555 -0.44306,0.44306 -0.75819,-0.34444 -0.7003,-1.75 z m 6.778,-1.27932 c -0.85246,-1.87094 -1.52644,-4.12348 -1.49774,-5.00564 0.0287,-0.88216 0.93792,0.43686 2.02047,2.93116 2.27852,5.24991 1.7962,7.16398 -0.52273,2.07448 z m -33.462881,0.59111 c -1.785459,-0.71333 -4.066622,-0.98217 -5.069251,-0.59742 -1.138052,0.43671 -1.464291,0.11919 -0.868319,-0.84511 0.643344,-1.04096 0.208556,-1.25835 -1.333333,-0.66667 -1.54189,0.59168 -1.976677,0.37428 -1.333334,-0.66667 0.643344,-1.04095 0.208557,-1.25834 -1.333333,-0.66666 -1.54189,0.59167 -1.976677,0.37428 -1.333333,-0.66667 0.636156,-1.02932 0.219771,-1.26265 -1.248089,-0.69938 -1.358131,0.52116 -2.081054,0.22461 -1.885393,-0.77341 0.174536,-0.89028 -0.727537,-1.62501 -2.004607,-1.63274 -1.277069,-0.008 -2.177069,-0.42441 -2,-0.92595 0.477428,-1.35228 -8.605896,-10.38929 -9.738785,-9.68913 -0.534338,0.33024 -0.889267,-0.44311 -0.78873,-1.71855 0.100536,-1.27544 -0.545614,-2.17618 -1.435889,-2.00164 -0.998026,0.19566 -1.294579,-0.52727 -0.773415,-1.8854 0.56327,-1.46786 0.329945,-1.88424 -0.699379,-1.24809 -1.040951,0.64335 -1.258345,0.20856 -0.666666,-1.33333 0.591678,-1.54189 0.374285,-1.97668 -0.666667,-1.33333 -1.040952,0.64334 -1.258345,0.20855 -0.666667,-1.33334 0.560667,-1.46107 0.359146,-1.96732 -0.557594,-1.40074 -0.923478,0.57074 -1.200858,-0.18358 -0.777589,-2.11461 0.395614,-1.80486 0.213116,-2.3914 -0.457679,-1.47096 -2.131771,2.92515 -1.999425,-23.9256 0.169689,-34.42695 1.148859,-5.56199 1.723044,-11.23573 1.275966,-12.60831 -0.554485,-1.70234 -0.427662,-1.96204 0.398979,-0.81701 3.825831,5.29942 8.85015,-29.47 5.660251,-39.17021 -1.927323,-5.86082 -18.202631,-23.62074 -20.7503,-22.6431 -2.451891,0.94087 -3.262097,-0.59794 -1.776424,-3.37394 1.614932,-3.01753 6.293476,-3.20097 12.757314,-0.50021 2.621018,1.09513 5.316613,1.65053 5.990211,1.23423 0.673598,-0.41631 1.059857,0.0377 0.858354,1.00885 -0.202629,0.9766 0.670045,1.68408 1.952616,1.58298 1.275441,-0.10054 2.050462,0.25168 1.72227,0.78271 -0.998777,1.61605 3.373019,6.84077 4.922653,5.88305 0.848829,-0.52461 1.066099,-0.27687 0.52501,0.59863 -0.507708,0.82149 0.317092,3.9246 1.832889,6.89581 4.237326,8.30584 5.464455,17.16553 3.727188,26.90975 -0.828214,4.6454 -1.553053,10.03888 -1.610752,11.98552 -0.0577,1.94664 -0.642414,3.20715 -1.299366,2.80113 -0.673668,-0.41635 -0.801344,0.94718 -0.292831,3.12732 0.555724,2.38255 0.451427,3.19243 -0.271859,2.11102 -0.808557,-1.2089 -1.948266,0.86429 -3.664913,6.66667 C 51.638587,419.60073 54.570755,454 60.930632,454 c 0.832598,0 2.013815,0.5462 2.624926,1.21377 0.645551,0.70519 0.412771,0.81189 -0.555556,0.25464 -2.792427,-1.60697 -1.859537,1.21889 1.419269,4.29917 3.388927,3.18373 5.620035,3.85237 4.112321,1.23242 -0.557247,-0.96833 -0.45055,-1.20111 0.254644,-0.55556 0.667572,0.61112 1.22824,1.81112 1.24593,2.66667 0.01769,0.85556 1.061233,1.4733 2.318985,1.37276 1.257751,-0.10053 1.976472,0.31936 1.597158,0.93311 -0.977377,1.58143 4.531566,4.27334 6.891799,3.36763 1.261458,-0.48407 1.623246,-0.20099 1.010419,0.79058 -0.633789,1.02549 -0.223285,1.264 1.221383,0.70963 1.196815,-0.45926 2.587947,-0.16852 3.091405,0.64609 0.596213,0.96469 0.299652,1.10057 -0.850552,0.38971 -1.298824,-0.80272 -1.529656,-0.47569 -0.872678,1.23637 0.491288,1.28028 0.893252,3.21411 0.893252,4.29742 0,1.0833 0.6,1.59881 1.333333,1.14559 0.733333,-0.45322 1.333333,-0.18864 1.333333,0.58798 0,1.72002 -3.53297,1.69593 -7.912954,-0.054 z m 25.351551,-4.64512 c 0.064,-1.55326 0.37992,-1.8692 0.80556,-0.80556 0.38516,0.9625 0.33779,2.1125 -0.10527,2.55556 -0.44305,0.44305 -0.75818,-0.34445 -0.70029,-1.75 z M 104.21053,468 c 0,-1.83333 0.30263,-2.58333 0.67252,-1.66667 0.36988,0.91667 0.36988,2.41667 0,3.33334 -0.36989,0.91666 -0.67252,0.16666 -0.67252,-1.66667 z m 4.62086,-3.38488 c -0.45726,-1.1916 -0.79335,-2.86748 -0.74687,-3.72417 0.0465,-0.85669 0.65937,-0.12051 1.36198,1.63596 0.7026,1.75647 1.03869,3.43235 0.74687,3.72417 -0.29183,0.29183 -0.90472,-0.44435 -1.36198,-1.63596 z m -6.05946,-4.05956 c 0.064,-1.55326 0.37992,-1.8692 0.80556,-0.80556 0.38516,0.9625 0.33779,2.1125 -0.10526,2.55556 -0.44306,0.44305 -0.75819,-0.34445 -0.7003,-1.75 z m -1.07544,-11.22223 c 0,-3.3 0.26002,-4.65 0.57782,-3 0.31781,1.65 0.31781,4.35 0,6 -0.3178,1.65 -0.57782,0.3 -0.57782,-3 z m -2.819293,1.33334 c 0,-1.83334 0.302631,-2.58334 0.672514,-1.66667 0.369884,0.91667 0.369884,2.41667 0,3.33333 C 99.179828,453.25 98.877197,452.5 98.877197,450.66667 Z M 54.9266,431.33333 c 0.02717,-2.2 0.325999,-2.93858 0.664056,-1.64129 0.338058,1.29729 0.315826,3.09729 -0.04941,4 -0.365231,0.90271 -0.641823,-0.15871 -0.614651,-2.35871 z M 40.363154,428 c 0,-3.3 0.260021,-4.65 0.577825,-3 0.317804,1.65 0.317804,4.35 0,6 -0.317804,1.65 -0.577825,0.3 -0.577825,-3 z m 29.180708,1.33333 c 0,-1.83333 0.302632,-2.58333 0.672515,-1.66666 0.369883,0.91666 0.369883,2.41666 0,3.33333 -0.369883,0.91667 -0.672515,0.16667 -0.672515,-1.66667 z m 29.228072,-2.11111 c 0.06398,-1.55326 0.37992,-1.8692 0.805555,-0.80555 0.385161,0.9625 0.337793,2.1125 -0.105263,2.55555 -0.443055,0.44306 -0.758187,-0.34444 -0.700292,-1.75 z m -29.333335,-4 c 0.06398,-1.55326 0.379921,-1.8692 0.805556,-0.80555 0.385161,0.9625 0.337792,2.1125 -0.105263,2.55555 -0.443056,0.44306 -0.758188,-0.34444 -0.700293,-1.75 z M 54.877195,420 c 0,-1.83333 0.302632,-2.58333 0.672515,-1.66667 0.369883,0.91667 0.369883,2.41667 0,3.33334 -0.369883,0.91666 -0.672515,0.16666 -0.672515,-1.66667 z M 249.33334,375.48884 c 0,-0.28114 1.20083,-0.82518 2.66851,-1.20899 1.46768,-0.3838 2.33227,-0.15378 1.92131,0.51116 -0.71767,1.16121 -4.58982,1.74993 -4.58982,0.69783 z m -10.91666,-1.73299 c 0.9625,-0.38516 2.1125,-0.33779 2.55555,0.10526 0.44306,0.44306 -0.34444,0.75819 -1.75,0.70029 -1.55326,-0.064 -1.8692,-0.37992 -0.80555,-0.80555 z m 85.25,-18.63889 c 0.91667,-0.36988 2.41667,-0.36988 3.33333,0 0.91667,0.36988 0.16667,0.67251 -1.66666,0.67251 -1.83334,0 -2.58334,-0.30263 -1.66667,-0.67251 z m 8,0 c 0.91667,-0.36988 2.41667,-0.36988 3.33333,0 0.91667,0.36988 0.16667,0.67251 -1.66666,0.67251 -1.83334,0 -2.58334,-0.30263 -1.66667,-0.67251 z m 30.74908,-0.11472 c 11.22866,-0.22325 29.22866,-0.22276 40,0.001 10.77134,0.22385 1.58426,0.40652 -20.41575,0.40592 -22,-6e-4 -30.81291,-0.18375 -19.58425,-0.40701 z m 65.33426,0.0869 c 0.9625,-0.38516 2.1125,-0.33779 2.55555,0.10526 0.44306,0.44306 -0.34444,0.75819 -1.75,0.7003 -1.55326,-0.064 -1.8692,-0.37992 -0.80555,-0.80556 z m 12,0 c 0.9625,-0.38516 2.1125,-0.33779 2.55555,0.10526 0.44306,0.44306 -0.34444,0.75819 -1.75,0.7003 -1.55325,-0.064 -1.8692,-0.37992 -0.80555,-0.80556 z m 9.28524,-0.0672 c 3.13605,-0.28166 7.93605,-0.27769 10.66667,0.009 2.73061,0.2865 0.16475,0.51695 -5.70191,0.51211 -5.86667,-0.005 -8.10081,-0.23926 -4.96476,-0.52092 z M 40.000002,344.66667 c -3.238706,-3.3 -5.588555,-6 -5.221889,-6 0.366667,0 3.316517,2.7 6.555222,6 3.238705,3.3 5.588555,6 5.221888,6 -0.366667,0 -3.316516,-2.7 -6.555221,-6 z M 161.33334,337.6 c 0,-2.78667 -0.75,-5.87469 -1.66667,-6.86227 -1.33333,-1.43649 -1.33333,-1.60742 0,-0.85465 0.91667,0.51753 1.66667,0.31467 1.66667,-0.45079 0,-0.76547 3.45,0.35541 7.66667,2.49084 4.21666,2.13543 11.82074,4.71721 16.89795,5.73727 l 9.23129,1.85467 -14.56462,1.57772 c -20.40482,2.21037 -19.23129,2.42351 -19.23129,-3.49279 z m 17.46953,0.68026 c -0.57329,-0.57918 -2.78845,-1.17918 -4.9226,-1.33333 -2.13414,-0.15414 -4.24702,-0.78098 -4.69528,-1.39298 -0.44826,-0.61199 -1.1461,0.15334 -1.55075,1.70073 -0.68268,2.61058 -0.26898,2.78695 5.73762,2.44605 3.56034,-0.20207 6.00429,-0.84128 5.43101,-1.42047 z m -14.19314,-6.37239 c -1.25382,-2.02873 -3.2571,-1.40902 -2.42816,0.75114 0.42049,1.09579 1.31145,1.65433 1.9799,1.2412 0.66845,-0.41313 0.87017,-1.30968 0.44826,-1.99234 z m 273.39973,8.1074 c -0.46712,-0.75581 0.0681,-0.97934 1.25464,-0.52401 2.30989,0.88639 2.73252,1.84207 0.81461,1.84207 -0.69006,0 -1.62122,-0.59312 -2.06925,-1.31806 z m -279.23752,-2.12638 c 0.064,-1.55326 0.37992,-1.8692 0.80555,-0.80556 0.38516,0.9625 0.33779,2.1125 -0.10526,2.55556 -0.44306,0.44305 -0.75819,-0.34445 -0.70029,-1.75 z m 300.2761,-6.55556 c 0.01,-3.66666 0.26895,-5.00841 0.57542,-2.98166 0.30647,2.02675 0.29828,5.02675 -0.0182,6.66666 -0.31648,1.63992 -0.56723,-0.0183 -0.55722,-3.685 z m -121.45476,-2.66666 c 0.0272,-2.2 0.326,-2.93858 0.66405,-1.64129 0.33806,1.29729 0.31583,3.09729 -0.0494,4 -0.36523,0.90271 -0.64182,-0.15871 -0.61465,-2.35871 z M 33.000001,327.11696 c 0.916667,-0.36988 2.416667,-0.36988 3.333334,0 0.916666,0.36988 0.166666,0.67251 -1.666667,0.67251 -1.833333,0 -2.583333,-0.30263 -1.666667,-0.67251 z m 118.751949,0.19054 c -0.38087,-0.38087 -3.87812,-1.03618 -7.77166,-1.45624 -3.89355,-0.42006 -8.33192,-1.29866 -9.86306,-1.95245 -2.85872,-1.22065 5.11141,-0.43377 10.37386,1.0242 5.14206,1.42462 1.14499,-2.83832 -9.64864,-10.29042 -10.2122,-7.05068 -17.32916,-12.8076 -12.12955,-9.81161 2.46899,1.42262 22.73805,15.25315 24.62044,16.79968 0.73333,0.60249 2.77514,2.28432 4.53735,3.73739 1.7622,1.45307 2.6122,2.64195 1.88888,2.64195 -0.72331,0 -1.62674,-0.31162 -2.00762,-0.6925 z M 422.97602,324 c 0,-2.56667 0.27439,-3.61667 0.60976,-2.33333 0.33537,1.28333 0.33537,3.38333 0,4.66666 -0.33537,1.28334 -0.60976,0.23334 -0.60976,-2.33333 z m 50.66667,-5.33333 c 0,-2.56667 0.27439,-3.61667 0.60976,-2.33334 0.33537,1.28334 0.33537,3.38334 0,4.66667 -0.33537,1.28333 -0.60976,0.23333 -0.60976,-2.33333 z m -364.97602,-3.92704 c -2.93333,-1.38807 -4.95661,-2.57234 -4.49616,-2.6317 1.29473,-0.16692 10.49616,3.84517 10.49616,4.57663 0,0.89368 -0.004,0.89228 -6,-1.94493 z m 180.77194,-2.18407 c 0.064,-1.55326 0.37992,-1.8692 0.80555,-0.80556 0.38516,0.9625 0.3378,2.1125 -0.10526,2.55556 -0.44306,0.44305 -0.75819,-0.34445 -0.70029,-1.75 z M 108.45468,294.73554 c -5.98326,-5.0953 -11.339543,-10.00991 -11.902842,-10.92134 -0.5633,-0.91144 3.732092,2.4385 9.545322,7.44431 12.70109,10.93698 14.6634,12.74153 13.85523,12.74135 -0.34048,-7e-5 -5.51445,-4.16902 -11.49771,-9.26432 z M 80.539987,297 l -2.539984,-3 3,2.53998 c 1.65,1.39699 3,2.74699 3,3 0,1.06701 -1.073059,0.27928 -3.460016,-2.53998 z M 73.916124,294.33333 70.000003,290 l 4.333333,3.91612 c 2.383334,2.15387 4.333334,4.10387 4.333334,4.33333 0,1.03009 -1.100171,0.12316 -4.750546,-3.91612 z m -2.666666,-6.66666 -3.916122,-4.33334 4.333333,3.91612 c 2.383334,2.15387 4.333334,4.10387 4.333334,4.33334 0,1.03008 -1.100171,0.12315 -4.750545,-3.91612 z m 304.500552,-3.24416 c 0.9625,-0.38516 2.1125,-0.33779 2.55556,0.10527 0.44306,0.44305 -0.34444,0.75818 -1.75,0.70029 -1.55326,-0.064 -1.8692,-0.37992 -0.80556,-0.80556 z m 6.66667,0 c 0.9625,-0.38516 2.1125,-0.33779 2.55556,0.10527 0.44305,0.44305 -0.34445,0.75818 -1.75,0.70029 -1.55326,-0.064 -1.8692,-0.37992 -0.80556,-0.80556 z M 75.343283,253 c -1.746722,-3.85 -3.520859,-8.8 -3.942527,-11 -0.421668,-2.2 0.363594,-0.96924 1.745028,2.73503 1.381433,3.70427 3.504172,8.65427 4.717198,11 1.213026,2.34573 1.856899,4.26497 1.43083,4.26497 -0.42607,0 -2.203808,-3.15 -3.950529,-7 z m -23.238018,-4.44444 c 0.06398,-1.55326 0.379921,-1.8692 0.805556,-0.80556 0.385161,0.9625 0.337792,2.1125 -0.105263,2.55556 -0.443056,0.44305 -0.758188,-0.34445 -0.700293,-1.75 z m -1.597047,-6.93078 c -0.439259,-2.64963 -0.243591,-3.89349 0.496113,-3.15378 0.671794,0.67179 0.998193,2.64064 0.725332,4.37522 -0.419839,2.66891 -0.607628,2.48112 -1.221445,-1.22144 z m -3.736286,-6.40256 c 0.06398,-1.55326 0.37992,-1.8692 0.805555,-0.80555 0.385161,0.9625 0.337793,2.1125 -0.105263,2.55555 -0.443056,0.44306 -0.758187,-0.34444 -0.700292,-1.75 z m 22.666667,0 c 0.06398,-1.55326 0.379921,-1.8692 0.805556,-0.80555 0.385161,0.9625 0.337792,2.1125 -0.105263,2.55555 -0.443056,0.44306 -0.758188,-0.34444 -0.700293,-1.75 z M 49.66958,231.33333 c 0.0148,-2.93333 0.287845,-3.97633 0.60677,-2.31778 0.318924,1.65855 0.306816,4.05855 -0.02691,5.33333 -0.333723,1.27478 -0.594661,-0.0822 -0.579862,-3.01555 z m 82.01264,2.39032 c 1.65855,-0.31892 4.05855,-0.30681 5.33333,0.0269 1.27478,0.33372 -0.0822,0.59466 -3.01554,0.57986 -2.93334,-0.0148 -3.97634,-0.28784 -2.31779,-0.60677 z M 66.877196,222.66667 c 0,-1.83334 0.302631,-2.58334 0.672514,-1.66667 0.369883,0.91667 0.369883,2.41667 0,3.33333 C 67.179827,225.25 66.877196,224.5 66.877196,222.66667 Z M 439.06624,212 c 0,-4.03333 0.24995,-5.68333 0.55545,-3.66667 0.3055,2.01667 0.3055,5.31667 0,7.33334 -0.3055,2.01666 -0.55545,0.36666 -0.55545,-3.66667 z m -389.39666,0.66667 c 0.0148,-2.93334 0.287845,-3.97634 0.60677,-2.31779 0.318924,1.65855 0.306816,4.05855 -0.02691,5.33333 -0.333721,1.27479 -0.594659,-0.0822 -0.57986,-3.01554 z M 218.4966,215 c -1.65849,-2.11474 -1.61133,-2.1619 0.50341,-0.50341 2.221,1.74183 2.9273,2.83674 1.82992,2.83674 -0.27687,0 -1.32687,-1.05 -2.33333,-2.33333 z M 65.813998,204 c 0,-6.96667 0.224726,-9.81667 0.49939,-6.33333 0.274665,3.48333 0.274665,9.18333 0,12.66666 -0.274664,3.48334 -0.49939,0.63334 -0.49939,-6.33333 z m -19.042066,5.88889 c 0.06398,-1.55326 0.37992,-1.8692 0.805555,-0.80556 0.385161,0.9625 0.337793,2.1125 -0.105263,2.55556 -0.443056,0.44305 -0.758187,-0.34445 -0.700292,-1.75 z m 145.333338,-4 c 0.064,-1.55326 0.37992,-1.8692 0.80556,-0.80556 0.38516,0.9625 0.33779,2.1125 -0.10527,2.55556 -0.44305,0.44305 -0.75818,-0.34445 -0.70029,-1.75 z M 51.002913,202 c 0.0148,-2.93333 0.287846,-3.97634 0.60677,-2.31779 0.318924,1.65855 0.306816,4.05855 -0.02691,5.33334 -0.333724,1.27478 -0.594662,-0.0822 -0.579863,-3.01555 z m 168.747097,-0.24415 c 0.9625,-0.38516 2.1125,-0.33779 2.55555,0.10526 0.44306,0.44306 -0.34444,0.75819 -1.75,0.70029 -1.55325,-0.064 -1.8692,-0.37992 -0.80555,-0.80555 z m -52,-1.33334 c 0.9625,-0.38516 2.1125,-0.33779 2.55555,0.10527 0.44306,0.44305 -0.34444,0.75818 -1.75,0.70029 -1.55326,-0.064 -1.8692,-0.37992 -0.80555,-0.80556 z M 52.210528,193.33333 c 0,-1.83333 0.302632,-2.58333 0.672515,-1.66666 0.369883,0.91666 0.369883,2.41666 0,3.33333 -0.369883,0.91667 -0.672515,0.16667 -0.672515,-1.66667 z m 15.057433,-8 c 0.745674,-7.41654 3.481259,-20.36189 4.159506,-19.68364 0.2752,0.2752 -0.683839,6.1666 -2.131198,13.092 -1.447358,6.9254 -2.360097,9.89164 -2.028308,6.59164 z m -13.829362,1.88889 c 0.06398,-1.55326 0.37992,-1.8692 0.805555,-0.80555 0.385161,0.9625 0.337793,2.1125 -0.105263,2.55555 -0.443056,0.44306 -0.758187,-0.34444 -0.700292,-1.75 z m 282.894751,1.19201 c 1.28333,-0.33537 3.38333,-0.33537 4.66666,0 1.28334,0.33537 0.23334,0.60977 -2.33333,0.60977 -2.56667,0 -3.61667,-0.2744 -2.33333,-0.60977 z M 57.494911,174.66667 c -0.02271,-1.1 0.782908,-3.8 1.790271,-6 2.357877,-5.14942 2.392478,-2.75427 0.04815,3.33333 -0.988419,2.56667 -1.81571,3.76667 -1.838425,2.66667 z m 15.838425,-17.92131 c 0,-1.05672 0.544045,-2.25755 1.208989,-2.66851 0.664943,-0.41096 0.894964,0.45363 0.511158,1.92131 -0.814151,3.11332 -1.720147,3.50686 -1.720147,0.7472 z m 0,-15.41203 c 0.784936,-1.46666 1.727157,-2.66666 2.093824,-2.66666 0.366666,0 0.02445,1.2 -0.76049,2.66666 C 73.881733,142.8 72.939513,144 72.572846,144 c -0.366667,0 -0.02445,-1.2 0.76049,-2.66667 z m 307.899094,-29 -3.23242,-3.66666 3.66667,3.23242 c 3.42705,3.02118 4.27812,4.10091 3.23242,4.10091 -0.23884,0 -1.88884,-1.65 -3.66667,-3.66667 z m -10.73582,-10.66666 c -1.6585,-2.114744 -1.61134,-2.161905 0.5034,-0.50341 2.221,1.74183 2.92731,2.83674 1.82993,2.83674 -0.27687,0 -1.32687,-1.05 -2.33333,-2.33333 z M 108.66916,78.662647 c 0.80124,-1.296443 0.35637,-1.559837 -1.71824,-1.017315 -1.86267,0.4871 -3.60553,-0.223396 -5.20849,-2.123302 l -2.409093,-2.855363 3.333333,2.657127 3.33333,2.657128 -3.23634,-3.661303 c -1.77999,-2.013717 -4.16652,-3.509424 -5.303408,-3.323795 -1.136889,0.18563 -2.082086,-0.562491 -2.100439,-1.662491 -0.01835,-1.1 -1.039471,-2.007652 -2.26915,-2.017005 -1.22968,-0.0094 -2.728129,-0.555548 -3.329887,-1.213767 -0.632445,-0.691785 -0.2502,-0.783539 0.905894,-0.217451 1.1,0.53862 0.861607,0.05403 -0.529762,-1.076856 -1.39137,-1.130891 -3.056236,-1.730788 -3.699703,-1.333104 -0.643466,0.397685 -1.005073,-0.07153 -0.80357,-1.04271 0.201502,-0.971175 -0.660102,-1.686362 -1.914677,-1.589303 -1.254576,0.09706 -2.154576,-0.502941 -2.000001,-1.333333 0.154576,-0.830392 -0.745424,-1.430392 -2,-1.333333 -1.254575,0.09706 -2.154575,-0.502942 -2,-1.333334 0.154575,-0.830392 -0.762497,-1.427547 -2.037938,-1.32701 -1.275441,0.100536 -2.00252,-0.329256 -1.615731,-0.955094 1.040784,-1.684023 -15.304232,-9.549223 -17.830257,-8.579896 -1.184561,0.454559 -1.703217,0.37594 -1.152569,-0.174708 0.550648,-0.550648 -0.344595,-1.721413 -1.989429,-2.601702 -9.7926,-5.24084 26.271075,-7.731753 43.693687,-3.017916 5.80064,1.569412 11.83932,2.919412 13.4193,3 1.57997,0.08059 2.53154,0.698486 2.1146,1.373107 -0.41948,0.678744 0.26383,0.834445 1.52991,0.348606 1.25839,-0.482888 1.98251,-0.383725 1.60916,0.220363 -0.93289,1.509458 8.37363,5.798174 10.17123,4.687197 0.93061,-0.57515 1.05791,-0.263964 0.35637,0.871156 -0.79087,1.279656 -0.48485,1.533174 1.11133,0.920662 1.35813,-0.521163 2.08105,-0.224611 1.88539,0.773415 -0.17454,0.890276 0.7262,1.536426 2.00165,1.435889 1.27544,-0.100536 2.01282,0.312588 1.63862,0.918053 -0.3742,0.605466 0.30537,1.65249 1.51016,2.326721 1.96239,1.098214 1.89677,1.431618 -0.63015,3.20154 -1.55136,1.086617 -2.37447,2.468044 -1.82914,3.06984 0.54534,0.601796 0.24257,0.663219 -0.67281,0.136497 -1.75713,-1.01108 -7.51832,2.236383 -6.2383,3.516403 0.41089,0.41089 -0.34292,0.657073 -1.67515,0.547073 -1.33222,-0.11 -2.29575,0.479412 -2.14117,1.309804 0.15457,0.830392 -0.73095,1.430392 -1.96784,1.333334 C 117.743,70.079412 116.68925,70.9 116.63823,72 c -0.051,1.1 -0.87865,1.828948 -1.83918,1.619884 -2.17514,-0.473431 -5.67391,2.297891 -4.76262,3.772394 0.37056,0.59957 -0.0288,1.524291 -0.88735,2.054936 -1.04186,0.643903 -1.20149,0.382949 -0.47992,-0.784567 z m 251.74033,-5.891082 c 0.14146,-0.791027 -0.76928,-1.35882 -2.02386,-1.261761 -1.25457,0.09706 -2.15457,-0.502941 -2,-1.333333 0.15458,-0.830393 -0.74542,-1.430393 -2,-1.333334 -1.25457,0.09706 -2.15457,-0.502941 -2,-1.333333 0.15458,-0.830392 -0.74542,-1.430392 -2,-1.333333 -1.25457,0.09706 -2.15457,-0.502942 -2,-1.333334 0.15458,-0.830392 -0.76249,-1.427547 -2.03793,-1.32701 -1.31879,0.103953 -1.9433,-0.425085 -1.44794,-1.226585 0.54814,-0.886909 0.0229,-1.083904 -1.41694,-0.5314 -1.29239,0.495936 -1.9515,0.333549 -1.51471,-0.373183 1.04718,-1.694384 -4.2754,-4.413165 -6.32899,-3.232851 -0.90151,0.518151 -1.19431,0.451103 -0.65067,-0.148995 0.54363,-0.600099 0.30877,-1.910029 -0.52193,-2.910957 -1.20757,-1.455033 -1.02775,-1.634676 0.89696,-0.896094 1.53812,0.590232 2.09282,0.414897 1.53628,-0.485604 -0.49536,-0.8015 0.12915,-1.330538 1.44794,-1.226585 1.27544,0.100537 2.17618,-0.545613 2.00164,-1.435889 -0.19566,-0.998026 0.52726,-1.294579 1.88539,-0.773415 1.59618,0.612511 1.9022,0.358994 1.11133,-0.920662 -0.70154,-1.13512 -0.57424,-1.446307 0.35637,-0.871156 1.56347,0.966275 11.16465,-3.079801 10.3678,-4.369136 -0.26523,-0.429155 0.81047,-0.837614 2.39044,-0.907688 1.57997,-0.07007 6.47268,-1.162491 10.87268,-2.427596 8.71291,-2.505169 42.22941,-4.889425 41.00841,-2.917207 -0.41711,0.673743 0.94566,0.801401 3.12605,0.292831 2.42608,-0.565876 3.20327,-0.45913 2.08708,0.286658 -2.22344,1.485596 1.77862,3.409757 4.23212,2.034774 1.03879,-0.582161 1.10871,-0.417632 0.21301,0.501271 -0.73334,0.752328 -3.58886,2.088705 -6.34562,2.969727 -2.75675,0.881022 -4.67559,2.146631 -4.26408,2.812464 0.41151,0.665833 -0.28139,0.815515 -1.53978,0.332627 -1.54189,-0.591679 -1.97668,-0.374285 -1.33333,0.666666 0.64334,1.040952 0.20855,1.258346 -1.33334,0.666667 -1.54189,-0.591678 -1.97667,-0.374285 -1.33333,0.666667 0.64334,1.040952 0.20856,1.258345 -1.33333,0.666666 -1.54189,-0.591678 -1.97668,-0.374285 -1.33334,0.666667 0.64335,1.040952 0.20856,1.258345 -1.33333,0.666667 -1.54189,-0.591679 -1.97668,-0.374285 -1.33333,0.666666 0.64334,1.040952 0.20855,1.258346 -1.33334,0.666667 -1.4398,-0.552504 -1.96507,-0.355509 -1.41693,0.5314 0.49535,0.8015 -0.12916,1.330538 -1.44794,1.226585 -1.27544,-0.100537 -2.17618,0.545613 -2.00165,1.435889 0.19566,0.998026 -0.52726,1.294578 -1.88539,0.773415 -1.59618,-0.612512 -1.9022,-0.358994 -1.11133,0.920662 0.71908,1.163494 0.57567,1.447186 -0.42038,0.831592 -1.92906,-1.192223 -7.22953,1.577479 -6.20166,3.240607 0.42529,0.688139 -0.0618,0.93073 -1.08237,0.53909 -1.0206,-0.39164 -2.70176,0.330407 -3.73592,1.60455 -1.60535,1.97789 -1.60647,2.151598 -0.008,1.188001 1.24425,-0.749884 1.5655,-0.631596 0.9573,0.35249 -0.50346,0.814612 -1.70003,1.180012 -2.65906,0.811999 -0.95902,-0.368012 -2.58981,0.408192 -3.62396,1.724899 -1.74901,2.226866 -1.69411,2.258865 0.78638,0.458316 2.28242,-1.656777 2.41913,-1.659007 0.94881,-0.01547 -0.94483,1.056121 -2.74328,1.927184 -3.99656,1.935695 -1.25328,0.0085 -2.28024,0.865746 -2.28214,1.904967 -0.002,1.039221 -1.31918,1.986425 -2.9273,2.104898 -1.60812,0.118474 -2.80812,-0.431798 -2.66667,-1.222825 z M 219.75001,52.422515 c 0.9625,-0.385161 2.1125,-0.337793 2.55555,0.105263 0.44306,0.443055 -0.34444,0.758187 -1.75,0.700292 -1.55325,-0.06398 -1.8692,-0.37992 -0.80555,-0.805555 z m 13.28524,-16.067177 c 3.13605,-0.28166 7.93605,-0.277698 10.66667,0.0088 2.73062,0.286504 0.16476,0.516953 -5.70191,0.51211 -5.86667,-0.0048 -8.10081,-0.239255 -4.96476,-0.520915 z m 144.0481,0.06718 c 0.9625,-0.385161 2.1125,-0.337793 2.55555,0.105263 0.44306,0.443055 -0.34444,0.758187 -1.75,0.700292 -1.55325,-0.06398 -1.8692,-0.37992 -0.80555,-0.805555 z M 67.025378,35.076012 c 1.297291,-0.338058 3.097291,-0.315825 4.000001,0.04941 0.90271,0.36523 -0.15871,0.641823 -2.35871,0.61465 -2.2,-0.02717 -2.938581,-0.325998 -1.641291,-0.664056 z m 9.333334,0 c 1.29729,-0.338058 3.09729,-0.315825 4,0.04941 0.90271,0.36523 -0.158709,0.641823 -2.358709,0.61465 -2.2,-0.02717 -2.938581,-0.325998 -1.641291,-0.664056 z m 309.974638,0.04095 c 0.91667,-0.369883 2.41667,-0.369883 3.33333,0 0.91667,0.369883 0.16667,0.672515 -1.66666,0.672515 -1.83334,0 -2.58334,-0.302632 -1.66667,-0.672515 z m 16.08333,-0.02778 c 0.9625,-0.385161 2.1125,-0.337792 2.55556,0.105263 0.44305,0.443056 -0.34445,0.758188 -1.75,0.700293 -1.55326,-0.06398 -1.8692,-0.379921 -0.80556,-0.805556 z"
         id="path3" />
      <path
         style="fill:#050404"
         d="m 145.58747,544.05716 c -20.11662,-5.45672 -38.47886,-20.26464 -46.778603,-37.72383 -4.202222,-8.83972 -4.370956,-9 -9.47481,-9 -45.603934,0 -73.386946,-48.35017 -58.611316,-102 7.886171,-28.63443 7.550346,-30.87043 -6.720034,-44.74372 -24.52394016,-23.84152 -3.625289,-49.69659 27.677302,-34.24136 26.497211,13.08263 35.899611,41.93063 25.185535,77.27306 -9.570697,31.57078 -9.004179,49.9292 1.717825,55.66744 4.509131,2.41322 4.743626,1.68337 5.08734,-15.83385 0.644308,-32.83694 13.612673,-66.88217 33.832011,-88.81756 3.05462,-3.31387 5.31613,-6.19399 5.02557,-6.40027 -0.29056,-0.20628 -4.08448,-1.45814 -8.43095,-2.78192 C 44.743311,314.33241 12.497066,237.16204 42.560771,164.2568 l 3.990913,-9.67806 -5.233205,-8.09679 C 21.35952,115.60157 16.676016,60.986134 31.928398,36.98203 48.499981,10.901777 100.12062,14.312714 144.94023,44.449515 l 10.94022,7.35623 8.48249,-3.076723 c 39.59844,-14.362941 99.357,-15.334072 140.69858,-2.28648 l 8.39484,2.649451 3.40929,-3.159624 c 24.58323,-22.782963 87.05657,-33.122294 108.98281,-18.036644 25.4907,17.538062 25.54833,80.688875 0.10408,114.048005 l -3.23134,4.23651 3.88275,9.24321 c 11.49354,27.36133 17.2606,80.93016 9.98078,92.70915 -0.3729,0.60337 1.29299,2.75379 3.70197,4.7787 26.03453,21.88375 33.7942,41.03409 34.33486,84.73617 0.0382,3.09093 1.22715,4.24416 7.79177,7.55797 11.11382,5.61024 19.78852,15.87564 23.06258,27.29163 0.62877,2.1924 1.18134,34.48573 1.22793,71.76295 l 0.0847,67.77677 -3.31129,6.59262 c -4.67079,9.29934 -10.74188,15.47916 -19.36921,19.71609 L 476.66669,542 h -95.33334 -95.33334 l -7.7996,-3.95195 c -13.40822,-6.79376 -23.49313,-21.04527 -23.55415,-33.28557 -0.0353,-7.0737 -1.08935,-7.64194 -11.40902,-6.1504 -5.08048,0.7343 -13.58723,1.34698 -18.9039,1.36151 L 214.66668,500 v 7.12646 c 0,27.99013 -34.3463,46.35214 -69.07921,36.9307 z m 32.07219,-13.90132 c 19.04931,-4.48275 24.00372,-14.72907 19.53367,-40.398 -1.72453,-9.90294 -0.88979,-14.58463 2.80978,-15.75882 4.4457,-1.41101 8.04187,0.55919 8.90587,4.87918 1.34262,6.71309 25.26422,8.87482 40.7577,3.68315 l 5,-1.67543 v -19.25228 c 0,-17.7991 -0.17613,-19.18244 -2.33334,-18.327 -22.57946,8.95378 -66.58622,-4.03347 -52.45115,-15.47935 2.84637,-2.30485 3.19579,-2.29119 9.86768,0.38577 9.69902,3.89153 28.59845,4.84393 38.57431,1.94387 28.04802,-8.15378 27.043,-40.7815 -1.25796,-40.83942 -19.51214,-0.0399 -32.39194,-8.08449 -24.45045,-15.27144 2.32082,-2.10032 3.56111,-2.20113 11,-0.89413 18.47343,3.24575 19.61247,3.03067 22.3947,-4.22865 4.63893,-12.1038 14.05898,-21.03894 26.66339,-25.29087 l 5.99282,-2.02159 0.82278,-16.47208 c 3.38197,-67.70704 61.16073,-107.09306 123.79501,-84.38729 10.62314,3.85104 9.61927,5.43683 10.40595,-16.43808 6.09039,-169.352847 -238.57851,-237.506975 -344.118761,-95.85654 -63.105535,84.69684 -30.135873,187.9313 63.929611,200.17612 14.14934,1.84187 16.43462,3.32378 15.45184,10.01991 -0.86868,5.91868 -4.98402,7.57834 -13.13359,5.2966 l -6.29124,-1.76144 -5.25567,5.90598 C 69.12167,421.3065 99.447618,548.561 177.65966,530.15584 Z M 104.26667,270.4 c -4.00239,-4.00239 0.52044,-9.68291 11.73333,-14.7367 21.14721,-9.53128 23.88228,-10.29722 27.83334,-7.79452 6.27181,3.97272 2.11465,9.56485 -10.95121,14.73135 -5.74817,2.27294 -12.77427,5.31775 -15.61355,6.76624 -5.86686,2.99305 -10.66134,3.3742 -13.00191,1.03363 z m -1.6,-36.08662 c -12.357729,-6.35235 2.39414,-14.24495 26.66667,-14.26731 21.8586,-0.0201 20.74538,12.47009 -1.23977,13.91019 -7.01813,0.4597 -14.86023,1.11365 -17.4269,1.4532 -2.56667,0.33956 -6.16667,-0.15368 -8,-1.09608 z m 119.77032,-17.38122 c -11.17175,-8.52098 -6.82108,-17.91672 5.40754,-11.67815 6.44498,3.28799 13.46269,3.51747 19.05947,0.62326 4.42602,-2.28878 7.0461,-2.0621 14.66826,1.26904 4.7906,2.09366 5.08044,2.05193 12.36562,-1.7803 8.08759,-4.25431 10.9937,-4.09767 12.18702,0.65687 2.50929,9.99782 -15.73015,18.46229 -27.51441,12.76876 -5.17447,-2.50004 -5.37033,-2.50004 -11.94989,0 -10.35479,3.93451 -17.3291,3.39914 -24.22361,-1.85948 z m 95.64406,-4.84261 c -2.75183,-3.04075 -1.88187,-9.34846 2.05849,-14.92517 7.48523,-10.59369 29.62375,-10.46221 37.23096,0.22112 8.80292,12.36257 1.11145,22.72964 -8.86426,11.94783 C 344.47248,204.97361 342.67708,204 338.67123,204 c -4.03031,0 -5.75056,0.94699 -9.68826,5.33333 -5.35951,5.97015 -7.50294,6.51205 -10.90192,2.75622 z M 179.53069,207.4871 c -7.26466,-8.86556 -14.57684,-9.04168 -20.67335,-0.49792 -4.3434,6.08693 -13.524,4.95144 -13.524,-1.67269 0,-18.60458 32.6522,-24.67738 43.65591,-8.11931 8.30082,12.49085 -0.13498,21.66812 -9.45856,10.28992 z m 293.90628,320.32433 c 19.2282,-5.76091 19.8347,-8.32116 19.85407,-83.81143 L 493.3073,380.66667 490.15563,374 c -9.07196,-19.18973 -5.67769,-18.59842 -109.32597,-19.04583 -102.68304,-0.44324 -100.57073,-0.79546 -109.13224,18.19699 l -2.62259,5.81783 5.40738,5.5155 c 12.40591,12.65397 12.68417,29.63241 0.74053,45.18397 l -5.8894,7.66846 v 33.08954 c 0,43.59704 2.47472,51.3548 18.16636,56.94806 6.86589,2.44734 177.88577,2.84919 185.93727,0.43691 z m -105.36918,-36.8135 c -5.97892,-3.03083 -6.69853,-6.3062 -4.61331,-20.99793 2.34935,-16.55269 2.40752,-16.06917 -2.6061,-21.66283 -23.50093,-26.21979 5.73034,-64.83494 34.02547,-44.94838 14.93728,10.49832 16.25499,34.62259 2.44869,44.83003 -4.69913,3.47422 -4.82002,4.97631 -1.77328,22.03365 3.5957,20.13076 -9.37639,29.92325 -27.48147,20.74546 z M 87.347447,476.46899 c -1.400349,-5.51514 -2.29539,-6.56406 -8.127216,-9.5245 -24.067585,-12.21755 -29.677604,-35.0464 -17.761731,-72.27782 9.883338,-30.88072 3.968765,-53.59309 -16.671461,-64.01958 -9.13324,-4.61369 -11.414102,-4.85294 -15.41091,-1.61652 l -2.919295,2.3639 11.199879,11.30277 c 16.307603,16.45741 17.391851,22.62422 9.064865,51.55766 -13.198682,45.86093 -2.594053,73.84555 32.594349,86.01341 9.750665,3.3717 9.841415,3.32877 8.03152,-3.79932 z M 400.51503,340.0787 424.36337,340 423.71556,327.66667 c -0.63697,-12.12703 -2.55791,-18.17345 -8.14191,-25.62778 -1.88018,-2.50993 -2.51875,-2.04631 -14.23913,10.33789 -7.6256,8.0575 -16.5099,15.7574 -23.46925,20.3405 -12.91412,8.50461 -12.7723,8.32563 -6.19859,7.82267 2.75,-0.2104 15.73176,-0.41797 28.84835,-0.46125 z m 58.49391,-15.67092 c -2.09175,-101.49582 -153.41215,-100.25596 -153.643,1.25889 L 305.33335,340 h 8.48499 8.48499 l 0.65787,-12.57731 c 4.10931,-78.56224 117.06729,-75.39401 115.65842,3.24398 -0.0854,4.76666 -0.11027,8.96666 -0.0553,9.33333 0.055,0.36667 4.75053,0.55017 10.4345,0.40778 l 10.33449,-0.25888 z m -103.21757,3.51913 c 28.44203,-13.30517 50.17411,-35.90766 39.20865,-40.77901 -24.9683,-11.09204 -54.45074,8.95069 -57.24924,38.91912 l -0.83994,8.99478 3.87792,-0.96538 c 2.13286,-0.53096 8.88403,-3.30724 15.00261,-6.16951 z M 62.793797,126.58686 c 4.55049,-6.64389 13.829553,-17.92302 20.620139,-25.06473 L 95.760458,88.537195 87.647644,82.045351 C 50.746617,52.517288 39.272265,51.81849 39.507858,79.113595 c 0.381977,44.254715 10.85979,65.615925 23.285939,47.473265 z m 357.000963,-3.67611 c 8.45628,-18.34614 13.00524,-49.586212 9.1984,-63.170181 l -1.00685,-3.592764 -6.99315,2.019985 c -40.22968,11.620431 -49.54508,23.229529 -32.65981,40.701516 7.51667,7.777854 16.36667,18.378904 19.66667,23.557904 7.34703,11.53037 6.71486,11.50446 11.79474,0.48354 z M 116.35569,73.568713 c 4.6733,-3.537208 11.93033,-8.39569 16.12673,-10.796627 l 7.62982,-4.365339 -6.15263,-3.90188 C 104.42081,35.771918 71.563412,29.822899 51.146917,39.51116 c -5.355053,2.541139 -5.651846,3.9057 -1.098081,5.048622 10.960573,2.750929 37.469458,18.627338 49.977644,29.93206 7.39069,6.679605 6.19533,6.747182 16.32921,-0.923129 z m 257.35314,-6.10692 c 10.8372,-8.112684 32.0718,-19.732032 40.62452,-22.229305 13.92843,-4.066907 -4.4181,-11.577037 -24.74182,-10.128038 -24.48436,1.745635 -68.30045,19.53735 -55.92485,22.708528 1.65,0.422804 8.4,4.337367 15,8.699029 14.71601,9.725191 13.38699,9.674785 25.04215,0.949786 z"
         id="path2" />
    </g>
  </g>
</svg>
