<?xml version="1.0" encoding="UTF-8"?>
<svg id="Layer_2" data-name="Layer 2" xmlns="http://www.w3.org/2000/svg" viewBox="0 0 396.85 405">
  <defs>
    <style>
      .cls-1 {
        fill: #fca4a0;
      }

      .cls-2 {
        fill: #1f150c;
      }

      .cls-3 {
        fill: #f9ce7b;
      }

      .cls-4 {
        fill: #fedd91;
      }

      .cls-5 {
        fill: #2a5792;
      }

      .cls-6 {
        fill: #040403;
      }

      .cls-7 {
        fill: #edb256;
      }
    </style>
  </defs>
  <g>
    <path class="cls-6" d="M358.14,13.76c21.02,19.96,11.17,78.86,2.85,103.6-.96,2.86-6.16,10.05-6.25,10.66-.17,1.22,5.59,16.35,6.3,20.33,9.96,56.21-5.03,105.31-62.53,125.04,7.19,17.26,8.72,33.77,0,50.98,47.46,5.31,40.77,72.25-5.53,75.98-20.54,1.65-34.73-10.38-45.95-10.85-3.5-.15-15.99,4.42-22.05,4.85-17.45,1.25-38.74.17-52.91-11.04-15.51,22.34-42.44,19.89-62.57,5.58-2.7-1.92-6.36-8.33-8.01-8.99-3.49-1.38-11.11-.59-16.76-2.24-36.39-10.65-22.15-64.26-43.29-80.71-3.39-2.63-9.01-3.76-12.42-6.58-23.29-19.24,8.34-50.96,40.95-23.95,17.7,14.66,21.67,35.35,25.04,56.97l16.47-52.52c-57.41-20.72-75-62.18-64.66-120.68.91-5.17,6.8-18.01,6.67-21.22s-11.06-27.39-12.67-36.39c-10.83-60.49,2.89-111.26,73.36-74.36,6.27,3.28,30.81,22.92,32.81,23.07,2.54.19,16.62-5.6,21.5-6.43,21.08-3.59,40.98-4.78,62.38-2.33,6.01.69,31.34,7.94,33.01,7.63,1.54-.28,20.54-16.37,24.95-18.97,18.35-10.8,51.11-24.73,69.31-7.44ZM129.51,47.38c-16.79-14.28-50.08-36.66-71-20.01,17.01.63,29.2,13.43,41,24.01,3.06,3.31,4.19,7.56,8.5,9.72l21.5-13.72ZM348.51,27.37c-7.64-20.21-68.67,14.78-67.99,18.51l22.3,13.42c12.94-13.45,25.64-30.02,45.69-31.92ZM350.51,98.38c5.03-8.79,7.6-51.05,3.09-57.34-3.36-4.68-19.66,7.55-23.09,10.34s-16.76,15.62-15.81,19.27c.81,3.13,29.81,29.59,31.33,38.72,3.21.31,4.03-9.01,4.48-10.99ZM80.15,88.02c2.29-2.9,15.23-17.2,14.99-18.66-3.41-8-30.78-32.2-38.63-27.5s-.21,70.64,7.01,68.05c3.86-8.71,10.98-14.74,16.63-21.89ZM123.51,69.38c-20.16,11.6-45.59,36.31-52,59-16.37,27.84-19.06,72.7,1.41,99.54,14.16,18.56,28.89,22.8,49.59,30.46,6.22,2.3,24.85,5.79,12,16-.43.35-1.43.78-2,1-1.66.08-3.35-.11-5,0-.34.02-.74-.08-1,0-1.2.39-1.03.32-2,1-2.24,1.56-11.39,28.64-12.49,33.01-4.84,19.12-10.71,47.93,2.49,64.99,20.17,26.05,67.65,5.94,42.99-26.49-10.26-13.48-29.75,3.67-27.84-9.75,1.28-8.96,18.7-9.83,19.44-10.72.97-1.18-2.44-7.46.41-10.54,4.34-4.7,37.76-2.81,32.78-23.77-4.25-17.9-38.56,6.37-36.76-11.12.85-8.29,15.31-9.88,15.86-10.72.74-1.14-.39-7.9.57-10.94s6.72-7.46,8.33-10.68c1.75-3.51,1.67-8.05,4.02-11.98,2.96-4.95,13.58-12.62,13.99-13.5,1.5-3.24-.17-9.16,3.69-15.82,7.79-13.46,29.33-13.88,36.43-.09,2.3,4.47,1.85,10.34,4.04,14.68,2.36,4.68,9.99,7.59,12.09,11.19,2.48,4.27,2.02,9.67,3.79,12.95,2.34,4.3,5.97,5.25,6.53,6.28,4.87,8.8,1.99,18.73,11.39,25.99,2.74,2.12,16.4,2.35,10.57,12.13-3.84,6.45-18.15-.19-21.08,8.6-9,26.99,30.36,24.11,34.32,5.36,1.62-7.64-.17-19.79-5.15-25.97-2.48-3.08-12.76-3.46-7.47-12.66,1.14-1.98,34.76-14.57,41.29-19.41,66.02-48.89,19.1-153.75-43.23-186.02-45.7-23.66-109.36-21.07-152,8ZM235.51,248.37c.31-9.22-12.56-13.13-15.24-19.24-2.27-5.18.12-17.38-9.23-17.77-11.34-.48-8.04,13.31-11.31,19.72-3.05,5.97-15.18,8.62-15.22,17.78l51.01-.49ZM244.52,269.38c.09-2.25.39-4.29-1.43-6.08-3.14-3.09-60.12-2.19-65.89.04-2.65,1.02-2.89,6.87,2.77,8.08,4.86,1.03,62.21.18,64.55-2.04ZM66.51,283.38c-6.19-6.76-17.34-14.76-27.06-11.56-11.78,3.87,12.66,14.57,16.1,18.02,18.53,18.54,8.95,47.16,23.13,65.87,8.03,10.6,23.75,12.68,11.83-3.33-15.48-21.8-4.68-47.89-24-69ZM251.5,282.39l-58.99,2c7.05,13.01,4.08,26.03-7.51,34.99-3.47,2.68-12.39,4.54-13.46,8.54-2.23,8.3,3.91,39.42,10.48,45.46,12.3,11.3,56.66,11.23,67.95-2.03,4.85-5.7,10.01-33.27,8.2-39.52-.19-.67-8.57-5.24-11.07-8.51-10.3-13.47-5.08-28.92,4.41-40.91ZM261.51,380.37c21.5,9.56,57.11,9.43,56.08-22.5-1-31.01-30.61-9.49-33.85-10.12-8.38-1.63-3.95-11.58.77-14.85-.3-2.08-12.54.52-13.05.93-1.85,1.49-3.02,40.4-9.95,46.54Z"/>
    <path class="cls-4" d="M275.51,61.38c62.33,32.27,109.25,137.13,43.23,186.02-6.53,4.84-40.15,17.43-41.29,19.41-5.29,9.2,4.99,9.57,7.47,12.66,4.97,6.18,6.76,18.33,5.15,25.97-3.96,18.75-43.32,21.63-34.32-5.36,2.93-8.79,17.25-2.15,21.08-8.6,5.82-9.78-7.83-10.01-10.57-12.13-9.4-7.26-6.53-17.19-11.39-25.99-.57-1.02-4.2-1.97-6.53-6.28-1.78-3.27-1.31-8.68-3.79-12.95-2.1-3.61-9.73-6.51-12.09-11.19-2.19-4.35-1.74-10.22-4.04-14.68-7.1-13.79-28.64-13.37-36.43.09-3.86,6.66-2.19,12.58-3.69,15.82-.41.88-11.03,8.55-13.99,13.5-2.35,3.93-2.26,8.47-4.02,11.98-1.61,3.21-7.37,7.65-8.33,10.68s.18,9.8-.57,10.94c-.55.84-15.01,2.43-15.86,10.72-1.8,17.49,32.51-6.78,36.76,11.12,4.98,20.96-28.44,19.08-32.78,23.77-2.85,3.08.56,9.37-.41,10.54-.74.89-18.16,1.77-19.44,10.72-1.91,13.42,17.59-3.73,27.84,9.75,24.66,32.43-22.82,52.54-42.99,26.49,10.02,7.4,22.2,12.47,34.99,8.98-3.78-2.75-10.57.75-14.5-1.97-1.16-.81-12.14-23.26-12.71-25.29-8.07-28.71,7.9-54.99,12.22-81.72,12.85-10.21-5.78-13.7-12-16-1.3-6.17-12.05-9.68-17.46-14.04-37.13-29.91-46.53-70.01-33.54-115.96,6.41-22.69,31.84-47.4,52-59,47.13-27.12,102.03-28.84,152-8ZM144.51,181.38c-6.67-4.5-11.76-1.04-17.44-5.07l-6.56,2.07c-5.76-1.74-23.99-5.44-26.53,2.05-3.08,9.1,13.16,10.17,18.53,10.95-4.03,1.74-.72,7.7,0,11-4.5.9-13.68,2.08-15.47,7.03-6.58,18.25,31.95,4.28,33.47,1.97,19.32,5.27,29.22-14.38,16-28,21.86,11.38,22.82-33.56,2.55-28.98-7.95,1.8-10.17,21.4-4.55,26.98ZM274.51,182.38c4.95-7.6,4.71-26.4-6.58-27.93-19.26-2.61-17.24,39.73,4.58,29.93-6.48,5.72-10.7,18.43-.58,23.08,3.42,1.57,10.04.89,12.58,1.92,6.05,2.44,28.37,17.17,33.75,5.78,4.08-8.63-19.91-14.77-25.75-14.78,7.51-1.59,7.99-.34,8-9,41.36-6.07,2.66-27.9-15-8-.13-1.27,1.11-3.7.52-3.97-3.55,1.7-8.06.96-11.52,2.97ZM188.2,163.5c-4.94,1.75-2.06,10.42.05,13.64,11.82,18.04,47.26,2.17,40.73-10.73-8.43-8.43-11.76,4.75-20.96,5.07-8.67.3-13.99-10.05-19.82-7.98Z"/>
    <path class="cls-4" d="M261.51,380.37c6.93-6.14,8.1-45.05,9.95-46.54.51-.41,12.75-3.01,13.05-.93-4.72,3.28-9.15,13.23-.77,14.85,3.24.63,32.85-20.89,33.85,10.12,1.03,31.93-34.58,32.05-56.08,22.5Z"/>
    <path class="cls-1" d="M80.15,88.02c-5.65,7.15-12.78,13.18-16.63,21.89-7.22,2.6-14.48-63.57-7.01-68.05,7.85-4.71,35.22,19.49,38.63,27.5.24,1.46-12.7,15.77-14.99,18.66Z"/>
    <path class="cls-1" d="M330.51,51.38l21.98-10c3.17,18.61,2.24,38.62-1.98,57-.46,1.98-1.27,11.3-4.48,10.99-1.52-9.13-30.52-35.59-31.33-38.72-.95-3.66,12.32-16.43,15.81-19.27Z"/>
    <path class="cls-3" d="M134.51,274.38c-4.32,26.73-20.29,53.01-12.22,81.72.57,2.03,11.55,24.48,12.71,25.29,3.93,2.73,10.72-.78,14.5,1.97-12.79,3.48-24.97-1.58-34.99-8.98-13.21-17.06-7.34-45.88-2.49-64.99,1.11-4.37,10.26-31.44,12.49-33.01l2-1c.26-.08.66.02,1,0,1.62,2.37,3.43.62,5,0,.57-.22,1.57-.65,2-1Z"/>
    <path class="cls-3" d="M71.51,128.38c-12.99,45.96-3.59,86.05,33.54,115.96,5.41,4.36,16.16,7.86,17.46,14.04-20.71-7.66-35.44-11.9-49.59-30.46-20.46-26.83-17.77-71.69-1.41-99.54Z"/>
    <path class="cls-7" d="M66.51,283.38c16.28,23.3,7.08,46.28,24,69,11.92,16.01-3.8,13.93-11.83,3.33-14.18-18.72-4.6-47.33-23.13-65.87-3.44-3.44-27.88-14.14-16.1-18.02,9.72-3.2,20.87,4.8,27.06,11.56Z"/>
    <path class="cls-7" d="M348.51,27.37c-20.05,1.9-32.75,18.47-45.69,31.92l-22.3-13.42c-.68-3.73,60.36-38.71,67.99-18.51Z"/>
    <path class="cls-7" d="M99.51,51.38c-10.41-11.25-21.59-23.59-37.99-25.01,23.42-10.64,48.95,8.51,67.99,21.01l-21.5,13.72c-4.31-2.16-5.44-6.41-8.5-9.72Z"/>
    <path class="cls-5" d="M244.52,269.38c-2.34,2.22-59.69,3.08-64.55,2.04-5.66-1.21-5.42-7.06-2.77-8.08,5.77-2.23,62.75-3.13,65.89-.04,1.82,1.79,1.51,3.83,1.43,6.08Z"/>
    <path class="cls-3" d="M90.51,352.38c-16.92-22.72-7.72-45.7-24-69,19.32,21.11,8.52,47.2,24,69Z"/>
    <path class="cls-3" d="M99.51,51.38c-11.8-10.58-23.99-23.38-41-24.01,20.92-16.64,54.21,5.74,71,20.01-19.05-12.5-44.58-31.66-67.99-21.01,16.4,1.42,27.59,13.77,37.99,25.01Z"/>
    <path class="cls-4" d="M132.51,275.38c-1.57.62-3.38,2.37-5,0,1.65-.11,3.34.08,5,0Z"/>
    <path class="cls-4" d="M126.51,275.38l-2,1c.97-.68.8-.61,2-1Z"/>
    <path class="cls-1" d="M120.51,178.38l6.56-2.07c5.69,4.03,10.77.57,17.44,5.07.18.12,1.59,1.58,2,2,13.22,13.62,3.32,33.27-16,28,8.99-13.66-11.79-10.24-18-9-.72-3.3-4.03-9.26,0-11,4.8.7,13.71,5.1,16.46-2.03,2.88-7.48-3.18-9.37-8.46-10.97Z"/>
    <path class="cls-6" d="M188.2,163.5c5.83-2.07,11.14,8.28,19.82,7.98,9.21-.32,12.54-13.5,20.96-5.07,6.53,12.9-28.91,28.78-40.73,10.73-2.11-3.22-4.99-11.89-.05-13.64Z"/>
    <path class="cls-6" d="M274.51,182.38c-1.33.78-1.37,1.45-2,2-21.82,9.81-23.84-32.54-4.58-29.93,11.29,1.53,11.53,20.32,6.58,27.93Z"/>
    <path class="cls-1" d="M285.51,183.38c1.3,12.78,5.14,9.45,15,8,0,8.66-.49,7.41-8,9-6.14,0-8.84,2.47-8,9-2.54-1.03-9.16-.35-12.58-1.92-10.12-4.65-5.9-17.36.58-23.08.63-.55.67-1.22,2-2,3.45-2.01,7.97-1.27,11.52-2.97.6.27-.64,2.7-.52,3.97Z"/>
    <path class="cls-6" d="M144.51,181.38c-5.63-5.58-3.41-25.18,4.55-26.98,20.27-4.59,19.31,40.35-2.55,28.98-.41-.42-1.82-1.88-2-2Z"/>
    <path class="cls-6" d="M112.51,202.38c6.21-1.24,26.99-4.66,18,9-1.52,2.31-40.04,16.28-33.47-1.97,1.78-4.95,10.96-6.13,15.47-7.03Z"/>
    <path class="cls-6" d="M120.51,178.38c5.28,1.6,11.35,3.49,8.46,10.97-2.75,7.14-11.66,2.73-16.46,2.03-5.36-.78-21.61-1.84-18.53-10.95,2.54-7.49,20.77-3.79,26.53-2.05Z"/>
    <path class="cls-6" d="M285.51,183.38c17.66-19.9,56.36,1.93,15,8-9.86,1.45-13.7,4.78-15-8Z"/>
    <path class="cls-6" d="M292.51,200.38c5.84,0,29.83,6.15,25.75,14.78-5.38,11.4-27.7-3.33-33.75-5.78-.84-6.53,1.86-9.01,8-9Z"/>
  </g>
</svg>