<?xml version="1.0" encoding="UTF-8"?>
<svg id="Layer_1" data-name="Layer 1" xmlns="http://www.w3.org/2000/svg" viewBox="0 0 396.85 415">
  <defs>
    <style>
      .cls-1 {
        fill: #fca4a0;
      }

      .cls-2 {
        fill: #1f150c;
      }

      .cls-3 {
        fill: #f9ce7b;
      }

      .cls-4 {
        fill: #fedd91;
      }

      .cls-5 {
        fill: #2a5792;
      }

      .cls-6 {
        fill: #040403;
      }

      .cls-7 {
        fill: #edb256;
      }
    </style>
  </defs>
  <path class="cls-6" d="M312.12,264.65c38.77,7.43,46.38,56.2.44,60.02-3.23.27-9.19-2.74-11.44-1.57-.61.32-6,8.82-7.94,11.13-1.46,1.74-4.34.94-5.19,2.03-1.01,1.3-2.29,11.79-3.69,15.08-1.32,3.08-7.76,12.19-7.91,12.94-.69,3.43,1.36,14.58.76,19.91-4.1,35.83-60.84,37.73-64.04.48l-42.54-.09c-14.81,43.37-73.61,30.5-67.44-15.93-8.17.76-13.94,1.53-22.2-.3-7.44-1.65-12.95-7.83-15.53-8.49-15.5-3.91-29.35,5.23-41.44-16.54-13.5-24.31-1.81-54.31,9.46-76.86,5.54-11.07,15.29-24.27,28.71-25.31-20.81-20.45-27.94-48.25-25.98-76.96.58-8.44,9.14-34.52,8.91-37.08-.12-1.32-10.85-18.44-12.7-23.19C7.07,39.04,25.84-18.9,104.78,14.5c7.97,3.37,32.95,21.57,34.99,21.87,2.67.39,27.83-6.57,34.15-7.4,19.43-2.56,36.98-2.5,56.41-.02,6.14.78,23.99,6.8,27.31,6.6,1.59-.1,22.58-14.33,27.28-16.59,93.03-44.65,110.41,22.59,80.9,97.9-1.36,3.48-8.48,13.34-8.68,15.35-.35,3.49,6.47,25.96,6.95,33.97,1.83,30.37-7.21,61.16-29.97,81.98-6.9,6.31-15.52,9.88-22,16.48ZM102.11,30.67c-15.64-8.72-46.74-17.53-60-2.01l28,8.01c10.28,5.91,19.16,13.37,27.49,21.74l23.51-15.26c.41-2.19-16.31-11.31-19-12.48ZM317.11,46.67c12.99-8.73,27.81-16.39,44-16.01-23.02-22.62-63.8-2.15-86.51,12.01,4.15.71,27.81,17.53,29.4,16.93.21-.08,1.23-3.34,2.11-3.92,3.13-1.75,7.42-6.48,11-9ZM292.11,70.67c-36.59-28.82-91.38-36.65-135-22,9.96,25.35-4.79,52.45-26,66-20.63,13.18-46.13,16.59-70.03,13.43l-7.97,30.57c-5.27,31.28,3.85,63.74,31,82,18.56,17.69,48.66,9.35,58.19,35.31,11.75,32.03,4.56,46.02-18.19,65.69-1.42,1.23-6.46,5.1-6.73,5.63-1.01,1.98-.41,34.35,1.22,38.38.91,2.27,2.43,2.57,3.52,3.98,6.14,7.99,14.84,9.68,24.7,5.2,11.17-5.09,7.87-22.41,13.84-24.16,2.97-.87,56.11-1.51,61.92-1.07,13.31,1.01,3.92,9.99,4.73,16.26,1.6,12.35,22.31,11.83,29.81,6.77,10.85-7.31,4.51-23.45,5.63-31.79.42-3.11,5.38-8.33,6.25-10.78,6.6-18.74,9.63-35.24,6.12-55.43.11-7.01-2.72-28.87-.01-32.52,3.25-4.37,23.57-8.5,29.3-11.43,7.97-4.08,22.91-17.15,28.71-24.05,28.64-34.08,16.92-94.2-10-126-9.35-13.46-17.53-20.83-31-30ZM49.11,103.67c.81,1.96,2.2,3.69,2.01,6l3.02-.46c.35-8.79,31.71-38.63,31.81-41.23.1-2.45-12.16-12.71-14.85-14.3-9.17-6.47-20.27-12.01-31.98-10.98-2.43,20.21.83,42.87,9.98,60.98ZM333.11,52.67c-3.17,1.68-18.06,12.01-17.77,15.32l34.77,45.68c6.72-.6,16.57-62.05,12.86-69.36-3.32-6.52-26.09,5.27-29.86,8.36ZM94.39,116.01c34.27-5.99,58.63-28.46,52.24-65.32-32.24,12.5-61.94,33.06-78.48,64.48.5,2.14,9.57,2.34,11.46,2.44,3.87.21,12.31-1.17,14.78-1.6ZM47.47,267.03c-7.88,10.98-11.76,30.33,7.99,29.55l8.62-39.42c-.99-5.19-15.41,8.19-16.61,9.87ZM99.85,264.92l-22.64-9.17c-7.93,4.17-10.83,74.35-9.02,84.35,2.89,16.01,31.33,21.29,34.98,10.99,1.72-4.86-11.5-4.41-14.77-6.16-30.83-16.45-.12-58.34,12.59-76.88l-1.14-3.12ZM129.78,321.34c11.21-14.57.79-59.8-18.02-50.52-6.53,3.22,5.31,11.2,7.18,14.52,1.02,1.81,4.88,14.07,5.02,15.78.38,4.5-5.74,35.24,5.81,20.23ZM290.1,315.66c2.34-9.25,15.47-49.87-3.98-42.98l1.9,1.4c.48,12.63-.32,25.66.16,38.25.06,1.55.06,2.9,1.92,3.34ZM309.12,278.67l-3.83,29.4c29.93,10.87,34.1-25.02,3.83-29.4ZM103.77,288.73c-1.59.44-11.99,17.38-13.03,20.05-7.97,20.36-1.09,31.5,21.31,23.31-4.42-4.9,3.85-46.7-8.28-43.36ZM46.75,308.09c-2.06-.68-12.6-4.84-13.67-3.99-5.76,16.48.72,46.77,23.12,40.97l-.08-34.39c-3.39.47-6.37-1.6-9.36-2.58Z"/>
  <path class="cls-5" d="M94.39,116.01c-2.48.43-10.91,1.81-14.78,1.6-1.89-.1-10.96-.3-11.46-2.44,16.55-31.42,46.24-51.98,78.48-64.48,6.39,36.86-17.97,59.34-52.24,65.32Z"/>
  <path class="cls-1" d="M333.11,52.67c3.34-1.78,26.16-10.68,28-9.01,3.2,23.86-3.34,47.65-11,70.01l-34.77-45.68c-.29-3.31,14.6-13.63,17.77-15.32Z"/>
  <path class="cls-1" d="M71.11,53.67c2.69,1.59,14.94,11.85,14.85,14.3-.1,2.6-31.47,32.45-31.81,41.23l-3.02.46c.19-2.31-1.21-4.04-2.01-6-7.03-17.09-10.04-40.64-8.56-59.06,2.66-3.58,26.87,6.87,30.56,9.06Z"/>
  <path class="cls-5" d="M99.85,264.92l1.14,3.12c-12.7,18.54-43.42,60.43-12.59,76.88,3.27,1.75,16.49,1.3,14.77,6.16-3.65,10.29-32.09,5.02-34.98-10.99-1.8-9.99,1.09-80.17,9.02-84.35l22.64,9.17Z"/>
  <path class="cls-4" d="M103.77,288.73c12.13-3.34,3.86,38.47,8.28,43.36-22.4,8.19-29.28-2.95-21.31-23.31,1.04-2.67,11.44-19.61,13.03-20.05Z"/>
  <path class="cls-5" d="M46.75,308.09c3,.98,5.97,3.05,9.36,2.58l.08,34.39c-22.4,5.8-28.88-24.49-23.12-40.97,1.07-.85,11.61,3.31,13.67,3.99Z"/>
  <path class="cls-5" d="M129.78,321.34c-11.55,15.01-5.43-15.72-5.81-20.23-.14-1.71-4-13.96-5.02-15.78-1.88-3.32-13.71-11.3-7.18-14.52,18.81-9.28,29.22,35.95,18.02,50.52Z"/>
  <path class="cls-4" d="M309.12,278.67c30.27,4.38,26.1,40.26-3.83,29.4l3.83-29.4Z"/>
  <path class="cls-5" d="M47.47,267.03c1.2-1.68,15.62-15.06,16.61-9.87l-8.62,39.42c-19.75.78-15.87-18.57-7.99-29.55Z"/>
  <path class="cls-5" d="M290.1,315.66c-1.86-.44-1.86-1.79-1.92-3.34-.48-12.59.32-25.62-.16-38.25l-1.9-1.4c19.45-6.89,6.32,33.74,3.98,42.98Z"/>
  <path class="cls-3" d="M306.11,55.67c-.88.58-1.9,3.84-2.11,3.92-1.59.6-25.26-16.22-29.4-16.93,22.71-14.15,63.49-34.62,86.51-12.01-16.19-.38-31.01,7.29-44,16.01,12.25-8.63,24.75-18.62,40.99-17.01.51-2.03-4.72-3.99-6-4.49-22.47-8.86-54.45,4.92-73.98,16.52,6.29,4.17,21.63,17.53,27.99,13.98Z"/>
  <g>
    <path class="cls-4" d="M157.11,48.67c46.14-11.3,95.61-4.8,135,22,13.47,9.17,21.65,16.54,31,30,25.22,36.32,35.68,86.84,10,126-5.8,6.9-20.74,19.97-28.71,24.05-5.73,2.93-26.06,7.07-29.3,11.43-2.71,3.65.12,25.51.01,32.52-.27,17.03.26,33.7-5.52,49.98-1.62,4.56-7.67,12.37-8.25,15.77-1.63,9.52,3.98,22.03-4.22,32.25-7.5,5.05-28.21,5.58-29.81-6.77-.81-6.27,8.58-15.24-4.73-16.26-5.81-.44-58.94.2-61.92,1.07-5.97,1.74-2.67,19.07-13.84,24.16-9.85,4.49-18.56,2.8-24.7-5.2,2.44.15,2.17,2.59,2.28-.78.18-5.32-.28-12.73-.28-18.72v-17c0-2.67,2.94-8.32,0-11.5,22.75-19.66,29.94-33.66,18.19-65.69-9.53-25.96-39.63-17.62-58.19-35.31,6.55,4.41,20.45,10.07,28.24,12.26,3.74,1.05,13,5.42,10.56-.56-1.18-3.71-18.26-8.96-22.49-11.52-24.84-15.04-40.88-50.22-40.35-78.72.12-6.13,4.53-22.32,3.82-26.19-.48-2.61-1.89-.85-3.79-1.27.87-1.76.37-4.68,3.53-5.04,22.36,2.91,49.93.2,67.47-14.96,21.21-13.55,35.96-40.65,26-66ZM144.11,175.67c-4.38-1.07-14.04-2.86-17,1-3.32-3.13-28.49-7.41-31.48-3.97-2.69,3.08-2.2,8.41.97,10.99,2.78,2.26,14.75,3.73,18.51,3.99l-5,10.99c1.22,1,18.79-6.26,21.58,1.93,1.7,4.98-4.37,10.43,9.67,6.84,11.22-2.86,10.19-19.12,6.74-27.76,7.24,3.28,15.14-2.57,16.74-9.76,6.87-30.78-34.94-31.94-20.74,5.76ZM279.11,181.67c-7.04,8.39-3.29,23.59,9.93,24.54,11.92.86,3.32-2.97,8.07-7.54-5.87,12.05,29.76,17.76,33.07,12.32,5.94-9.75-8.93-12.04-15.07-13.32v-11c6.09-.59,21.4-4.78,16.76-13.78-2.67-5.17-25.94-1.64-29.76,1.78.26-3.97-12.7.39-14,1,2.79-8.51,3.5-27.76-8.73-28.79-16.35-1.38-17.24,34.16-.27,34.79ZM202.82,166.98c-7.8-3.9-13.95-1.54-11.22,7.72,6.14,20.8,57.51,12.16,48.98-6-4.19-8.92-16.28,3.89-23.29,4.39-10.05.73-9.53-3.64-14.48-6.11ZM121.93,197.9c-5.03.04-25.67,5.04-26.65,10.52-2.36,13.24,29.48,3.11,33.14.06,6.55-5.46.26-10.63-6.49-10.57ZM194.11,261.67c-34.08-27.75-45.56,31.27-30,46,8.18,7.75,20.04,4.73,29.1.59,2.21-1.01,6.77-7.13,8.54-7.38,1.53-.21,5.56,1.92,8.86,1.88s7.48-2.16,9.04-2.03c1.89.17,6.64,5.04,9.77,6.13,14.27,4.96,27.8,8.78,30.57-10.81,3.6-25.49-.63-50.03-32.23-35.23-2.36,1.11-5.49,6.31-7.29,6.63-1.69.3-6.28-2.31-8.99-2.4-12.99-.43-7.33-.67-17.37-3.38Z"/>
    <path class="cls-3" d="M60.11,134.67c1.9.42,3.31-1.34,3.79,1.27.71,3.87-3.71,20.06-3.82,26.19-.54,28.5,15.51,63.68,40.35,78.72,4.22,2.56,21.3,7.81,22.49,11.52,2.43,5.98-6.83,1.61-10.56.56-7.79-2.19-21.68-7.86-28.24-12.26-27.15-18.26-36.27-50.72-31-82,.89-5.28,4.71-19.36,7-24Z"/>
    <path class="cls-1" d="M144.11,175.67c.75,1.99,3.89,3.73,4,4,3.45,8.64,4.47,24.89-6.74,27.76-14.05,3.59-7.98-1.86-9.67-6.84-2.79-8.19-20.36-.92-21.58-1.93l5-10.99c2.35.16,4.64,1.53,7.51,1.07,6.52-1.04,9.39-7.46,4.49-12.07,2.96-3.86,12.62-2.07,17-1Z"/>
    <path class="cls-1" d="M288.11,175.67c1.3-.61,14.26-4.97,14-1-11.51,10.29,5.26,12.75,13,12v11c-7.28-1.51-12.48-4.32-18,1-4.75,4.58,3.85,8.4-8.07,7.54-13.23-.95-16.97-16.15-9.93-24.54.35-.41,8.51-5.77,9-6Z"/>
    <path class="cls-6" d="M202.82,166.98c4.94,2.47,4.42,6.83,14.48,6.11,7-.51,19.1-13.31,23.29-4.39,8.53,18.16-42.84,26.81-48.98,6-2.73-9.26,3.41-11.62,11.22-7.72Z"/>
    <path class="cls-6" d="M144.11,175.67c-14.19-37.7,27.61-36.54,20.74-5.76-1.6,7.18-9.5,13.04-16.74,9.76-.11-.27-3.25-2.01-4-4Z"/>
    <path class="cls-6" d="M279.11,181.67c-16.97-.62-16.09-36.17.27-34.79,12.23,1.03,11.52,20.28,8.73,28.79-.49.23-8.65,5.59-9,6Z"/>
    <path class="cls-6" d="M127.11,176.67c4.9,4.61,2.03,11.03-4.49,12.07-2.87.46-5.16-.91-7.51-1.07-3.76-.26-15.73-1.73-18.51-3.99-3.17-2.57-3.65-7.9-.97-10.99,2.99-3.43,28.16.85,31.48,3.97Z"/>
    <path class="cls-6" d="M302.11,174.67c3.82-3.42,27.09-6.95,29.76-1.78,4.64,9-10.67,13.19-16.76,13.78-7.74.75-24.51-1.71-13-12Z"/>
    <path class="cls-6" d="M315.11,197.67c6.14,1.28,21.02,3.57,15.07,13.32-3.31,5.44-38.94-.27-33.07-12.32,5.52-5.32,10.72-2.51,18-1Z"/>
    <path class="cls-6" d="M121.93,197.9c6.75-.05,13.05,5.11,6.49,10.57-3.66,3.05-35.5,13.18-33.14-.06.98-5.48,21.62-10.48,26.65-10.52Z"/>
    <path class="cls-3" d="M122.11,389.67c-1.09-1.41-2.61-1.72-3.52-3.98-1.62-4.03-2.22-36.41-1.22-38.38.27-.53,5.31-4.4,6.73-5.63,2.94,3.18,0,8.83,0,11.5v17c0,6,.46,13.41.28,18.72-.11,3.36.16.93-2.28.78Z"/>
    <g>
      <path class="cls-6" d="M194.11,261.67c10.04,2.71,4.38,2.95,17.37,3.38,2.71.09,7.31,2.7,8.99,2.4,1.8-.32,4.93-5.52,7.29-6.63,31.6-14.8,35.83,9.74,32.23,35.23-2.77,19.59-16.3,15.78-30.57,10.81-3.13-1.09-7.87-5.96-9.77-6.13-1.56-.14-5.65,1.98-9.04,2.03s-7.33-2.09-8.86-1.88c-1.77.24-6.33,6.37-8.54,7.38-9.06,4.14-20.92,7.16-29.1-.59-5.26-10.32-7.04-42.34,3.64-48.87,8.62-5.27,17.97.6,26.36,2.87ZM228.36,293.42c1.05,1.25,17.3,7.01,19.32,4.3,1.41-1.88,2.11-25.69-.5-27.65-12-2.89-27.64,12.82-18.82,23.35ZM174.79,270.85c-5.19,2.13-1.93,21.89-1.21,26.87,31.97,5.48,21.92-35.37,1.21-26.87Z"/>
      <path class="cls-7" d="M228.36,293.42c-8.82-10.53,6.81-26.24,18.82-23.35,2.61,1.96,1.91,25.77.5,27.65-2.02,2.71-18.27-3.05-19.32-4.3Z"/>
      <path class="cls-7" d="M174.79,270.85c20.71-8.5,30.76,32.36-1.21,26.87-.72-4.99-3.98-24.74,1.21-26.87Z"/>
    </g>
  </g>
  <path class="cls-7" d="M306.11,55.67c-6.36,3.55-21.7-9.81-27.99-13.98,19.53-11.6,51.52-25.38,73.98-16.52,1.28.5,6.52,2.46,6,4.49-16.24-1.61-28.75,8.38-40.99,17.01-3.58,2.52-7.87,7.25-11,9Z"/>
  <path class="cls-7" d="M102.11,30.67c2.68,1.18,19.4,10.3,19,12.48l-23.51,15.26c-8.33-8.38-17.21-15.83-27.49-21.74-.09-.05.49-1.48-.64-2.08-6.92-3.67-16.54-6.22-24.36-6.93-.2-2.57,7.18-4.44,8.74-4.75,14.8-2.92,34.7,1.8,48.26,7.76Z"/>
  <path class="cls-3" d="M102.11,30.67c-13.56-5.96-33.46-10.68-48.26-7.76-1.56.31-8.94,2.18-8.74,4.75,7.82.71,17.45,3.26,24.36,6.93,1.13.6.54,2.03.64,2.08l-28-8.01c13.26-15.52,44.36-6.71,60,2.01Z"/>
</svg>