<?xml version="1.0" encoding="UTF-8"?>
<svg id="Layer_3" data-name="Layer 3" xmlns="http://www.w3.org/2000/svg" viewBox="0 0 396.85 410">
  <defs>
    <style>
      .cls-1 {
        fill: #fca4a0;
      }

      .cls-2 {
        fill: #1f150c;
      }

      .cls-3 {
        fill: #f9ce7b;
      }

      .cls-4 {
        fill: #fedd91;
      }

      .cls-5 {
        fill: #040403;
      }

      .cls-6 {
        fill: #edb256;
      }
    </style>
  </defs>
  <g>
    <path class="cls-1" d="M345.05,51.1c3.91,2.99-1.61,53.3-9.43,58.9l-32.28-37.49c4.68-6.13,36.02-25.76,41.72-21.41Z"/>
    <path class="cls-1" d="M61.95,104.91l-3.82-1.67c-4.2-17.54-5.15-35.57-3.06-53.53l2.54-1.23c13.16,3.78,25.15,10.88,33.52,22.04l-29.19,34.39Z"/>
    <path class="cls-6" d="M278.12,44.02c19.6-7.24,41.19-19.43,61.99-8.98l-20.69,7.79c-6.37,3.29-11.59,8.06-17.31,12.19-3.71,2.68-8,9.73-13.02,8.61l-19.96-13.11c3.3-1.64,6.2-4.61,8.98-6.5Z"/>
    <path class="cls-6" d="M111.12,39.02c4.89,2.6,9.3,6.57,14.38,8.93l.15,2.1-21.22,11.77c-1.79-.08-8.01-7-10.31-8.8-5.11-4.01-9.45-9.11-15.69-11.81l-17.3-7.17c16.35-7.59,34.02.24,49.99,4.98Z"/>
    <path class="cls-3" d="M278.12,44.02c14.99-10.22,51.7-23.92,65-6.01-15.62.33-28.25,9.42-41,17.01,5.72-4.13,10.94-8.9,17.31-12.19l20.69-7.79c-20.8-10.45-42.4,1.74-61.99,8.98Z"/>
    <path class="cls-3" d="M111.12,39.02c-15.97-4.74-33.64-12.57-49.99-4.98l17.3,7.17c6.24,2.7,10.58,7.8,15.69,11.81l-35.52-18.02c14.48-11.58,37.64-3.9,52.52,4.02Z"/>
    <g>
      <path class="cls-5" d="M306.84,345.8l-2.74.73c13.71-2.07,11.54-25.48,15.08-36.93,5.08-16.45,18.62-31.61,37.43-29.56,14.22,1.55,21.36,16.38,13.5,28.49-3.07,4.74-9.03,5.58-12.19,11.81-12.75,25.13-2.27,59.39-46.58,67.42-7.35,1.33-24.4-.92-25.64-.56-1.37.39-5.62,9.36-7.59,11.33-18.32,18.32-52.57,12.9-58.11-14.38l-28.38-.12c-11.17,17.09-16.9,26.81-39.74,23.74-27.69-3.72-20.59-22.1-25.21-38.79-1.87-6.75-10.72-14.22-13.1-26.9-.95-5.07-1.06-26.03-1.89-27.11-.49-.64-15.14-2.84-15.94-2.69-1.36.26-5.14,5.25-8.44,6.44-15.33,5.54-21.36-5.15-25.17-17.68-2.9,26.48,2.1,58.85-.97,84.53-2.87,23.98-34.32,23.04-37.08-1-1.74-15.13.36-95.69,6.22-106.86,15.78-30.04,46.63-10.38,70.81-8.69l-28.9-14.59c-37.95-22.78-41.71-67.69-31.35-107.17,1.41-5.36,9.06-20.75,9.14-23.72.07-2.52-8.38-23.62-9.57-30.33C28.4,25.64,56.93-6.95,122.14,28.5c4.09,2.22,19.93,14.43,21.42,14.56,4.38.38,25.49-6.12,33.2-6.9,15.68-1.6,31.09-.93,46.71,1,5.89.73,27.32,7.04,29.93,6.67,1.87-.26,24.93-16.96,32.05-19.99,72.01-30.59,89.28,20.11,69.95,80.95-1.54,4.85-11.08,22.25-11.08,23.55,0,1.82,10.24,26.62,11.47,34.5,7.72,49.73-11.97,91.58-58.65,111.67,15.35,19.16,22.02,49.04,9.7,71.27ZM111.12,39.02c-14.89-7.92-38.05-15.61-52.52-4.02l35.52,18.02c2.29,1.8,8.51,8.72,10.31,8.8l21.22-11.77-.15-2.1c-5.08-2.36-9.49-6.33-14.38-8.93ZM278.12,44.02c-2.78,1.89-5.68,4.86-8.98,6.5l19.96,13.11c5.02,1.13,9.3-5.92,13.02-8.61,12.75-7.59,25.38-16.68,41-17.01-13.29-17.91-50.01-4.21-65,6.01ZM61.95,104.91l29.19-34.39c-8.36-11.17-20.35-18.26-33.52-22.04l-2.54,1.23c-2.1,17.96-1.14,36,3.06,53.53l3.82,1.67ZM167.12,53.02c-43.65,6.8-81.82,35.25-102,74-1.41,2.71-2.63,3.84-4,7-14.66,33.72-20.57,72.53,9,100,12.8,11.89,19.56,13.67,35,20,4.97,2.04,18.02,4.84,20.71,6.69,10.63,7.32-7.93,19.31-15.21,19.31h-17c-.51,0-2.67-2.77-2.49.48,10,11.81-.75,20,19.49,20.61,5.09.15,9.32-4.71,12.95-.04,3.42,4.4.23,57.26,14.55,59.95,6.4,16.65-3.32,37.1,25.25,31.75,20.98-3.93,2.49-20.4,15.68-22.3,3.69-.53,50.05-1.22,52.59-.53,6.19,1.66-4.47,19.76,12.4,23.64,27.64,6.36,26.71-12.33,31.59-29.55.97-3.43,6.02-9.12,6.06-11.54s-8.46-5.1-11.57-8.99c-5.38-6.72-17.65-40.26-10.54-46.52,14.11-12.43,11.43,56.25,35.53,39.03,8.87-6.34,4.48-24.85,2.03-33.53-2.79-9.85-10-26.8-22.03-25.47-2.34-3.3-3.31-6.45-.55-10.06,1.24-1.62,31.01-12.81,37.03-16.98,67.16-46.53,18.44-150.43-41.47-180.96-28.69-19.53-69.71-22.97-103-16ZM345.05,51.1c-5.7-4.35-37.04,15.28-41.72,21.41l32.28,37.49c7.82-5.6,13.34-55.92,9.43-58.9ZM77.76,282.37c-10.65-10.09-30.03-10.63-36.42,4.37-6.38,14.99-2.21,53.39-2.23,70.69,0,.59-2.07.35-2.07,2.03,0,2.32-.68,42.88,8.93,26.9,7.29-12.13-1.78-76.53,4.27-94.51,21.26-24.42,22.55,16.41,31.31,15.24,7.85-1.06.52-20.64-3.78-24.72ZM340.12,334.02c2.28-7.41,1.28-15.17,5.79-22.71,2.36-3.95,12.71-10.85,12.88-11.76,1.93-10.56-15.02-2.37-19.05,1.59-14.23,13.95-5.46,41.54-19.62,54.88-4.23.03-6.77,4-10.62,4.89-9.82,2.27-20.85-4.3-20.31,9.79.21,5.41,14.34,3.8,18.29,3.18,18.98-2.99,33.27-20.68,32.64-39.85Z"/>
      <path class="cls-1" d="M77.76,282.37c4.3,4.07,11.63,23.66,3.78,24.72-8.76,1.18-10.04-39.65-31.31-15.24-6.05,17.98,3.02,82.38-4.27,94.51-9.61,15.98-8.93-24.59-8.93-26.9,0-1.68,2.07-1.44,2.07-2.03.03-17.29-4.15-55.7,2.23-70.69,6.39-15,25.77-14.46,36.42-4.37Z"/>
      <path class="cls-6" d="M340.12,334.02c-8.52,27.64-15.5,41.61-49,37.99.54-14.16,5.52-6.92,13.01-8.38,5.55-1.08,11.84-3.7,15.99-7.61,14.15-13.34,5.39-40.93,19.62-54.88,4.03-3.95,20.98-12.15,19.05-1.59-.17.92-10.52,7.81-12.88,11.76-4.51,7.54-3.51,15.3-5.79,22.71Z"/>
      <path class="cls-3" d="M340.12,334.02c.63,19.18-13.66,36.87-32.64,39.85-3.95.62-18.08,2.23-18.29-3.18-.54-14.09,10.49-7.52,20.31-9.79,3.84-.89,6.39-4.86,10.62-4.89-4.14,3.91-10.43,6.53-15.99,7.61-7.49,1.46-12.48-5.77-13.01,8.38,33.5,3.62,40.48-10.35,49-37.99Z"/>
      <path class="cls-3" d="M138.12,361.02c-9.3-24.2-9.94-23.94-11.03-51.47-.32-8.07-4.92-10.17,1.55-18.52l13.48,68.5c.67,2.28-2.97,1.69-4,1.49Z"/>
    </g>
    <g>
      <path class="cls-4" d="M270.12,69.02c59.92,30.53,108.63,134.43,41.47,180.96-6.02,4.17-35.79,15.37-37.03,16.98-2.76,3.6-1.79,6.76.55,10.06,3.39,4.78,6.9,1.36,10.12,3.64,7.56,5.36,19.44,46.08,9.88,55.36-24.1,17.22-21.42-51.46-35.53-39.03-7.11,6.27,5.16,39.8,10.54,46.52,3.11,3.89,11.61,6.68,11.57,8.99s-5.08,8.11-6.06,11.54c-4.89,17.22-3.96,35.91-31.59,29.55-16.87-3.88-6.22-21.98-12.4-23.64-2.54-.68-48.9,0-52.59.53-13.2,1.9,5.3,18.37-15.68,22.3-28.58,5.35-18.86-15.11-25.25-31.75,1.03.19,4.67.79,4-1.49l-13.48-68.5c-6.47,8.35-1.87,10.45-1.55,18.52,1.09,27.53,1.73,27.27,11.03,51.47-14.32-2.68-11.13-55.54-14.55-59.95-3.63-4.67-7.86.19-12.95.04-20.24-.61-9.49-8.8-19.49-20.61-.19-3.25,1.98-.48,2.49-.48h17c7.28,0,25.84-11.99,15.21-19.31-2.69-1.85-15.74-4.66-20.71-6.69,2.66-1.3-.32-2.49-1.32-3.18-16.25-11.12-25.76-11.99-36.04-30.96-15.35-28.32-9.55-52.53-5.62-82.87l1.97,1.01,1.02-11c20.18-38.75,58.35-67.2,102-74,35.59-5.55,71.04-.28,103,16ZM141.86,136.3c-9.98-3.54-41.17,8.77-32.79,22.99,2.52,2.73,33.78-6.05,36.56-8.25,5.37-4.25-.5-13.58-3.77-14.74ZM253.52,158.6c6.54,1.91,21.87,9.08,18.19-5.6-3.05-12.17-51.83-27.59-42.12-1.95,8.14,1.89,16,5.23,23.93,7.55ZM142.12,192.02c18.45-34.38-30.55-40.1-18,0-1.12-1.33-7.69-5.21-9.55-4.97-2.85.36-.5,2.01-2.45,3.97.19-11.6-44.36-14.66-32.44-.07,1.84,2.25,8.47,3.33,11.44,4.07v11c-5.5,1.02-14.32,2.09-11.79,10.26,2.26,7.29,26.68,2.83,29.79-2.26,13.51,2.34,23.18-8.21,16-21,3.52,3.27,9.38,5.77,14,3,.24-.08,2.59-3.41,3-4ZM242.12,166.02c-.3.16-.64.7-1,1-15.04,8.82-4.55,37.57,13,28-4.26,11.1.28,24.8,14,20,1.54,5.28,41.25,15.52,31.81-1.82-.53-.97-19.38-6.99-20.81-7.18-.28-3.54,1.65-6.94-2.99-6.01l1.99-.99c6.08-.06,23.57-2.06,23.11-10.49-.56-10.18-36.47-5.77-34.11,6.49-1.66-3.33.36-5.57,0-5.99-.34-.39-9.56,2.7-10,2.99,5.48-11.47,1.13-34.61-15-26ZM175.12,198.02c-7.03.23-42.72,21.57-42.9,26.5-.37,10.07,18.23,9.42,23.63,13.45,6.19.94,11.56-1.25,17.27-2.94,3.82-1.13,12.92-6.18,14.51-6.07.75.05,10.42,7.88,12.35,8.68,13.6,5.58,25.08,6.99,37.13-2.6.21-.16,2.88-2.83,3-3,.13-.19,1.89.2,2,0,.4-.75-1.04-1.89-1-1.99,1.49-4.11,3.79-5.82-.47-10.03-12.77-3.27-22.91-20.23-35.89-19.88-16.74.45-11.71,11.27-29.64-2.09,3.74-.12,7.8,2.2,12.51,2.08,7.98-.21,25.35-9.03,20.95-19.05-4-9.12-13.81,3.07-17.72,4.2-12.68,3.68-17.31-10.23-24.73-6.74-10.03,4.71,5.08,16.6,8.99,19.51Z"/>
      <path class="cls-3" d="M65.12,127.02l-1.02,11-1.97-1.01c-3.93,30.34-9.73,54.55,5.62,82.87,10.28,18.97,19.79,19.83,36.04,30.96,1.01.69,3.99,1.87,1.32,3.18-15.44-6.33-22.2-8.11-35-20-27.37-27.6-20.4-66.84-9-100,1.37-3.16,2.59-4.29,4-7Z"/>
      <path class="cls-4" d="M61.12,134.02c-11.4,33.16-18.37,72.4,9,100-29.57-27.47-23.66-66.28-9-100Z"/>
      <path class="cls-5" d="M175.12,198.02c-3.9-2.91-19.02-14.8-8.99-19.51,7.42-3.48,12.05,10.42,24.73,6.74,3.92-1.13,13.72-13.32,17.72-4.2,4.4,10.02-12.98,18.84-20.95,19.05-4.71.12-8.77-2.2-12.51-2.08Z"/>
      <path class="cls-5" d="M242.12,166.02c19.31-7.97,21.89,30.99,3.93,29.54-12.85-1.04-12.84-22-4.93-28.54.36-.3.7-.84,1-1Z"/>
      <path class="cls-1" d="M112.12,191.02c1.95-1.97-.4-3.62,2.45-3.97,1.86-.23,8.43,3.65,9.55,4.97.29.34.78.62,1,1,7.18,12.79-2.49,23.34-16,21,1.05-1.73,1.83-5.36.36-7.11-5.76-3.07-12.2-2.03-18.36-.89v-11c12.12,3.01,12.59,4.49,21-4Z"/>
      <path class="cls-5" d="M139.12,196.02c-14.51,5.24-20.99-19.08-11.01-28.51,11.89-11.24,22.69,12.2,14.01,24.51-.41.59-2.76,3.92-3,4Z"/>
      <path class="cls-1" d="M257.12,192.02c.43-.29,9.65-3.38,10-2.99.37.42-1.66,2.66,0,5.99,1.94,3.89,7.28,4.03,11,4l-1.99.99c4.64-.93,2.72,2.48,2.99,6.01-6.58-.86-13.49.45-11,9-13.72,4.8-18.26-8.9-14-20,1.22-3.18.71-1.47,3-3Z"/>
      <path class="cls-5" d="M278.12,199.02c-3.72.03-9.06-.11-11-4-2.36-12.26,33.55-16.67,34.11-6.49.46,8.43-17.03,10.43-23.11,10.49Z"/>
      <path class="cls-5" d="M112.12,191.02c-8.41,8.49-8.88,7.01-21,4-2.97-.74-9.6-1.81-11.44-4.07-11.92-14.6,32.63-11.53,32.44.07Z"/>
      <path class="cls-5" d="M279.12,206.02c1.43.19,20.28,6.21,20.81,7.18,9.44,17.34-30.27,7.1-31.81,1.82-2.49-8.55,4.42-9.86,11-9Z"/>
      <path class="cls-5" d="M91.12,206.02c6.16-1.14,12.6-2.18,18.36.89,1.46,1.75.69,5.38-.36,7.11-3.11,5.09-27.53,9.55-29.79,2.26-2.53-8.17,6.29-9.24,11.79-10.26Z"/>
      <g>
        <path class="cls-3" d="M237.12,235.02c-12.05,9.6-23.53,8.18-37.13,2.6-1.94-.8-11.6-8.62-12.35-8.68-1.59-.11-10.69,4.94-14.51,6.07,16.14-11.42,12.19-6.32,24.98-.48,14.07,6.42,24.54,8.38,39.02.48Z"/>
        <path class="cls-3" d="M241.12,230.02c-.04.1,1.4,1.24,1,1.99-.11.21-1.87-.18-2,0l1-2Z"/>
      </g>
    </g>
  </g>
</svg>