<?xml version="1.0" encoding="UTF-8"?>
<svg id="Layer_4" data-name="Layer 4" xmlns="http://www.w3.org/2000/svg" viewBox="0 0 396.85 415">
  <defs>
    <style>
      .cls-1 {
        fill: #fca4a0;
      }

      .cls-2 {
        fill: #1f150c;
      }

      .cls-3 {
        fill: #f9ce7b;
      }

      .cls-4 {
        fill: #fedd91;
      }

      .cls-5 {
        fill: #040403;
      }

      .cls-6 {
        fill: #edb256;
      }
    </style>
  </defs>
  <g>
    <path class="cls-5" d="M118.99,347.32c-6.25-5.27-11.49-3.88-17.5-11-15.78-18.68-3.71-48.81,8.5-66-49.78-12.09-73.25-51.55-70.03-101.54.5-7.7,7.18-28.74,6.94-31.99-.11-1.52-11.67-21.39-13.6-27.28-22.83-69.62.17-118.88,78.36-84.36,6.15,2.71,30.05,19.01,31.9,19.16,1.62.13,25.42-7.65,31.39-8.53,17.52-2.6,37.69-2.58,55.26-.18,6.49.89,34.43,9.58,36.29,9.35,1.97-.24,26.13-17.92,33.53-21.09,83.17-35.6,88.44,38.45,65.13,97.13-1.38,3.47-9.07,14.73-9.19,15.88-.2,1.91,7.43,25.14,7.99,31.99,3.83,46.72-18.24,86.63-62.97,102.48,14.77,15.47,25.62,48.71,8.53,66.02-4.22,4.27-13.13,6.01-13.66,6.56-.79.83-8.49,20.06-8.68,21.19-.66,3.96,1.48,11.99.71,17.63-4.62,33.96-57.96,34.56-61.96.65l-32.27-.1c-6.9,25.15-39.15,36.72-58.2,17.06-2.6-2.68-7.62-12.89-9.5-13.54-1.26-.43-20.52,1.22-26.35.39-53.33-7.61-39.14-51.24-54.83-79.17-6.59-11.73-22.02-10.35-24.55-23.45-3.33-17.25,9.42-27.47,25.79-24.79,22.02,3.6,35.54,25.82,40.3,45.7,1.76,7.34,3.39,41.84,15.16,41.84h17.5ZM73.99,29.32c-6.81-.28-24.07.21-26.99,7.99,21.55,1.34,38.6,15.45,53.99,29.01l25-16.48c-15.2-8.93-33.9-19.78-52-20.52ZM285.99,48.32c-.98.98-3.92,3.06-3.52,4.01l21.03,12.65c10.25-6.62,18.66-15.79,29.49-21.66l23.99-6.01c-11.15-18.52-59.78-.17-70.99,11.01ZM131.99,64.32c-17.6,7.69-39.82,25.48-51,41-1.64,2.28-2.03,3.53-3,5-24.17,28.44-34.18,79.83-12,112,13.83,27.15,34.37,27.86,59,38,4.08,1.68,8.56,3.16,7.82,8.23-1.18,8.04-7.65,5.17-11.86,8.23-8.32,6.03-18.49,41.59-7.96,50.54,11.31,9.61,17.8.62,23.8-8.7,4.97-7.71,10.02-32.78,21.12-21.53,1.8,8.74-9.59,28.71-14.92,36.23-1.34,1.9-10.41,9.6-10.61,10.45-1.09,4.67,7.08,37.09,10.61,42.55,5.04,7.81,11.19,9.16,20.24,7.74,18.85-2.97,14.63-21.47,20.17-23.92,2.38-1.05,48.47-1.23,52.05-.76,14.78,1.95-8.1,22.2,17.05,24.93,27.45,2.99,18.35-20.67,20.69-34.25.75-4.36,7.31-12.95,8.68-21.38,2.1-12.92-4.33-39.4-2.63-44.64,4.86-15.01,15.51,8.34,16.77,14.28.58,2.73-.98,24.89,4.93,19.43,5.56-5.13,3.71-18.94,2.07-25.43-1.74-6.88-10.82-22.44-17.95-24.38-3.39-.92-12.74,3.1-13.86-5.33-1.33-9.97,17.52-11.33,24.16-14.43,27.19-12.71,45.16-26.91,51.65-57.85,8.26-39.42-7.8-80.05-36-108-.33-.33-.66-.67-1-1-2.71-2.61-5.08-4.64-8-7-5.04-4.08-9.39-7.6-15-11-43.09-31.09-107.75-32.07-155-9ZM82.63,67.68c-4.1-3.96-35.54-21.4-39.64-17.36-2.36,22.29-.51,47.26,10.52,67,10.64-15.2,23.38-28.96,34.3-43.36-1.93-1.78-3.35-4.52-5.18-6.28ZM357.99,50.32c-8.46-3.21-37.71,16.9-42.85,24.7,14.03,10.34,22.04,31.11,32.85,42.3.37.38-.83,3.04,1.98,1.99,6.77-8.53,16.8-65.67,8.02-68.99ZM53.99,296.32c13.9,19.89,4.9,44.4,22,63,.7.76,1.23,1.3,2,2,11.78,10.64,29.61,17.2,44.91,10.35l-1.93-12.36c-8.71,3.89-18.1,1.56-26.98,0-2.59-1.35-9.2-6.78-11-9-12.59-22.62-2.45-55.62-29-70-4.36-2.81-6.4-5.41-12.5-5.09-18.2.98,7.88,16.05,12.5,21.09Z"/>
    <path class="cls-4" d="M286.99,73.32c5.61,3.4,9.96,6.92,15,11l8,7c.34.33.67.67,1,1,25.83,29.55,42.19,67.97,36,108-6.49,30.94-24.45,45.15-51.65,57.85-6.64,3.1-25.49,4.47-24.16,14.43,1.12,8.43,10.47,4.41,13.86,5.33,7.13,1.94,16.21,17.5,17.95,24.38l-1.01,5.99h-5.99c-1.26-5.93-11.91-29.28-16.77-14.27-1.7,5.24,4.73,31.71,2.63,44.64-1.37,8.43-7.93,17.02-8.68,21.38-2.33,13.58,6.76,37.24-20.69,34.25-25.14-2.74-2.26-22.99-17.05-24.93-3.58-.47-49.67-.29-52.05.76-5.54,2.45-1.32,20.95-20.17,23.92-9.05,1.43-15.2.07-20.24-7.74,5.16,3.07,2.27-4.54,3.64-7.37l-3.64-45.63c5.33-7.51,16.72-27.49,14.92-36.23-11.1-11.25-16.16,13.82-21.12,21.53-6,9.32-12.5,18.3-23.8,8.7.15.14,3.84.68,3.97.52l3.03-43.51c-8.98,4.98-13.52,36.92-6.99,42.99-10.53-8.95-.36-44.51,7.96-50.54,4.21-3.05,10.67-.18,11.86-8.23.74-5.07-3.73-6.55-7.82-8.23,2.83-1.46-2.97-4.31-3.69-4.81-51.98-35.95-63.64-56.65-45.81-123.19,1.83-6.83,12.95-24.96,5.5-27,11.18-15.52,33.4-33.31,51-41,49.25-21.51,109.08-18.86,155,9ZM249.99,204.32c17.51,7.57,30.44,7.24,46.92-2.58,3.04-1.81,10.82-10.11,14.06-10.92,5.8-1.45,14.08.78,18.75-.81,4.9-1.65,5.12-12.7-3.23-12.7h-14.5v-19.5c0-8.63-14-25.68-21.88-29.09-27.05-11.69-50.74.75-59.2,28-3.42,3.57-13.32-1.28-18.39-1.44-4.41-.14-23.49,2.7-24.47,1.96-.76-.58-4.89-12.79-8.23-17.26-20.64-27.7-62.06-17.13-71.33,15.33-.92,3.24-1.88,17.36-2.63,17.87-3.7,2.52-23.57-5.94-20.88,7.55,2.09,10.49,28.52.12,30.02,15.05-.45,2.31-25.77,3.67-28.36,9.76-3.46,8.14,3.07,10.08,9.73,9.67,7.72-.47,23.39-8.81,27.14-8.99,4.59-.22,14.82,4.57,21.11,4.93,14.37.81,28.19-4.98,36.36-16.85,13.66-10.41,1.24-23.26,23.53-24.96,29.44-2.25,20.25,7.94,31.46,24.19,3.22,4.67,9,8.6,14.02,10.77ZM203.37,180.93c-3.23-1.2-13.07-10.11-12.33,3.77,1.42,26.83,54.24,3.38,33.46-6.49-8.68-4.12-6.12,8.31-21.13,2.72ZM324.69,207.64c-6.07-4.42-29.51-9.54-33.69,1.67,5.11,3.22,35.58,16.78,36.83,5.29.25-2.32-1.55-5.8-3.14-6.96Z"/>
    <path class="cls-3" d="M80.99,105.32c7.45,2.04-3.67,20.16-5.5,27-17.83,66.54-6.17,87.25,45.81,123.19.72.5,6.52,3.34,3.69,4.81-24.63-10.14-45.17-10.85-59-38-19.33-37.95-10.34-77.93,12-112,.97-1.47,1.36-2.72,3-5Z"/>
    <path class="cls-1" d="M82.63,67.68c1.83,1.76,3.25,4.5,5.18,6.28-10.92,14.39-23.66,28.16-34.3,43.36-11.03-19.74-12.88-44.71-10.52-67,4.1-4.03,35.54,13.4,39.64,17.36Z"/>
    <path class="cls-1" d="M357.99,50.32c2.58,22.19,1.4,47.27-10,67-10.8-11.19-18.82-31.96-32.85-42.3,5.14-7.8,34.38-27.9,42.85-24.7Z"/>
    <path class="cls-6" d="M53.99,280.32c26.03,16.8,13.01,50.23,29,70,1.8,2.22,8.41,7.65,11,9,5.05,2.64,7.91,3.37,13.56,4.01,7.3.82,17.14-6.31,11.94,8.99h-17c-7.49,0-18.16-7.19-24.5-11-.77-.7-1.3-1.24-2-2-14.33-19.08-5.87-45.41-22-63-4.62-5.03-30.7-20.11-12.5-21.09,6.1-.33,8.14,2.27,12.5,5.09Z"/>
    <path class="cls-6" d="M73.99,29.32l48.99,20.51-21.99,16.49c-15.4-13.56-32.44-27.67-53.99-29.01,2.92-7.78,20.19-8.27,26.99-7.99Z"/>
    <path class="cls-6" d="M285.99,48.32c20.7-9.96,44.69-23.38,68-13.98-6.97,3.6-13.96,5.17-21,8.98-10.83,5.87-19.24,15.03-29.49,21.66l-21.03-12.65c-.41-.95,2.54-3.03,3.52-4.01Z"/>
    <path class="cls-3" d="M142.99,333.32l3.64,45.63c-1.36,2.82,1.53,10.44-3.64,7.37-3.52-5.46-11.7-37.88-10.61-42.55.2-.85,9.26-8.56,10.61-10.45Z"/>
    <path class="cls-3" d="M302.99,302.32c1.65,6.49,3.49,20.3-2.07,25.43-5.91,5.46-4.35-16.7-4.93-19.43h5.99s1.01-6,1.01-6Z"/>
    <path class="cls-3" d="M285.99,48.32c11.21-11.18,59.84-29.53,70.99-11.01l-23.99,6.01c7.03-3.81,14.02-5.38,21-8.98-23.31-9.39-47.29,4.03-68,13.98Z"/>
    <path class="cls-4" d="M77.99,110.32c-22.34,34.07-31.33,74.05-12,112-22.18-32.17-12.17-83.56,12-112Z"/>
    <path class="cls-4" d="M357.99,50.32c8.78,3.33-1.25,60.46-8.02,68.99-2.81,1.05-1.61-1.61-1.98-1.99,11.4-19.73,12.58-44.81,10-67Z"/>
    <path class="cls-3" d="M93.99,359.32c8.88,1.56,18.27,3.89,26.98,0l1.93,12.36c-15.3,6.85-33.13.29-44.91-10.35,6.34,3.81,17.01,11,24.5,11h17c5.2-15.3-4.64-8.17-11.94-8.99-5.66-.64-8.51-1.37-13.56-4.01Z"/>
    <path class="cls-3" d="M53.99,296.32c16.13,17.59,7.67,43.92,22,63-17.1-18.6-8.1-43.11-22-63Z"/>
    <path class="cls-3" d="M53.99,280.32c26.55,14.38,16.41,47.38,29,70-15.99-19.77-2.97-53.2-29-70Z"/>
    <path class="cls-3" d="M73.99,29.32c18.1.74,36.8,11.59,52,20.52l-25,16.48,21.99-16.49-48.99-20.51Z"/>
    <path class="cls-3" d="M112.99,327.32c-6.53-6.08-1.98-38.01,6.99-42.99l-3.03,43.51c-.12.16-3.82-.38-3.97-.52Z"/>
    <g>
      <path class="cls-5" d="M180.99,194.32c-8.17,11.87-21.99,17.66-36.36,16.85-6.29-.35-16.51-5.15-21.11-4.93-3.75.18-19.42,8.52-27.14,8.99-6.67.41-13.2-1.54-9.73-9.67,2.59-6.09,27.91-7.46,28.36-9.76-1.5-14.93-27.93-4.56-30.02-15.05-2.69-13.49,17.18-5.03,20.88-7.55.75-.51,1.7-14.63,2.63-17.87,9.27-32.46,50.69-43.04,71.33-15.33,3.33,4.48,7.47,16.69,8.23,17.26.98.74,20.06-2.1,24.47-1.96,5.06.16,14.97,5.01,18.39,1.44,8.46-27.25,32.15-39.7,59.2-28,7.88,3.41,21.88,20.46,21.88,29.09v19.5h14.5c8.35,0,8.13,11.05,3.23,12.7-4.68,1.58-12.95-.65-18.75.81-3.24.81-11.02,9.11-14.06,10.92-16.48,9.82-29.41,10.15-46.92,2.58-4.71-3.8-10.71-7.54-13.87-12.87-8.04-13.56-.23-20.7-19.76-22.99-4.79-.56-23.05-.28-26.14,3.09-.83.91-5.35,17.15-9.22,22.78ZM138.99,196.32c19.57,5.93,38.51-8.85,38.05-29.51-.92-41.52-65.36-37.22-57.05,8.51,1.8,9.9,9.37,18.08,19,21ZM296.99,180.32c10.33-23.81-8.08-47.03-33.67-41.17-35.77,8.19-23.13,71.03,18.67,55.17,7.33-2.78,11.79-6.61,15-14Z"/>
      <path class="cls-5" d="M203.37,180.93c15.01,5.59,12.45-6.84,21.13-2.72,20.77,9.87-32.04,33.32-33.46,6.49-.73-13.88,9.11-4.97,12.33-3.77Z"/>
      <path class="cls-5" d="M324.69,207.64c1.59,1.16,3.4,4.63,3.14,6.96-1.25,11.48-31.72-2.07-36.83-5.29,4.18-11.21,27.62-6.09,33.69-1.67Z"/>
      <path class="cls-4" d="M281.99,194.32c-41.8,15.85-54.44-46.98-18.67-55.17,25.59-5.86,44,17.36,33.67,41.17-13.43-6.23-28.84,5.88-15,14ZM265.71,155.55c-10.64,2.73-11.55,31.31,4.64,29.72,13.97-1.37,13.57-34.39-4.64-29.72Z"/>
      <path class="cls-4" d="M138.99,196.32c1.63-12.97-4.69-21.96-19-21-8.32-45.73,56.12-50.03,57.05-8.51.46,20.66-18.48,35.45-38.05,29.51ZM156.65,155.7c-24.22-12.15-22.02,39.99-1.26,29.53,6.67-3.36,8.74-25.77,1.26-29.53Z"/>
      <path class="cls-1" d="M119.99,175.32c14.31-.96,20.63,8.03,19,21-9.63-2.92-17.2-11.1-19-21Z"/>
      <path class="cls-1" d="M296.99,180.32c-3.21,7.39-7.67,11.22-15,14-13.84-8.12,1.57-20.23,15-14Z"/>
      <path class="cls-5" d="M265.71,155.55c18.21-4.66,18.61,28.35,4.64,29.72-16.2,1.59-15.28-27-4.64-29.72Z"/>
      <path class="cls-5" d="M156.65,155.7c7.49,3.75,5.41,26.17-1.26,29.53-20.77,10.46-22.96-41.68,1.26-29.53Z"/>
    </g>
  </g>
  <g>
  </g>
</svg>