<?xml version="1.0" encoding="UTF-8"?><svg id="a" xmlns="http://www.w3.org/2000/svg" viewBox="0 0 909.44 909.44"><defs><style>.b{fill:#fed68b;}.c{fill:#8bbefe;}.d{fill:#020303;}.e{fill:#fea882;}</style></defs><path class="c" d="M351.48,441.88l301.77,298.82c1.43,3.83-28.44,46-35.03,50l-314.06-313.99c4.45-12.11,35.56-27.42,47.32-34.83Z"/><path class="c" d="M599.71,809.7c-16,11.44-31.93,24.11-50.45,31.05-2.5.77-295.21-295.27-297.07-296.01,7.41-18.23,19.35-34.25,31.51-49.55l316.02,314.51Z"/><path class="c" d="M623.35,494.79c14.12,12.99,25.74,33.53,33.23,51.22l-81.23,80.64-41.56-42.29,89.56-89.57Z"/><path class="c" d="M556.36,441.89c18.04,8.78,34.95,20.4,49.34,34.33l-90.48,90.48-41.43-42.34,82.57-82.47Z"/><path class="c" d="M530.72,430.73l-75.5,75.97-75.48-75.48c47.85-19.04,102.59-16.62,150.98-.49Z"/><path class="c" d="M334.36,663.8l42.34,41.43-86.34,85.43c-4.46-.78-35.24-44.25-34.48-48.28l78.48-78.57Z"/><path class="c" d="M394.36,723.8l42.29,42.29c-9.74,7.47-71.83,76.26-77.18,75.5-12.24-5.33-43-22.96-49.67-33.22l84.57-84.56Z"/><path class="c" d="M241.73,570.72l74.97,74.5-71.48,71.48c-18.81-45.95-18.59-98.97-3.49-145.98Z"/><path class="c" d="M667.71,572.72c13.88,46.54,13.53,97.35-3.49,142.99l-70.49-70.49,73.97-72.5Z"/><path class="c" d="M521.72,851.71c-43.74,12.9-90.29,13.51-134,0l67.5-67.97,66.5,67.97Z"/><path class="b" d="M674.72,483.72c3.12,3.09,5.75,5.91,9,9,.08,1.97,1.26,3.24,3,4,8.38,22.64,9.23,25.76,2,49,.42.88-1.6,3.3-2,4v1c-11.06-28.27-27.67-54.06-47.98-76.5-.11-3.21,13.7-.12,15.61.37,8.01,2.05,12.96,6.49,20.37,9.13Z"/><path class="b" d="M235.72,482.72c9.41-4.79,19.21-9.61,30.47-10.03.91-.03,4.45-.67,3.52,1.52-19.31,21.5-36.42,47.4-46.01,74.51-.26.22-2.16-.13-2.98,0-6.94-18.65-6.38-37.76,4-55.01,4.32-4.7,6.71-5.19,11-11Z"/><path class="b" d="M213.24,56.64c21.73,4.18,42.61,15.48,63,24,9.74,7.23,20.33,13.28,30.32,20.18,9.37,5.58,21.46,21.92,31.74,18.39,7.25-1.56,18.39-7.12,26.43-9.59,12.4-3.54,24.99-6.74,37.52-8.98,23.13-2.35,43.86-5.17,67.49-3.99,11.98.57,24.86,4.05,36.51,3.99,12.26,3,26.09,5.92,38.77,9.73,8.57,1.83,25.85,13.08,32.23,7.27,5.63-.24,3.32-2.29,6-5,4.25.51,3.76-2.02,5-4,5.03-2.37,10.73-4.99,14-10,2.14-.96,6.67-1.52,6-4,14.51-10.05,109.58-60.13,115-31,.24,1.61-.78,4.08,1,5-.48,38.29,1.16,71.99-10,109,.43,10.34-18.81,31.34-9,39,1.76,10.13,10.65,22.22,13,33-.41,5.31,2.71,10.87,3,16,10.66,75.07-19.01,138.58-85.7,175.81-3.66,2.18-17.52,10.71-20.6,10.2-90.98-77.1-230.14-76.77-322.45-.15-8.64-1.8-14.98-7.07-23.25-10.86-1.92-3.47-1.43-1.31-4.21-3.3-2.3-1.64-2.92-3.76-6.79-3.7-2.75-3.15-3.72-4.11-8-6-.85-1.18-.07-3.07-4-3-2.39-1.39-.26-4.72-5-4-1.46-1.76-2.91-2.75-4-4-1.62-1.86-2.55-5.75-7-6l-2-2c-.23-5.52-4.51-5.09-7-8-.67-4.86-2.3-2.57-4-5-.86-3.41-3.97-5.84-5.87-8.65s.6-3.02-3.13-4.35c-8.86-14.66-15.15-31.83-20-48-6.23-45.47-2.11-82.26,17.97-124.44-9.56-19.17-15.19-40.04-19.97-60.56-.26-10.84-3.49-21.61-3.99-32.51.06-19.59-3.16-44.26,6.99-61.49,8.19-3.12,16.26.45,24,1ZM273.89,112c-10.13-9.15-30.48-20.48-43.4-25.1-20.54-7.35-24.73-6.93-26.29,16.21-1.25,14.95,1.86,79.19,16.54,84.47,4.16,0,23.85-22.18,28.49-26.44,11.3-10.38,23.58-19.77,35.06-29.93,4.9-6.81-6.34-14.35-10.41-19.2ZM690,82.91c-14.98,2.02-70.95,30.19-69.25,47.71,1.64,3.82,24.38,19.19,29.51,23.51,10.69,9.02,19.26,20.41,28.94,29.06,7.65,6.83,12.49,2.45,15.34-5.75,4.08-12.16,21.83-103.04-4.54-94.53ZM261.24,328.64c7.18-6.19,4.24-12.99-2.22-18.24-3.49-1.37-33.28-1.39-38.2-.67-15.49,2.28-13.98,21.83,2.02,23.8,9.45-.26,31.15,2.66,38.39-4.89ZM695.87,328.28c4.18-7.18,1.15-16.82-7.37-18.4-5.91-1.1-32.62-1.12-38.7-.17-12.05,1.89-11.59,20.88,1,22.87,11.4.43,36.95,5.29,45.06-4.29ZM235.24,369.64c-9.77,7.26-.1,19.99,10.26,16.75,4.7-.74,29.45-9.98,31.76-13.23,5.27-7.44.58-16.67-8.46-16.56-5.55.07-29.35,9.32-33.56,13.04ZM634.24,358.64c-18.58,17.47,26.62,27.74,37.29,27.78,8.63-1.98,8.93-14.28,1.24-18.82-3.15-1.86-26.65-10.18-30.28-10.73-4.49-.67-4.81-.41-8.25,1.76Z"/><path class="e" d="M690.48,81.99c26.5-8,8.58,81.94,4.54,94.53-2.86,8.21-7.7,12.59-15.34,5.76-9.68-8.65-18.25-20.04-28.94-29.06-5.12-4.32-27.87-19.69-29.51-23.51-1.73-17.51,54.22-45.66,69.25-47.71Z"/><path class="e" d="M274.36,111.08c4.05,4.86,15.31,12.37,10.4,19.2-11.49,10.17-23.76,19.55-35.06,29.93-4.64,4.26-24.33,26.44-28.49,26.44-5.86,0-8.11-11.93-9.42-16.51-5.63-19.62-8.49-47.61-7.12-67.96,1.56-23.14,5.75-23.56,26.29-16.21,12.91,4.62,33.27,15.95,43.4,25.1Z"/><path class="d" d="M730.95,210.06c16.13-39.89,25.07-93.07,19.65-136.71-10.45-100.17-137.13-13.99-181.4,16.39-72.96-28.08-156.41-29-228.99.68-48.99-34.03-179.82-121.47-183.53-7.24-2.47,42.58,4.46,87.93,20.79,127.22-39.42,84.76-13.46,189.22,64.25,241.83-48.5,17.13-69.23,84.32-29,120.5.09-.13,1.81.22,2.8-1.67,0,0,0,0,0,0-57.33,186.48,127.97,367.36,316.72,303.69,129.56-38.67,195.89-183.89,161.17-305.65.52,1.6.97,3.16,1.31,4.64,42.04-37.42,21.47-102.6-27.99-121.49,77.43-51.14,105.95-159.59,64.22-242.17ZM721.56,334.91c-.02.21-.08.56-.17.98.13-.98.1-1.87-.13-2.47.2.34.37.82.3,1.5ZM721.54,156.89c-.02.25-.07.61-.13,1.03.08-1.14,0-2.13-.31-2.73.25.34.51.87.44,1.7ZM720.95,252.56c-.57-1.13-1.25-1.89-1.97-1.88.79-.09,1.44.69,1.97,1.88ZM722.68,260.41c.05.79-.23,1.36-.5,1.74.32-.64.43-1.65.4-2.82.05.44.09.82.11,1.08ZM725.81,297.16c.14-11.34-.35-22.6-1.56-28.47,1.22,5.85,1.71,17.11,1.56,28.47ZM724.18,268.37c-.03-.14-.06-.29-.09-.43.03.14.06.28.09.43ZM725.44,64.79s-.03-.02-.05-.02c.02,0,.03.01.05.02ZM725.14,64.71c-.06,0-.1-.02-.17-.03.06,0,.11.02.17.03ZM724.72,60.73c.02.05.03.1.04.15-.14-.1-.38-.16-.75-.18.33-.04.62-.05.71.04ZM400.12,99.81c-1.6.11-5.69-.08-8.77.31,2.72-.38,6.33-.32,8.77-.31ZM354.92,110.49c-6.76,2.79-13.41,5.58-19.56,6.98,6.24-1.49,12.85-4.24,19.56-6.98ZM314.24,102.39c-9.22-6.87-18.57-13.64-28.62-18.72,10.09,4.85,19.41,11.76,28.62,18.72ZM217.73,55.18c-.03-.23-.08-.39-.16-.49.05.01.09.02.14.04.01.16.01.31.01.45ZM213.73,54.25c-.06-.16-.16-.28-.27-.37.12.09.21.22.27.37ZM210.58,53.4c-1.43-.2-4.48-.86-7.81-1.35,3.03.4,5.9.96,7.81,1.35ZM190.39,52.7c.3-.17.64-.32,1.01-.44-.98.48-1.59,1.21-1.66,2.27-.05-.4-.38-1.23.65-1.83ZM184.82,146.42c-.41-.62-.03-1.85-.25-3-1.96-11.18-3.48-23.58-4.03-36.11.55,12.53,2.06,24.94,4.03,36.11.22,1.16-.16,2.39.25,3ZM203.6,205.64c.16.52.3,1.04.41,1.57-.12-.53-.25-1.05-.41-1.57ZM196.97,190.97s-.01-.04-.02-.06c0,.02.01.04.02.06,1.96,5.37,4.85,9.53,6.37,13.9-1.53-4.37-4.42-8.53-6.37-13.9ZM189.28,163.13c.8,5.36,2,10.39,3.53,15.49-1.57-5.12-2.83-10.17-3.53-15.49ZM193.25,180.03c.03.1.06.2.09.3-.03-.1-.06-.2-.09-.3ZM196.39,231.26c-1.79,4-3.25,7.91-4.59,13.48,1.09-5.25,2.67-9.32,4.59-13.48ZM185.99,150.07c-.13.58-.18,1.27-.15,2-.04-.39-.06-.75-.07-1.04.07-.38.14-.69.22-.96ZM186.47,58.71c-.07-.01-.16-.02-.25-.03.09,0,.18.02.25.03ZM180.5,106.31c0,.12,0,.24.01.36,0-.12,0-.24-.01-.36ZM205.66,377.51s-.01-.02-.02-.03c0,.01.01.02.02.03.97,1.51.56,2.21.72,2.78-.16-.57.24-1.27-.72-2.78ZM191.74,347c1.42,6.1,3.62,11.81,6.37,17.35-2.81-5.56-5.09-11.28-6.37-17.35ZM206.46,380.47c.07.12.18.24.35.37-.17-.13-.28-.25-.35-.37ZM219.29,398.73s.08.06.12.09c-.04-.03-.08-.05-.12-.09ZM237.72,415.72c-1.62-1.86-2.55-5.75-7-6l-2-2c-.22-4.79-3.43-5.16-6-7-.81-1.41-2.31-1.26-3.25-1.86.66.39,1.57.41,2.25.86-.57-4.02-1.57-3.04-3-4-1.12-.97-2.09-1.9-2.97-2.84.59.6,1.24,1.21,1.97,1.84-.86-3.41-3.97-5.84-5.87-8.65-1.95-2.88.6-3.02-3.13-4.35,1.01,2.01,1.84,3.72,2.7,5.27-.91-1.57-1.76-3.28-2.7-5.27-7.3-12.03-12.62-26.11-17.75-39.36-.1-.87-.19-1.75-.25-2.64-.17-1.81-.79-4.58-2-6,.04.52-.96,3.3-.36,4.9-.88-1.86.94-5.56.36-6.9-3.63-33.55-4.36-46.38,2-80,.11-1.02.23-1.99.37-2.93l15.6-39.51c-7.81-15.98-13.05-32.9-17.81-50-.07-.85-.12-1.7-.16-2.57-.72.37-1.28.09-1.71-.51.45.58,1.03.83,1.71.51-.15-2.4-.64-5.99-2-8-.16.09-.29.26-.4.46.35-.74.62-1,.4-2.46-4.5-28.7-7.35-59.53,0-88,.96-1.35,1.98-2.7,3-4,8.19-3.12,16.26.45,24,1,2.08.49,2.41-.69,3.18-1-.3.19-.69.53-1.18,1l2,1c0-.06,0-.11,0-.16.13.28.6.27,1.99.16,0,0,0,0,0,0,0,0,0,0,0,0,19.18,6.38,38.05,13.7,56,23-.07-.5-.59-1.13-1.46-1.85.88.73,1.39,1.35,1.46,1.85.62.19,1.24.4,1.85.61,9.51,6.96,19.77,12.87,29.46,19.57,4.96,3.43,20.67,17.13,24.14,18.34,11.07,2.17,22.86-6.6,34.03-9.54,6.78-2.08,13.95-3.24,20.52-5.98-1.95-.18-3.96-.15-6,.06,2.71-.32,5.39-.37,8-.06,4.07-.49,8.95-1.34,12.77-2.91,1.11,0,1.93-.01,2.23-.09,33.89-4.82,68.06-5.51,102,0,1.59.5,2.49-.53,3.86-.95-.88.35-1.62.94-1.86.95.69,1.43,2.69,1.06,4,1,4.1-.16,8.37.3,12.65,1.1-3.53-.6-7.08-1-10.65-1.1,10.81,3.29,21.93,5.49,32.77,8.74,7.17,1.5,25.13,11.9,30.23,8.26-.72-.18-1.44-.38-2.16-.57.72.19,1.44.4,2.16.57.93-.21,1.36-.7,2-1,2.88-.11,4.5-.82,5-4,.49-.57.81-1.04,1.03-1.45-.02.14-.03.29-.03.45,4.25.51,3.76-2.02,5-4,5.03-2.37,10.73-4.99,14-10,2.14-.96,6.67-1.52,6-4-1.28.69-2.12.83-2.84,1.07,1.89-.96,3.87-1.14,5.84-3.07.06-.04.12-.08.17-.13-.06.04-.11.08-.17.13,22.25-13.62,46.61-24.15,71.21-33,1.6-.36,3.2-.69,4.79-1,10.27-2.08,25.95-8.35,34,0,.25.26.29,2.25,1,3l1,2c.49-.51.85-.91,1.03-1.21-.27.73-1.45.94-1.03,3.21-.08,1.08-.2,2.52,1,3,.03-.33.46-.89.78-1.45-.45.99-1.2,2.29-.78,3.45-.08,31.28-.07,51.59-4,83-.08.65.07,1.35,0,2-1.59,3.01-2.57,7.65-3,11,.63.33,1.31-.28,1.91-1.36-.56,1.14-1.21,1.82-1.91,1.36-.08.65.09,1.35,0,2-1.32,2.49-2.55,6.24-3,9,.65.24,1.3-.17,1.87-.94-.55.84-1.18,1.31-1.87.94.23,1.78.19,3.51-.05,5.2.11-1.05.13-2.12.05-3.2-1.44,9.19-17.8,29.77-9.29,36.75.08.41.18.83.29,1.25,2.54,9.37,10.2,21.15,12.83,31.35.18,1.2.25,2.12.17,2.65.55,3.74,1.56,8.5,3,12,.06.66-.06,1.34,0,2,2.59,26.61,2.42,39.5-1,66,.95.63,1.78-.66,2.48-3.25-.7,2.63-1.53,3.92-2.48,3.25-.08.65.08,1.35,0,2-1.27,2.45-2.62,6.31-3,9,.64.24,1.28-.16,1.85-.91-.55.83-1.18,1.29-1.85.91-.25,1.52-.54,3.04-.86,4.54-16.13,47.21-55.72,86.26-101.43,104.47-91-77.09-230.11-76.77-322.45-.15-8.63-1.79-14.99-7.07-23.25-10.86.03,1.26,1.3,2.53,3.2,3.77-1.9-1.24-3.17-2.51-3.2-3.77-2-.79-3.4-1.32-4.51-1.81,1.02.4,2.38.89,4.51,1.81-1.92-3.47-1.43-1.31-4.21-3.3-2.3-1.64-2.92-3.76-6.79-3.7,1.25,1.31,2.12,2.21,2.82,2.88-.98-.87-2.09-2.05-3.82-3.88-2.27-3.01-3.21-3.06-7-5-.86-1.18-.07-3.07-4-3-.25-.37-.76-.64-1-1-.92-1.39-.07-3.68-4-3-1.46-1.76-2.91-2.75-4-4ZM225.71,57.44c7.35,1.83,19.81,6.35,30.46,10.95-10.65-4.6-23.12-9.11-30.46-10.95ZM256.54,68.55c.11.05.21.09.31.14-.1-.05-.21-.09-.31-.14ZM273.81,77.51c.16.12.3.24.44.35-.14-.11-.28-.23-.44-.35ZM387.59,102.35s0,.01,0,.02c0,0,0-.01,0-.02ZM561.81,113.49c-6.57-2.24-13.17-4.69-19.81-6.85,6.69,2.03,13.22,4.55,19.81,6.85ZM587.81,107.94c-1.26.32-2.56.76-3.35,1.68.33-.65.94-1.07,3.35-1.68ZM674.08,60.98c-12.21,3.72-24.51,8.46-36.14,14.36,11.6-6.01,23.88-10.9,36.14-14.36ZM724.65,64.67c-.07,0-.13,0-.21,0,.08,0,.14,0,.21,0ZM709.85,195.42c-2.36,5.01-4.67,10.06-4.81,15.55-.06-5.51,2.36-10.55,4.81-15.55ZM718.56,169.91c-.02.21-.08.54-.17.93.12-.98.09-1.87-.15-2.46.21.34.39.83.32,1.53ZM717.43,242.78c-1.5-5.72-4.1-14.01-6.7-19.7,2.59,5.54,5.19,13.61,6.7,19.7ZM725.81,297.74c0,.08,0,.16,0,.25,0-.08,0-.16,0-.25ZM723.39,326.72c-.04.16-.08.31-.12.47.04-.15.08-.31.12-.47ZM556.36,441.89c18.04,8.78,34.95,20.4,49.34,34.33l-90.48,90.48-41.43-42.34,82.57-82.47ZM455.22,506.7l-75.48-75.48c47.85-19.04,102.59-16.62,150.98-.49l-75.5,75.97ZM623.35,494.79c14.11,12.99,25.74,33.54,33.23,51.22l-81.23,80.64-41.56-42.29,89.56-89.57ZM623.63,459.04c3.43,2.99,7.04,5.9,9.7,9.24-2.66-3.34-6.27-6.25-9.7-9.24ZM617.73,453.22c.8-.39,1.6-.79,2.4-1.19-.8.4-1.6.8-2.4,1.19ZM263.82,470.77c-.34-.01-.68-.02-1.02-.03.33,0,.67.02,1.02.03ZM288.67,455.45s-.06.06-.09.08c.03-.03.06-.06.09-.08ZM279.27,446.82c3.4,1.57,6.94,3.04,9.16,4.36-2.23-1.31-5.76-2.79-9.16-4.36ZM266.95,470.88c-.35,0-.71-.02-1.06-.03.36.01.71.02,1.06.03ZM215.02,534.93c2.03,5.58,3.57,9.18,4.61,11.79-1.74-4.06-4.06-9.22-4.61-11.79ZM221.22,553.9c-.25,2.11-1.26,4.63-3.01,9.46,1.16-3.5,2.39-7.31,3.01-9.46ZM220.73,548.73c-6.94-18.69-6.38-37.73,3.99-55.01.24-.3,1.54-1.55,2-2,4.1-3.95,4.96-3.62,9-9,9.41-4.79,19.21-9.61,30.47-10.03.91-.03,4.45-.67,3.52,1.52-19.32,21.52-36.41,47.39-46.01,74.51-.26.22-2.16-.13-2.98,0ZM241.73,570.72l74.97,74.5-71.48,71.48c-18.81-45.95-18.59-98.97-3.49-145.98ZM255.88,742.37l78.48-78.57,42.34,41.43-86.34,85.43c-4.46-.78-35.24-44.25-34.48-48.28ZM359.47,841.58c-12.31-5.38-42.9-22.91-49.67-33.22l84.57-84.56,42.29,42.29c-9.74,7.47-71.83,76.26-77.18,75.5ZM387.72,851.71l67.5-67.97,66.5,67.97c-43.74,12.9-90.29,13.51-134,0ZM549.26,840.75c-3.06.2-294.59-294.64-297.07-296.01,7.41-18.23,19.35-34.25,31.51-49.55l316.02,314.51c-16,11.44-31.93,24.11-50.45,31.05ZM618.22,790.7s-314.06-313.99-314.06-313.99c4.45-12.09,35.58-27.46,47.32-34.83l301.77,298.82c1.43,3.83-28.44,46-35.03,50ZM664.23,715.72l-70.49-70.49,73.97-72.5c13.88,46.54,13.53,97.35-3.49,142.99ZM686.96,549.75c.45.06.8.08,1.06.06-.26.05-.61.03-1.05-.05,0,0,0,0,0,0ZM688.67,547.19c.07.76.22,1.48.09,1.98.05-.47-.14-1.16-.09-1.98ZM688.05,549.81s.07-.01.1-.02c-.03,0-.07.01-.1.02ZM675.72,484.72c1.85,1.83,3.52,3.63,5.41,5.44.18.2.37.39.59.56.94,1.31,1.82,1.78,2.57,2.05-.18-.02-.36-.04-.57-.05.08,1.97,1.26,3.24,3,4,.04-1.61-.08-2.76-.91-3.41.69.44,1.06,1.39.91,4.41,9.32,22.35,8.64,24.99,2,48-.09.36-.1.74-.08,1.12l-1.78,2.66c-10.48-27.21-26.37-52.83-48.12-75.28-.11-3.21,13.7-.12,15.61.37,8.01,2.05,12.96,6.49,20.37,9.13-1.81-1.83-3.52-3.38-5.15-4.71,1.93,1.57,3.96,3.44,6.15,5.71ZM634.92,470.23c5.23.42,9.57.54,13.45.83-3.9-.28-8.24-.37-13.45-.83ZM667,477.07c-.21-.14-.41-.28-.61-.42.2.14.41.27.61.42ZM669.54,478.98c-.35-.29-.7-.56-1.04-.82.35.26.69.54,1.04.82ZM668.26,477.98c-.28-.21-.55-.41-.83-.61.27.2.55.4.83.61ZM664.38,475.39c.05.03.1.06.16.09-.05-.03-.1-.06-.16-.09ZM665.38,475.99c.13.08.26.16.39.25-.13-.08-.26-.16-.39-.25ZM666.38,421.92c19.53-16.38,36.11-36.34,45.44-59.14-9.04,22.79-25.8,42.76-45.44,59.14ZM664.4,423.55c.11-.09.23-.18.34-.28-.11.09-.23.19-.34.28Z"/><path class="d" d="M651.29,331.66c11.38.43,36.99,5.28,45.06-4.29,4.18-7.18,1.15-16.82-7.37-18.4-5.91-1.1-32.62-1.12-38.7-.17-12.05,1.89-11.59,20.88,1,22.87Z"/><path class="d" d="M261.72,327.72c.66-.97,1.16-2.13,1.51-3.39-.14.78-.3,1.57-.51,2.39,4.6-5.53,4.39-8.53,0-14,.21.81.37,1.59.51,2.37-.35-1.25-.85-2.4-1.51-3.37-3.16-5.82-33.89-2.77-40.41-2.91-15.49,2.28-13.98,21.83,2.02,23.8,9.39-.25,31.2,2.65,38.39-4.89Z"/><path class="d" d="M672.01,385.5c8.63-1.97,8.93-14.28,1.24-18.82-3.15-1.86-26.65-10.18-30.28-10.73-4.49-.67-4.81-.41-8.25,1.76-.32.2-.71.68-1,1-15.78,17.28,28.09,26.61,38.29,26.78Z"/><path class="d" d="M277.74,372.24c5.27-7.44.58-16.67-8.46-16.56-5.55.07-29.35,9.32-33.56,13.04-.82.72-1.31.9-2,2-3.24,5.21-3.11,7.54,1,12,.29.32.68.8,1,1,10.33,1.97,30.99-6.76,40.16-10.93-9.09,4.16-29.9,12.93-40.16,10.93,8.18,6.84,35.55-7.03,42.02-11.48ZM276.51,372.29c1.11-1.24,1.56-3.8,1.31-6.41.24,2.61-.21,5.17-1.31,6.41ZM277.45,363.66c-.18-.72-.42-1.42-.71-2.06.3.64.53,1.34.71,2.06Z"/><path class="d" d="M426.24,331.88c9.99,13.82,40.44,17.1,53.09,5.68,12.56-11.03,4.43-27.61-9.14-33.16-7.19-3.13-15.66-3.86-23.37-2.29-15.33,3.03-29.9,15.31-20.68,29.65l.09.13ZM480.72,312.39c.03.05.06.1.09.15-.03-.05-.06-.1-.09-.15Z"/><circle class="d" cx="338.41" cy="298.37" r="34.24"/><circle class="d" cx="570.82" cy="298.37" r="34.24"/></svg>